<svg id="Layer_1" fill="#fff" enable-background="new 0 0 512 512" viewBox="0 0 512 512" xmlns="http://www.w3.org/2000/svg"><path d="m495.999 276.664h-203.335c-8.836 0-16 7.163-16 16v203.335c0 8.837 7.164 16 16 16h203.334c8.836 0 16-7.163 16-16v-203.335c.001-8.837-7.163-16-15.999-16zm-16 203.335h-171.335v-171.335h171.334v171.335zm-479.998 16c0 8.837 7.164 16 16 16h203.334c8.836 0 16-7.163 16-16v-203.335c0-8.837-7.164-16-16-16h-203.334c-8.836 0-16 7.163-16 16v203.335zm32-187.335h171.334v171.335h-171.334zm463.998-308.663h-203.335c-8.836 0-16 7.163-16 16v203.335c0 8.837 7.164 16 16 16h203.334c8.836 0 16-7.163 16-16v-203.335c.001-8.837-7.163-16-15.999-16zm-16 203.335h-171.335v-171.335h171.334v171.335zm-463.998 32h203.334c8.836 0 16-7.163 16-16v-203.335c0-8.837-7.164-16-16-16h-203.334c-8.836 0-16 7.163-16 16v203.335c0 8.837 7.164 16 16 16zm16-203.335h171.334v171.335h-171.334z"></path></svg>