<?xml version="1.0" encoding="UTF-8"?>
<svg id="Camada_2" data-name="Camada 2" xmlns="http://www.w3.org/2000/svg" viewBox="0 0 1033.65 1071.27">
  <defs>
    <style>
      .cls-1 {
        fill: #d7e2e0;
      }

      .cls-2 {
        fill: #c9d0cd;
      }

      .cls-3 {
        fill: #ed622f;
      }

      .cls-4 {
        fill: #952441;
      }

      .cls-5 {
        fill: #b82347;
      }

      .cls-6 {
        fill: #afa3a8;
      }

      .cls-7 {
        fill: #fe7144;
      }

      .cls-8 {
        fill: #f4fafb;
      }

      .cls-9 {
        fill: #fd7045;
      }

      .cls-10 {
        fill: #cf4166;
      }

      .cls-11 {
        fill: #fdfefe;
      }

      .cls-12 {
        fill: #d6dddd;
      }

      .cls-13 {
        fill: #ec6841;
      }

      .cls-14 {
        fill: #f1f7f7;
      }

      .cls-15 {
        fill: #fd7447;
      }

      .cls-16 {
        fill: #b6b9b8;
      }

      .cls-17 {
        fill: #f1f9f9;
      }

      .cls-18 {
        fill: #d1dada;
      }

      .cls-19 {
        fill: #dd3c63;
      }

      .cls-20 {
        fill: #e2eceb;
      }

      .cls-21 {
        fill: #fd6f44;
      }

      .cls-22 {
        fill: #c5cbcc;
      }

      .cls-23 {
        fill: #edf5f5;
      }

      .cls-24 {
        fill: #f65b5e;
      }

      .cls-25 {
        fill: #9f1337;
      }

      .cls-26 {
        fill: #dfe2e2;
      }

      .cls-27 {
        fill: #bd3e5e;
      }

      .cls-28 {
        fill: #f25268;
      }

      .cls-29 {
        fill: #c4cac8;
      }

      .cls-30 {
        fill: #a8353e;
      }

      .cls-31 {
        fill: #f96157;
      }

      .cls-32 {
        fill: #a01d3f;
      }

      .cls-33 {
        fill: #dce3e3;
      }

      .cls-34 {
        fill: #7f233b;
      }

      .cls-35 {
        fill: #f14f6c;
      }

      .cls-36 {
        fill: #6f091f;
      }

      .cls-37 {
        fill: #ae223b;
      }

      .cls-38 {
        fill: #f86058;
      }

      .cls-39 {
        fill: #d1d8d7;
      }

      .cls-40 {
        fill: #77203b;
      }

      .cls-41 {
        fill: #c9523f;
      }

      .cls-42 {
        fill: #fcfefe;
      }

      .cls-43 {
        fill: #f4cbbe;
      }

      .cls-44 {
        fill: #d0d5d5;
      }

      .cls-45 {
        fill: #dedfde;
      }

      .cls-46 {
        fill: #d75f40;
      }

      .cls-47 {
        fill: #fd6e49;
      }

      .cls-48 {
        fill: #fe7046;
      }

      .cls-49 {
        fill: #f45565;
      }

      .cls-50 {
        fill: #e4426b;
      }

      .cls-51 {
        fill: #ad3856;
      }

      .cls-52 {
        fill: #fa6354;
      }

      .cls-53 {
        fill: #621d2f;
      }

      .cls-54 {
        fill: #fb684f;
      }

      .cls-55 {
        fill: #f3652e;
      }

      .cls-56 {
        fill: #e2e8e6;
      }

      .cls-57 {
        fill: #ea6554;
      }

      .cls-58 {
        fill: #e7eceb;
      }

      .cls-59 {
        fill: #c55e50;
      }

      .cls-60 {
        fill: #d35742;
      }

      .cls-61 {
        fill: #fa6453;
      }

      .cls-62 {
        fill: #ea5b25;
      }

      .cls-63 {
        fill: #df4770;
      }

      .cls-64 {
        fill: #fc6c4a;
      }

      .cls-65 {
        fill: #eaf3f3;
      }

      .cls-66 {
        fill: #971332;
      }

      .cls-67 {
        fill: #fd825d;
      }

      .cls-68 {
        fill: #f74d7a;
      }

      .cls-69 {
        fill: #f55861;
      }

      .cls-70 {
        fill: #f2506a;
      }

      .cls-71 {
        fill: #fb6750;
      }

      .cls-72 {
        fill: #ef642d;
      }

      .cls-73 {
        fill: #ef4873;
      }

      .cls-74 {
        fill: #f04a71;
      }

      .cls-75 {
        fill: #fb702a;
      }

      .cls-76 {
        fill: #ec6840;
      }

      .cls-77 {
        fill: #fa517f;
      }

      .cls-78 {
        fill: #c3c9c8;
      }

      .cls-79 {
        fill: #863555;
      }

      .cls-80 {
        fill: #f65d5c;
      }
    </style>
  </defs>
  <g id="Camada_1-2" data-name="Camada 1">
    <g>
      <path class="cls-67" d="M1033.65,885.83c-.29-.03-.59-.06-.88-.09-1.63-1.79-1.31-4.03-1.35-6.15q-.14-7.91-8.19-7.91c-8.48,0-16.97,0-25.45,0-40.41,0-80.82,0-121.23,0-1.44,0-2.88,.05-4.31,0-2.8-.07-4.78,.7-4.83,4-.02,1.28-.27,2.6-1.43,3.47-1.42-2.56-.7-5.33-.72-8.02,0-1.03,.76-1.48,1.74-1.51,1.29-.03,2.59-.03,3.89-.03,52.68,0,105.36,0,158.04,0,1.58,0,3.16-.1,4.74-.16v16.4Z"/>
      <path class="cls-67" d="M1033.65,1070.59c-.29-.02-.58-.04-.88-.06-2.14-5.46-2.13-10.91,.02-16.36,.29,0,.57,.02,.86,.02v16.4Z"/>
      <path class="cls-21" d="M152.42,506.9c-10.93,2.85-21.86,5.7-32.66,8.52-.92-1.41,.06-1.91,.56-2.45,8.44-9.22,15.61-19.48,23.97-28.76,.66-.74,1.13-1.65,1.69-2.49,1.78-4.72,5.46-8.06,8.63-11.76,2.06-1.71,4.12-3.42,5.36-5.89,1.56-2.65,3.61-4.95,5.16-7.61,16.96-20.1,33.34-40.69,50.41-60.69,8.11-9.5,15.91-19.29,24.49-28.4,2.75-2.92,5.75-4.97,9.76-5.88,40.98-9.25,81.98-18.4,123.01-27.42,24.31-5.34,48.57-10.9,72.86-16.28,1.53-.34,3.04-.97,4.66-.5,1.67,1.36,.55,2.58-.3,3.69-1.23,1.62-2.82,2.86-4.49,4.01-19.53,13.57-37.6,28.86-55.05,45.04-15.08,13.98-29.48,28.68-44.8,42.4-6.43,5.76-13.73,10.44-20.13,16.28-3.61,3.29-7.4,6.44-10.86,9.84-9.25,9.07-19.35,17.17-28.81,26-1.37,1.28-2.98,2.49-3.57,4.27-1.37,4.12-4.62,5.53-8.37,6.6-10.38,2.95-20.91,5.35-31.3,8.27-2.76,.77-5.63,1.31-7.75,3.52-.71,.51-1.52,.83-2.35,1.03-18.49,4.56-36.89,9.49-55.46,13.74-.45,.07-.9,.16-1.33,.3-.44,.14-.88,.25-1.33,.35-5.7,1.31-11.34,2.84-17.03,4.17-1.63,.38-3.29,1.12-4.97,.1Z"/>
      <path class="cls-74" d="M258.06,109.64c5.41-6,11.65-11.1,17.8-16.27,32.6-27.45,68.59-49.31,108.2-65.13,27.19-10.86,55.22-18.64,84.15-23.2C491.72,1.33,515.36-.47,539.13,.1c55.04,1.32,107.65,13.27,157.63,36.47,25.53,11.85,49.53,26.25,71.99,43.22,1.24,.94,2.33,2.19,4.01,2.42,3.42,1.3,5.72,4.11,8.51,6.27,4.95,3.83,9.5,8.14,14.32,12.12,1.02,.84,1.84,1.76,2.24,3.03,3.21,3.97,7.26,7.11,10.74,10.82,2.22,2.37,4.75,4.44,6.65,7.1-.79,3.5-3.81,3.03-6.15,3.09-7.55,.2-15.11,.31-22.65-.05-3.23-.29-5.42-2.35-7.62-4.46-10.18-9.75-21.28-18.38-32.8-26.48-38.69-27.84-81.36-47.04-127.55-58.49-18.88-4.68-38.03-7.83-57.47-9.11-11.47-.76-22.94-1.87-34.44-1.57-50.3,1.33-98.8,11.01-144.96,31.53-31.63,14.07-60.8,32.06-87.45,54.14-1.47,1.22-2.99,2.25-4.98,2.34-8.57,.38-17.15,.22-25.71,.1-2.17-.03-4.72,.07-5.37-2.97Z"/>
      <path class="cls-77" d="M270.79,690.92c-2.39,.28-4.1,1.94-6.03,3.11-14.46,8.77-28.91,17.57-43.81,25.59-1.64,.88-3.24,1.85-5.12,2.17-1.3,.22-1.89-.36-1.79-1.66,.12-1.6,.84-3.03,1.39-4.5,5.14-13.71,11.53-26.86,18.03-39.96,2.35-4.74,4.89-9.4,6.71-14.39,1.1-6.19,5.12-11.16,7.18-16.95,.81-2.28,2.11-4.4,3.16-6.61,13.12-26.36,25.75-52.95,38.87-79.31,.94-1.89,1.49-4.1,3.57-5.24,2.79-.28,3.69-2.69,4.65-4.64,3.63-7.37,8.05-14.22,12.77-20.93,3.12-4.44,4.84-5.03,10.18-3.64,6,1.57,10.73,4.63,14.06,9.91,2.46,3.91,5.38,7.47,8.84,10.54,2.37,2.1,3.16,4.49,1.33,7.23-2.38,3.55-.71,6.84,.39,10.2-.21,2.01-1.41,3.51-2.65,4.97-7.99,9.36-15.45,19.12-22.47,29.23-.25,.33-.52,.63-.8,.92-.14,.15-.29,.29-.42,.44-6.21,6.81-11.31,14.49-16.79,21.86-6.93,9.33-13.9,18.66-19.98,28.66,9.59-6.36,18.7-13.33,27.38-20.84,5.95-5.15,12.31-9.89,17.25-16.14,3.26-3.1,6.32-6.44,10.1-8.97,3.43,.41,4.52,3.16,5.68,5.77,.39,.88,.05,2.43,1.04,2.68,5.16,1.3,5.85,6.35,8.45,9.77,1.53,2.01,2.38,4.39,5.07,5.61,2.17,.98,1.96,5.15-.21,7.68-3,3.5-6.37,6.61-10.3,9.1-2.27,1.44-4.83,2.66-5.95,5.41-2.34,2.59-5.49,4.06-8.35,5.91-11.9,7.67-24.01,15.03-36.27,22.12-1.37,.79-2.56,1.83-3.82,2.76-5.69,2.79-10.94,6.31-16.32,9.63-1.58,.97-3.1,2.11-4.98,2.5Z"/>
      <path class="cls-34" d="M431.26,953.66c-3.01,4.18-6.02,8.37-9.15,12.72,2.99,2.29,5.89,4.38,8.64,6.65,9.46,7.8,16.44,17.35,19.35,29.39,7.33,30.29-10.96,60.91-42.74,67.4-4.13,.84-8.28,.96-12.45,.95-48.36-.06-96.72-.15-145.09-.22-.72,0-1.44-.03-2.16,0-1.22,.05-1.86-.45-1.88-1.74-.04-2.88-.3-5.76,.16-8.62,.72-4.46,4-7.43,8.52-7.72,1.29-.08,2.59-.03,3.89-.03,46.2-.03,92.41-.04,138.61-.11,15.32-.02,28.83-9.49,33.9-23.58,7.67-21.32-4.75-43.71-26.9-48.44-3.4-.73-6.87-.58-10.32-.66-31.95-.72-63.9-.21-95.85-.46-.86,0-1.73,.03-2.59-.03-4.69-.29-8.13-3.35-8.65-8.05-.3-2.7-.06-5.46-.14-8.19-.04-1.51,.63-2.06,2.08-1.96,1,.07,2.01,0,3.02,0,29.65,0,59.3-.28,88.95,.13,12.23,.17,22.6-3.18,31.32-11.7,7.01-.93,13.59,.1,19.48,4.26Z"/>
      <path class="cls-21" d="M628.72,993.78c-1.61-4.51-2.12-9.26-2.55-13.96-5.01-54.38,31.88-97.88,77.47-108.16,5.79-1.31,11.67-1.83,17.53-1.96,15.38-.35,30.78-.33,46.16,.35,18.22,.81,34.5,7.27,49.18,17.72,22.95,16.34,36.71,38.65,40.69,66.49,4.27,29.84-3.33,56.69-22.24,80.26-.44,.55-1.02,.98-1.53,1.47-7.2,.2-13.97-1.84-20.73-3.94-.91-1.6,.43-2.36,1.29-3.21,14.28-14.24,22.91-31.29,24.78-51.4,2.04-21.97-4.2-41.55-18.5-58.42-14.94-17.62-34.05-27.71-56.95-29.99-11.72-1.17-23.59-.04-35.38-.36-11.88-.32-23.1,2.17-34.04,6.64-28.03,11.46-48.55,41.9-48.65,72.14-.03,8.68,.21,17.25,3.06,25.57,.49,1.44,1.09,3.04-.03,4.54-6.91,.75-13.39-.73-19.56-3.77Z"/>
      <path class="cls-48" d="M701.1,750.16c-9.09,4.96-18.7,8.76-28.33,12.51-26.85,10.48-54.58,17.7-83.06,21.96-22.77,3.41-45.71,4.99-68.74,4.3-20.69-.61-41.27-2.5-61.63-6.43-4.36-.84-8.8-1.31-13-2.88-.53-1.92,.98-2.86,2.03-3.9,4.26-4.2,8.33-8.54,11.88-13.38,1.47-2,3.08-4.25,6.2-3.78,16.44,2.93,32.98,4.43,49.66,5.26,36.2,1.79,71.66-2.53,106.74-11.08,6.97-1.7,13.72-4.24,20.83-5.42,16.73-.28,33.46-.19,50.18-.1,2.64,.01,5.93-.79,7.21,2.93Z"/>
      <path class="cls-21" d="M431.26,953.66c-6.32-2.23-12.9-3.26-19.48-4.26,19.62-21.67,7.54-54.77-18.88-60.58-3.66-.8-7.39-1-11.14-1-41,.02-81.99,.02-122.99,.02-1.01,0-2.01,.02-3.02,0-6.52-.21-9.7-3.39-9.93-9.88q-.29-8.28,7.99-8.28c42.29,0,84.58,.01,126.87-.02,12.16,0,23.63,2.27,34.06,9,25.28,16.32,32.71,49.74,16.53,75Z"/>
      <path class="cls-70" d="M258.06,109.64c1.45,1.75,3.44,1.72,5.45,1.73,8.95,.03,17.91,.1,26.86,.16-.33,2.56-2.41,3.85-4.07,5.33-33.69,30.01-61.56,64.57-82.64,104.56-5.97,11.33-11.32,22.9-16.23,34.71-.82,1.97-1.47,4.16-4.16,4.43-5.72-.4-11.45-.18-17.17-.28-1.96-.03-4.05,.31-5.68-1.29,1.2-5.35,3.55-10.3,5.63-15.33,16.23-39.23,38.33-74.86,66.07-107,7.14-8.28,14.58-16.27,22.39-23.92,1.12-1.1,2.08-2.39,3.53-3.11Z"/>
      <path class="cls-47" d="M270.79,690.92c1.95-2.61,5.06-3.59,7.61-5.34,3.63-2.5,7.49-4.66,11.21-7.01,.73-.46,1.32-.31,1.99-.03,2.11-.64,3.12,1.13,4.38,2.13,15.48,12.21,31.44,23.72,48.55,33.58,26.65,15.35,54.6,27.65,84.26,35.96,2.67,.75,5.76,.74,7.77,3.2-.66,8.01-.51,16.15-4.06,23.66-6.26-2.57-12.9-3.87-19.32-5.88-47.63-14.89-90.85-37.98-129.7-69.27-4.36-3.51-8.85-6.89-12.7-11Z"/>
      <path class="cls-34" d="M628.72,993.78c5.13,1,10.25,2.02,15.38,2.99,1.38,.26,2.8,.37,4.2,.54,2.21,.57,2.45,2.67,3.2,4.28,7.93,17.06,19.82,30.5,36.32,39.68,11.23,6.25,23.28,9.8,36.18,9.98,11.2,.16,22.41-.02,33.62,.04,18.51,.1,34.94-5.82,49.68-16.83,1.63-1.22,2.88-3.37,5.46-2.89,6.96,1.18,13.9,2.4,20.69,4.4-6.72,8.62-15.17,15.23-24.5,20.75-11.11,6.57-23.02,10.99-35.89,12.58-2.27,.28-4.58,.35-6.88,.36-14.66,.04-29.33-.29-43.98,.14-15.26,.45-29.31-3.53-42.53-10.57-26.09-13.88-43.05-35.2-50.77-63.78-.15-.54-.12-1.13-.17-1.7Z"/>
      <path class="cls-34" d="M490.89,974.26c1.07,16.29,5.82,31.37,15.44,44.64,15.63,21.56,36.92,32.81,63.54,33.49,14.24,.37,28.5,.14,42.75,.17,2.19,0,4.3,.23,6.21,1.43,2.76,1.73,4.29,4.22,4.47,7.45,.13,2.44,.02,4.89,.1,7.34,.05,1.53-.7,1.98-2.09,1.97-19.72-.14-39.58,1.6-59.12-.61-39.18-4.45-67.02-25.44-83.03-61.6-6.59-14.89-8.5-30.65-7.49-46.82,1.51-1.34,3.24-.82,4.93-.55,1.28,.21,2.54,.48,3.81,.74q10.19,2.06,10.49,12.35Z"/>
      <path class="cls-64" d="M701.1,750.16c-1.65-1.8-3.83-1.62-5.98-1.62-17.29,0-34.59,0-51.88,0,.16-2.25,2.19-1.98,3.51-2.42,33.2-11.2,64.32-26.58,93.23-46.36,13.67-9.35,26.69-19.54,38.84-30.82,1.82-1.69,3.72-3.19,6.31-3.47,7.59,.72,15.15,.87,22.74-.07,2.45-.3,5.63-.74,6.49,3.03-7.82,8.85-16.55,16.77-25.45,24.49-25.44,22.04-53.26,40.54-83.49,55.38-1.41,.69-2.88,1.25-4.33,1.87Z"/>
      <path class="cls-34" d="M210.46,908.22c-1.99,5.09-4.73,9.81-7.2,14.65-23.74,46.56-47.53,93.1-71.31,139.65q-4.15,8.13-13.12,8.18c-3.73,.02-7.47,0-11.04,0-.92-1.12-.1-1.83,.24-2.5,27.31-53.77,54.65-107.52,82-161.27,.52-1.02,1.16-1.98,1.74-2.97,6.6-.22,13.07,.16,18.69,4.25Z"/>
      <path class="cls-80" d="M924.91,404.05c.43,9.2-.33,18.36-1.2,27.5-1.88,19.86-5.19,39.5-10.08,58.86-2.74,10.85-5.85,21.58-9.49,32.16-.42,1.21-.7,2.49-1.61,3.47-8.05,.31-16.1,.35-24.15,.02-1.5-1.6-.58-3.26,0-4.82,11-29.8,17.55-60.62,20.75-92.16,.66-6.54,1.48-13.12,1.18-19.74-.09-1.96-.3-4.07,1.29-5.71,7.82-2.21,15.59-2.3,23.32,.42Z"/>
      <path class="cls-34" d="M0,869.65c4.5,0,8.07-.18,11.62,.04,6.55,.4,11.34,3.56,14.33,9.52,4.57,9.12,9.28,18.17,13.93,27.26,12.36,24.19,24.64,48.42,37.13,72.53,3.12,6.02,3.4,11.69,.15,17.63-2.07,3.78-3.95,7.65-6.28,12.2-23.85-46.35-47.1-92.33-70.88-139.18Z"/>
      <path class="cls-21" d="M865.97,879.15c.05-2.15,.13-4.31,.13-6.46,0-1.61,.71-2.39,2.34-2.35,1.01,.02,2.01,0,3.02,0,52.03,0,104.07,0,156.1,0,5.53,0,5.24-.34,5.24,5.06,0,3.45-.01,6.9-.02,10.35-1.44,.05-2.87,.15-4.31,.15-50.08,0-100.16,.01-150.25,0-1.44,0-2.9,.11-4.31-.1-3.97-.58-7.12-2.25-7.94-6.65Z"/>
      <path class="cls-28" d="M856.67,172.63c1.03,.39,1.43,1.35,1.98,2.18,16.49,24.87,30.26,51.15,40.9,79.04,.51,1.32,1.24,2.61,1.2,4.11,.25,1.66-1.08,1.99-2.1,2.03-7.18,.24-14.36,.87-21.54,.26-1.77-.98-2.38-2.78-3.09-4.5-7.77-18.69-16.75-36.76-27.37-54.01-4.81-7.82-9.82-15.5-15.24-22.9-1.09-1.48-2.45-2.9-1.88-5.02,1.55-1.97,3.92-1.52,5.94-1.82,7.09-1.06,14.16-.37,21.2,.63Z"/>
      <path class="cls-21" d="M872.21,1043.72c2.75-3.71,6.21-6.74,9.47-9.97,26.35-26.1,52.72-52.17,79.09-78.24,3.78-3.74,7.6-7.44,11.34-11.22,5.34-5.39,11.93-7.81,19.37-8.17,2.54-.12,5.08-.02,7.98-.02-.62,1.97-2.03,2.81-3.08,3.86-22.3,22.42-44.68,44.76-66.93,67.23-13.34,13.48-26.49,27.15-39.72,40.74-6.06-.48-12.03-1.34-17.51-4.22Z"/>
      <path class="cls-69" d="M136.49,405.72c-.56-10.46-.43-20.92,.12-31.37,.6-11.3,1.51-22.58,3.18-33.78,.97-6.5,1.59-13.06,3.44-19.41,.65-.6,1.41-1.1,2.28-1.11,6.97-.09,13.98-1.16,20.89,.69,1.64,1.69,1.19,3.73,.83,5.69-4.4,23.89-6.61,47.96-6.32,72.26,.02,1.85,.12,3.75-.98,5.41-1.52,1.34-3.41,1.21-5.23,1.23-6.07,.07-12.14-.11-18.2,.38Z"/>
      <path class="cls-69" d="M924.91,404.05c-3.41-.11-6.82,.24-10.21-.73-1.58-.45-3.51-.41-5.1,.05-2.55,.74-5.08,.64-7.64,.68-1.25-.41-1.2-1.49-1.21-2.48-.07-25.03-1.7-49.94-6.21-74.6-.26-1.42-.33-2.86,.15-4.27,.73-1.81,2.24-2.56,4.03-2.68,5.4-.35,10.81-.26,16.22-.06,1.87,.07,3.29,.86,3.67,2.89,1.81,6.52,2.55,13.23,3.44,19.89,2.39,17.94,3.27,35.99,3.48,54.07,.03,2.42,.28,4.89-.62,7.24Z"/>
      <path class="cls-21" d="M490.89,974.26c-.84-2.05-.47-4.2-.39-6.29,.08-2.01-.81-2.81-2.58-3.17-5.41-1.08-10.74-2.58-16.26-3.09-.05-1.29-.15-2.58-.15-3.87-.02-27.57-.02-55.15-.03-82.72,0-1.01,.05-2.01,0-3.02-.07-1.41,.59-2.1,1.96-2.27,3.75-.45,7.5-.38,11.09,.75,3.07,.97,5.02,3.26,5.88,6.38,.5,1.81,.55,3.68,.54,5.56-.08,15.51-.21,31.02-.2,46.52,.01,14.21,.19,28.43,.28,42.64,0,.85-.08,1.71-.13,2.56Z"/>
      <path class="cls-34" d="M872.21,1043.72c5.1,1.01,10.21,1.99,15.29,3.06,.79,.17,1.48,.76,2.22,1.16-1.51,1.67-3.02,3.33-5.1,5.62,14.43,.48,28.13-.46,41.78,.64,22.36,3.19,44.29,8.6,66.42,12.94,2.09,.41,4.32,.51,6.06,2.03,.39,.39,.46,.83,.2,1.32-6.6,.06-13.21,.18-19.81,.19-36.48,0-72.97,0-109.45-.03-5.24,0-4.52,.57-4.65-4.55-.21-8.28,1.32-15.98,7.04-22.39Z"/>
      <path class="cls-24" d="M136.49,405.72c.97-1.52,2.41-1.72,4.09-1.7,6.32,.07,12.64,.03,18.96,.03,2.2,3.31,1.91,7.21,2.04,10.81,.42,11.8,1.79,23.48,3.51,35.14,.38,2.54,.7,5.09,.56,7.68-1.73,2.27-3.46,4.55-5.2,6.82-1.49,2.2-3.82,3.67-5.14,6.01-3.11,3.74-6.23,7.47-9.34,11.21-2.85-10.36-4.4-20.97-5.93-31.58-1.92-13.31-3.1-26.7-3.67-40.14-.06-1.42,.07-2.85,.11-4.28Z"/>
      <path class="cls-61" d="M884.33,569.13c-2.93,7.47-7.03,14.35-10.96,21.3-6.26,11.08-13.18,21.76-20.56,32.14-.66,.92-1.18,1.97-2.24,2.54-8.85-.29-17.72-.32-26.56-.9-2.96-1.75-.45-3.18,.45-4.41,6.9-9.51,13.89-18.95,20.04-28.99,3.96-6.48,7.84-13.01,11.52-19.65,1.05-1.9,1.99-3.87,4.51-4.2,6.53-.45,13.05-.26,19.57-.13,1.63,.03,3.92-.47,4.24,2.29Z"/>
      <path class="cls-35" d="M856.67,172.63c-4.07,.58-8.12,.39-12.21,.09-4.93-.36-9.88-.05-14.63,1.64-2.31,.05-2.95-2-4.02-3.36-10.99-14.02-22.48-27.59-35.28-40.02-1.78-2.59-5.34-3.83-5.68-7.5,8.01-.01,16.02-.03,24.03-.03,2.31,0,4.56-.15,6.35-1.88,6.49,5.92,12.11,12.64,17.77,19.32,8.54,10.09,16.72,20.46,23.68,31.74Z"/>
      <path class="cls-49" d="M918.62,322.84c-.91-1.21-2.03-1.74-3.63-1.72-5.26,.1-10.52,.06-15.78,.02-1.66-.01-3.14,.19-3.85,1.97-2.01-.53-1.89-2.37-2.21-3.82-4.13-18.86-9.27-37.42-16.17-55.48-.58-1.51-1.8-3.1-.38-4.83,.88,.48,1.78,1.07,2.81,.79,5.61-1.53,11.33-.44,16.99-.79,1.5-.09,3.19,.54,4.35-1.02,3.23,6.44,4.99,13.4,7.15,20.21,4.52,14.22,7.99,28.72,10.71,43.39,.08,.41,0,.86,0,1.28Z"/>
      <path class="cls-49" d="M166.55,321.16c-7.77,0-15.55,0-23.32,0,.68-7,2.59-13.74,4.2-20.55,3.1-13.09,7.02-25.94,11.53-38.62,.37-1.03,.42-2.29,1.48-3.01,5.81,0,11.62,.04,17.43-.01,2.28-.02,4.52,.09,6.68,.88,1.3,1.55,.27,3.03-.26,4.44-6.41,17.14-11.41,34.69-15.31,52.56-.36,1.64-.53,3.49-2.42,4.31Z"/>
      <path class="cls-71" d="M251.15,638.34c-3.48,7.73-6.68,15.6-10.99,22.94-17.06-18.23-31.92-38.13-45.11-59.3-.37-.6-.61-1.29-.9-1.94,1.23-1.27,2.84-1.21,4.42-1.25,5.3-.1,10.62,.5,15.9-.41,1.89-.39,3.79-.49,5.69-.18,1.7,.33,2.69,1.56,3.56,2.89,7.68,11.6,16.24,22.54,25.09,33.25,.98,1.18,2.28,2.25,2.33,4Z"/>
      <path class="cls-54" d="M823.21,623.36c5.7,0,11.39-.08,17.09,.02,3.49,.06,6.97,.45,10.27,1.74-4.57,7.45-10.16,14.14-15.72,20.84-6.47,7.8-13.01,15.57-20.48,22.46-2.33-2.85-5.58-2.13-8.42-1.71-6.3,.94-12.52,1.11-18.78-.07-1.12-.21-2.29-.16-3.44-.24,.07-2.14,1.78-3.2,3.06-4.48,11.54-11.4,22.61-23.22,32.69-35.94,.96-1.22,1.92-2.57,3.73-2.62Z"/>
      <path class="cls-52" d="M198.47,600.04c-1.44,0-2.88,0-4.32,0-3.28-4.37-5.77-9.24-8.44-13.97-5.23-9.26-9.97-18.78-14.36-28.47-.59-1.3-1.35-2.54-1.47-4.02,.14-3.08,2.55-3.08,4.6-3.13,6.13-.13,12.26-.31,18.38,.1,2.3,.32,3.21,2.05,4.11,3.93,6.46,13.43,13.65,26.45,21.71,39,1.1,1.71,3.06,3.2,2.16,5.71-1.99,0-3.98-.01-5.97-.02-3.91,.91-7.89,.16-11.82,.43-1.53,.1-3.12-.42-4.58,.43Z"/>
      <path class="cls-38" d="M194.16,551.69c-6.66,0-13.32,.01-19.98,0-1.73,0-3.47-.1-4.3,1.9-3.86-6.92-6.35-14.42-9.2-21.76-3.16-8.16-5.85-16.5-8.26-24.92,6.61-1.69,13.21-3.4,19.83-5.04,.95-.24,1.98-.14,2.97-.2,1.87,.78,2.18,2.6,2.64,4.21,4.1,14.09,9.74,27.59,15.58,41.02,.65,1.49,1.96,2.98,.71,4.8Z"/>
      <path class="cls-21" d="M999.06,1069.84c-11.08-2.34-22.16-4.69-33.25-7-12.49-2.61-24.99-5.18-37.48-7.76-.72-.15-1.4-.31-1.91-.87,1-.06,2-.19,3-.19,33.32-.02,66.64-.03,99.95-.03,1.14,0,2.29,.12,3.43,.18,0,5.45-.01,10.91-.02,16.36-10.65,.25-21.31,.28-31.96-.03-.49-.48-1.26-.22-1.76-.67Z"/>
      <path class="cls-31" d="M884.33,569.13c-1.15-1.56-2.84-1-4.32-1.01-6.94-.05-13.89-.02-20.83-.03-1.04-1.28-.29-2.45,.29-3.57,5.98-11.44,11.28-23.19,15.97-35.22,.56-1.44,1.02-3.04,2.84-3.51,1.13-.69,2.36-.89,3.68-.88,5.7,.04,11.41,0,17.11,.02,1.26,0,2.62-.22,3.47,1.1-2.4,9.05-6.21,17.57-9.91,26.12-2.5,5.78-4.9,11.62-8.29,16.98Z"/>
      <path class="cls-21" d="M210.46,908.22c-6.05-2.22-12.51-2.63-18.69-4.25,4.36-8.58,8.64-17.21,13.11-25.73,2.58-4.91,6.73-7.66,12.38-8.18,3.99-.37,7.95-.62,11.87-.15,.11,.49,.3,.83,.21,1.02-6.28,12.44-12.58,24.86-18.88,37.29Z"/>
      <path class="cls-75" d="M797.84,103.64c-6.13-5.14-12.29-10.24-18.36-15.44-2.27-1.94-4.99-3.4-6.7-5.97,11.05-5.13,22.39-9.57,33.94-14.16,.26,2.49-.51,4.49-1,6.52-2.36,9.76-4.66,19.54-7.88,29.06Z"/>
      <path class="cls-55" d="M432.51,777.06c.42-5.07,1.72-10,2.06-15.09,.21-3.08,.89-6.12,1.36-9.19-1.53-4.08-.19-7.9,1.06-11.72,.63-.82,1.38-1.67,2.48-1,1.53,.93,1.79,2.53,1.61,4.16-.52,4.55-1.06,9.1-1.77,13.63-1.09,6.93-1.8,13.91-2.74,20.87-.1,.71-.19,1.43,.65,2.21,4.93-3.58,9.37-7.7,13.47-12.32,6.46-7.29,13.09-14.45,20.96-20.28,1.44-1.06,2.95-3.14,5.2-1.17,.41,1.27-.17,2.33-1.04,3.04-3.51,2.89-5.44,7.68-10.47,8.71-1.93,1.05-3.48,2.64-4.62,4.39-3.06,4.72-7.05,8.57-10.96,12.52-1.2,1.21-2.62,2.23-3.41,3.81-5.65,4.14-9.98,9.63-15.33,15.26-.71-3.5-.33-6.23,.08-8.96,.45-2.96,.93-5.91,1.4-8.86Z"/>
      <path class="cls-30" d="M999.06,1069.84c.71-.11,1.33,.02,1.76,.67-.57,0-1.15,0-1.72,0,0-.22-.02-.44-.04-.66Z"/>
      <path class="cls-76" d="M300.22,471.03c-12.45,1.89-24.51,5.48-36.68,8.54-8.44,2.13-16.91,4.14-25.38,6.17-1.1,.26-2.26,.3-3.39,.45,.65-2.08,2.69-2.1,4.21-2.53,8.82-2.45,17.69-4.69,26.53-7.07,3.87-1.04,7.68-2.27,11.54-3.34,1.65-.45,2.96-1.25,3.39-2.94,.91-3.62,3.7-5.79,6.34-7.93,1.56-1.27,3.05-2.59,4.54-3.93,8.6-7.77,17.24-15.5,25.82-23.29,3.07-2.79,6.14-5.6,9.16-8.43,5.26-4.92,11.28-8.78,16.76-13.37,.66-.55,1.31-1.12,1.95-1.68,9.89-8.76,18.9-18.45,28.5-27.5,8.23-7.76,16.57-15.43,24.89-23.1,12.82-11.82,26.51-22.65,40.6-32.95,2.08-1.52,4.31-2.84,6.39-4.35,2.18-1.59,4.51-3.09,5.28-5.94,2.8-1.15,5.98-1.16,8.6-2.84,.37-.25,.73-.24,1.05,.08,.11,2.51-1.75,3.95-3.08,5.68-1.79,1.54-3.09,3.7-5.56,4.38-6.22,2.63-10.67,7.66-15.71,11.84-19.76,16.42-38.73,33.74-57.36,51.42-12.17,11.55-24.15,23.35-35.43,35.83-7.7,8.52-16.3,16.2-24.22,24.52-5.53,5.82-11.12,11.6-16.21,17.83-1.11,1.36-2,2.8-2.54,4.46Z"/>
      <path class="cls-60" d="M155.32,470.51c.53-3.01,2.81-4.54,5.14-6.01-.63,2.93-3.05,4.33-5.14,6.01Z"/>
      <path class="cls-38" d="M176.05,500.78c-.29,.3-.58,.61-.87,.91,.29-.3,.58-.61,.87-.91Z"/>
      <path class="cls-15" d="M612.91,149.3c1.62-1.56,3.81-1.92,5.8-2.68,31-11.9,61.38-25.3,91.92-38.3,12.03-5.12,24.12-10.11,36.18-15.15,5.13,2.86,9.56,6.7,14.15,10.28,7.19,5.61,14.26,11.38,20.68,17.91,.87,.89,2.12,1.41,3.2,2.11,1.64,2.57,4.3,4.21,6.07,6.65,.33,1.77-.24,3.4-.77,5.05-7.21,22.13-14.4,44.27-21.57,66.42-6.86,21.19-13.38,42.48-19.7,63.83-.41,1.37-.66,2.81-1.64,3.94-2.54,1.16-3.24-.92-3.97-2.47-1.42-3.05-2.76-6.15-4.01-9.28-9.02-19.23-18.05-38.46-27.4-57.54-2.46-5.03-4.25-10.37-7.28-15.12-1.48-2.23-3.94-2.75-6.23-3.53-27.44-9.24-54.46-19.68-81.78-29.25-1.21-.42-2.48-.75-3.49-1.63-.33-.38-.39-.79-.18-1.25Z"/>
      <path class="cls-68" d="M293.41,553.28c1.16-3.72,3.19-7.05,4.84-10.54,7.35-15.59,14.58-31.24,22.84-46.39,.7-1.29,2.13-2.58,.65-4.26,.99-2.08,2.36-.72,3.49-.28,2.38,.94,4.43,2.53,6.69,3.73,7.26,4.89,14.71,9.51,21.76,14.72,5.6,4.41,11.9,7.84,17.48,12.29,1.41,1.12,3.25,1.89,3.73,3.91-2.54,3.01-5.7,5.43-8.09,8.58-1.74,1.86-3.16,3.97-4.68,6.01-4.49,5.4-8.42,11.22-12.79,16.7-1.35,1.69-2.26,4.02-4.89,4.31-.02-.14,.02-.33-.05-.42-3.3-3.94-2.21-7.86,.1-11.74,.79-1.32,.68-2.38-.49-3.4-5.01-4.35-8.75-9.76-12.58-15.1-3.56-4.97-9.32-5.78-14.65-7.24-2.3-.63-3.85,1.15-4.8,2.9-1.73,3.16-4.1,5.83-6.09,8.77-2.46,3.64-4.3,7.7-6.35,11.6-1.27,2.41-2.59,4.79-4.6,6.67-1.12,1.05-1.36,.12-1.5-.81Z"/>
      <path class="cls-73" d="M392.69,615.56c-10.26,6.32-20.5,12.67-30.78,18.96-7.22,4.42-14.24,9.16-21.8,13.02-.74-.56-.76-1.14-.02-1.69,1.83-1.36,3.56-2.9,5.53-4.01,3.93-2.22,6.86-5.54,10.09-8.56,1.86-1.73,1.75-3.77,1.6-5.92-.04-.64-.47-1.26-1.04-1.06-2.28,.79-2.68-.97-3.3-2.33-1.54-3.37-4.4-5.96-5.44-9.66-.46-1.64-2.12-2.05-3.78-2.34-1.6-.27-2.4-.89-2.27-3.17,.16-2.81-1.94-5.08-4.8-6.18,2.18-4.3,6.27-7.02,8.97-10.9,4.34-3.69,7.5-8.71,12.68-11.47,4.59-.66,7.07,2.46,9.64,5.39,7.36,8.38,14.13,17.29,22.23,25.01,1.43,1.36,2.12,3.03,2.48,4.91Z"/>
      <path class="cls-10" d="M346.19,592.3c-2.74,3.84-5.75,7.44-9.52,10.33-2.83,3.26-6.04,6.09-9.5,8.64-1.31,1.73-3,3.08-4.65,4.44-2.48,2.04-4.26,1.68-5.31-1.22-2.21-6.11-3.29-12.24,1.3-17.91h0c.31-.27,.57-.58,.85-.88,4.21-7.11,9.37-13.53,14.48-19.99,2.54-3.21,4.97-6.53,8-9.32,.49,6.46,2.21,12.79,2.06,19.3-.06,2.54,.39,4.79,2.28,6.61Z"/>
      <path class="cls-27" d="M346.19,592.3c-3.38-.42-3.46-.42-3.47-3.29-.03-5.09,.21-10.16-1.59-15.1-.91-2.49,.56-4.99,.72-7.51,.86-1.45,1.72-2.89,2.58-4.34,5.31-5.95,9.71-12.6,14.58-18.89,.79-1.02,1.46-2.1,2.64-2.72,2.31,.22,1.65,2,1.54,3.25-.65,7.98,.38,16.06-1.53,23.96-.51,2.1,.28,3.94,1.54,5.61,.68,4.07-2.73,5.55-4.96,7.78-3.24,2.33-5.67,5.5-8.58,8.17-1.14,1.05-2.05,2.35-3.47,3.09Z"/>
      <path class="cls-63" d="M318.52,596.58c-2.44,5.89-2.59,11.75-.29,17.78,.78,2.05,1.65,2.02,3.08,1.1,2.02-1.3,3.44-3.46,5.87-4.19-.48,2.85-2.8,4.43-4.78,5.84-4.23,3.03-7.5,7.05-11.58,10.24-5.29,4.13-10.42,8.48-15.78,12.54-3.76,2.85-7.38,5.89-11.38,8.43-.97,.62-1.87,1.31-3.48,1.62,.41-2.43,1.57-4.33,2.82-6.1,10.46-14.85,21.24-29.47,32.15-44,.96-1.27,1.92-2.5,3.37-3.26Z"/>
      <path class="cls-63" d="M319.37,595.71c-.28,.29-.57,.59-.85,.88,.28-.29,.57-.59,.85-.88Z"/>
      <path class="cls-57" d="M198.47,600.04c.97-1.2,2.34-.84,3.58-.85,4.27-.03,8.55-.01,12.83-.01-.97,1.2-2.34,.84-3.58,.85-4.28,.03-8.55,.01-12.83,.01Z"/>
      <path class="cls-7" d="M526.71,696.92c-8.13,8.9-16.89,17.19-25.35,25.77-2.32,2.35-4.68,4.65-6.83,7.17-5.5,6.44-12.02,11.89-17.82,18.04-.56-.93-1.23-1.04-2.12-.38-1.84,1.36-3.93,2.45-5.55,4.03-6.07,5.9-12.36,11.58-17.8,18.12-2.2,2.64-4.6,5.18-7.24,7.36-1.88,1.56-3.75,3.1-5.5,4.79-.72,.69-1.5,1.53-2.62,.91-1.11-.61-.82-1.79-.72-2.72,.24-2.27,.7-4.5,.91-6.78,.5-5.24,1.47-10.44,2.22-15.66,.67-4.66,1.41-9.31,1.86-13.99,.12-1.25,.42-3.54-2.34-2.83,.25-3.5,.51-6.99,1.65-10.35,2.54-6.36,2.75-13.19,3.65-19.82,2.74-20.35,6.43-40.56,9.25-60.9,1.67-12.1,3.13-24.21,4.23-36.37,.36-1.74,1.25-3.18,2.53-4.41,11.59-11.19,21.83-23.57,31.95-36.06,16.39-20.22,31.45-41.39,45.48-63.31,8.22-12.85,18.32-24.31,27.36-36.57,1.62-2.2,3.17-4.44,4.44-6.87,3.63-5.63,8.88-9.77,13.45-14.54,1.8-1.88,3.58-3.74,4.74-6.1,1.08-1.29,2.11-2.69,4.13-1.73,3.68,4.96,1.29,10.4,.8,15.47-1.47,15.1-3.65,30.13-5.26,45.23-.36,3.37-1.35,6.68-.86,10.13-.99,8.39-1.91,16.79-2.99,25.16-1.83,14.21-3.74,28.42-5.65,42.62-.76,5.66-1.62,11.31-2.44,16.97-2.6,5.25-2.41,11.07-3.18,16.66-1.39,10.1-2.55,20.23-4.08,30.32-.97,6.44-3.9,11.74-8.42,16.15-9.99,9.75-19.4,20.04-28.84,30.31-1.17,1.28-2.27,2.6-3.05,4.16Z"/>
      <path class="cls-14" d="M374.49,526.54c-5.1-4.37-10.67-8.08-16.28-11.74-1.79-1.16-3.43-2.56-5.13-3.85-.28-.35-.58-.93-.32-1.15,5.53-4.75,6.9-12.31,11.87-17.46,1.22-1.26,2.18-2.7,4.03-2.97,3.13-.46,4.34-2.57,4.63-5.38,.7-6.82,2.06-13.32,7.07-18.53,1.65-1.72,1.88-4.13,1.85-6.49-.03-2.19,.23-4.39,1.59-6.16,8.27-10.76,11.88-23.74,17.16-35.91,1.67-3.84,3.36-7.66,6.07-10.86,2.77-3.27,3.81-7.37,5.76-11.03,12.15-22.84,25.32-45.06,40.77-65.85,2.04-2.75,1.4-6.13,3.2-8.77,1.1-1.75,2.21-3.5,3.31-5.25,.15-.35,.17-.72,.09-1.09,1.77-2.46,4.47-4.08,6.07-6.7,2.89,.72,2.01,3.19,1.99,4.92-.1,7.64-1.78,15.11-2.97,22.61-2.13,13.49-3.41,27.05-4.47,40.65-.04,.56-.08,1.16,.37,1.7,1.48-.16,1.58-1.51,1.83-2.48,2.55-9.59,7.72-17.9,12.82-26.23,2.26-3.7,4.26-7.48,5.3-11.73,.87-3.53,1.24-7.02,.45-10.65-1.24-5.67-1.09-11.35-.38-17.13,.64-5.24,1.05-10.63-1.98-15.49,2.51-2.94,4.9-5.98,7.54-8.79,9.13-9.72,17.97-19.7,27.3-29.25,7.7-7.89,14.79-16.39,22.64-24.16,2.23-2.21,3.5-5.31,6.4-6.88,3.18-.54,4.63-3.63,7.3-4.94,1.25-.61,2.58-1.94,3.87-.96,1.58,1.2,.46,2.84-.12,4.26-1.12,2.77-3.17,5.06-4.08,7.94-3.09,7.28-7.43,13.87-11.41,20.65-1.8,3.32-3.68,6.59-6.42,9.25-1.49,1.37-2.89,2.86-3.79,4.66-3.46,6.94-9.06,11.62-15.46,15.75-8.53,5.5-15.83,12.31-20.35,21.7-3.26,6.78-3.64,14.14-4.42,21.37-.41,3.83-1.19,7.66-1.09,11.55-.23,1.95-1.15,3.65-1.99,5.38-3.89,6.75-9.15,12.75-11.1,20.56,5.26-5.69,8.78-12.49,12.42-19.22,5.59-8.86,10.36-18.23,16.48-26.75,1.01-1.41,1.58-3.57,4.06-3.2,1.56,2.4,.17,4.45-.93,6.41-12.74,22.68-26.75,44.58-40.51,66.64-11.86,19.01-23.33,38.28-35.09,57.35-10.78,17.48-21.93,34.74-32.61,52.28-5.9,9.7-11.78,19.41-15.21,30.35-.55,1.77-1.18,3.56-2.64,4.87-3.08,.53-4.42-1.44-5.47-3.82Z"/>
      <path class="cls-42" d="M479.17,293.53c3.3,.34,3.21,3.3,3.3,5.25,.2,4.26,.43,8.53-.44,12.85-1,4.94-.38,10.05,.71,14.93,1.63,7.27-.94,13.56-4.17,19.63-2.96,5.55-6.7,10.7-9.55,16.3-1.53,3-3.03,6.12-3.87,9.52-.73,2.96-1.25,6.22-4.12,8.44-2.04-1.58-2.02-3.76-1.48-5.8,.49-1.85,.59-3.66,.64-5.52,.17-5.71,1.01-11.36,1.52-17.04,.83-9.1,2.76-18.04,3.73-27.12,.52-4.81,1.97-9.52,1.65-14.44-.07-1.12,.23-2.34-.87-3.18,4.25-4.67,7.79-10.01,12.96-13.82Z"/>
      <path class="cls-56" d="M549.15,230.52c.06-2.16,1.73-3.53,2.57-5.3,.9-1.9,2.25-3.62,2.59-6.27-2.87,.45-4.63,2.24-6.49,3.8-.76,.64-1.4,1.43-2.19,2.03-.9,.68-1.84,.71-2.59-.33,2.72-4.6,6.53-8.3,10.01-12.29,6.4-7.33,13.17-14.31,19.5-21.7,3.24-3.79,6.61-7.53,10.04-11.19,7.83-8.36,15.38-16.98,23.41-25.17,1.39-1.41,2.34-3.23,3.82-4.62,1.07-1.01,2.02-.84,3.09-.18,.15,.24,.23,.51,.27,.79-2.05,6.29-6.76,10.91-10.36,16.2-10.24,15.07-20.9,29.86-31.43,44.73-1.35,1.91-2.24,4.41-4.98,4.97-1.68-2.47,.11-4.37,1.18-6.28,2.46-4.38,5.96-8.11,7.99-12.79-8.06,9.51-15.4,19.56-22.19,30.01-1.03,1.59-1.57,3.88-4.23,3.59Z"/>
      <path class="cls-43" d="M460.15,314.05c.53,.41,.76,.8-.09,1.09-.28,.04-.55,0-.8-.14,.3-.32,.59-.63,.89-.95Z"/>
      <path class="cls-20" d="M331.51,496.33c-2.37-1.31-4.71-2.67-7.13-3.89-.77-.38-1.61-1.44-2.64-.36-1.37-1.42-2.74-2.85-4.1-4.27,2.41-4.31,4.91-8.55,9.32-11.2,4.14-1.23,7.44-3.81,10.12-7.01,11.8-14.05,23.6-28.11,34.04-43.23,1.66-2.4,3.04-4.85,3.57-7.74,.87-2.96,2.55-5.49,4.57-7.71,13.2-14.52,24.36-30.73,37.7-45.12,.99-1.07,1.58-2.91,3.66-2.34,1.34,2.64-.19,4.77-1.44,6.79-4.66,7.6-9.7,14.98-15.22,21.96-10.65,13.46-19.33,28.2-28.47,42.64-2.23,3.52-4.4,7.08-7.05,10.31-4.5,5.47-8.16,11.42-11.34,17.76-4.01,8-10.39,14.41-15.43,21.73-1.23,1.78-2.64,3.35-3.23,5.51-.96,3.53-3.27,5.63-6.93,6.19Z"/>
      <path class="cls-46" d="M300.22,471.03c-.52-.56-1.5-.82-.59-2,2.19-2.83,4.3-5.7,6.71-8.36,11.3-12.45,23.73-23.83,35.12-36.17,9.95-10.78,20.5-20.93,30.78-31.36,9.97-10.11,20.77-19.36,31.03-29.18,8.57-8.21,17.77-15.76,26.81-23.46,6.2-5.29,12.6-10.34,18.9-15.51,.92-.76,1.79-1.71,2.71-.03,.1,.58,.12,1.24-.24,1.66-3.86,4.37-6.92,9.45-11.55,13.16-6.17,2.95-10.01,8.54-14.65,13.17-2.94,2.93-5.6,6.15-8.91,8.7-9.52,7.34-16.62,17.07-25.22,25.33-13.04,12.54-25.87,25.32-38.97,37.79-13.72,13.07-27.38,26.22-41.77,38.58-1.31,1.13-2.45,2.42-3.37,3.9-1.68,1.77-3.41,3.47-5.89,4.09-.3-.11-.6-.21-.9-.32Z"/>
      <path class="cls-66" d="M301.11,471.35c1.23-2.11,3.54-2.87,5.31-4.3,4.11-3.82,9.2-6.25,13.68-9.55,8.98-6.6,17.91-13.27,26.94-19.81,1.61-1.17,3.16-2.5,5.32-2.54,2.23,.33,4.26,1.01,5.51,3.07,.58,3.25-2.08,4.9-3.72,6.85-8.17,9.71-15.76,19.89-24.14,29.42-.94,1.07-1.88,2.14-3.16,2.83-2.57,2.31-4.56,5.11-6.59,7.88-.73,1-1.1,2.41-2.64,2.6-5.51-5.49-11.02-10.98-16.53-16.46Z"/>
      <path class="cls-65" d="M439.54,339.47c4.05-4.83,8.1-9.67,12.16-14.5,1.68-1.52,3.37-3.04,5.05-4.57,1.1,5.45-2.12,9.21-5.07,13.1-6.16,8.12-11.48,16.81-16.85,25.45-4.47,7.18-8.75,14.47-12.9,21.86-3.78,6.75-7.65,13.4-10.58,20.58-.64,1.57-1.57,3.12-2.71,4.37-3.87,4.26-5.98,9.46-7.88,14.71-1.18,3.26-2.48,6.43-4.08,9.48-.94,1.8-1.69,3.68-2.06,5.65-.33,1.76-.96,3.28-2.14,4.61-.47,.53-1.17,1.12-1.22,1.73-.38,4.49-3.63,7.32-6.04,10.6-1.34,1.83-2.24,3.74-1.9,5.99,.58,3.76-.79,7.02-3.29,9.42-4.14,3.96-4.54,9.06-5.36,14.13-.09,.56,.07,1.18-.09,1.72-1.58,5.32-.26,5.65-6.19,6.61-.92,.15-1.69,.49-2.12,1.3-2.03,3.81-5.02,6.94-7.31,10.57-.23,.36-.63,.79-.57,1.13,.58,3.62-1.56,5.13-4.53,6.11-.57,.19-.69,.87-.79,1.45-7.19-4.88-14.38-9.75-21.57-14.63,1.03-.77,1.98-1.69,3.1-2.28,1.71-.9,2.59-2.35,2.81-4.09,.31-2.47,1.61-4.25,3.34-5.84,1.5-1.37,2.74-2.91,3.61-4.78,1.48-3.15,3.96-5.64,6.16-8.23,1.98-2.34,3.76-4.83,4.98-7.48,3.64-7.9,8.59-14.87,13.95-21.62,3.84-4.84,6.6-10.38,9.95-15.55,6.61-10.22,12.65-20.83,20.2-30.4,6.75-8.55,12.84-17.55,18.83-26.63,1.22-1.85,1.97-3.8,1.98-6.02-.67-2.4,1.13-3.71,2.42-5.13,5.62-6.22,9.79-13.74,16.7-18.82Z"/>
      <path class="cls-11" d="M566.38,215.8c5.21-6.11,9.43-12.93,14.06-19.46,10.7-15.05,21.22-30.24,31.82-45.36,.24-.34,.61-.59,.92-.89,9.75,2.88,19.24,6.53,28.78,9.99,19.64,7.12,39.22,14.42,59.02,21.11,1.91,.64,3.93,1.08,4.54,3.42,.45,2.3-1.19,3.71-2.38,5.22-6.71,8.53-13.47,17.01-21.67,24.2-2.58,2.27-5.26,4.49-8.99,4.55-11.6-2.19-22.67-6.34-34.03-9.4-8.46-2.28-16.81-4.96-25.25-7.31-2.84-.79-4.87-.16-6.94,1.91-3.67,3.66-6.96,7.63-10.42,11.47-2.43,2.7-2.75,5.19-1.01,8.53,8.14,15.67,15.52,31.74,24.4,47.03,.65,1.12,1.18,2.3,1.58,3.53,.15,.4,.26,.81,.36,1.23,.1,.41,.13,.83,.12,1.25-.41,3.81-2.76,6.63-5.16,9.25-7.46,8.14-14.48,16.71-22.48,24.33-12.81,12.18-22.83,26.94-36.06,38.72-1.3,1.23-2.59,2.46-3.75,3.82-6.84,7.31-12.82,15.36-20.28,22.17-6.54,5.97-11.76,13.29-17.61,19.97-5.28,3.66-9.13,8.7-13.08,13.63-4.5,5.62-9.39,10.89-14.67,15.78-6.99,6.48-12.77,14.01-18.9,21.23-1.78,2.09-3.67,4.03-5.84,5.71-3.31,2.56-6.6,5.32-8.82,8.8-4.47,7.01-10.45,12.58-16.23,18.37-1.74,1.74-3.41,3.51-4.18,5.93-.88,1.95-2.51,3.28-3.9,4.81-4.91,4.8-9.92,9.51-13.45,15.52-1.09,1.86-2.63,3.45-4.32,4.75-7.12,5.46-12.38,12.68-18.09,19.4-3.17,3.72-6.58,5.24-11.21,4.64-1.83-.42-3.44-1.06-3.52-3.32,3.77-12.44,9.59-23.92,16.58-34.81,8.9-13.87,17.52-27.93,26.28-41.88,11.43-18.2,22.72-36.51,33.7-54.99,10.91-18.37,22.61-36.24,33.82-54.41,5.27-8.55,9.68-17.59,15.12-26.03,1.11-1.72,1.84-3.58,1.55-5.7-.65-1.78,.57-3,1.34-4.32,9.66-16.45,20.35-32.28,30-48.73,8.43-11.24,14.51-23.93,21.95-35.77,1.78-2.84,2.93-6.26,6.3-7.86Z"/>
      <path class="cls-23" d="M383.11,532.82c1.29-.04,2.58-.11,3.88-.12,1.99-.02,3.69-.77,4.94-2.24,4.26-5,8.44-10.07,12.69-15.08,1.02-1.2,2.05-2.5,3.34-3.35,4.68-3.07,7.95-7.35,10.95-11.94,2.94-4.49,7.01-7.92,10.98-11.44,2.65,1.16,3.58-1.1,4.71-2.58,.85-1.12-.96-1.02-1.21-1.73,.22-2.13,1.47-3.66,2.93-5.09,2.66-2.61,5.22-5.33,7.93-7.89,3.14-2.97,5.94-6.19,8.15-9.91,2.31-3.89,5.55-7.1,9.06-9.67,4.63-3.37,8.12-7.74,11.51-12.04,5.26-6.67,11.14-12.68,17.17-18.57,6.26-6.1,11.72-12.88,17.18-19.67,2.25-2.8,4.95-5.16,8.1-6.95,3.44-3.05,6.47-6.49,9.65-9.8,1.2-1.25,2.35-2.76,4-3.2,5.4-1.43,9.07-5.14,12.68-9.02,.39-.41,.97-.83,1.5-.79,6.5,.39,10.26-5.25,15.73-7.1,.27-.09,.59-.2,.75-.42,4.75-6.39,12.88-7.39,19.04-11.64,3.56-2.45,8.01-4.7,12.59-5.98,3.79-1.06,6.36-4.84,10.69-5.11,1.84-.11,3.67-.8,5.53-.24,1.79,.54,3.35,.06,4.96-.71,3.24-1.54,6.49-3.09,10.18-3.29,2.74-.15,3.93-3.3,6.75-3.49,7.72-.51,14.21-4.14,20.53-8.22,2.79-1.8,5.44-3.5,9.01-4.33,2.35-.55,5.54-3.57,7.52-6.36,.98-1.38,2.24-2.09,3.82-2.57,7.34-2.22,8.7-4.88,6.41-12.27-.13-.41-.13-.85-.06-1.28,5.32-4.56,10.49-9.26,15.06-14.62,2.84-3.33,3.27-6.54,1.63-10.65-3.78-9.44-7.3-18.98-10.94-28.48-.5-1.31-1.32-2.6-.59-4.1,2.74-1.38,3.57,1.01,4.59,2.53,3.06,4.56,4.86,9.76,6.98,14.78,1.23,2.92,2.72,5.7,4.08,8.55,1,2.11,2.06,2.38,4.66,1.94,4.06-.69,7.36-5.1,12.02-2.56,2.61-3.07,8.24-.37,9.98-5.32,.56-1.6,2.22-1.65,3.7-.96,1.51,.7,2.56,.49,3.68-.95,3.57-4.62,3.63-4.57,8.44-1.61,2.03,2.96,2.89,6.45,4.43,9.62,.49,1.01,.52,2.73,2.43,2.36-.4,2.62-1.59,4.84-3.5,6.65-2.26,2.15-4.2,4.64-6.81,6.41-6.29,3.04-10.94,8.23-16.33,12.45-15.12,11.83-30.25,23.65-45.56,35.24-8.23,6.23-16.21,12.77-24.2,19.3-10.31,8.82-21.37,16.68-32.01,25.08-12.73,8.84-24.91,18.45-37.54,27.43-5.5,3.91-11.22,7.5-16.49,11.72-6.34,4.52-11.89,10.2-19.39,12.98-10.24,3.96-18.59,10.84-27.04,17.56-28.83,22.92-57.55,45.97-87.04,68.04-10.48,7.84-20.66,16.09-31.64,23.26-3.04,1.98-6.22,3.57-9.87,4.06-3.03-1.32-5.51-3.18-6.33-6.61Z"/>
      <path class="cls-8" d="M740,257.27c-.1,.72-.17,1.55-1.23,.87-1.16-.74-1.77-2.64-3.42-2.24-1.65,.4-2.25,2.11-2.91,3.54-1.39,2.99-1.49,3.45-4.68,1.55-2.13-1.27-2.99-1.05-3.17,1.21-.2,2.69-1.58,2.93-3.68,2.87-2.43-.06-5.25-.68-5.33,2.8-.88,.43-1.27,.21-1.61-.04-2.99-2.24-3.03-2.28-5.64-.02-1.03,.89-1.89,1.67-3.39,.95-1.25-.6-2.09,.38-3.03,1.07-2.46,1.78-3.06,1.63-4.55-1.12-2.86-5.3-5.27-10.82-7.53-16.39-1.4-3.46-3.09-6.78-5.18-9.88-.61-.9-1.29-1.52-2.4-1.57-.58-.11-1.18-.32-1.43-.85-3.42-7.22-6.5-14.56-8.3-22.39,3.44-.1,5.82-2.28,8.19-4.32,2.47-2.14,4.81-4.41,7.02-6.85,6.32-6.98,12.47-14.06,17.79-21.84,4.16,7.21,7.3,14.93,10.92,22.4,7.5,15.51,14.78,31.12,22.14,46.69,.55,1.16,1.31,2.24,1.41,3.58Z"/>
      <path class="cls-19" d="M433.21,592.08c-5.26,1.6-9.79,4.62-14.43,7.42-4.64,2.8-8.86,6.28-13.84,8.52-1.39-1.75-.08-3.3,.5-4.79,1.4-3.57,1.11-6.7-1.8-9.41-.73-.68-1.52-1.4-1.91-2.3-4.49-10.34-14.02-15.06-22.84-20.58-2.39-1.49-4.2-3.42-5.35-5.97,.95-4.45,5.02-6.64,7.33-10.11,.99-.95,1.98-1.92,2.93-2.92,3.35-2.76,5.61-6.6,9.14-9.17,.95,.02,1.6,.57,2.16,1.23,5.77,6.74,11.84,13.22,17.52,20.04,6.77,8.52,14.02,16.63,20.71,25.22,.33,.96,1.07,1.94-.13,2.83Z"/>
      <path class="cls-50" d="M373.77,564.62c4.75,5.89,11.64,8.9,17.67,13.05,3.49,2.4,6.55,4.96,8.41,8.84,1.17,2.44,2.57,4.8,4.62,6.63,3.23,2.86,3.64,6.2,2.14,10.08-.61,1.57-1.78,2.98-1.68,4.8-3.92,2.78-7.93,5.42-12.25,7.54-.27-.08-.72-.08-.79-.25-2.2-5.06-7.44-7.51-10.3-12.07-1.33-2.11-3.56-3.66-4.55-6.13-.2-.51-.6-1.04-1.06-1.32-4.29-2.59-6.76-6.81-9.76-10.59-1.98-2.5-4.37-4.6-7.98-4.16,1.15-2.73,3.25-4.75,5.16-6.91,2.59-4.11,5.57-7.8,10.36-9.5Z"/>
      <path class="cls-22" d="M433.21,592.08c.26-.89-.25-1.62-.48-2.42,7.5-4.37,12.28-11.56,17.77-17.86,11.75-13.49,24.86-25.51,37.89-37.66,6.71-6.26,13.36-12.6,19.81-19.15,7.55-7.68,15.42-15.07,23.38-22.33,4.13-3.77,7.93-7.93,12.52-11.21,1.25-.89,2.21-2.41,4.11-1.63,.76,2.34-1.26,3.27-2.43,4.55-4.35,4.77-9.46,8.82-13.36,14.02-6.64,7.24-13.96,13.82-20.62,21.04-5.62,6.94-12.16,13.01-18.64,19.09-7.95,7.46-16.24,14.55-23.84,22.38-10.52,9.76-20.51,20.03-30.48,30.35-1,1.03-1.89,2.72-3.89,1.88-.58-.35-1.15-.7-1.73-1.05Z"/>
      <path class="cls-53" d="M434.93,593.13c1.4-.48,2.41-1.46,3.41-2.52,9.78-10.45,19.56-20.91,30.41-30.29,.7-.49,1.5-.82,2.27-1.19,1.11-.53,2.27-.56,3.13,.43,.82,.95,.81,2.17,.29,3.22-1.08,2.18-2.62,4.05-4.22,5.86-.26,.33-.54,.64-.81,.96-.24,.33-.49,.65-.75,.97-6.81,9.56-16.72,16.08-24.39,24.8-1.23,1.01-2.15,2.59-4.1,2.32-2.01-1.23-3.61-2.92-5.24-4.57Z"/>
      <path class="cls-3" d="M457.59,612.13c.06,6.16-1.04,12.23-1.52,18.34-.59,7.56-1.97,15-2.88,22.5-1,8.21-2.47,16.36-3.73,24.53-1.33,8.6-2.67,17.19-3.99,25.79-1.18,7.75-2.3,15.52-3.53,23.26-.25,1.56-.87,3.05-2.46,3.85,.04-5.91,1.24-11.7,2.02-17.52,2.69-19.92,5.59-39.81,8.37-59.72,1.99-14.22,3.93-28.45,5.89-42.67-.53-1.07-.4-1.83,.95-2.02,1.61,.9,1.63,2.18,.87,3.65Z"/>
      <path class="cls-25" d="M456.65,608.59c-.66,.47-.8,1.17-.88,1.91-3.78-2.85-7.67-5.57-11.11-8.84-.27-.37-.29-.74-.02-1.11,7.22-3.98,12.03-10.5,17.16-16.61,4.78-5.7,9.62-11.35,14.46-17.01,1.08-1.26,2.46-3.48,4.26-.53-.86,4.84-4.12,8.47-6.54,12.48-5.64,9.35-11.52,18.55-16.21,28.43-.25,.53-.61,.97-1.11,1.28Z"/>
      <path class="cls-32" d="M444.65,600.98c0,.22,0,.45,0,.67-1.8-.98-3.27-2.32-4.48-3.96,1.19-.95,2.38-1.9,3.57-2.85,1.5,1.87,1.61,3.95,.9,6.14Z"/>
      <path class="cls-51" d="M373.77,564.62c-3.45,3.17-6.91,6.34-10.36,9.5-2.88-1.43-4-3.12-3.25-5.98,1.58-6.01,1.59-12.11,1.56-18.24-.01-2.55-.4-5.14,.65-7.63,.31-.72-.08-1.38-.73-1.84,1.05-2.3,2.72-4.13,4.41-5.95,1.61,1.18,2.84,2.71,4,4.31,.23,.32,.43,.66,.63,1,.22,.33,.42,.67,.61,1.02,2.74,5.3,7.05,9.47,10.32,14.39-2.29,3.41-5.28,6.24-7.85,9.42Z"/>
      <path class="cls-36" d="M369.5,539.58c-.91-1.85-3.27-2.73-3.43-5.08,1.98-2.19,3.97-4.38,5.94-6.58,.68-.76,1.4-1.39,2.48-1.37,1.72,1.3,3.09,3.08,5.24,3.78,.9,1.13,1.61,2.53,3.38,2.5,1.82,2.22,3.78,4.3,6.13,5.98,1.71,1.03,4.02,1.55,3.63,4.33-2.4,3.6-5.34,6.71-8.6,9.54-2.08,1.01-3.21-.57-4.41-1.71-3.45-3.24-6.71-6.66-9.5-10.51h0c-.31-.27-.57-.59-.85-.87Z"/>
      <path class="cls-9" d="M751.18,966.13c.08,5-4.4,9.9-9.26,10.13-5.1,.24-10.32-4.79-10.4-10.04-.08-5.01,4.44-9.6,9.55-9.71,5.31-.11,10.02,4.37,10.11,9.61Z"/>
      <path class="cls-12" d="M548.23,480.01c-3.47,1.25-5.8,4.1-8.41,6.43-7.59,6.79-14.86,13.92-22.19,20.99-4.01,3.87-7.75,8.06-11.87,11.71-6.22,5.52-11.46,12.07-18.27,16.93-.23,.17-.43,.38-.63,.59-8.89,8.96-18.73,16.98-27.18,26.37-5.74,6.39-11.16,13.06-17.35,19.05-.81,.78-1.41,1.81-1.98,2.8-1.71,2.96-4.26,4.52-7.64,4.78-7.07-8.21-14.02-16.52-20.73-25.03,.12-.08,.27-.27,.34-.24,6.37,2.19,8.37-2.18,10.09-6.8,1.89-5.08,5.9-8.66,9.62-12.03,7.5-6.8,14.33-14.3,22.32-20.59,4.93-3.88,10.77-5.92,16.09-8.95,5.36-3.05,9.87-6.87,14.35-10.86,2.52-2.25,4.98-4.23,8.44-4.86,2.87-.52,5.27-2.08,7.54-3.97,5.42-4.52,11.63-7.86,17.74-11.32,.75-.42,1.67-.67,2.16-1.38,3.92-5.59,10.26-8.27,15.19-12.65,2.27-2.02,4.6-3.91,6.11-6.6,1.03-1.84,2.55-3.04,4.62-3.61,7-1.93,12.03-7.21,18.1-10.74,1.37-.8,1.81-2.21,1.5-3.77-.71-3.62,1.58-5.48,4.44-5.59,11.1-.43,18.25-7.88,25.77-14.36,9.79-8.44,18.2-18.3,26.85-27.88-3.28,2.98-5.5,6.91-8.87,9.81-3.42,2.94-7.04,5.56-11.43,6.74-10.15,2.71-20.5,4.56-30.72,6.96-.85,.2-1.72,.12-2.46-.48-.03-2.52,2.15-2.8,3.74-3.42,3.75-1.45,7.69-2.4,11.66-2.99,15.68-2.34,27.46-10.01,36.25-23.49,7.66-11.74,16.53-22.73,26.79-32.48,8.75-8.32,18.18-15.82,27.71-23.19,.45-.35-.16,.02,.35-.24,2.35-1.2,4.72-3.99,7.31-2.35,2.41,1.52-.04,4.5,.2,6.83-2.19,2.63-4.22,5.41-6.61,7.85-7.51,7.68-14.44,15.89-21.72,23.77-6.49,7.02-13.19,13.89-19.16,21.41-.7,.88-1.68,1.54-2.53,2.3-.44,.03-.91,.09-1.2,.39-8.43,8.99-17.83,17-26.28,25.97-3.74,3.97-7.08,8.27-10.92,12.14-11.51,12.75-23.59,24.93-36.4,36.38-2.14,1.91-3.92,4.15-5.77,6.34-1.29,1.52-2.31,3.78-5,3.33Z"/>
      <path class="cls-44" d="M683.83,340.13c-2.21-1.98,.46-4.33-.4-6.63-4.37,.89-7.52,3.64-10.71,6.2-6.48,5.18-13.08,10.26-19.17,15.87-6.11,5.63-12.03,11.47-17.2,18.09-7.04,9.03-13.89,18.19-20.79,27.32-3.13,4.15-7.24,7.52-11.9,9.78-3.56,1.73-7.57,2.6-11.44,3.63-4.84,1.28-9.74,2.3-14.61,3.48-2.79,.68-5.58,1.38-7.75,3.45-3.03,3.04-6.67,3.91-10.8,3.11,.13-2.43,.14-2.5,3.14-3.78,7.81-3.36,15.98-5.67,24.14-7.95,13.09-3.67,23.39-10.88,31.41-21.96,8.32-11.5,16.95-22.81,26.89-33.02,1.81-1.86,3.96-3.31,5.86-5.07,1.81-1.67,1.49-2.79-.4-3.91,3.28-4.08,7.8-6.72,11.76-9.99,12.37-10.21,25.69-19.23,37.94-29.61,4.49-3.8,9.65-6.7,14.11-10.55,4.77-4.12,9.68-8.07,14.55-12.07,1.66-1.36,3.32-2.75,5.11-3.93,.81-.53,1.86-1.7,2.97-.27-3.03,3.44-5.94,6.99-9.12,10.29-8.55,8.89-16.67,18.17-24.84,27.4-4.76,5.37-9.79,10.49-14.69,15.73-1.37,1.46-2.72,2.94-4.08,4.4Z"/>
      <path class="cls-72" d="M526.71,696.92c-.02-1.53,.65-2.81,1.6-3.9,2.53-2.92,5.2-5.72,7.7-8.66,7.07-8.33,15.05-15.77,22.7-23.54,4.49-4.57,6.76-10.18,7.63-16.43,1.18-8.47,2.59-16.92,3.39-25.42,.59-6.26,1.44-12.46,2.65-18.62,.14-.7,.05-1.57,.66-1.98,1.11-.75,.95,.45,1.23,.96-.41,8.62-2.04,17.09-3.08,25.63-.97,7.97-2.18,15.92-3.09,23.9-.52,4.54-1.59,8.67-5.08,11.96-11.39,10.74-22.16,22.09-33.05,33.33-.99,1.02-2.17,1.86-3.26,2.78Z"/>
      <path class="cls-6" d="M548.23,480.01c.77-.64,1.59-1.22,2.29-1.92,13.06-13.03,26.07-26.1,39.18-39.08,1.83-1.81,2.89-4.3,5.2-5.65,1.86-.77,2.71-.04,2.75,1.87-1.92,1.48-1.82,3.84-2.54,5.84-.55-.04-.79-1.57-1.69-.22-.91,1.36-2.17,2.45-3.87,2.84-1.07,.58-1.83,1.47-2.51,2.45-6.13,6.61-12.5,12.97-19.29,18.91-10.38,10.31-20.61,20.78-31.52,30.55-1.25,1.12-2.08,3.28-4.46,2.31,.32-1.87,1.92-2.79,3.06-4.02,4.37-4.72,9.38-8.82,13.39-13.89Z"/>
      <path class="cls-62" d="M589.55,443.69c1.26-1.98,3.09-3.34,4.99-5.07,.26,1.13,.42,1.79,.57,2.45-1.31,10.99-2.53,21.99-3.94,32.96-1.54,11.97-3.25,23.92-4.91,35.88-.22,1.56-.6,3.1-.91,4.65-1.58-2.23-.79-4.71-.59-7.07,.39-4.69,1.16-9.35,1.44-14.04,.19-3.15,.8-6.24,1.09-9.37,.8-8.51,2.5-16.96,3.08-25.48,.3-4.46,2.03-9.03,.16-13.57-.23-.56-.49-1.01-.98-1.35Z"/>
      <path class="cls-2" d="M597.65,435.23c-.58-1.11-1.43-1.84-2.75-1.87,4.49-5.2,8.6-10.81,13.57-15.49,7.64-7.19,15.14-14.51,22.59-21.88,.74-.73,1.52-2.03,2.75-.53-2.3,3.32-5.08,6.2-7.91,9.07-8.38,8.47-16.29,17.36-23.99,26.45-1.29,1.53-2.84,2.84-4.26,4.25Z"/>
      <path class="cls-13" d="M456.65,608.59c.56-3.94,2.74-7.22,4.64-10.52,5.2-9.04,10.71-17.89,16.08-26.83,.95-1.59,1.77-3.26,2.65-4.89,.51-3.42,2.71-5.95,4.58-8.63,10.06-14.38,21.4-27.7,33.2-40.69,3.66-4.03,7.69-7.75,10.89-12.19,7.46-7.95,15.3-15.53,23.05-23.21,4.28-4.24,8.23-8.79,12.41-13.12,1.07-1.11,2-2.5,3.72-2.76,.43,.02,.8,.19,1.12,.47-.85,4.14-3.95,6.92-6.32,10.09-8.03,10.78-16.93,20.92-24.19,32.25-5.64,8.81-11.65,17.36-17.46,26.05-7.95,11.9-16.56,23.36-25.48,34.5-7.23,9.02-14.19,18.34-22.57,26.43-2.66,2.56-4.71,5.74-7.14,8.55-1.31,1.51-2.65,3.12-4.3,4.19-1.63,1.06-2.72,2.49-3.96,3.85,.12-1.3-.31-2.45-.94-3.54Z"/>
      <path class="cls-59" d="M568.99,466.23c-.31-.02-.63-.04-.94-.06-.55-.45-.8-1.03-.75-1.74,6.06-5.85,12.12-11.71,18.21-17.53,.39-.37,1.01-.5,1.52-.75-.4,1.55-1.25,2.82-2.37,3.96-5.26,5.34-10.73,10.48-15.68,16.12Z"/>
      <path class="cls-58" d="M486.08,335.86c.09-5.29,.99-10.49,1.53-15.73,.52-4.98,.95-9.94,2.7-14.68,1.96-5.31,4.87-9.99,8.74-14.14,4.83-5.17,10.26-9.57,16.28-13.24,4.91-2.98,8.64-6.95,11.33-12.03,1.25-2.37,2.62-4.81,5.16-6.18,1.13,1.54-.01,2.74-.7,3.91-13.55,23.13-26.74,46.48-41.44,68.91-.87,1.33-1.4,3.29-3.62,3.17Z"/>
      <path class="cls-29" d="M486.08,335.86c5.76-7.34,10.27-15.48,15.09-23.42,9.06-14.92,17.92-29.95,26.76-45,1.43-2.44,3.06-4.82,3.9-7.58,2.01-2.88,4.02-5.77,6.03-8.65,1.42-1.05,2.97-1.36,4.26-.02,1.32,1.37,.07,2.66-.58,3.87-.88,1.64-1.81,3.24-2.77,4.84-5.08,9.34-10.84,18.27-16.47,27.27-5.25,8.39-10.35,16.88-15.52,25.33-3.67,3.85-6.22,8.49-8.98,12.95-3.23,5.22-6.21,10.58-9.35,15.86-.35,.59-.97,1.01-1.47,1.51-1.81,.74-2.73,.17-2.69-1.82,.6-1.72,1.19-3.43,1.79-5.15Z"/>
      <path class="cls-39" d="M538.78,259.89c.4-2.86,2.54-5.06,3.21-7.85-1.28-1.31-2.79-.62-4.12-.83,.98-2.71,2.65-5.03,4.17-7.44,2.68-4.25,4.89-8.76,7.12-13.24,.94-.44,1.71-1.13,2.2-2,5.36-9.47,12.14-17.96,18.63-26.64,1.98-2.65,3.67-5.77,7.43-7.22-.61,3.62-2.6,6.2-4.37,8.88-1.65,2.5-3.43,4.91-5.03,7.44-.91,1.44-1.78,2.97-1.63,4.8-7.44,10.81-13.39,22.52-20.28,33.67-2.23,3.61-4.26,7.38-7.32,10.42Z"/>
      <path class="cls-45" d="M484.3,341c.51,1.18,1.44,1.73,2.69,1.81-2.82,7.11-7.2,13.3-11.49,19.54-.16,.23-.38,.43-.6,.62-.63,.54-1.24,1.43-2.17,.77-.62-.44-.53-1.31-.33-2.01,.7-2.49,1.69-4.88,3.01-7.11,2.77-4.67,5.49-9.37,8.89-13.63Z"/>
      <path class="cls-41" d="M439.54,339.47c-4.49,5.5-8.98,11.01-13.46,16.51-1.97,2.42-4.37,4.5-5.65,7.44-7.16,7.25-13.26,15.4-19.73,23.23-6.38,7.72-12.56,15.61-19.18,23.14-2.37,2.69-4.49,5.58-6.03,8.85-1.33,2.49-2.92,4.72-5.71,5.77-4.79,1.4-8.09,5.09-11.93,7.92-1.83,1.34-3.61,2.7-5.7,3.62-2.03,.48-3.48,1.93-5.1,3.08-11.33,8.07-22.17,16.83-33.87,24.38-2.15,1.39-4.22,2.96-6.76,3.64,.43-2.7,2.67-4.06,4.51-5.5,1.59-1.24,3.09-2.54,4.53-3.93,10.44-10.03,21.27-19.63,31.68-29.69,4.83-4.67,9.71-9.33,14.57-13.99,3.5-3.35,6.72-7.01,10.33-10.23,9.1-8.13,17.66-16.82,26.24-25.48,2.82-2.84,5.34-5.97,8.09-8.88,4.04-4.27,8.57-8,13.2-11.61,1.02-.79,1.76-1.87,2.6-2.84,4.8-5.51,9.73-10.91,15.61-15.32,.55-.42,1.1-1.04,1.74-.1Z"/>
      <path class="cls-1" d="M369.55,423.94c1.98-1.77,3.96-3.54,5.93-5.31,.16,3.07-1.39,5.5-3.07,7.82-4.78,6.57-9.18,13.51-14.61,19.5-6.35,7-11.02,15.29-17.85,21.89-2.23,2.15-4.13,4.62-6.61,6.6-1.99,1.59-3.94,2.75-6.47,2.89,.56-1.69,1.78-2.95,2.91-4.21,8.32-9.29,15.58-19.44,23.73-28.87,1.48-1.71,3.19-3.31,3.97-5.55,2.85-5.88,7.38-10.39,12.07-14.76Z"/>
      <path class="cls-37" d="M369.55,423.94c-3.36,5.47-7.86,10-12.07,14.76-1.43-1.58-3.33-2.27-5.33-2.76,4.44-4.46,9.55-8.07,14.75-11.57,.71-.48,1.6-1.42,2.66-.43Z"/>
      <path class="cls-34" d="M672.53,217.63c1.21,1.13,1.54,2.69,2.1,4.15,2.42,6.41,4.6,12.91,7.63,19.08,2.5,8.06,6.02,15.74,8.87,23.67,1.45,4.04,3,8.04,4.5,12.06,.51,1.37,.83,2.65-.12,4.06-4.61,6.85-10.22,12.71-16.89,17.56-.41,.3-1.08,.23-1.62,.34-1.69,.37-3.09-.53-4.51-1.14-14.93-6.39-30.26-11.75-45.44-17.49-2.26-.86-4.67-1.55-6.13-3.76l.02,.04c-.46-.24-.76-.6-.89-1.1-2.02-3.8-4.1-7.56-6.05-11.4-7.1-13.96-14.12-27.97-21.29-41.9-1.02-1.98-.79-3.32,.47-5.01,4.39-5.94,10.01-10.73,14.92-16.17,1.34-1.48,2.72-.55,3.97-.2,8.44,2.36,16.84,4.82,25.25,7.26,10.76,3.12,21.51,6.24,32.28,9.34,.96,.28,1.96,.4,2.94,.59Z"/>
      <path class="cls-17" d="M620.91,276.17c11.28,4.91,23.02,8.63,34.45,13.13,7.3,2.88,14.75,5.41,21.63,9.26,.19,.38,.35,.78,.57,1.15,1.33,2.2,3.27,5.24,2.09,6.99-1.89,2.8-3.82,6.57-8.2,6.6-2.28,.01-3.87,.66-4.36,3.14-.16,.82-.97,1.7-1.77,1.75-3.3,.22-4.22,2.34-4.23,5.26-1.53-.25-2.8-.39-4.03-.69-.89-.22-1.64-.34-2.37,.39-3.94,3.98-9.04,6.12-13.81,8.82-3.67,2.08-7.69,2.01-11.53,2.96-.97,.24-2.1,.1-2.56,1.21-.87,2.12-2.53,2.31-4.54,2.34-4,.06-7.37,2.13-10.8,3.87-1.01,.51-1.8,1.55-3.03,.51-1.66-1.4-3.41-1-5.28-.42-3.05,.95-6.57,.74-8.5,4.15-.4,.7-1.72,.94-2.67,1.23-.67,.21-1.42,.13-2.14,.21-2.69,.31-3.59,3.46-5.85,3.99-2.34,.55-4.41,.86-6.62,2.33-3.54,2.36-6.71,5.97-11.63,5.68-1.42-.09-1.98,.95-2.52,1.98-1.18,2.25-2.7,3.9-5.5,4.24-2.06,.25-3.51,1.88-4.84,3.4-1.5,1.73-3.21,2.8-5.62,2.46-1.45-.21-2.81,.33-4.2,.7-2.32,.62-1.04,1.8-.44,3.36-2.7-1.05-4.52-.35-5.31,2.26-.66,2.21-2.7,2.65-4.42,2.91-2.92,.43-5,1.92-6.93,3.96-2.27,2.4-4.65,4.7-7,7.02-1.01,.99-1.86,2.26-3.52,2.23,2.58-4.9,7.24-8.07,10.45-12.48,3.19-4.38,7.01-8.23,11.34-11.63,2.76-2.17,5.01-5.12,7.09-8.01,2.69-3.74,6.35-6.54,9.12-10.18,2-.3,2.54-2.07,3.46-3.46,1.07-1.93,2.83-3.23,4.35-4.75,7.01-6.98,13.87-14.09,19.67-22.15,1.24-1.73,2.95-3.14,4.51-4.63,10.52-9.99,19.91-21.04,29.81-31.61,2.54-2.72,4.59-5.85,5.68-9.49Z"/>
      <path class="cls-18" d="M433.39,484.34h3.07c-.71,3.2-2.86,4.99-5.01,6.3-1.66,1.02-1.33-1.05-1.56-2,1.17-1.44,2.33-2.87,3.5-4.3Z"/>
      <path class="cls-26" d="M556.9,348.79c.17,1.56-.37,2.81-1.64,3.74-.7,.52-1.31,.43-1.81-.28,.83-1.47,1.98-2.63,3.46-3.46Z"/>
      <path class="cls-17" d="M620.05,275.11c.5,.2,.78,.58,.89,1.1-.53-.18-.82-.55-.89-1.1Z"/>
      <path class="cls-33" d="M558.62,423.9c4.02,.36,7.54-1.48,11.23-2.58,7.25-1.6,14.5-3.23,21.76-4.8,2.79-.61,5.67-.89,8.4-1.7,7.59-2.23,14.11-6,19-12.58,1.85-2.49,3.57-5.4,6.57-6.96-2.03,4.28-5.44,7.5-8.37,11.08-4.54,5.55-9.81,10.43-14.41,15.94-2.27,2.72-5.2,4.92-7.98,7.17-4.46,3.6-9.25,6.75-14.02,9.93-1.89,1.26-3.79,1.93-6.04,1.81-1.42-.07-2.83,0-4.25,.48-3.61,1.23-3.92,1.41-2.92,5.11,.43,1.6,.03,2.67-1.11,3.32-6.78,3.89-12.25,10.04-20.25,11.81-1.23,.27-2.25,.88-2.72,1.92-2.35,5.29-7.19,8.02-11.42,11.4-1.46,1.17-2.96,2.22-4.6,3.15-2.14,1.22-3.81,3.04-5.14,5.12-.63,.99-1.3,1.94-2.42,2.36-6.59,2.51-12.19,6.71-17.86,10.71-2.09,1.47-3.74,3.7-6.4,4.09-5.3,.77-8.77,4.16-12.55,7.55-3.87,3.48-7.51,7.59-13.04,8.81-.89,.2-1.71,1.04-2.41,1.73-1.48,1.45-3.1,2.44-5.21,2.77-3.43,.55-5.73,3.11-8.32,5.11-3.61,2.79-7.69,5.1-9.62,9.6-.26,.61-.87,1.19-1.46,1.5-7.39,3.88-11.79,10.95-17.65,16.45-.6,.56-.93,1.45-1.28,2.23-.47,1.04-.82,2.14-1.24,3.2-2.61,6.56-4.39,7.37-10.88,4.99-5.77-6.57-11.55-13.14-17.33-19.7-.56-.63-1.2-1.2-1.8-1.8-1.21-1.44-2.42-2.89-3.63-4.33,7.26-1.9,13.05-6.46,18.91-10.76,11.52-8.46,22.89-17.14,34.26-25.8,10.35-7.88,20.78-15.66,30.89-23.85,13.99-11.34,28.2-22.4,42.28-33.62,6.6-5.26,13.01-10.76,20.37-14.98,2.85-1.63,5.62-3.46,8.92-4.13,2.93,1.56,5.48-.19,8.19-.84,1.82-.44,3.44-2.29,5.56-.93Z"/>
      <path class="cls-78" d="M558.62,423.9c-3.33,1.16-6.72,2.16-9.96,3.53-2.16,.91-3.15,.18-3.79-1.75,7.23-2.99,12.67-8.6,19-12.9,1.42,.46,2.9,.46,4.25-.01,11.53-3.99,23.06-7.87,33.15-15.15,6.74-4.86,10.36-12.2,15.74-18.12,1.48-1.63,.34-3.94,1.18-5.78,3.78-3.93,8.38-6.85,12.63-10.19,5.84-4.59,12.03-8.73,17.39-13.91,.47-.46,1.26-.6,1.9-.88,1.26,.2,2.6-.22,3.8,.43,.69,1.27-.41,1.82-1.02,2.52-3.28,3.78-7.2,6.92-10.74,10.45-7.06,7.06-12.55,15.27-18.75,22.95-2.69,3.34-4.86,7.19-7.67,10.3-5.84,6.46-12.33,12.34-20.82,15.51-8.21,3.07-16.77,4.96-24.98,7.96-3.87,1.42-8,2.34-11.31,5.05Z"/>
      <path class="cls-16" d="M618.18,373.72c1.76,3.13,.87,5.81-1.52,8.12-2.08,2-3.84,4.28-5.29,6.7-3.42,5.72-8.6,9.45-14,12.97-8.97,5.84-19.18,8.75-29.08,12.42-1.77,.66-3.36,.84-4.42-1.15,5.52-4.82,11.91-8.44,17.75-12.81,10.54-7.89,21.18-15.64,31.81-23.41,1.48-1.08,2.85-2.43,4.75-2.83Z"/>
      <path class="cls-4" d="M370.36,540.45c3.68,2.7,6.45,6.35,9.79,9.41,1.24,1.14,2.23,2.63,4.12,2.81-.69,1.05-1.55,1.91-2.64,2.53-5.17-3.84-8.57-9.03-11.27-14.75Z"/>
      <path class="cls-40" d="M468.87,569.02c1.44-1.93,2.86-3.86,4.31-5.77,.75-.98,1.16-2.08,.4-3.13-.77-1.06-1.78-.26-2.72-.03-.68,.17-1.41,.16-2.11,.23,2.96-3.71,6.57-6.78,10.02-9.99,11.02-10.25,22.16-20.37,32.39-31.43,1.76-1.15,3.1-2.77,4.6-4.2,1.11-1.06,2.15-2.31,3.93-1.26,.7,2.66-1.61,3.82-2.91,5.25-13.23,14.47-25.68,29.62-39.02,43.99-1.66,1.79-3.35,3.54-5.16,5.17-1.03,.93-2.06,2.16-3.73,1.17Z"/>
      <path class="cls-79" d="M519.73,513.72c-1.92-.31-3.05,.93-4.29,2.09-1.28,1.21-2.2,2.97-4.28,3.09,1.23-2.32,3.37-3.81,5.16-5.61,5.11-5.16,10.3-10.25,15.45-15.37,1.34-.34,2.08-1.47,3.02-2.32,10.05-9.16,19.67-18.76,29.28-28.37,1.01-1.01,2.15-1.87,3.23-2.8,.65,.41,.77,1.04,.75,1.74-3.55,2.73-6.08,6.43-9.17,9.6-5.99,6.16-12.13,12.18-18.22,18.24-3.75,3.73-7.53,7.44-11.3,11.16-3.24,2.81-5.25,7.02-9.63,8.55Z"/>
      <path class="cls-5" d="M519.73,513.72c2.4-1.5,4.02-3.84,6.11-5.68,1.14-1,1.96-2.39,3.53-2.87-.19,1.39-1.23,2.21-2.1,3.16-6.36,6.96-12.92,13.76-19.04,20.93-9.92,11.62-19.66,23.4-27.59,36.53-.14,.23-.42,.38-.63,.57-1.01-1.26-1.83-.42-2.42,.36-4.73,6.27-10.1,12.02-15.13,18.04-4.28,5.11-8.1,10.79-13.95,14.45-1.23,.77-2.41,1.54-3.86,1.79-1.21-1.91-.83-4.06-.9-6.14,3.53-4.37,7.56-8.31,11.8-11.91,4.64-3.93,8.63-8.36,12.44-13.02,.23-.36,.53-.65,.85-.91,0,0,.02,.02,.02,.02,3.98-1.69,6.19-5.36,9.13-8.22,.81-.79,1.36-1.84,2.14-2.66,10.13-10.67,20.01-21.55,29.46-32.83,3.29-3.93,7.39-7.17,10.14-11.58Z"/>
      <path class="cls-40" d="M468.84,569c-.28,.3-.57,.61-.85,.91,.11-.46,.4-.77,.85-.91Z"/>
      <path class="cls-4" d="M369.5,539.58c.28,.29,.57,.58,.85,.87-.28-.29-.57-.58-.85-.87Z"/>
    </g>
  </g>
</svg>