<?xml version="1.0" encoding="UTF-8" ?>
<!DOCTYPE svg PUBLIC "-//W3C//DTD SVG 1.1//EN" "http://www.w3.org/Graphics/SVG/1.1/DTD/svg11.dtd">
<svg width="1110pt" height="1146pt" viewBox="0 0 1110 1146" version="1.1" xmlns="http://www.w3.org/2000/svg">
<path fill="#f04a71" stroke="#f04a71" stroke-width="0.09375" opacity="1.00" d=" M 432.37 126.49 C 523.68 94.39 625.05 91.89 717.90 119.17 C 773.56 135.40 826.03 162.35 871.90 197.80 C 882.42 206.04 892.67 214.64 902.49 223.70 C 910.14 230.61 917.39 237.95 924.57 245.35 C 919.43 246.55 914.14 245.79 908.93 245.96 C 901.27 246.17 893.60 245.73 885.94 246.12 C 872.20 233.34 857.71 221.34 842.42 210.45 C 773.49 160.75 689.84 131.81 604.91 128.58 C 555.45 126.50 505.63 132.75 458.28 147.22 C 401.24 164.59 347.89 193.85 302.49 232.49 C 289.16 231.02 275.61 233.04 262.29 231.41 C 310.59 184.80 368.96 148.58 432.37 126.49 Z" />
<path fill="#fb702a" stroke="#fb702a" stroke-width="0.09375" opacity="1.00" d=" M 871.90 197.80 C 885.54 191.65 899.64 186.22 913.47 180.38 C 910.55 194.93 906.27 209.31 902.49 223.70 C 892.67 214.64 882.42 206.04 871.90 197.80 Z" />
<path fill="#fd7447" stroke="#fd7447" stroke-width="0.09375" opacity="1.00" d=" M 686.13 275.42 C 738.91 255.43 790.10 231.58 842.42 210.45 C 857.71 221.34 872.20 233.34 885.94 246.12 C 888.45 248.75 891.09 251.27 893.77 253.73 C 876.03 309.22 857.36 364.43 841.21 420.41 L 840.48 419.20 C 838.71 415.42 837.42 411.43 835.64 407.66 C 821.82 377.87 807.47 348.33 793.49 318.62 C 792.93 317.29 791.91 316.13 790.61 315.53 C 754.74 303.75 719.68 289.66 683.89 277.66 C 682.83 276.18 684.99 275.56 686.13 275.42 Z" />
<path fill="#f2506a" stroke="#f2506a" stroke-width="0.09375" opacity="1.00" d=" M 148.21 406.50 C 172.39 340.52 211.78 280.23 262.29 231.41 C 275.61 233.04 289.16 231.02 302.49 232.49 C 247.32 279.27 203.98 339.86 177.66 407.25 C 168.09 406.53 158.47 407.52 148.92 406.62 L 148.21 406.50 Z" />
<path fill="#f14f6c" stroke="#f14f6c" stroke-width="0.09375" opacity="1.00" d=" M 885.94 246.12 C 893.60 245.73 901.27 246.17 908.93 245.96 C 914.14 245.79 919.43 246.55 924.57 245.35 C 941.93 263.83 958.26 283.46 972.23 304.64 C 964.19 305.44 956.11 304.87 948.05 304.99 C 945.15 305.11 941.97 304.43 939.39 306.09 C 925.59 287.48 910.35 269.92 893.77 253.73 C 891.09 251.27 888.45 248.75 885.94 246.12 Z" />
<path fill="#e2e8e6" stroke="#e2e8e6" stroke-width="0.09375" opacity="1.00" d=" M 678.99 277.91 C 679.88 276.47 682.88 275.47 683.53 277.61 C 667.97 299.70 652.68 322.00 636.91 343.95 C 633.53 348.61 630.63 353.66 626.75 357.92 C 629.31 347.32 638.79 340.21 642.03 329.94 C 637.24 332.89 634.51 337.89 630.92 342.03 C 623.62 351.52 616.92 361.44 610.50 371.54 C 609.41 373.49 608.19 375.35 606.58 376.90 C 608.32 369.73 614.63 364.55 615.94 357.18 C 611.18 359.37 606.94 362.61 603.25 366.31 C 602.32 367.56 600.94 367.89 599.47 367.55 C 601.21 365.38 603.38 363.40 604.32 360.71 C 622.51 340.76 640.66 320.73 658.52 300.50 C 664.50 294.96 669.60 288.29 675.55 282.57 C 676.90 281.18 677.87 279.49 678.99 277.91 Z" />
<path fill="#fdfefe" stroke="#fdfefe" stroke-width="0.09375" opacity="1.00" d=" M 683.53 277.61 L 683.89 277.66 C 719.68 289.66 754.74 303.75 790.61 315.53 C 791.91 316.13 792.93 317.29 793.49 318.62 C 790.92 322.55 789.16 327.39 784.97 329.93 C 782.38 331.16 782.39 334.24 781.46 336.57 C 775.83 338.57 773.13 344.23 769.66 348.64 C 764.75 351.81 760.93 356.70 755.14 358.40 C 729.76 351.19 704.52 343.51 679.10 336.47 C 672.25 344.25 663.86 350.80 658.46 359.80 C 668.98 380.47 678.83 401.50 690.21 421.71 C 691.34 423.32 691.80 425.45 693.35 426.73 C 692.48 435.34 684.32 440.12 679.45 446.43 C 676.48 450.74 672.05 453.71 669.02 457.96 C 664.96 463.51 659.07 467.42 655.04 473.00 C 653.43 475.42 650.69 476.64 648.68 478.67 C 644.76 482.51 642.45 487.70 638.24 491.27 C 634.44 494.49 631.96 498.90 628.29 502.23 C 624.50 505.38 622.25 509.99 617.99 512.62 C 616.28 513.99 614.74 515.57 613.34 517.26 C 610.62 521.19 606.86 524.23 604.11 528.13 C 601.77 531.12 598.64 533.41 596.56 536.62 C 593.85 540.88 588.68 542.64 585.86 546.79 C 583.03 550.93 579.03 554.06 576.20 558.22 C 572.16 562.10 568.72 566.54 564.95 570.67 C 560.85 571.66 559.42 576.00 556.70 578.72 C 554.54 580.90 552.48 583.17 550.68 585.66 C 545.93 592.18 540.07 597.80 533.85 602.90 C 529.92 607.95 524.91 612.07 521.41 617.47 C 518.77 621.42 514.79 624.21 512.01 628.06 C 510.03 630.70 507.72 633.11 505.00 635.00 C 499.53 638.86 495.47 644.36 491.94 649.98 C 489.56 653.81 485.56 656.22 482.92 659.85 C 479.17 664.69 472.74 667.72 471.02 673.92 C 469.87 675.83 468.45 677.56 466.85 679.11 C 462.99 682.14 459.59 685.72 456.08 689.14 C 452.88 696.08 447.33 701.71 441.34 706.35 C 434.72 713.72 428.03 721.05 421.79 728.78 C 419.46 732.24 415.04 730.65 411.62 730.43 L 410.53 730.73 C 409.45 729.74 408.78 728.42 407.55 727.58 C 413.01 707.53 424.56 689.95 435.59 672.61 C 443.67 658.23 453.28 644.78 461.64 630.59 C 469.84 617.42 477.85 604.14 486.08 590.99 C 488.67 585.18 493.08 580.46 495.75 574.69 C 499.33 569.82 501.75 564.25 505.30 559.36 C 514.20 544.35 524.24 530.04 532.84 514.85 C 534.72 511.75 537.01 508.90 538.69 505.67 C 541.27 500.44 545.22 496.05 547.66 490.74 C 550.85 485.46 553.18 479.73 556.61 474.60 C 557.70 473.15 557.76 471.35 557.77 469.62 C 560.70 465.47 563.33 461.13 565.81 456.70 C 574.83 441.81 584.72 427.44 593.27 412.26 C 605.71 394.98 615.21 375.80 626.75 357.92 C 630.63 353.66 633.53 348.61 636.91 343.95 C 652.68 322.00 667.97 299.70 683.53 277.61 Z" />
<path fill="#341f22" stroke="#341f22" stroke-width="0.09375" opacity="0.68" d=" M 662.69 294.92 C 663.02 294.41 663.68 293.39 664.01 292.88 L 664.14 293.77 C 663.78 294.05 663.05 294.63 662.69 294.92 Z" />
<path fill="#f25268" stroke="#f25268" stroke-width="0.09375" opacity="1.00" d=" M 939.39 306.09 C 941.97 304.43 945.15 305.11 948.05 304.99 C 956.11 304.87 964.19 305.44 972.23 304.64 L 972.55 304.62 C 993.98 336.55 1011.87 370.90 1025.00 407.07 C 1015.14 407.04 1005.25 406.67 995.41 407.34 C 981.31 371.32 962.42 337.17 939.39 306.09 Z" />
<path fill="#f4fafb" stroke="#f4fafb" stroke-width="0.09375" opacity="1.00" d=" M 793.49 318.62 C 807.47 348.33 821.82 377.87 835.64 407.66 C 834.85 407.64 833.28 407.58 832.49 407.56 C 831.31 406.00 830.33 404.30 829.00 402.87 C 825.06 404.16 825.83 408.98 823.75 411.72 C 820.45 413.04 819.60 408.41 817.04 407.86 C 814.49 409.20 816.38 412.34 815.36 414.37 C 812.37 415.45 808.75 412.57 806.16 415.20 C 804.80 416.09 805.53 417.76 805.34 419.07 C 802.42 419.11 801.24 416.29 799.79 414.28 C 797.43 415.77 796.66 418.95 794.10 420.10 C 793.30 419.15 792.52 418.19 791.68 417.30 C 789.86 419.06 787.75 423.57 784.83 421.15 C 777.58 410.40 774.55 397.41 767.44 386.57 C 766.74 385.81 765.96 385.16 765.10 384.60 C 761.54 375.96 758.08 367.27 755.14 358.40 C 760.93 356.70 764.75 351.81 769.66 348.64 C 773.13 344.23 775.83 338.57 781.46 336.57 C 782.39 334.24 782.38 331.16 784.97 329.93 C 789.16 327.39 790.92 322.55 793.49 318.62 Z" />
<path fill="#d1d8d7" stroke="#d1d8d7" stroke-width="0.09375" opacity="1.00" d=" M 630.92 342.03 C 634.51 337.89 637.24 332.89 642.03 329.94 C 638.79 340.21 629.31 347.32 626.75 357.92 C 615.21 375.80 605.71 394.98 593.27 412.26 C 593.81 406.61 599.45 402.65 599.79 397.14 C 597.68 397.01 595.76 398.01 593.88 398.80 C 597.81 391.32 603.01 384.58 606.58 376.90 C 608.19 375.35 609.41 373.49 610.50 371.54 C 616.92 361.44 623.62 351.52 630.92 342.03 Z" />
<path fill="#7f233b" stroke="#7f233b" stroke-width="0.09375" opacity="1.00" d=" M 658.46 359.80 C 663.86 350.80 672.25 344.25 679.10 336.47 C 704.52 343.51 729.76 351.19 755.14 358.40 C 758.08 367.27 761.54 375.96 765.10 384.60 C 770.99 399.75 776.88 414.91 782.48 430.16 C 777.40 439.50 769.16 446.73 761.21 453.70 C 739.71 444.23 717.49 436.49 695.50 428.22 C 694.67 427.86 693.96 427.36 693.35 426.73 C 691.80 425.45 691.34 423.32 690.21 421.71 C 678.83 401.50 668.98 380.47 658.46 359.80 Z" />
<path fill="#f1f7f7" stroke="#f1f7f7" stroke-width="0.09375" opacity="1.00" d=" M 603.25 366.31 C 606.94 362.61 611.18 359.37 615.94 357.18 C 614.63 364.55 608.32 369.73 606.58 376.90 C 603.01 384.58 597.81 391.32 593.88 398.80 C 592.50 401.32 590.91 403.73 589.19 406.03 C 588.73 406.36 587.82 407.01 587.36 407.34 C 584.17 411.87 581.13 416.51 578.28 421.27 C 575.71 425.79 570.53 427.56 566.64 430.68 C 560.84 435.16 554.47 439.07 549.64 444.66 C 542.32 452.21 537.95 462.31 536.46 472.66 C 535.25 480.82 534.43 489.04 534.13 497.29 C 533.19 499.56 532.37 501.88 531.43 504.16 C 526.26 512.43 519.74 520.25 517.13 529.80 C 517.61 530.12 518.56 530.75 519.04 531.07 C 525.21 523.08 530.38 514.37 535.13 505.47 C 542.72 493.55 549.20 480.88 557.77 469.62 C 557.76 471.35 557.70 473.15 556.61 474.60 C 553.18 479.73 550.85 485.46 547.66 490.74 C 545.22 496.05 541.27 500.44 538.69 505.67 C 537.01 508.90 534.72 511.75 532.84 514.85 C 524.24 530.04 514.20 544.35 505.30 559.36 C 501.75 564.25 499.33 569.82 495.75 574.69 C 493.08 580.46 488.67 585.18 486.08 590.99 C 477.85 604.14 469.84 617.42 461.64 630.59 C 453.28 644.78 443.67 658.23 435.59 672.61 C 424.56 689.95 413.01 707.53 407.55 727.58 C 404.88 726.73 403.16 724.02 400.94 722.34 C 398.44 720.32 395.44 718.92 393.42 716.36 C 386.61 712.31 379.87 707.69 373.45 702.91 C 376.53 701.93 380.01 701.75 382.60 699.62 C 383.40 697.88 382.10 695.74 382.90 693.99 C 384.62 692.36 386.32 690.61 386.26 688.07 C 386.49 685.62 390.06 686.27 390.94 684.19 C 390.56 683.75 389.80 682.88 389.42 682.44 C 391.45 681.26 393.34 679.84 395.36 678.64 C 396.25 678.65 397.03 679.42 397.89 679.71 C 400.19 678.88 400.62 676.13 400.92 674.02 C 401.42 668.80 402.51 663.67 403.72 658.59 C 407.21 655.85 408.49 651.56 411.18 648.18 C 413.30 645.85 411.29 642.72 411.15 640.06 C 413.04 636.46 415.14 632.90 418.28 630.25 C 420.89 628.40 419.71 624.96 420.26 622.29 C 421.60 621.27 423.05 620.40 424.33 619.30 C 425.52 616.75 424.82 613.61 426.22 611.10 C 432.53 599.98 434.52 586.20 444.03 577.03 C 445.67 574.45 445.68 571.30 446.47 568.44 C 447.51 567.19 449.06 566.31 449.61 564.72 C 451.11 560.69 453.07 556.87 455.12 553.11 C 457.10 550.72 459.34 548.43 460.25 545.36 C 462.65 537.99 468.65 532.66 471.70 525.61 C 480.25 512.62 487.99 499.00 498.06 487.07 C 499.47 484.99 498.33 482.46 497.69 480.34 C 500.13 477.51 502.63 474.55 504.01 471.04 C 506.31 468.60 508.68 466.24 510.99 463.81 C 511.55 468.56 510.21 473.22 509.80 477.93 C 507.28 495.57 504.00 513.15 503.07 530.97 C 503.32 535.86 502.26 540.65 501.40 545.43 C 500.75 548.00 502.60 550.24 504.01 552.19 C 509.02 546.91 508.93 539.23 512.01 532.98 C 517.30 521.90 525.16 512.16 529.49 500.61 C 530.02 497.41 530.23 494.15 530.73 490.94 C 528.77 478.20 530.72 465.24 529.54 452.44 C 529.09 450.20 529.18 447.33 526.74 446.24 C 536.77 435.30 546.67 424.23 556.69 413.26 C 557.70 412.80 558.56 412.14 559.27 411.29 C 571.21 397.93 583.42 384.80 595.82 371.87 C 597.14 370.52 598.19 368.94 599.47 367.55 C 600.94 367.89 602.32 367.56 603.25 366.31 Z" />
<path fill="#edf5f5" stroke="#edf5f5" stroke-width="0.09375" opacity="1.00" d=" M 765.10 384.60 C 765.96 385.16 766.74 385.81 767.44 386.57 C 774.55 397.41 777.58 410.40 784.83 421.15 C 787.75 423.57 789.86 419.06 791.68 417.30 C 792.52 418.19 793.30 419.15 794.10 420.10 C 796.66 418.95 797.43 415.77 799.79 414.28 C 801.24 416.29 802.42 419.11 805.34 419.07 C 805.53 417.76 804.80 416.09 806.16 415.20 C 808.75 412.57 812.37 415.45 815.36 414.37 C 816.38 412.34 814.49 409.20 817.04 407.86 C 819.60 408.41 820.45 413.04 823.75 411.72 C 825.83 408.98 825.06 404.16 829.00 402.87 C 830.33 404.30 831.31 406.00 832.49 407.56 C 833.28 407.58 834.85 407.64 835.64 407.66 C 837.42 411.43 838.71 415.42 840.48 419.20 C 840.68 419.60 841.09 420.41 841.29 420.81 C 839.97 426.05 834.74 428.63 831.38 432.41 L 830.70 432.60 C 830.31 432.71 829.53 432.92 829.14 433.02 C 819.17 439.56 810.63 447.97 801.28 455.32 C 797.14 458.55 792.44 460.99 788.50 464.47 C 775.68 475.47 761.73 485.06 748.61 495.63 C 743.31 498.86 739.29 503.71 734.09 507.07 C 731.71 509.44 728.39 510.78 726.40 513.52 C 721.03 517.66 716.08 522.40 710.48 526.30 C 702.94 531.26 696.44 537.55 688.93 542.54 C 674.28 552.96 660.13 564.06 645.42 574.39 C 638.87 579.46 631.51 583.39 625.36 588.97 C 618.13 593.87 611.93 600.36 603.81 603.87 C 602.04 604.35 600.21 604.71 598.60 605.61 C 590.19 610.28 581.99 615.43 574.75 621.81 C 569.35 625.66 564.62 630.36 559.15 634.14 C 552.72 639.42 545.75 644.02 539.66 649.71 C 532.33 655.72 524.49 661.10 517.33 667.32 C 509.73 673.04 502.62 679.40 494.73 684.74 C 485.43 691.76 476.52 699.30 466.99 706.02 C 456.07 714.48 445.19 723.02 433.73 730.74 C 429.30 733.76 424.59 736.59 419.26 737.64 L 418.42 737.53 C 416.23 735.09 413.56 733.09 411.62 730.43 C 415.04 730.65 419.46 732.24 421.79 728.78 C 428.03 721.05 434.72 713.72 441.34 706.35 C 447.33 701.71 452.88 696.08 456.08 689.14 C 459.59 685.72 462.99 682.14 466.85 679.11 C 467.16 679.67 467.78 680.78 468.09 681.34 C 470.83 679.04 473.83 676.58 475.18 673.18 C 473.77 673.31 472.38 673.58 471.02 673.92 C 472.74 667.72 479.17 664.69 482.92 659.85 C 485.56 656.22 489.56 653.81 491.94 649.98 C 495.47 644.36 499.53 638.86 505.00 635.00 C 507.72 633.11 510.03 630.70 512.01 628.06 C 514.79 624.21 518.77 621.42 521.41 617.47 C 524.91 612.07 529.92 607.95 533.85 602.90 C 540.07 597.80 545.93 592.18 550.68 585.66 C 552.48 583.17 554.54 580.90 556.70 578.72 C 559.42 576.00 560.85 571.66 564.95 570.67 C 564.00 572.09 563.13 573.56 562.28 575.03 C 563.97 574.74 565.18 573.47 566.14 572.13 C 568.74 568.06 573.31 565.94 575.79 561.75 C 580.12 559.42 581.77 554.03 586.66 552.57 C 588.90 551.73 591.36 551.96 593.71 551.64 C 595.09 549.30 594.74 546.09 597.03 544.28 C 598.76 545.35 600.42 547.73 602.72 546.76 C 603.25 544.81 600.35 543.68 599.12 542.44 C 603.09 540.92 607.37 541.17 611.49 540.63 C 613.02 538.87 613.39 535.60 616.03 535.18 C 619.56 535.03 621.83 531.83 625.35 531.59 C 625.50 529.85 624.80 527.69 626.71 526.69 C 629.70 524.35 632.45 528.57 635.66 528.07 C 635.01 527.07 634.31 526.11 633.81 525.05 C 636.29 522.49 640.55 522.69 643.10 520.12 C 643.72 519.00 644.21 517.77 645.11 516.83 C 646.60 517.29 648.19 517.31 649.71 517.71 C 652.30 515.66 654.28 512.09 657.99 512.10 C 659.81 511.61 662.49 512.58 663.64 510.70 C 663.49 509.81 663.48 508.92 663.61 508.02 C 664.28 507.39 665.30 507.72 666.14 507.56 C 669.51 507.50 672.33 505.36 675.55 504.66 C 677.06 505.70 678.39 507.01 679.98 507.97 C 681.07 506.77 682.04 505.46 683.27 504.40 C 687.45 504.59 690.71 502.29 693.97 500.05 C 695.64 500.76 697.15 501.82 698.76 502.68 C 699.67 500.64 700.05 498.33 701.36 496.50 C 702.83 495.95 704.49 496.99 706.05 497.00 C 711.68 496.85 716.10 492.85 721.41 491.48 C 724.18 490.84 725.83 488.57 727.40 486.40 C 728.28 486.93 729.16 487.47 730.12 487.93 C 731.36 485.97 732.00 483.50 733.91 482.05 C 736.69 483.39 739.69 484.59 742.84 483.75 C 743.64 481.74 741.23 480.92 740.24 479.60 C 741.39 476.91 745.22 478.35 747.52 477.67 C 748.25 475.72 748.15 473.33 749.78 471.82 C 752.57 471.12 755.60 471.49 758.25 470.23 C 760.14 468.51 760.05 465.46 762.07 463.83 C 764.15 464.14 764.72 466.50 765.94 467.92 C 766.03 465.51 764.64 463.58 763.57 461.57 C 762.69 458.97 762.27 456.24 761.21 453.70 C 769.16 446.73 777.40 439.50 782.48 430.16 C 776.88 414.91 770.99 399.75 765.10 384.60 Z" />
<path fill="#c4cac8" stroke="#c4cac8" stroke-width="0.09375" opacity="1.00" d=" M 593.88 398.80 C 595.76 398.01 597.68 397.01 599.79 397.14 C 599.45 402.65 593.81 406.61 593.27 412.26 C 584.72 427.44 574.83 441.81 565.81 456.70 C 563.33 461.13 560.70 465.47 557.77 469.62 C 549.20 480.88 542.72 493.55 535.13 505.47 C 533.77 505.39 532.53 504.95 531.43 504.16 C 532.37 501.88 533.19 499.56 534.13 497.29 C 540.97 488.23 546.38 478.17 552.47 468.61 C 564.28 449.03 575.73 429.23 587.44 409.60 C 588.06 408.43 588.62 407.23 589.19 406.03 C 590.91 403.73 592.50 401.32 593.88 398.80 Z" />
<path fill="#e7eceb" stroke="#e7eceb" stroke-width="0.09375" opacity="1.00" d=" M 587.36 407.34 C 587.82 407.01 588.73 406.36 589.19 406.03 C 588.62 407.23 588.06 408.43 587.44 409.60 C 575.73 429.23 564.28 449.03 552.47 468.61 C 546.38 478.17 540.97 488.23 534.13 497.29 C 534.43 489.04 535.25 480.82 536.46 472.66 C 537.95 462.31 542.32 452.21 549.64 444.66 C 554.47 439.07 560.84 435.16 566.64 430.68 C 570.53 427.56 575.71 425.79 578.28 421.27 C 581.13 416.51 584.17 411.87 587.36 407.34 Z" />
<path fill="#f45565" stroke="#f45565" stroke-width="0.09375" opacity="1.00" d=" M 148.18 406.55 L 148.92 406.62 C 158.47 407.52 168.09 406.53 177.66 407.25 C 168.46 430.79 161.32 455.14 156.31 479.91 C 146.88 480.18 137.44 479.83 128.02 480.07 C 132.64 455.05 139.55 430.48 148.18 406.55 Z" />
<path fill="#f45565" stroke="#f45565" stroke-width="0.09375" opacity="1.00" d=" M 995.41 407.34 C 1005.25 406.67 1015.14 407.04 1025.00 407.07 C 1033.61 430.79 1040.40 455.19 1045.00 480.01 C 1035.58 479.97 1026.16 480.03 1016.74 479.98 C 1011.74 455.21 1004.58 430.88 995.41 407.34 Z" />
<path fill="#f1f9f9" stroke="#f1f9f9" stroke-width="0.09375" opacity="1.00" d=" M 693.35 426.73 C 693.96 427.36 694.67 427.86 695.50 428.22 C 717.49 436.49 739.71 444.23 761.21 453.70 C 762.27 456.24 762.69 458.97 763.57 461.57 C 764.64 463.58 766.03 465.51 765.94 467.92 C 764.72 466.50 764.15 464.14 762.07 463.83 C 760.05 465.46 760.14 468.51 758.25 470.23 C 755.60 471.49 752.57 471.12 749.78 471.82 C 748.15 473.33 748.25 475.72 747.52 477.67 C 745.22 478.35 741.39 476.91 740.24 479.60 C 741.23 480.92 743.64 481.74 742.84 483.75 C 739.69 484.59 736.69 483.39 733.91 482.05 C 732.00 483.50 731.36 485.97 730.12 487.93 C 729.16 487.47 728.28 486.93 727.40 486.40 C 725.83 488.57 724.18 490.84 721.41 491.48 C 716.10 492.85 711.68 496.85 706.05 497.00 C 704.49 496.99 702.83 495.95 701.36 496.50 C 700.05 498.33 699.67 500.64 698.76 502.68 C 697.15 501.82 695.64 500.76 693.97 500.05 C 690.71 502.29 687.45 504.59 683.27 504.40 C 682.04 505.46 681.07 506.77 679.98 507.97 C 678.39 507.01 677.06 505.70 675.55 504.66 C 672.33 505.36 669.51 507.50 666.14 507.56 C 665.30 507.72 664.28 507.39 663.61 508.02 C 663.48 508.92 663.49 509.81 663.64 510.70 C 662.49 512.58 659.81 511.61 657.99 512.10 C 654.28 512.09 652.30 515.66 649.71 517.71 C 648.19 517.31 646.60 517.29 645.11 516.83 C 644.21 517.77 643.72 519.00 643.10 520.12 C 640.55 522.69 636.29 522.49 633.81 525.05 C 634.31 526.11 635.01 527.07 635.66 528.07 C 632.45 528.57 629.70 524.35 626.71 526.69 C 624.80 527.69 625.50 529.85 625.35 531.59 C 621.83 531.83 619.56 535.03 616.03 535.18 C 613.39 535.60 613.02 538.87 611.49 540.63 C 607.37 541.17 603.09 540.92 599.12 542.44 C 600.35 543.68 603.25 544.81 602.72 546.76 C 600.42 547.73 598.76 545.35 597.03 544.28 C 594.74 546.09 595.09 549.30 593.71 551.64 C 591.36 551.96 588.90 551.73 586.66 552.57 C 581.77 554.03 580.12 559.42 575.79 561.75 C 573.31 565.94 568.74 568.06 566.14 572.13 C 565.18 573.47 563.97 574.74 562.28 575.03 C 563.13 573.56 564.00 572.09 564.95 570.67 C 568.72 566.54 572.16 562.10 576.20 558.22 C 579.03 554.06 583.03 550.93 585.86 546.79 C 588.68 542.64 593.85 540.88 596.56 536.62 C 598.64 533.41 601.77 531.12 604.11 528.13 C 606.86 524.23 610.62 521.19 613.34 517.26 C 613.70 517.40 614.41 517.69 614.77 517.84 C 616.40 516.51 617.91 514.85 617.99 512.62 C 622.25 509.99 624.50 505.38 628.29 502.23 C 631.96 498.90 634.44 494.49 638.24 491.27 C 642.45 487.70 644.76 482.51 648.68 478.67 C 650.69 476.64 653.43 475.42 655.04 473.00 C 659.07 467.42 664.96 463.51 669.02 457.96 C 672.05 453.71 676.48 450.74 679.45 446.43 C 684.32 440.12 692.48 435.34 693.35 426.73 Z" />
<path fill="#d0d5d5" stroke="#d0d5d5" stroke-width="0.09375" opacity="1.00" d=" M 829.14 433.02 C 829.53 432.92 830.31 432.71 830.70 432.60 L 830.48 433.54 C 809.23 456.63 788.35 480.07 767.08 503.15 C 766.72 501.81 766.30 500.48 766.12 499.12 C 766.64 497.54 768.49 495.94 767.65 494.22 C 766.18 493.57 764.77 494.86 763.48 495.38 C 756.87 499.27 751.17 504.47 745.06 509.06 C 739.07 513.36 734.09 518.86 728.36 523.49 C 726.46 524.94 725.38 527.19 723.40 528.55 C 717.43 532.93 713.69 539.49 708.83 544.93 C 701.58 553.17 695.79 562.52 689.12 571.20 C 684.88 575.60 681.06 580.53 675.86 583.88 C 670.60 587.54 664.19 588.63 658.11 590.12 C 652.12 592.12 645.79 592.77 639.83 594.84 C 636.68 595.98 633.08 596.32 630.69 598.92 C 626.83 599.69 623.10 602.74 619.09 601.09 C 620.15 600.43 621.08 599.57 622.29 599.19 C 630.47 596.20 638.59 592.96 647.12 591.08 C 654.50 588.66 662.02 586.47 668.99 582.98 C 674.84 579.70 679.23 574.52 684.39 570.36 C 686.87 568.34 688.08 565.32 689.85 562.75 C 692.68 560.49 694.26 557.18 696.67 554.55 C 700.97 548.62 705.89 543.05 709.75 536.74 C 715.88 530.52 722.21 524.52 728.32 518.29 C 729.96 516.66 732.38 515.58 732.83 513.07 C 730.69 513.35 728.54 513.39 726.40 513.52 C 728.39 510.78 731.71 509.44 734.09 507.07 C 739.29 503.71 743.31 498.86 748.61 495.63 C 761.73 485.06 775.68 475.47 788.50 464.47 C 792.44 460.99 797.14 458.55 801.28 455.32 C 810.63 447.97 819.17 439.56 829.14 433.02 Z" />
<path fill="#fcfefe" stroke="#fcfefe" stroke-width="0.09375" opacity="1.00" d=" M 510.99 463.81 C 516.00 457.83 521.54 452.14 526.74 446.24 C 529.18 447.33 529.09 450.20 529.54 452.44 C 530.72 465.24 528.77 478.20 530.73 490.94 C 530.23 494.15 530.02 497.41 529.49 500.61 C 525.16 512.16 517.30 521.90 512.01 532.98 C 508.93 539.23 509.02 546.91 504.01 552.19 C 502.60 550.24 500.75 548.00 501.40 545.43 C 502.26 540.65 503.32 535.86 503.07 530.97 C 504.00 513.15 507.28 495.57 509.80 477.93 C 510.21 473.22 511.55 468.56 510.99 463.81 Z" />
<path fill="#ec6840" stroke="#ec6840" stroke-width="0.09375" opacity="1.00" d=" M 491.56 476.24 C 495.76 474.49 501.19 475.12 504.01 471.04 C 502.63 474.55 500.13 477.51 497.69 480.34 C 496.37 481.59 495.11 482.90 493.83 484.18 C 493.38 483.84 492.49 483.16 492.04 482.82 C 484.34 488.83 477.07 495.34 469.52 501.53 C 454.61 514.59 439.44 527.37 425.10 541.06 C 419.15 545.76 414.29 551.63 408.37 556.36 C 397.10 567.08 386.21 578.19 375.19 589.13 C 372.86 592.48 369.74 595.08 366.67 597.71 C 362.68 603.01 358.02 607.72 353.16 612.22 C 349.78 616.47 345.30 619.64 342.03 623.98 C 338.40 626.35 336.29 630.27 332.81 632.82 C 329.80 635.16 328.10 638.72 325.27 641.26 C 321.96 644.30 319.40 648.05 316.17 651.18 C 314.27 652.95 313.12 655.31 311.97 657.60 C 307.61 658.36 303.43 660.30 298.98 660.16 C 277.34 665.96 255.66 671.69 233.75 676.44 C 234.94 675.29 236.26 674.25 237.89 673.82 C 254.24 668.26 271.33 665.26 287.64 659.60 C 291.30 658.82 291.14 654.53 292.89 651.95 C 297.25 648.29 301.93 644.86 305.40 640.29 C 309.94 634.75 317.16 632.23 321.38 626.40 C 323.11 624.09 326.08 623.09 327.58 620.56 C 329.85 616.71 335.14 616.07 337.13 612.04 C 339.23 607.75 344.95 607.37 347.43 603.41 C 348.52 601.85 349.93 600.57 351.51 599.52 C 363.14 591.35 373.41 581.48 383.58 571.63 C 394.84 560.51 406.10 549.40 418.01 538.98 C 440.99 516.53 466.13 496.28 492.74 478.27 C 492.45 477.77 491.86 476.75 491.56 476.24 Z" />
<path fill="#fd6f44" stroke="#fd6f44" stroke-width="0.09375" opacity="1.00" d=" M 249.39 530.55 C 330.01 511.99 410.93 494.74 491.56 476.24 C 491.86 476.75 492.45 477.77 492.74 478.27 C 466.13 496.28 440.99 516.53 418.01 538.98 C 406.10 549.40 394.84 560.51 383.58 571.63 C 373.41 581.48 363.14 591.35 351.51 599.52 C 349.93 600.57 348.52 601.85 347.43 603.41 C 344.95 607.37 339.23 607.75 337.13 612.04 C 335.14 616.07 329.85 616.71 327.58 620.56 C 326.08 623.09 323.11 624.09 321.38 626.40 C 317.16 632.23 309.94 634.75 305.40 640.29 C 301.93 644.86 297.25 648.29 292.89 651.95 C 291.14 654.53 291.30 658.82 287.64 659.60 C 271.33 665.26 254.24 668.26 237.89 673.82 C 236.26 674.25 234.94 675.29 233.75 676.44 C 211.23 682.10 188.70 687.80 166.14 693.31 C 157.21 695.32 148.35 697.68 139.48 699.96 C 127.47 702.92 115.50 706.08 103.57 709.35 C 102.11 709.67 100.18 710.40 98.96 709.15 C 103.70 705.32 107.33 699.95 111.14 695.08 C 114.70 691.56 117.70 687.60 120.60 683.54 C 123.73 679.04 128.25 675.64 131.02 670.89 C 131.94 669.58 133.11 668.49 134.10 667.26 C 137.00 663.70 139.39 659.75 142.73 656.57 C 145.69 654.80 147.77 651.97 149.35 648.98 C 150.89 646.75 152.64 644.68 154.28 642.54 C 158.17 636.65 163.77 632.25 167.60 626.36 C 170.04 622.34 173.63 619.22 176.86 615.87 C 180.79 608.70 187.17 603.42 192.11 597.03 C 195.57 591.66 199.97 587.03 204.40 582.48 C 209.14 575.96 213.97 569.43 219.94 563.96 C 222.45 561.71 223.96 558.65 226.29 556.25 C 230.19 550.00 235.89 545.23 240.62 539.65 C 243.53 536.63 245.40 532.34 249.39 530.55 Z" />
<path fill="#f55861" stroke="#f55861" stroke-width="0.09375" opacity="1.00" d=" M 128.02 480.07 C 137.44 479.83 146.88 480.18 156.31 479.91 C 149.82 512.17 147.03 545.14 147.79 578.03 C 138.53 578.01 129.27 578.05 120.02 578.00 C 119.30 545.20 121.87 512.30 128.02 480.07 Z" />
<path fill="#f55861" stroke="#f55861" stroke-width="0.09375" opacity="1.00" d=" M 1016.74 479.98 C 1026.16 480.03 1035.58 479.97 1045.00 480.01 C 1051.16 512.27 1053.74 545.19 1053.00 578.01 C 1045.31 578.00 1037.63 578.09 1029.95 578.00 C 1028.31 577.91 1026.73 578.28 1025.22 578.83 C 1026.05 545.70 1023.26 512.47 1016.74 479.98 Z" />
<path fill="#eaf3f3" stroke="#eaf3f3" stroke-width="0.09375" opacity="1.00" d=" M 493.83 484.18 C 495.11 482.90 496.37 481.59 497.69 480.34 C 498.33 482.46 499.47 484.99 498.06 487.07 C 487.99 499.00 480.25 512.62 471.70 525.61 C 468.65 532.66 462.65 537.99 460.25 545.36 C 459.34 548.43 457.10 550.72 455.12 553.11 C 453.07 556.87 451.11 560.69 449.61 564.72 C 449.06 566.31 447.51 567.19 446.47 568.44 C 445.68 571.30 445.67 574.45 444.03 577.03 C 434.52 586.20 432.53 599.98 426.22 611.10 C 424.82 613.61 425.52 616.75 424.33 619.30 C 423.05 620.40 421.60 621.27 420.26 622.29 C 419.71 624.96 420.89 628.40 418.28 630.25 C 415.14 632.90 413.04 636.46 411.15 640.06 C 411.29 642.72 413.30 645.85 411.18 648.18 C 408.49 651.56 407.21 655.85 403.72 658.59 C 402.51 663.67 401.42 668.80 400.92 674.02 C 400.62 676.13 400.19 678.88 397.89 679.71 C 397.03 679.42 396.25 678.65 395.36 678.64 C 393.34 679.84 391.45 681.26 389.42 682.44 C 389.80 682.88 390.56 683.75 390.94 684.19 C 390.06 686.27 386.49 685.62 386.26 688.07 C 386.32 690.61 384.62 692.36 382.90 693.99 C 382.10 695.74 383.40 697.88 382.60 699.62 C 380.01 701.75 376.53 701.93 373.45 702.91 C 366.07 697.27 358.05 692.58 350.39 687.38 C 351.90 685.43 354.17 684.46 356.26 683.30 C 357.46 680.83 357.57 677.99 358.53 675.44 C 359.83 673.77 361.97 672.96 363.20 671.23 C 365.78 667.73 367.13 663.39 370.29 660.32 C 372.98 657.58 375.56 654.65 377.19 651.14 C 379.11 646.89 381.94 643.15 384.01 638.97 C 387.30 632.54 392.45 627.39 396.38 621.39 C 408.25 603.86 418.25 585.00 431.15 568.20 C 435.50 563.73 438.51 558.21 442.35 553.34 C 446.56 546.29 452.42 540.28 455.61 532.64 C 455.55 532.15 455.43 531.18 455.37 530.69 C 458.40 525.46 463.05 521.46 466.73 516.73 C 470.45 510.52 476.09 505.88 480.36 500.08 C 484.50 494.50 488.96 489.14 493.83 484.18 Z" />
<path fill="#d75f40" stroke="#d75f40" stroke-width="0.09375" opacity="1.00" d=" M 469.52 501.53 C 477.07 495.34 484.34 488.83 492.04 482.82 C 492.49 483.16 493.38 483.84 493.83 484.18 C 488.96 489.14 484.50 494.50 480.36 500.08 C 479.00 500.27 477.70 500.74 476.69 501.70 C 469.62 507.23 463.21 513.62 457.69 520.70 C 456.21 522.55 454.02 523.64 452.50 525.44 C 449.25 529.30 444.21 531.25 441.48 535.60 C 439.48 538.87 435.64 540.32 433.63 543.60 C 400.60 577.20 366.49 609.80 331.83 641.80 C 327.51 645.87 322.37 649.27 319.07 654.29 C 317.43 655.39 315.74 656.38 314.03 657.38 C 313.52 657.44 312.48 657.55 311.97 657.60 C 313.12 655.31 314.27 652.95 316.17 651.18 C 319.40 648.05 321.96 644.30 325.27 641.26 C 328.10 638.72 329.80 635.16 332.81 632.82 C 336.29 630.27 338.40 626.35 342.03 623.98 C 345.30 619.64 349.78 616.47 353.16 612.22 C 358.02 607.72 362.68 603.01 366.67 597.71 C 369.74 595.08 372.86 592.48 375.19 589.13 C 386.21 578.19 397.10 567.08 408.37 556.36 C 414.29 551.63 419.15 545.76 425.10 541.06 C 439.44 527.37 454.61 514.59 469.52 501.53 Z" />
<path fill="#d6dddd" stroke="#d6dddd" stroke-width="0.09375" opacity="1.00" d=" M 763.48 495.38 C 764.77 494.86 766.18 493.57 767.65 494.22 C 768.49 495.94 766.64 497.54 766.12 499.12 C 766.30 500.48 766.72 501.81 767.08 503.15 C 748.36 524.30 729.17 545.06 710.20 566.00 C 706.55 566.39 704.79 569.85 702.54 572.23 C 697.52 576.63 692.45 581.03 687.79 585.80 C 685.65 589.66 681.17 591.10 678.63 594.64 C 673.58 600.84 667.75 606.33 662.88 612.67 C 645.94 630.07 628.46 646.93 611.37 664.20 C 610.86 664.49 609.85 665.09 609.35 665.38 C 577.20 692.82 548.63 723.97 517.02 751.93 C 513.73 756.04 509.04 758.68 505.94 762.96 C 501.43 767.51 497.79 772.83 493.06 777.18 C 490.12 779.85 488.44 783.70 485.05 785.91 C 482.00 787.96 480.67 791.53 478.54 794.37 C 476.60 796.63 473.67 797.54 470.91 798.33 C 465.60 792.22 460.38 786.01 455.42 779.61 C 452.35 775.60 448.40 772.32 445.60 768.11 C 449.02 767.56 450.13 772.58 453.41 771.69 C 454.53 769.20 456.04 766.96 457.98 765.05 C 460.16 763.02 459.72 759.71 461.35 757.37 C 462.76 755.12 464.98 753.62 466.91 751.88 C 468.70 750.27 469.43 747.82 471.15 746.16 C 472.98 744.66 475.31 743.99 477.33 742.79 C 477.29 741.61 477.11 740.43 477.19 739.27 C 478.49 737.78 480.69 737.98 482.40 737.28 C 484.31 736.97 484.64 734.75 485.54 733.39 C 488.66 727.24 496.04 725.41 500.02 720.06 C 503.24 717.48 507.64 717.76 511.39 716.53 C 512.45 714.92 512.91 712.57 515.10 712.13 C 518.16 711.12 521.29 710.01 523.53 707.57 C 527.46 703.41 532.94 701.03 536.41 696.41 C 538.64 692.85 543.63 695.05 546.49 692.53 C 548.92 690.53 552.17 689.70 554.20 687.19 C 557.36 683.50 561.89 681.44 566.59 680.53 C 566.48 679.45 566.42 678.39 566.31 677.34 C 569.17 676.41 572.24 676.20 575.02 675.04 C 577.95 673.47 577.59 668.98 580.86 667.77 C 584.94 665.80 588.70 663.19 591.83 659.89 C 593.63 657.87 596.20 656.93 598.42 655.50 C 600.42 653.00 600.96 649.49 603.30 647.30 C 606.40 646.65 609.84 646.58 612.28 644.25 C 614.78 641.90 618.36 641.16 620.74 638.67 C 623.27 635.62 627.81 635.42 630.12 632.07 C 632.11 630.13 630.02 627.74 629.11 625.88 C 631.59 620.32 638.78 624.45 643.06 622.08 C 647.08 619.42 651.62 617.54 655.04 614.05 C 660.89 610.81 665.55 606.00 670.40 601.49 C 673.05 599.74 674.42 596.82 676.57 594.58 C 681.33 590.64 684.40 585.12 689.27 581.26 C 693.07 576.26 697.83 571.77 700.85 566.30 C 697.81 565.14 695.67 567.91 695.55 570.68 C 692.98 572.74 690.87 575.24 688.94 577.89 C 682.04 585.18 672.71 590.06 662.82 591.72 C 651.98 593.52 641.40 596.55 630.69 598.92 C 633.08 596.32 636.68 595.98 639.83 594.84 C 645.79 592.77 652.12 592.12 658.11 590.12 C 664.19 588.63 670.60 587.54 675.86 583.88 C 681.06 580.53 684.88 575.60 689.12 571.20 C 695.79 562.52 701.58 553.17 708.83 544.93 C 713.69 539.49 717.43 532.93 723.40 528.55 C 725.38 527.19 726.46 524.94 728.36 523.49 C 734.09 518.86 739.07 513.36 745.06 509.06 C 751.17 504.47 756.87 499.27 763.48 495.38 Z" />
<path fill="#c9523f" stroke="#c9523f" stroke-width="0.09375" opacity="1.00" d=" M 476.69 501.70 C 477.70 500.74 479.00 500.27 480.36 500.08 C 476.09 505.88 470.45 510.52 466.73 516.73 C 463.05 521.46 458.40 525.46 455.37 530.69 C 451.91 535.11 447.63 538.86 444.39 543.48 C 440.39 549.64 434.44 554.23 430.60 560.53 C 427.38 564.93 423.73 569.03 419.89 572.88 C 417.46 576.68 414.90 580.41 411.57 583.49 C 407.90 586.90 405.44 591.27 402.68 595.39 C 400.74 597.23 398.90 599.17 396.90 600.94 C 395.16 599.97 393.75 601.48 392.39 602.35 C 386.47 606.69 380.69 611.20 374.94 615.75 C 358.24 627.06 342.78 640.12 325.64 650.77 C 323.54 652.11 321.31 653.22 319.07 654.29 C 322.37 649.27 327.51 645.87 331.83 641.80 C 366.49 609.80 400.60 577.20 433.63 543.60 C 435.64 540.32 439.48 538.87 441.48 535.60 C 444.21 531.25 449.25 529.30 452.50 525.44 C 454.02 523.64 456.21 522.55 457.69 520.70 C 463.21 513.62 469.62 507.23 476.69 501.70 Z" />
<path fill="#dedfde" stroke="#dedfde" stroke-width="0.09375" opacity="1.00" d=" M 517.13 529.80 C 519.74 520.25 526.26 512.43 531.43 504.16 C 532.53 504.95 533.77 505.39 535.13 505.47 C 530.38 514.37 525.21 523.08 519.04 531.07 C 518.56 530.75 517.61 530.12 517.13 529.80 Z" />
<path fill="#e3e7e7" stroke="#e3e7e7" stroke-width="0.09375" opacity="0.92" d=" M 613.34 517.26 C 614.74 515.57 616.28 513.99 617.99 512.62 C 617.91 514.85 616.40 516.51 614.77 517.84 C 614.41 517.69 613.70 517.40 613.34 517.26 Z" />
<path fill="#c3c9c8" stroke="#c3c9c8" stroke-width="0.09375" opacity="1.00" d=" M 726.40 513.52 C 728.54 513.39 730.69 513.35 732.83 513.07 C 732.38 515.58 729.96 516.66 728.32 518.29 C 722.21 524.52 715.88 530.52 709.75 536.74 C 705.89 543.05 700.97 548.62 696.67 554.55 C 694.26 557.18 692.68 560.49 689.85 562.75 C 688.08 565.32 686.87 568.34 684.39 570.36 C 679.23 574.52 674.84 579.70 668.99 582.98 C 662.02 586.47 654.50 588.66 647.12 591.08 C 638.59 592.96 630.47 596.20 622.29 599.19 C 621.08 599.57 620.15 600.43 619.09 601.09 C 615.64 603.40 611.53 604.30 607.68 605.75 C 606.28 606.09 604.67 607.11 603.33 606.09 C 603.45 605.54 603.69 604.42 603.81 603.87 C 611.93 600.36 618.13 593.87 625.36 588.97 C 627.09 591.22 629.91 590.12 632.05 589.21 C 636.15 587.40 640.48 586.21 644.71 584.75 C 657.17 579.88 669.57 573.77 678.82 563.85 C 681.79 558.95 685.10 554.24 689.29 550.29 C 691.38 548.41 692.94 542.80 688.93 542.54 C 696.44 537.55 702.94 531.26 710.48 526.30 C 716.08 522.40 721.03 517.66 726.40 513.52 Z" />
<path fill="#e2eceb" stroke="#e2eceb" stroke-width="0.09375" opacity="1.00" d=" M 455.37 530.69 C 455.43 531.18 455.55 532.15 455.61 532.64 C 452.42 540.28 446.56 546.29 442.35 553.34 C 438.51 558.21 435.50 563.73 431.15 568.20 C 418.25 585.00 408.25 603.86 396.38 621.39 C 392.45 627.39 387.30 632.54 384.01 638.97 C 381.94 643.15 379.11 646.89 377.19 651.14 C 375.56 654.65 372.98 657.58 370.29 660.32 C 367.13 663.39 365.78 667.73 363.20 671.23 C 361.97 672.96 359.83 673.77 358.53 675.44 C 357.57 677.99 357.46 680.83 356.26 683.30 C 354.17 684.46 351.90 685.43 350.39 687.38 C 346.83 685.29 343.24 683.28 339.69 681.19 L 338.48 681.23 C 338.21 679.71 336.40 678.98 335.35 677.97 C 337.78 673.51 340.93 669.53 344.40 665.86 C 348.57 664.27 352.91 662.32 355.70 658.69 C 357.97 656.23 360.84 654.34 362.52 651.35 C 366.31 647.12 369.78 642.61 373.07 637.98 C 375.06 635.00 378.37 633.09 379.70 629.65 C 380.64 627.06 383.96 626.51 384.87 623.92 C 385.50 622.02 387.17 620.93 388.45 619.52 C 392.16 614.75 394.75 609.22 398.82 604.73 C 400.37 601.76 403.59 599.02 402.68 595.39 C 405.44 591.27 407.90 586.90 411.57 583.49 C 414.90 580.41 417.46 576.68 419.89 572.88 C 423.73 569.03 427.38 564.93 430.60 560.53 C 434.44 554.23 440.39 549.64 444.39 543.48 C 447.63 538.86 451.91 535.11 455.37 530.69 Z" />
<path fill="#b6b9b8" stroke="#b6b9b8" stroke-width="0.09375" opacity="1.00" d=" M 645.42 574.39 C 660.13 564.06 674.28 552.96 688.93 542.54 C 692.94 542.80 691.38 548.41 689.29 550.29 C 685.10 554.24 681.79 558.95 678.82 563.85 C 669.57 573.77 657.17 579.88 644.71 584.75 C 640.48 586.21 636.15 587.40 632.05 589.21 C 629.91 590.12 627.09 591.22 625.36 588.97 C 631.51 583.39 638.87 579.46 645.42 574.39 Z" />
<path fill="#dce3e3" stroke="#dce3e3" stroke-width="0.09375" opacity="1.00" d=" M 695.55 570.68 C 695.67 567.91 697.81 565.14 700.85 566.30 C 697.83 571.77 693.07 576.26 689.27 581.26 C 684.40 585.12 681.33 590.64 676.57 594.58 C 674.42 596.82 673.05 599.74 670.40 601.49 C 665.55 606.00 660.89 610.81 655.04 614.05 C 651.62 617.54 647.08 619.42 643.06 622.08 C 638.78 624.45 631.59 620.32 629.11 625.88 C 630.02 627.74 632.11 630.13 630.12 632.07 C 627.81 635.42 623.27 635.62 620.74 638.67 C 618.36 641.16 614.78 641.90 612.28 644.25 C 609.84 646.58 606.40 646.65 603.30 647.30 C 600.96 649.49 600.42 653.00 598.42 655.50 C 596.20 656.93 593.63 657.87 591.83 659.89 C 588.70 663.19 584.94 665.80 580.86 667.77 C 577.59 668.98 577.95 673.47 575.02 675.04 C 572.24 676.20 569.17 676.41 566.31 677.34 C 566.42 678.39 566.48 679.45 566.59 680.53 C 561.89 681.44 557.36 683.50 554.20 687.19 C 552.17 689.70 548.92 690.53 546.49 692.53 C 543.63 695.05 538.64 692.85 536.41 696.41 C 532.94 701.03 527.46 703.41 523.53 707.57 C 521.29 710.01 518.16 711.12 515.10 712.13 C 512.91 712.57 512.45 714.92 511.39 716.53 C 507.64 717.76 503.24 717.48 500.02 720.06 C 496.04 725.41 488.66 727.24 485.54 733.39 C 484.64 734.75 484.31 736.97 482.40 737.28 C 480.69 737.98 478.49 737.78 477.19 739.27 C 477.11 740.43 477.29 741.61 477.33 742.79 C 475.31 743.99 472.98 744.66 471.15 746.16 C 469.43 747.82 468.70 750.27 466.91 751.88 C 464.98 753.62 462.76 755.12 461.35 757.37 C 459.72 759.71 460.16 763.02 457.98 765.05 C 456.04 766.96 454.53 769.20 453.41 771.69 C 450.13 772.58 449.02 767.56 445.60 768.11 C 442.95 764.24 438.68 761.66 437.02 757.07 C 431.70 753.40 428.27 747.51 423.75 742.94 C 422.83 740.66 419.74 739.99 419.26 737.64 C 424.59 736.59 429.30 733.76 433.73 730.74 C 445.19 723.02 456.07 714.48 466.99 706.02 C 476.52 699.30 485.43 691.76 494.73 684.74 C 502.62 679.40 509.73 673.04 517.33 667.32 C 524.49 661.10 532.33 655.72 539.66 649.71 C 545.75 644.02 552.72 639.42 559.15 634.14 C 564.62 630.36 569.35 625.66 574.75 621.81 C 581.99 615.43 590.19 610.28 598.60 605.61 C 600.21 604.71 602.04 604.35 603.81 603.87 C 603.69 604.42 603.45 605.54 603.33 606.09 C 604.67 607.11 606.28 606.09 607.68 605.75 C 611.53 604.30 615.64 603.40 619.09 601.09 C 623.10 602.74 626.83 599.69 630.69 598.92 C 641.40 596.55 651.98 593.52 662.82 591.72 C 672.71 590.06 682.04 585.18 688.94 577.89 C 690.87 575.24 692.98 572.74 695.55 570.68 Z" />
<path fill="#c9d0cd" stroke="#c9d0cd" stroke-width="0.09375" opacity="1.00" d=" M 702.54 572.23 C 704.79 569.85 706.55 566.39 710.20 566.00 C 707.58 569.34 704.89 572.63 701.92 575.66 C 699.81 576.94 698.35 578.97 696.70 580.74 C 687.82 590.93 678.22 600.55 669.67 610.98 C 668.62 612.30 667.58 613.68 666.32 614.80 C 665.17 614.08 664.02 613.37 662.88 612.67 C 667.75 606.33 673.58 600.84 678.63 594.64 C 681.17 591.10 685.65 589.66 687.79 585.80 C 692.45 581.03 697.52 576.63 702.54 572.23 Z" />
<path fill="#f65b5e" stroke="#f65b5e" stroke-width="0.09375" opacity="1.00" d=" M 120.02 578.00 C 129.27 578.05 138.53 578.01 147.79 578.03 C 148.47 599.64 150.26 621.28 154.28 642.54 C 152.64 644.68 150.89 646.75 149.35 648.98 C 146.69 650.99 143.22 652.93 142.73 656.57 C 139.39 659.75 137.00 663.70 134.10 667.26 C 133.08 668.15 132.31 669.31 131.16 670.09 C 124.70 639.82 120.66 608.98 120.02 578.00 Z" />
<path fill="#f65d5c" stroke="#f65d5c" stroke-width="0.09375" opacity="1.00" d=" M 1025.22 578.83 C 1026.73 578.28 1028.31 577.91 1029.95 578.00 C 1037.63 578.09 1045.31 578.00 1053.00 578.01 C 1051.90 626.90 1043.09 675.62 1026.87 721.76 L 1026.79 721.75 C 1023.32 720.50 1019.61 720.97 1016.02 720.96 C 1009.89 720.97 1003.77 721.08 997.66 720.84 C 1014.65 675.46 1023.94 627.25 1025.22 578.83 Z" />
<path fill="#d8e3e1" stroke="#d8e3e1" stroke-width="0.09375" opacity="1.00" d=" M 396.90 600.94 C 398.90 599.17 400.74 597.23 402.68 595.39 C 403.59 599.02 400.37 601.76 398.82 604.73 C 394.75 609.22 392.16 614.75 388.45 619.52 C 387.17 620.93 385.50 622.02 384.87 623.92 C 383.96 626.51 380.64 627.06 379.70 629.65 C 378.37 633.09 375.06 635.00 373.07 637.98 C 369.78 642.61 366.31 647.12 362.52 651.35 C 360.84 654.34 357.97 656.23 355.70 658.69 C 352.91 662.32 348.57 664.27 344.40 665.86 C 348.25 660.38 352.51 655.11 357.39 650.47 C 359.16 647.87 360.87 645.23 362.74 642.71 C 366.00 639.24 369.46 635.92 371.63 631.63 C 375.62 627.53 379.48 623.28 382.46 618.34 C 384.86 614.82 388.52 612.40 390.86 608.84 C 392.64 606.03 394.80 603.51 396.90 600.94 Z" />
<path fill="#ae203a" stroke="#ae203a" stroke-width="0.09375" opacity="1.00" d=" M 392.39 602.35 C 393.75 601.48 395.16 599.97 396.90 600.94 C 394.80 603.51 392.64 606.03 390.86 608.84 C 388.52 612.40 384.86 614.82 382.46 618.34 C 379.85 617.79 377.35 616.87 374.94 615.75 C 380.69 611.20 386.47 606.69 392.39 602.35 Z" />
<path fill="#afa5aa" stroke="#afa5aa" stroke-width="0.09375" opacity="1.00" d=" M 611.37 664.20 C 628.46 646.93 645.94 630.07 662.88 612.67 C 664.02 613.37 665.17 614.08 666.32 614.80 C 664.90 615.73 663.94 617.14 662.69 618.26 C 660.39 620.36 658.18 622.58 655.92 624.73 C 655.33 625.27 654.75 625.82 654.17 626.38 C 646.44 633.19 639.23 640.61 631.77 647.70 C 630.93 648.09 630.25 648.67 629.73 649.43 C 620.29 658.06 611.76 667.65 602.35 676.32 C 597.01 680.55 592.43 685.62 587.41 690.21 C 587.01 690.33 586.20 690.57 585.80 690.69 C 590.58 684.83 596.38 679.91 601.60 674.45 C 604.81 670.99 608.73 668.16 611.37 664.20 Z" />
<path fill="#971332" stroke="#971332" stroke-width="0.09375" opacity="1.00" d=" M 325.64 650.77 C 342.78 640.12 358.24 627.06 374.94 615.75 C 377.35 616.87 379.85 617.79 382.46 618.34 C 379.48 623.28 375.62 627.53 371.63 631.63 C 369.46 635.92 366.00 639.24 362.74 642.71 C 360.87 645.23 359.16 647.87 357.39 650.47 C 352.51 655.11 348.25 660.38 344.40 665.86 C 340.93 669.53 337.78 673.51 335.35 677.97 C 327.97 671.39 321.69 663.67 314.03 657.38 C 315.74 656.38 317.43 655.39 319.07 654.29 C 321.31 653.22 323.54 652.11 325.64 650.77 Z" />
<path fill="#ea5821" stroke="#ea5821" stroke-width="0.09375" opacity="1.00" d=" M 655.92 624.73 C 658.18 622.58 660.39 620.36 662.69 618.26 C 663.19 620.46 662.65 622.70 662.43 624.91 C 658.56 655.70 654.94 686.54 650.08 717.21 C 649.86 700.06 652.45 683.00 654.31 665.98 C 655.56 654.65 657.01 643.33 658.15 631.99 C 658.51 629.34 657.89 626.60 655.92 624.73 Z" />
<path fill="#fe7144" stroke="#fe7144" stroke-width="0.09375" opacity="1.00" d=" M 654.17 626.38 C 654.75 625.82 655.33 625.27 655.92 624.73 C 657.89 626.60 658.51 629.34 658.15 631.99 C 657.01 643.33 655.56 654.65 654.31 665.98 C 652.45 683.00 649.86 700.06 650.08 717.21 C 646.98 746.74 642.39 776.10 638.68 805.57 C 638.10 805.98 636.94 806.82 636.35 807.24 C 632.92 823.54 632.18 840.25 629.48 856.68 C 628.45 862.72 627.74 868.91 625.57 874.67 C 616.69 886.00 605.40 895.10 596.25 906.16 C 593.66 908.61 591.22 911.21 589.09 914.07 C 585.87 917.97 581.03 921.29 580.20 926.57 C 575.93 930.44 572.42 935.21 568.01 939.02 C 562.47 943.79 558.03 949.67 552.56 954.51 C 545.23 960.87 539.83 969.11 532.29 975.25 C 528.76 977.90 526.45 981.74 523.24 984.72 C 523.21 984.21 523.17 983.20 523.14 982.69 C 515.25 986.87 509.40 993.97 502.86 999.91 C 500.86 1002.24 498.82 1004.52 496.36 1006.39 C 490.36 1013.35 483.81 1019.85 476.76 1025.75 C 475.90 1026.90 474.45 1026.97 473.14 1026.93 C 474.71 1012.25 476.87 997.64 478.89 983.01 C 479.06 980.08 480.36 976.03 476.68 974.83 C 477.01 971.55 477.57 968.29 478.17 965.06 C 480.99 964.11 480.90 960.83 481.52 958.44 C 483.49 946.31 484.94 934.10 486.97 921.98 C 492.16 888.84 498.00 855.73 500.38 822.24 C 504.32 821.25 505.94 817.30 508.76 814.79 C 513.54 810.52 516.89 804.91 521.79 800.76 C 524.95 798.14 526.59 794.28 529.34 791.31 C 531.31 789.58 533.21 787.75 534.51 785.43 C 544.99 773.51 554.46 760.70 563.75 747.84 C 570.39 739.65 575.85 730.60 582.02 722.06 C 584.57 717.36 588.07 713.29 590.70 708.66 C 602.45 689.53 617.82 673.01 630.52 654.55 C 631.19 653.48 631.68 652.32 632.20 651.19 C 637.40 644.78 643.84 639.46 649.28 633.23 C 651.09 631.09 653.62 629.30 654.17 626.38 Z" />
<path fill="#cb5246" stroke="#cb5246" stroke-width="0.09375" opacity="1.00" d=" M 631.77 647.70 C 639.23 640.61 646.44 633.19 654.17 626.38 C 653.62 629.30 651.09 631.09 649.28 633.23 C 643.84 639.46 637.40 644.78 632.20 651.19 L 631.10 650.93 L 630.48 650.10 L 631.46 649.71 C 631.54 649.21 631.69 648.20 631.77 647.70 Z" />
<path fill="#a53e4a" stroke="#a53e4a" stroke-width="0.09375" opacity="1.00" d=" M 629.73 649.43 C 630.25 648.67 630.93 648.09 631.77 647.70 C 631.69 648.20 631.54 649.21 631.46 649.71 L 630.48 650.10 L 629.73 649.43 Z" />
<path fill="#c44936" stroke="#c44936" stroke-width="0.09375" opacity="1.00" d=" M 142.73 656.57 C 143.22 652.93 146.69 650.99 149.35 648.98 C 147.77 651.97 145.69 654.80 142.73 656.57 Z" />
<path fill="#843355" stroke="#843355" stroke-width="0.09375" opacity="1.00" d=" M 602.35 676.32 C 611.76 667.65 620.29 658.06 629.73 649.43 L 630.48 650.10 L 631.10 650.93 C 625.71 655.93 620.92 661.53 616.04 667.01 C 608.71 672.99 602.82 680.46 595.68 686.64 C 592.62 689.73 589.69 692.95 586.64 696.05 C 581.39 698.80 578.05 704.12 573.59 707.93 C 573.14 707.80 572.25 707.54 571.80 707.41 C 567.85 710.07 565.35 714.51 561.19 716.94 C 561.34 716.42 561.65 715.40 561.81 714.88 C 569.86 706.88 578.20 699.12 585.80 690.69 C 586.20 690.57 587.01 690.33 587.41 690.21 C 592.43 685.62 597.01 680.55 602.35 676.32 Z" />
<path fill="#ec6841" stroke="#ec6841" stroke-width="0.09375" opacity="1.00" d=" M 631.10 650.93 L 632.20 651.19 C 631.68 652.32 631.19 653.48 630.52 654.55 C 617.82 673.01 602.45 689.53 590.70 708.66 C 588.07 713.29 584.57 717.36 582.02 722.06 C 575.85 730.60 570.39 739.65 563.75 747.84 C 554.46 760.70 544.99 773.51 534.51 785.43 C 533.21 787.75 531.31 789.58 529.34 791.31 C 526.59 794.28 524.95 798.14 521.79 800.76 C 516.89 804.91 513.54 810.52 508.76 814.79 C 505.94 817.30 504.32 821.25 500.38 822.24 C 499.86 821.07 499.35 819.91 498.84 818.75 C 506.30 801.92 517.16 786.91 526.27 770.97 C 541.58 745.82 561.62 724.09 581.37 702.44 C 583.34 700.50 585.30 698.51 586.64 696.05 C 589.69 692.95 592.62 689.73 595.68 686.64 C 602.82 680.46 608.71 672.99 616.04 667.01 C 620.92 661.53 625.71 655.93 631.10 650.93 Z" />
<path fill="#c5cccd" stroke="#c5cccd" stroke-width="0.09375" opacity="1.00" d=" M 609.35 665.38 C 609.85 665.09 610.86 664.49 611.37 664.20 C 608.73 668.16 604.81 670.99 601.60 674.45 C 596.38 679.91 590.58 684.83 585.80 690.69 C 578.20 699.12 569.86 706.88 561.81 714.88 C 561.65 715.40 561.34 716.42 561.19 716.94 C 553.44 723.96 546.48 731.83 538.49 738.59 C 529.69 747.74 519.67 755.59 511.03 764.91 C 505.02 771.30 497.65 776.29 492.27 783.29 C 489.54 786.30 486.96 789.48 483.87 792.16 C 479.21 793.65 478.48 799.70 474.03 801.72 C 473.51 801.32 472.46 800.53 471.94 800.13 C 471.68 799.68 471.17 798.78 470.91 798.33 C 473.67 797.54 476.60 796.63 478.54 794.37 C 480.67 791.53 482.00 787.96 485.05 785.91 C 488.44 783.70 490.12 779.85 493.06 777.18 C 497.79 772.83 501.43 767.51 505.94 762.96 C 509.04 758.68 513.73 756.04 517.02 751.93 C 548.63 723.97 577.20 692.82 609.35 665.38 Z" />
<path fill="#dde5e5" stroke="#dde5e5" stroke-width="0.09375" opacity="0.93" d=" M 471.02 673.92 C 472.38 673.58 473.77 673.31 475.18 673.18 C 473.83 676.58 470.83 679.04 468.09 681.34 C 467.78 680.78 467.16 679.67 466.85 679.11 C 468.45 677.56 469.87 675.83 471.02 673.92 Z" />
<path fill="#f74d7a" stroke="#f74d7a" stroke-width="0.09375" opacity="1.00" d=" M 338.48 681.23 L 339.69 681.19 C 343.24 683.28 346.83 685.29 350.39 687.38 C 358.05 692.58 366.07 697.27 373.45 702.91 C 379.87 707.69 386.61 712.31 393.42 716.36 C 395.44 718.92 398.44 720.32 400.94 722.34 C 397.81 725.87 394.43 729.21 391.54 732.94 C 390.09 734.38 388.53 735.77 387.68 737.67 C 383.81 741.55 380.88 746.20 377.61 750.57 C 374.36 755.27 370.59 759.57 367.23 764.18 C 365.63 762.82 363.47 761.49 363.87 759.05 C 363.32 754.80 367.61 751.23 366.29 746.99 C 365.52 746.65 364.82 746.17 364.04 745.93 C 363.86 744.32 363.88 742.71 363.87 741.11 C 363.23 742.14 362.63 743.18 361.99 744.22 C 358.74 739.42 355.10 734.89 352.16 729.89 C 350.15 727.90 348.25 725.73 346.04 723.99 C 341.79 722.27 337.05 722.11 332.94 719.98 C 328.77 719.28 327.28 724.00 326.00 726.99 C 322.55 731.30 319.12 735.68 316.66 740.66 C 313.89 746.31 311.15 752.12 306.77 756.74 C 305.97 757.82 304.67 758.22 303.52 758.79 C 316.00 733.84 327.03 708.15 340.64 683.78 C 339.84 682.98 339.12 682.13 338.48 681.23 Z" />
<path fill="#f86058" stroke="#f86058" stroke-width="0.09375" opacity="1.00" d=" M 139.48 699.96 C 148.35 697.68 157.21 695.32 166.14 693.31 C 172.14 713.58 179.77 733.36 188.69 752.52 C 178.68 753.65 168.56 752.69 158.51 753.08 C 150.94 736.02 144.73 718.39 139.21 700.58 L 139.48 699.96 Z" />
<path fill="#b92347" stroke="#b92347" stroke-width="0.09375" opacity="1.00" d=" M 573.59 707.93 C 578.05 704.12 581.39 698.80 586.64 696.05 C 585.30 698.51 583.34 700.50 581.37 702.44 C 561.62 724.09 541.58 745.82 526.27 770.97 C 526.16 770.24 525.93 768.78 525.82 768.04 C 520.25 775.65 513.31 782.12 507.74 789.75 C 504.77 794.03 500.80 797.46 497.49 801.45 C 494.30 805.39 490.18 808.47 485.91 811.14 C 481.56 809.76 483.91 804.76 485.08 801.89 C 493.36 793.60 502.02 785.70 510.03 777.14 C 522.86 765.60 533.84 752.23 545.64 739.67 C 552.64 732.26 558.74 724.07 565.86 716.77 C 568.64 714.00 571.04 710.90 573.59 707.93 Z" />
<path fill="#76203b" stroke="#76203b" stroke-width="0.09375" opacity="1.00" d=" M 561.19 716.94 C 565.35 714.51 567.85 710.07 571.80 707.41 C 572.25 707.54 573.14 707.80 573.59 707.93 C 571.04 710.90 568.64 714.00 565.86 716.77 C 558.74 724.07 552.64 732.26 545.64 739.67 C 533.84 752.23 522.86 765.60 510.03 777.14 C 511.85 771.34 519.27 768.86 519.84 762.31 C 516.42 761.10 514.02 763.95 511.03 764.91 C 519.67 755.59 529.69 747.74 538.49 738.59 C 546.48 731.83 553.44 723.96 561.19 716.94 Z" />
<path fill="#fa517f" stroke="#fa517f" stroke-width="0.09375" opacity="1.00" d=" M 326.00 726.99 C 327.28 724.00 328.77 719.28 332.94 719.98 C 337.05 722.11 341.79 722.27 346.04 723.99 C 348.25 725.73 350.15 727.90 352.16 729.89 C 355.10 734.89 358.74 739.42 361.99 744.22 C 362.63 743.18 363.23 742.14 363.87 741.11 C 363.88 742.71 363.86 744.32 364.04 745.93 C 364.82 746.17 365.52 746.65 366.29 746.99 C 367.61 751.23 363.32 754.80 363.87 759.05 C 363.47 761.49 365.63 762.82 367.23 764.18 C 366.19 765.76 365.12 767.32 364.01 768.87 C 354.66 779.68 345.94 791.06 337.71 802.75 C 335.93 804.63 334.16 806.52 332.67 808.65 C 321.36 824.08 309.49 839.10 298.79 854.97 C 295.77 859.26 292.29 863.29 289.94 868.01 C 290.18 868.29 290.67 868.84 290.91 869.11 C 298.72 864.38 305.69 858.35 313.05 852.95 C 322.82 845.14 332.54 837.22 341.41 828.38 C 343.61 826.45 346.14 824.74 347.14 821.85 C 351.26 819.67 353.86 815.73 357.03 812.48 C 359.79 814.11 362.56 816.28 363.72 819.37 C 364.39 821.05 362.16 821.53 361.30 822.51 C 363.35 824.33 366.24 823.71 368.75 824.21 C 371.02 827.72 371.60 832.27 374.79 835.25 C 376.80 836.86 376.89 839.45 377.41 841.78 C 379.07 842.45 380.43 840.83 381.89 840.31 C 383.31 842.20 382.14 844.75 381.67 846.80 C 376.77 854.55 368.58 859.19 361.12 864.13 C 359.68 864.81 359.07 866.06 359.33 867.66 C 353.73 870.80 348.48 874.50 343.03 877.87 C 330.01 886.43 316.28 893.81 303.05 902.02 C 294.87 907.19 286.64 912.30 278.37 917.32 C 258.17 929.71 237.98 942.17 217.00 953.23 C 215.38 953.97 213.67 954.59 211.89 954.14 C 211.86 953.60 211.81 952.54 211.78 952.00 C 220.15 928.07 232.12 905.69 243.13 882.93 C 247.61 873.98 251.49 864.75 256.12 855.88 C 271.69 823.41 287.68 791.13 303.52 758.79 C 304.67 758.22 305.97 757.82 306.77 756.74 C 311.15 752.12 313.89 746.31 316.66 740.66 C 319.12 735.68 322.55 731.30 326.00 726.99 Z" />
<path fill="#f96157" stroke="#f96157" stroke-width="0.09375" opacity="1.00" d=" M 997.66 720.84 C 1003.77 721.08 1009.89 720.97 1016.02 720.96 C 1019.61 720.97 1023.32 720.50 1026.79 721.75 C 1020.92 739.05 1013.62 755.84 1005.73 772.31 L 1005.46 772.30 C 995.23 771.62 984.96 772.32 974.73 771.83 C 983.47 755.36 991.08 738.29 997.66 720.84 Z" />
<path fill="#6f091f" stroke="#6f091f" stroke-width="0.09375" opacity="1.00" d=" M 400.94 722.34 C 403.16 724.02 404.88 726.73 407.55 727.58 C 408.78 728.42 409.45 729.74 410.53 730.73 L 411.62 730.43 C 413.56 733.09 416.23 735.09 418.42 737.53 L 419.26 737.64 C 419.74 739.99 422.83 740.66 423.75 742.94 C 420.21 746.86 416.69 750.79 413.06 754.62 C 405.36 749.94 401.07 741.12 393.63 736.10 C 392.95 735.03 392.25 733.97 391.54 732.94 C 394.43 729.21 397.81 725.87 400.94 722.34 Z" />
<path fill="#ad3856" stroke="#ad3856" stroke-width="0.09375" opacity="1.00" d=" M 387.68 737.67 C 388.53 735.77 390.09 734.38 391.54 732.94 C 392.25 733.97 392.95 735.03 393.63 736.10 C 396.18 740.21 399.21 744.01 401.93 748.01 C 404.37 751.31 406.53 754.94 409.86 757.46 C 406.69 760.62 404.17 764.36 400.94 767.46 C 396.27 771.14 392.57 775.89 387.92 779.59 C 384.66 778.05 384.57 774.04 385.10 770.96 C 386.86 763.70 387.20 756.13 386.66 748.71 C 386.64 745.00 387.58 741.37 387.68 737.67 Z" />
<path fill="#972340" stroke="#972340" stroke-width="0.09375" opacity="1.00" d=" M 393.63 736.10 C 401.07 741.12 405.36 749.94 413.06 754.62 C 412.04 755.61 410.93 756.52 409.86 757.46 C 406.53 754.94 404.37 751.31 401.93 748.01 C 399.21 744.01 396.18 740.21 393.63 736.10 Z" />
<path fill="#bd3e5e" stroke="#bd3e5e" stroke-width="0.09375" opacity="1.00" d=" M 377.61 750.57 C 380.88 746.20 383.81 741.55 387.68 737.67 C 387.58 741.37 386.64 745.00 386.66 748.71 C 387.20 756.13 386.86 763.70 385.10 770.96 C 384.57 774.04 384.66 778.05 387.92 779.59 C 385.67 782.79 382.86 785.56 380.73 788.85 C 376.68 792.46 373.36 796.79 369.14 800.22 C 367.50 800.40 365.86 800.61 364.22 800.69 C 363.49 797.00 365.16 793.34 364.48 789.65 C 364.18 785.67 363.44 781.77 362.07 778.02 C 362.01 774.87 363.75 772.00 364.01 768.87 C 365.12 767.32 366.19 765.76 367.23 764.18 C 370.59 759.57 374.36 755.27 377.61 750.57 Z" />
<path fill="#dd3c63" stroke="#dd3c63" stroke-width="0.09375" opacity="1.00" d=" M 423.75 742.94 C 428.27 747.51 431.70 753.40 437.02 757.07 C 438.68 761.66 442.95 764.24 445.60 768.11 C 448.40 772.32 452.35 775.60 455.42 779.61 C 460.38 786.01 465.60 792.22 470.91 798.33 C 471.17 798.78 471.68 799.68 471.94 800.13 C 471.46 800.31 470.50 800.68 470.02 800.86 C 457.90 805.94 447.60 814.30 436.26 820.77 C 437.49 816.69 441.21 813.56 441.01 809.03 C 441.99 803.85 436.11 801.90 434.05 798.01 C 431.78 793.49 429.06 789.14 425.59 785.46 C 420.93 783.36 416.40 780.88 412.72 777.27 C 410.50 774.81 407.04 774.43 404.39 772.67 C 403.36 770.84 403.01 768.42 400.94 767.46 C 404.17 764.36 406.69 760.62 409.86 757.46 C 410.93 756.52 412.04 755.61 413.06 754.62 C 416.69 750.79 420.21 746.86 423.75 742.94 Z" />
<path fill="#fa6354" stroke="#fa6354" stroke-width="0.09375" opacity="1.00" d=" M 158.51 753.08 C 168.56 752.69 178.68 753.65 188.69 752.52 C 197.79 772.02 208.35 790.84 220.22 808.79 C 209.37 809.49 198.48 808.55 187.64 809.27 C 176.68 791.22 166.86 772.47 158.51 753.08 Z" />
<path fill="#611c2e" stroke="#611c2e" stroke-width="0.09375" opacity="1.00" d=" M 511.03 764.91 C 514.02 763.95 516.42 761.10 519.84 762.31 C 519.27 768.86 511.85 771.34 510.03 777.14 C 502.02 785.70 493.36 793.60 485.08 801.89 C 482.84 803.48 480.91 805.44 479.45 807.78 C 476.79 805.21 474.06 802.72 471.18 800.41 L 470.02 800.86 C 470.50 800.68 471.46 800.31 471.94 800.13 C 472.46 800.53 473.51 801.32 474.03 801.72 C 478.48 799.70 479.21 793.65 483.87 792.16 C 486.96 789.48 489.54 786.30 492.27 783.29 C 497.65 776.29 505.02 771.30 511.03 764.91 Z" />
<path fill="#e4426b" stroke="#e4426b" stroke-width="0.09375" opacity="1.00" d=" M 387.92 779.59 C 392.57 775.89 396.27 771.14 400.94 767.46 C 403.01 768.42 403.36 770.84 404.39 772.67 C 407.04 774.43 410.50 774.81 412.72 777.27 C 416.40 780.88 420.93 783.36 425.59 785.46 C 429.06 789.14 431.78 793.49 434.05 798.01 C 436.11 801.90 441.99 803.85 441.01 809.03 C 441.21 813.56 437.49 816.69 436.26 820.77 C 430.92 824.02 425.71 827.49 420.22 830.51 C 420.38 828.04 421.88 825.86 421.88 823.41 C 420.32 823.13 418.75 823.01 417.21 822.74 C 415.91 820.19 413.89 818.20 411.81 816.31 C 411.09 814.85 410.82 813.23 410.27 811.73 C 408.76 811.18 407.20 810.84 405.70 810.31 C 405.54 808.59 406.19 806.52 404.77 805.21 C 402.86 803.00 399.70 802.40 397.82 800.20 C 394.58 795.59 391.47 790.52 386.59 787.48 C 384.60 787.43 382.67 788.43 380.73 788.85 C 382.86 785.56 385.67 782.79 387.92 779.59 Z" />
<path fill="#9f1337" stroke="#9f1337" stroke-width="0.09375" opacity="1.00" d=" M 507.74 789.75 C 513.31 782.12 520.25 775.65 525.82 768.04 C 525.93 768.78 526.16 770.24 526.27 770.97 C 517.16 786.91 506.30 801.92 498.84 818.75 C 498.38 820.07 498.03 821.42 497.79 822.81 C 491.88 817.54 485.20 813.23 479.45 807.78 C 480.91 805.44 482.84 803.48 485.08 801.89 C 483.91 804.76 481.56 809.76 485.91 811.14 C 490.18 808.47 494.30 805.39 497.49 801.45 C 500.80 797.46 504.77 794.03 507.74 789.75 Z" />
<path fill="#cf4166" stroke="#cf4166" stroke-width="0.09375" opacity="1.00" d=" M 337.71 802.75 C 345.94 791.06 354.66 779.68 364.01 768.87 C 363.75 772.00 362.01 774.87 362.07 778.02 C 363.44 781.77 364.18 785.67 364.48 789.65 C 365.16 793.34 363.49 797.00 364.22 800.69 C 365.86 800.61 367.50 800.40 369.14 800.22 C 365.44 804.61 361.21 808.54 357.03 812.48 C 353.86 815.73 351.26 819.67 347.14 821.85 C 342.44 823.33 340.07 828.67 335.35 829.94 C 335.35 826.72 335.05 823.50 333.07 820.84 C 332.32 815.20 333.15 808.84 337.65 804.90 C 337.67 804.36 337.70 803.29 337.71 802.75 Z" />
<path fill="#fa6453" stroke="#fa6453" stroke-width="0.09375" opacity="1.00" d=" M 974.73 771.83 C 984.96 772.32 995.23 771.62 1005.46 772.30 C 994.50 795.64 980.79 817.81 965.83 838.84 L 965.81 838.84 C 962.33 837.45 958.57 838.01 954.95 837.97 C 947.24 837.97 939.53 838.11 931.83 837.91 C 948.01 817.19 962.48 795.10 974.73 771.83 Z" />
<path fill="#ef4873" stroke="#ef4873" stroke-width="0.09375" opacity="1.00" d=" M 380.73 788.85 C 382.67 788.43 384.60 787.43 386.59 787.48 C 391.47 790.52 394.58 795.59 397.82 800.20 C 399.70 802.40 402.86 803.00 404.77 805.21 C 406.19 806.52 405.54 808.59 405.70 810.31 C 407.20 810.84 408.76 811.18 410.27 811.73 C 410.82 813.23 411.09 814.85 411.81 816.31 C 413.89 818.20 415.91 820.19 417.21 822.74 C 418.75 823.01 420.32 823.13 421.88 823.41 C 421.88 825.86 420.38 828.04 420.22 830.51 C 399.67 842.48 379.87 855.69 359.33 867.66 C 359.07 866.06 359.68 864.81 361.12 864.13 C 368.58 859.19 376.77 854.55 381.67 846.80 C 382.14 844.75 383.31 842.20 381.89 840.31 C 380.43 840.83 379.07 842.45 377.41 841.78 C 376.89 839.45 376.80 836.86 374.79 835.25 C 371.60 832.27 371.02 827.72 368.75 824.21 C 366.24 823.71 363.35 824.33 361.30 822.51 C 362.16 821.53 364.39 821.05 363.72 819.37 C 362.56 816.28 359.79 814.11 357.03 812.48 C 361.21 808.54 365.44 804.61 369.14 800.22 C 373.36 796.79 376.68 792.46 380.73 788.85 Z" />
<path fill="#df4770" stroke="#df4770" stroke-width="0.09375" opacity="1.00" d=" M 332.67 808.65 C 334.16 806.52 335.93 804.63 337.71 802.75 C 337.70 803.29 337.67 804.36 337.65 804.90 C 333.15 808.84 332.32 815.20 333.07 820.84 C 335.05 823.50 335.35 826.72 335.35 829.94 C 340.07 828.67 342.44 823.33 347.14 821.85 C 346.14 824.74 343.61 826.45 341.41 828.38 C 332.54 837.22 322.82 845.14 313.05 852.95 C 305.69 858.35 298.72 864.38 290.91 869.11 C 290.67 868.84 290.18 868.29 289.94 868.01 C 292.29 863.29 295.77 859.26 298.79 854.97 C 309.49 839.10 321.36 824.08 332.67 808.65 Z" />
<path fill="#f0622b" stroke="#f0622b" stroke-width="0.09375" opacity="1.00" d=" M 636.35 807.24 C 636.94 806.82 638.10 805.98 638.68 805.57 C 636.10 828.74 632.41 851.78 629.69 874.94 C 625.63 883.16 617.33 887.75 611.60 894.64 C 606.63 900.65 600.62 905.61 595.12 911.08 C 590.87 916.89 585.31 921.56 580.20 926.57 C 581.03 921.29 585.87 917.97 589.09 914.07 C 591.22 911.21 593.66 908.61 596.25 906.16 C 605.40 895.10 616.69 886.00 625.57 874.67 C 627.74 868.91 628.45 862.72 629.48 856.68 C 632.18 840.25 632.92 823.54 636.35 807.24 Z" />
<path fill="#fb6750" stroke="#fb6750" stroke-width="0.09375" opacity="1.00" d=" M 187.64 809.27 C 198.48 808.55 209.37 809.49 220.22 808.79 C 231.10 825.28 243.15 840.99 256.12 855.88 C 251.49 864.75 247.61 873.98 243.13 882.93 C 222.24 860.31 203.65 835.57 187.64 809.27 Z" />
<path fill="#ee612d" stroke="#ee612d" stroke-width="0.09375" opacity="1.00" d=" M 497.79 822.81 C 498.03 821.42 498.38 820.07 498.84 818.75 C 499.35 819.91 499.86 821.07 500.38 822.24 C 498.00 855.73 492.16 888.84 486.97 921.98 C 484.94 934.10 483.49 946.31 481.52 958.44 C 480.90 960.83 480.99 964.11 478.17 965.06 C 484.19 917.58 491.65 870.26 497.79 822.81 Z" />
<path fill="#fb684f" stroke="#fb684f" stroke-width="0.09375" opacity="1.00" d=" M 885.35 888.39 C 902.13 872.82 917.63 855.87 931.83 837.91 C 939.53 838.11 947.24 837.97 954.95 837.97 C 958.57 838.01 962.33 837.45 965.81 838.84 C 953.01 856.79 938.79 873.70 923.64 889.71 L 923.51 889.69 C 917.78 888.24 911.82 889.31 905.99 889.04 C 899.11 888.74 892.15 889.70 885.35 888.39 Z" />
<path fill="#fc6c4a" stroke="#fc6c4a" stroke-width="0.09375" opacity="1.00" d=" M 719.59 985.33 C 781.11 965.82 838.14 932.39 885.35 888.39 C 892.15 889.70 899.11 888.74 905.99 889.04 C 911.82 889.31 917.78 888.24 923.51 889.69 C 885.46 929.62 840.15 962.64 790.55 986.77 C 786.86 985.39 782.89 986.08 779.04 986.01 C 765.35 985.97 751.66 986.08 737.97 985.95 C 731.85 985.84 725.62 986.63 719.59 985.33 Z" />
<path fill="#fd6e49" stroke="#fd6e49" stroke-width="0.09375" opacity="1.00" d=" M 278.37 917.32 C 286.64 912.30 294.87 907.19 303.05 902.02 C 352.54 944.03 411.48 974.91 474.30 991.35 C 472.95 1000.60 472.05 1009.92 470.34 1019.12 C 399.55 1000.89 333.07 965.85 278.37 917.32 Z" />
<path fill="#f3642d" stroke="#f3642d" stroke-width="0.09375" opacity="1.00" d=" M 476.68 974.83 C 480.36 976.03 479.06 980.08 478.89 983.01 C 476.87 997.64 474.71 1012.25 473.14 1026.93 C 474.45 1026.97 475.90 1026.90 476.76 1025.75 C 483.81 1019.85 490.36 1013.35 496.36 1006.39 C 498.82 1004.52 500.86 1002.24 502.86 999.91 C 509.40 993.97 515.25 986.87 523.14 982.69 C 523.17 983.20 523.21 984.21 523.24 984.72 C 518.72 989.46 513.55 993.51 509.31 998.52 C 506.43 1001.11 503.28 1003.68 501.37 1007.09 C 500.24 1008.71 498.10 1009.27 497.08 1010.99 C 494.17 1015.59 489.86 1018.99 485.79 1022.47 C 485.46 1024.29 483.44 1024.94 482.70 1026.59 C 480.67 1026.19 480.01 1028.62 478.63 1029.58 C 475.30 1033.50 471.55 1037.10 468.43 1041.19 C 466.85 1033.88 469.95 1026.49 470.34 1019.12 C 472.05 1009.92 472.95 1000.60 474.30 991.35 C 475.05 985.84 475.88 980.34 476.68 974.83 Z" />
<path fill="#fe7046" stroke="#fe7046" stroke-width="0.09375" opacity="1.00" d=" M 508.89 999.06 C 578.87 1011.45 651.85 1006.93 719.59 985.33 C 725.62 986.63 731.85 985.84 737.97 985.95 C 751.66 986.08 765.35 985.97 779.04 986.01 C 782.89 986.08 786.86 985.39 790.55 986.77 C 703.68 1029.37 603.34 1043.33 508.03 1027.06 C 500.60 1025.64 493.02 1024.68 485.79 1022.47 C 489.86 1018.99 494.17 1015.59 497.08 1010.99 C 498.10 1009.27 500.24 1008.71 501.37 1007.09 C 503.49 1004.07 506.25 1001.60 508.89 999.06 Z" />
</svg>
