<?xml version="1.0" encoding="UTF-8" ?>
<!DOCTYPE svg PUBLIC "-//W3C//DTD SVG 1.1//EN" "http://www.w3.org/Graphics/SVG/1.1/DTD/svg11.dtd">
<svg width="643pt" height="275pt" viewBox="0 0 643 275" version="1.1" xmlns="http://www.w3.org/2000/svg">
<path fill="#fefefe" stroke="#fefefe" stroke-width="0.09375" opacity="1.00" d=" M 134.45 17.54 C 151.51 17.51 168.56 17.56 185.62 17.51 L 185.45 18.58 L 186.61 18.57 C 186.85 20.53 187.13 22.50 187.39 24.47 C 189.43 24.39 191.47 24.35 193.52 24.30 C 193.57 33.78 193.52 43.25 193.59 52.73 C 182.15 52.76 170.72 52.77 159.28 52.72 C 159.28 55.68 159.50 58.62 159.62 61.57 C 166.09 61.86 172.56 61.64 179.02 61.73 C 179.54 62.07 180.57 62.74 181.08 63.08 C 180.67 63.15 179.86 63.30 179.45 63.37 C 179.46 64.21 179.48 65.89 179.48 66.73 C 170.56 66.77 161.65 66.74 152.73 66.75 C 152.76 71.91 152.78 77.07 152.83 82.23 C 157.39 82.16 161.96 82.03 166.51 82.45 C 166.53 86.12 166.50 89.79 166.52 93.46 C 164.92 93.47 163.32 93.47 161.73 93.47 C 161.73 91.38 161.73 89.28 161.73 87.19 C 159.60 87.24 157.47 87.34 155.35 87.41 C 155.34 87.63 155.34 88.06 155.34 88.28 C 154.66 88.25 153.30 88.19 152.62 88.17 C 152.61 95.86 152.67 103.56 152.58 111.25 C 150.27 111.27 147.97 111.32 145.66 111.43 C 145.74 114.75 145.74 118.07 145.63 121.39 C 143.54 121.37 141.45 121.37 139.37 121.37 C 139.33 123.76 139.14 126.15 138.67 128.49 C 136.62 128.41 134.57 128.35 132.52 128.29 C 132.52 137.91 132.48 147.53 132.52 157.15 C 134.79 157.18 137.07 157.24 139.33 157.48 C 139.18 159.01 140.26 161.61 137.93 161.84 C 134.53 162.57 131.00 162.05 127.57 161.74 C 127.65 155.05 127.59 148.35 127.61 141.66 C 125.51 141.66 123.42 141.66 121.32 141.66 C 121.28 139.97 121.26 138.28 121.24 136.59 L 120.32 136.41 C 120.40 136.00 120.54 135.18 120.61 134.77 C 117.92 134.80 115.22 134.77 112.53 134.70 C 112.43 136.97 112.36 139.23 112.32 141.51 C 110.18 141.54 108.03 141.35 105.91 141.67 C 105.65 143.82 105.67 146.00 105.57 148.17 C 103.21 148.17 100.84 148.17 98.47 148.18 C 98.47 151.18 98.47 154.18 98.52 157.18 C 100.57 157.19 102.61 157.23 104.66 157.31 C 104.71 158.44 104.80 160.68 104.85 161.80 C 101.08 161.76 97.30 161.74 93.53 161.65 C 93.45 152.64 93.60 143.64 93.42 134.63 C 91.34 134.66 89.25 134.67 87.17 134.67 C 87.17 132.36 87.17 130.04 87.17 127.73 C 84.89 127.72 82.61 127.72 80.33 127.71 C 80.33 125.64 80.33 123.58 80.37 121.53 C 78.07 121.43 75.78 121.38 73.49 121.35 C 73.42 119.08 73.35 116.82 73.30 114.55 C 71.28 114.55 69.27 114.53 67.26 114.55 C 66.78 112.23 66.73 109.85 66.76 107.48 C 64.35 107.48 61.94 107.45 59.53 107.40 C 59.44 99.36 59.71 91.32 59.48 83.29 L 60.27 83.51 C 60.20 78.53 60.18 73.55 60.36 68.57 C 61.17 68.57 62.78 68.55 63.59 68.55 C 64.66 73.03 64.20 77.66 64.35 82.22 C 66.42 82.22 68.50 82.22 70.57 82.22 C 70.58 84.34 70.58 86.46 70.59 88.58 C 72.92 88.58 75.26 88.57 77.60 88.52 C 78.23 91.01 78.33 93.58 78.33 96.14 C 83.70 96.00 89.11 96.52 94.44 95.65 C 94.38 93.66 94.37 91.66 94.36 89.67 C 96.46 89.65 98.56 89.64 100.66 89.62 C 100.63 87.21 100.65 84.79 100.68 82.38 C 104.20 82.27 107.72 82.24 111.25 82.24 C 111.30 80.05 111.35 77.85 111.41 75.66 C 114.72 75.60 118.04 75.60 121.35 75.67 C 121.37 73.52 121.38 71.37 121.39 69.22 C 123.40 69.21 125.42 69.21 127.43 69.23 C 127.82 54.58 127.59 39.90 127.55 25.23 C 129.77 24.74 132.02 24.40 134.29 24.23 C 134.33 22.00 134.38 19.77 134.45 17.54 M 139.26 34.50 C 142.56 34.44 145.87 34.46 149.18 34.45 C 148.69 31.84 148.76 29.18 149.02 26.55 C 148.50 26.36 147.47 25.97 146.96 25.78 C 144.40 25.81 141.84 25.75 139.28 25.73 C 139.24 28.65 139.26 31.58 139.26 34.50 Z" />
<path fill="#00ff00" stroke="#00ff00" stroke-width="0.09375" opacity="1.00" d=" M 249.21 52.80 C 254.68 52.83 260.15 52.71 265.63 52.90 C 265.63 57.72 265.44 62.55 265.61 67.37 C 266.23 68.09 266.91 68.76 267.65 69.38 C 272.47 69.55 277.31 69.33 282.14 69.40 C 282.25 74.87 282.18 80.34 282.20 85.81 C 287.66 85.83 293.12 85.76 298.58 85.87 C 298.49 102.69 298.75 119.51 298.44 136.33 C 293.10 136.30 287.75 136.28 282.41 136.36 C 282.00 125.07 282.28 113.78 282.26 102.49 C 265.70 102.31 249.15 102.43 232.60 102.43 C 232.53 113.73 232.77 125.03 232.46 136.33 C 226.86 136.29 221.27 136.33 215.67 136.29 C 215.50 119.46 215.55 102.63 215.65 85.80 C 221.05 85.82 226.45 85.80 231.85 85.82 C 231.79 80.43 231.84 75.03 231.80 69.64 C 237.60 69.21 243.42 69.45 249.23 69.44 C 249.23 74.89 249.23 80.35 249.23 85.81 C 254.69 85.81 260.16 85.81 265.62 85.81 C 265.54 80.30 265.67 74.78 265.72 69.28 C 260.23 69.36 254.73 69.47 249.23 69.41 C 249.18 63.87 249.21 58.34 249.21 52.80 Z" />
<path fill="#00ff00" stroke="#00ff00" stroke-width="0.09375" opacity="1.00" d=" M 314.59 53.07 C 336.72 52.44 358.88 52.99 381.02 52.79 C 380.99 58.33 381.07 63.87 380.93 69.40 C 386.45 69.42 391.97 69.40 397.49 69.42 C 397.46 86.05 397.55 102.68 397.44 119.32 C 392.54 119.21 387.62 119.47 382.72 119.24 C 382.44 119.02 381.88 118.60 381.60 118.39 C 380.47 115.78 381.32 112.75 380.98 109.98 C 381.21 96.49 381.07 83.01 381.13 69.52 C 364.59 69.25 348.05 69.47 331.51 69.41 C 331.51 85.88 331.51 102.35 331.51 118.82 C 347.46 118.85 363.41 118.80 379.36 118.84 C 379.71 118.94 380.41 119.14 380.76 119.24 C 381.29 124.87 380.78 130.67 380.66 136.36 C 358.69 136.23 336.72 136.37 314.75 136.29 C 314.51 108.55 314.81 80.81 314.59 53.07 Z" />
<path fill="#00ff00" stroke="#00ff00" stroke-width="0.09375" opacity="1.00" d=" M 430.45 69.41 C 430.49 63.85 430.38 58.30 430.54 52.75 C 446.95 52.86 463.37 52.77 479.79 52.80 C 479.80 58.34 479.80 63.87 479.80 69.41 C 463.35 69.39 446.90 69.41 430.45 69.41 Z" />
<path fill="#00ff00" stroke="#00ff00" stroke-width="0.09375" opacity="1.00" d=" M 413.65 69.49 C 419.24 69.34 424.84 69.41 430.43 69.43 C 430.42 74.88 430.41 80.33 430.44 85.78 C 424.85 85.81 419.26 85.82 413.68 85.76 C 413.70 80.34 413.72 74.91 413.65 69.49 Z" />
<path fill="#00ff00" stroke="#00ff00" stroke-width="0.09375" opacity="1.00" d=" M 479.80 69.43 C 485.33 69.39 490.87 69.39 496.40 69.43 C 496.37 74.89 496.40 80.35 496.37 85.81 C 490.83 85.80 485.29 85.80 479.75 85.80 C 479.85 80.35 479.79 74.89 479.80 69.43 Z" />
<path fill="#00ff00" stroke="#00ff00" stroke-width="0.09375" opacity="1.00" d=" M 430.47 85.81 C 446.92 85.92 463.38 85.60 479.83 85.97 C 479.78 91.45 479.81 96.93 479.80 102.41 C 463.35 102.41 446.90 102.40 430.45 102.41 C 430.46 96.88 430.45 91.34 430.47 85.81 Z" />
<path fill="#00ff00" stroke="#00ff00" stroke-width="0.09375" opacity="1.00" d=" M 413.69 102.47 C 419.26 102.44 424.84 102.44 430.41 102.47 C 430.42 108.08 430.45 113.68 430.39 119.29 C 425.12 119.23 419.85 119.45 414.58 119.24 C 413.28 118.69 413.79 117.15 413.66 116.07 C 413.68 111.53 413.71 107.00 413.69 102.47 Z" />
<path fill="#00ff00" stroke="#00ff00" stroke-width="0.09375" opacity="1.00" d=" M 479.81 102.45 C 485.33 102.45 490.85 102.45 496.38 102.45 C 496.39 108.07 496.41 113.69 496.35 119.31 C 490.81 119.28 485.28 119.38 479.75 119.20 C 479.79 124.92 479.95 130.64 479.60 136.35 C 463.26 136.28 446.93 136.29 430.59 136.35 C 430.34 130.52 430.49 124.67 430.47 118.84 C 446.92 118.82 463.37 118.82 479.82 118.83 C 479.79 113.37 479.80 107.91 479.81 102.45 Z" />
<path fill="#00ff00" stroke="#00ff00" stroke-width="0.09375" opacity="1.00" d=" M 16.53 201.63 C 18.10 201.65 19.66 201.66 21.22 201.68 C 21.23 203.31 21.24 204.94 21.24 206.57 C 22.18 206.51 24.05 206.39 24.99 206.34 C 25.07 207.68 25.14 209.02 25.21 210.37 C 26.62 210.39 28.02 210.42 29.43 210.45 C 29.42 214.56 29.41 218.66 29.46 222.77 C 28.04 222.82 26.61 222.88 25.18 222.93 C 25.17 220.38 25.16 217.83 25.16 215.27 C 21.14 215.24 17.11 215.24 13.09 215.24 C 13.12 217.66 13.16 220.09 13.22 222.51 C 11.39 222.74 9.55 222.75 7.72 222.61 C 7.81 218.61 7.80 214.62 7.77 210.63 C 9.33 210.51 10.90 210.40 12.46 210.31 C 12.46 208.99 12.46 207.67 12.46 206.36 C 13.80 206.43 15.15 206.50 16.50 206.58 C 16.50 204.93 16.52 203.28 16.53 201.63 M 16.55 209.28 C 17.65 210.30 19.00 210.73 20.59 210.57 C 20.60 209.49 20.61 207.35 20.62 206.27 C 18.62 206.10 15.97 206.58 16.55 209.28 Z" />
<path fill="#00ff00" stroke="#00ff00" stroke-width="0.09375" opacity="1.00" d=" M 49.70 201.76 C 51.05 201.66 52.39 201.57 53.74 201.48 C 54.79 208.58 53.99 215.80 54.23 222.95 C 52.67 222.86 51.11 222.78 49.54 222.69 C 49.59 221.83 49.68 220.10 49.73 219.24 C 48.36 219.22 46.98 219.20 45.61 219.19 C 45.57 217.65 45.54 216.10 45.51 214.57 C 44.18 214.61 42.85 214.64 41.51 214.67 C 41.53 213.59 41.56 211.44 41.58 210.37 C 43.19 210.41 44.79 210.45 46.40 210.50 C 46.37 211.82 46.34 213.15 46.30 214.47 C 47.15 214.45 48.83 214.40 49.67 214.38 C 49.62 210.17 49.62 205.96 49.70 201.76 Z" />
<path fill="#00ff00" stroke="#00ff00" stroke-width="0.09375" opacity="1.00" d=" M 107.79 201.73 C 114.94 201.55 122.10 201.64 129.26 201.67 C 129.29 203.25 129.32 204.83 129.35 206.42 C 126.65 206.44 123.94 206.45 121.24 206.45 C 121.23 210.49 121.22 214.53 121.30 218.57 C 123.96 218.52 126.62 218.52 129.28 218.56 C 129.32 219.96 129.36 221.35 129.40 222.75 C 122.16 222.98 114.89 223.09 107.66 222.61 C 107.70 221.29 107.75 219.97 107.79 218.65 C 110.66 218.52 113.53 218.50 116.41 218.53 C 116.41 214.51 116.41 210.49 116.41 206.47 C 113.52 206.46 110.62 206.44 107.73 206.33 C 107.75 204.80 107.77 203.26 107.79 201.73 Z" />
<path fill="#00ff00" stroke="#00ff00" stroke-width="0.09375" opacity="1.00" d=" M 158.35 201.60 C 165.16 201.62 171.97 201.73 178.78 201.53 C 179.11 203.15 179.39 204.77 179.60 206.42 C 173.95 206.50 168.29 206.37 162.64 206.53 C 162.66 207.49 162.70 209.41 162.72 210.38 C 165.36 210.39 168.00 210.39 170.64 210.38 C 170.64 211.83 170.65 213.27 170.65 214.73 C 168.22 214.70 165.79 214.65 163.36 214.53 C 163.03 215.85 162.72 217.17 162.45 218.51 C 168.07 218.55 173.70 218.44 179.32 218.60 C 179.37 220.01 179.41 221.41 179.46 222.82 C 172.37 222.93 165.27 222.95 158.17 222.86 C 158.28 215.77 158.03 208.68 158.35 201.60 Z" />
<path fill="#00ff00" stroke="#00ff00" stroke-width="0.09375" opacity="1.00" d=" M 209.00 201.75 C 215.76 201.44 222.55 201.73 229.32 201.65 C 229.36 203.24 229.39 204.84 229.42 206.43 C 223.76 206.47 218.09 206.44 212.43 206.45 C 212.43 207.76 212.44 209.07 212.44 210.38 C 215.48 210.37 218.52 210.40 221.57 210.51 C 221.18 212.10 220.80 213.70 220.43 215.30 C 217.76 215.25 215.09 215.24 212.42 215.25 C 212.44 216.07 212.47 217.71 212.49 218.53 C 218.10 218.51 223.72 218.50 229.33 218.55 C 229.38 219.96 229.43 221.37 229.49 222.78 C 222.23 223.01 214.95 223.07 207.71 222.58 C 207.82 216.18 207.77 209.77 207.75 203.36 L 208.22 203.23 C 208.41 202.86 208.81 202.12 209.00 201.75 Z" />
<path fill="#00ff00" stroke="#00ff00" stroke-width="0.09375" opacity="1.00" d=" M 258.42 201.62 C 264.08 201.66 269.74 201.61 275.40 201.66 C 275.42 203.28 275.44 204.90 275.45 206.52 C 276.80 206.48 278.16 206.44 279.51 206.40 C 279.49 210.49 279.48 214.58 279.55 218.66 C 278.14 218.91 276.73 219.16 275.33 219.41 C 275.41 220.23 275.56 221.86 275.63 222.68 C 269.86 223.44 264.05 222.94 258.26 222.82 C 258.37 215.75 258.15 208.68 258.42 201.62 M 262.73 206.50 C 262.77 210.48 262.77 214.47 262.71 218.45 C 266.69 218.53 270.67 218.52 274.65 218.56 C 274.65 214.51 274.65 210.47 274.68 206.42 C 270.69 206.45 266.71 206.44 262.73 206.50 Z" />
<path fill="#00ff00" stroke="#00ff00" stroke-width="0.09375" opacity="1.00" d=" M 283.54 201.62 C 290.51 201.65 297.49 201.62 304.47 201.64 C 304.51 203.23 304.55 204.83 304.59 206.42 C 299.14 206.47 293.69 206.45 288.24 206.45 C 288.24 207.43 288.24 209.41 288.24 210.40 C 290.86 210.39 293.49 210.39 296.12 210.38 C 295.96 212.03 295.79 213.67 295.59 215.31 C 293.13 215.26 290.68 215.24 288.22 215.23 C 288.24 216.06 288.28 217.73 288.29 218.56 C 293.70 218.49 299.10 218.51 304.51 218.54 C 304.55 219.96 304.60 221.38 304.66 222.81 C 297.57 222.81 290.49 223.11 283.41 222.89 C 283.50 215.80 283.32 208.71 283.54 201.62 Z" />
<path fill="#00ff00" stroke="#00ff00" stroke-width="0.09375" opacity="1.00" d=" M 358.49 201.60 C 360.05 201.64 361.61 201.68 363.18 201.72 C 363.21 203.31 363.23 204.90 363.26 206.50 C 364.17 206.47 365.98 206.40 366.89 206.36 C 367.01 207.70 367.12 209.05 367.24 210.40 C 368.45 210.39 369.66 210.38 370.88 210.37 C 370.78 211.77 370.68 213.16 370.58 214.56 C 371.62 214.50 373.70 214.39 374.73 214.34 C 374.71 210.12 374.71 205.91 374.77 201.70 C 376.34 201.67 377.91 201.64 379.49 201.61 C 379.71 208.70 379.52 215.80 379.62 222.89 C 377.96 222.84 376.31 222.78 374.66 222.72 C 374.69 221.85 374.74 220.11 374.76 219.24 C 373.46 219.22 372.15 219.20 370.85 219.18 C 370.82 217.85 370.80 216.52 370.78 215.19 C 369.93 215.23 368.25 215.29 367.40 215.33 C 367.29 213.71 367.18 212.09 367.10 210.49 C 366.13 210.44 364.21 210.34 363.24 210.28 C 363.22 214.42 363.22 218.56 363.27 222.70 C 361.62 222.77 359.98 222.83 358.35 222.89 C 358.45 215.80 358.26 208.70 358.49 201.60 Z" />
<path fill="#00ff00" stroke="#00ff00" stroke-width="0.09375" opacity="1.00" d=" M 383.61 201.59 C 385.15 201.63 386.70 201.68 388.25 201.74 C 388.31 205.99 388.30 210.24 388.28 214.49 C 389.19 214.44 391.00 214.35 391.91 214.30 C 392.12 215.72 392.28 217.14 392.46 218.56 C 393.72 218.55 394.99 218.54 396.26 218.54 C 396.25 219.98 396.26 221.43 396.27 222.88 C 394.67 222.85 393.08 222.82 391.49 222.80 C 391.53 221.66 391.58 220.53 391.63 219.40 C 390.21 219.16 388.79 218.91 387.38 218.66 C 387.43 217.86 387.53 216.24 387.57 215.43 C 386.22 215.18 384.56 215.55 383.62 214.29 C 383.37 210.06 383.59 205.82 383.61 201.59 Z" />
<path fill="#00ff00" stroke="#00ff00" stroke-width="0.09375" opacity="1.00" d=" M 433.48 201.65 C 434.87 201.63 436.27 201.61 437.67 201.59 C 438.04 207.26 437.48 212.95 438.22 218.60 C 443.63 218.45 449.05 218.53 454.46 218.52 C 454.48 219.97 454.50 221.43 454.52 222.89 C 447.46 222.84 440.40 223.02 433.34 222.82 C 433.45 215.76 433.25 208.70 433.48 201.65 Z" />
<path fill="#00ff00" stroke="#00ff00" stroke-width="0.09375" opacity="1.00" d=" M 458.55 201.61 C 460.11 201.64 461.68 201.67 463.25 201.70 C 463.31 205.96 463.30 210.22 463.29 214.48 C 464.20 214.44 466.02 214.36 466.93 214.32 C 467.08 215.73 467.22 217.14 467.37 218.55 C 468.51 218.56 469.66 218.58 470.81 218.60 C 470.99 217.17 471.18 215.74 471.37 214.32 C 472.22 214.36 473.94 214.43 474.80 214.47 C 474.80 210.22 474.80 205.98 474.83 201.73 C 476.39 201.68 477.96 201.64 479.54 201.59 C 479.70 205.89 479.67 210.19 479.66 214.49 C 478.21 214.72 476.77 214.96 475.34 215.22 C 475.43 216.10 475.61 217.88 475.71 218.76 C 474.20 218.94 472.70 219.12 471.21 219.30 C 471.05 220.52 470.90 221.76 470.76 222.99 C 469.38 222.89 468.01 222.79 466.64 222.69 C 466.72 221.58 466.81 220.48 466.90 219.38 C 465.36 219.13 463.84 218.86 462.31 218.60 C 462.41 217.75 462.59 216.04 462.68 215.19 C 461.26 214.94 459.85 214.72 458.44 214.50 C 458.44 210.20 458.41 205.91 458.55 201.61 Z" />
<path fill="#00ff00" stroke="#00ff00" stroke-width="0.09375" opacity="1.00" d=" M 483.70 201.63 C 490.85 201.68 498.00 201.52 505.14 201.74 C 505.15 203.27 505.17 204.79 505.19 206.32 C 502.24 206.44 499.29 206.47 496.35 206.47 C 496.34 210.49 496.35 214.51 496.38 218.53 C 499.30 218.50 502.23 218.52 505.15 218.67 C 505.17 219.97 505.20 221.28 505.23 222.59 C 498.05 223.19 490.84 222.76 483.64 222.89 C 483.65 221.43 483.66 219.97 483.67 218.52 C 486.30 218.52 488.93 218.52 491.57 218.55 C 491.57 214.52 491.57 210.48 491.59 206.45 C 488.94 206.45 486.29 206.45 483.65 206.45 C 483.66 204.84 483.68 203.23 483.70 201.63 Z" />
<path fill="#00ff00" stroke="#00ff00" stroke-width="0.09375" opacity="1.00" d=" M 533.51 201.64 C 540.49 201.60 547.48 201.70 554.46 201.58 C 554.51 203.20 554.56 204.81 554.62 206.44 C 549.15 206.46 543.68 206.45 538.22 206.45 C 538.21 207.76 538.21 209.07 538.22 210.39 C 540.96 210.39 543.70 210.40 546.45 210.44 C 546.45 211.49 546.47 213.58 546.47 214.63 C 543.78 214.68 541.09 214.69 538.40 214.65 C 538.32 215.95 538.26 217.25 538.21 218.56 C 543.65 218.49 549.09 218.53 554.54 218.51 C 554.56 219.96 554.60 221.41 554.64 222.86 C 547.55 222.89 540.46 222.94 533.37 222.82 C 533.49 215.76 533.29 208.70 533.51 201.64 Z" />
<path fill="#00ff00" stroke="#00ff00" stroke-width="0.09375" opacity="1.00" d=" M 558.62 201.60 C 560.17 201.63 561.73 201.67 563.29 201.70 C 563.32 203.29 563.35 204.87 563.39 206.47 C 564.71 206.46 566.03 206.45 567.36 206.45 C 567.32 207.80 567.30 209.15 567.28 210.50 C 568.25 210.46 570.19 210.36 571.16 210.32 C 571.17 211.68 571.18 213.05 571.20 214.42 C 572.12 214.41 573.96 214.40 574.88 214.40 C 574.88 210.17 574.88 205.95 574.90 201.73 C 576.46 201.68 578.01 201.63 579.58 201.59 C 579.86 208.68 579.63 215.77 579.74 222.86 C 578.21 222.85 576.68 222.84 575.16 222.84 C 575.20 221.97 575.28 220.23 575.32 219.36 C 573.97 219.26 572.63 219.17 571.29 219.08 C 571.29 218.12 571.29 216.21 571.29 215.25 C 569.77 215.23 568.28 215.22 566.77 215.20 C 566.74 213.58 566.71 211.96 566.70 210.34 C 565.57 210.36 564.45 210.37 563.33 210.39 C 563.36 214.50 563.35 218.61 563.41 222.71 C 561.77 222.79 560.14 222.85 558.52 222.92 C 558.58 215.81 558.42 208.71 558.62 201.60 Z" />
<path fill="#00ff00" stroke="#00ff00" stroke-width="0.09375" opacity="1.00" d=" M 583.76 201.65 C 589.50 201.62 595.24 201.65 600.98 201.60 C 602.26 201.70 603.79 201.41 604.83 202.42 L 605.25 202.74 C 605.22 203.93 605.21 205.12 605.21 206.32 C 602.28 206.44 599.36 206.47 596.44 206.47 C 596.44 211.94 596.42 217.40 596.47 222.87 C 594.83 222.83 593.19 222.78 591.57 222.73 C 591.66 217.30 591.60 211.87 591.63 206.45 C 588.98 206.45 586.34 206.45 583.70 206.45 C 583.71 204.85 583.73 203.25 583.76 201.65 Z" />
<path fill="#00ff00" stroke="#00ff00" stroke-width="0.09375" opacity="1.00" d=" M 66.56 206.40 C 66.61 204.81 66.66 203.23 66.72 201.64 C 67.68 201.63 69.59 201.59 70.55 201.58 C 70.61 203.18 70.67 204.78 70.73 206.39 C 72.09 206.40 73.46 206.41 74.82 206.43 C 74.80 207.69 74.78 208.96 74.76 210.23 C 76.31 210.32 77.86 210.41 79.41 210.50 C 79.42 214.63 79.42 218.77 79.41 222.90 C 77.79 222.85 76.17 222.80 74.55 222.74 C 74.59 220.24 74.60 217.74 74.62 215.24 C 70.65 215.24 66.67 215.24 62.70 215.29 C 62.72 217.81 62.74 220.34 62.76 222.86 C 61.24 222.86 59.72 222.86 58.19 222.87 C 58.22 218.72 58.22 214.57 58.24 210.43 C 59.63 210.39 61.03 210.36 62.43 210.33 C 62.39 209.03 62.35 207.74 62.30 206.44 C 63.72 206.43 65.14 206.41 66.56 206.40 M 66.72 206.45 C 66.72 207.44 66.72 209.41 66.71 210.39 C 68.02 210.39 69.33 210.39 70.64 210.40 C 70.63 209.08 70.63 207.76 70.63 206.45 C 69.66 206.45 67.70 206.45 66.72 206.45 Z" />
<path fill="#00ff00" stroke="#00ff00" stroke-width="0.09375" opacity="1.00" d=" M 400.19 214.37 C 400.18 210.04 400.12 205.72 400.38 201.40 C 401.31 201.52 403.18 201.77 404.11 201.89 C 405.33 205.94 404.34 210.50 404.64 214.75 C 403.15 214.63 401.67 214.50 400.19 214.37 Z" />
<path fill="#00ff00" stroke="#00ff00" stroke-width="0.09375" opacity="1.00" d=" M 33.28 202.23 C 34.37 202.23 36.55 202.24 37.65 202.25 C 37.64 203.66 37.64 205.07 37.64 206.49 C 38.97 206.45 40.31 206.42 41.65 206.39 C 41.61 207.37 41.55 209.33 41.52 210.31 C 40.21 210.34 38.90 210.38 37.59 210.43 C 37.65 214.57 37.64 218.72 37.65 222.87 C 36.19 222.87 34.73 222.88 33.27 222.89 C 33.29 216.00 33.28 209.12 33.28 202.23 Z" />
<path fill="#00ff00" stroke="#00ff00" stroke-width="0.09375" opacity="1.00" d=" M 83.33 202.23 C 84.41 202.23 86.57 202.24 87.66 202.24 C 87.64 207.66 87.68 213.07 87.62 218.49 C 93.22 218.54 98.82 218.49 104.43 218.55 C 104.47 219.94 104.52 221.34 104.58 222.74 C 97.51 223.31 90.42 222.68 83.34 222.89 C 83.33 216.00 83.33 209.12 83.33 202.23 Z" />
<path fill="#00ff00" stroke="#00ff00" stroke-width="0.09375" opacity="1.00" d=" M 137.18 206.16 C 137.34 204.85 137.46 203.54 137.56 202.23 C 141.66 202.23 145.77 202.22 149.88 202.24 C 149.85 203.30 149.80 205.40 149.78 206.46 C 145.68 206.46 141.59 206.47 137.50 206.40 C 137.53 207.40 137.61 209.40 137.65 210.40 C 141.65 210.38 145.66 210.38 149.66 210.43 C 149.63 209.11 149.60 207.79 149.57 206.47 C 151.11 206.45 152.66 206.42 154.21 206.40 C 154.22 207.39 154.22 209.38 154.22 210.37 C 152.90 210.34 151.58 210.32 150.27 210.29 C 150.29 211.66 150.30 213.03 150.32 214.40 C 151.69 214.45 153.06 214.50 154.42 214.55 C 154.01 216.01 154.79 218.12 153.30 219.10 C 152.55 219.16 151.04 219.27 150.28 219.33 C 150.31 220.48 150.33 221.64 150.36 222.79 C 146.01 222.92 141.66 222.91 137.30 222.85 C 137.39 221.98 137.55 220.25 137.64 219.38 C 136.24 219.32 134.84 219.27 133.45 219.23 C 133.37 217.59 133.30 215.96 133.25 214.33 C 134.67 214.37 136.09 214.43 137.52 214.49 C 137.50 213.51 137.45 211.57 137.43 210.60 C 134.86 210.71 131.86 210.11 132.47 206.73 C 134.04 206.55 135.62 206.42 137.18 206.16 M 137.40 218.58 C 141.48 218.50 145.56 218.48 149.64 218.58 C 149.61 217.23 149.58 215.88 149.55 214.53 C 146.34 214.73 143.13 214.67 139.92 214.68 C 137.36 213.98 137.53 217.00 137.40 218.58 Z" />
<path fill="#00ff00" stroke="#00ff00" stroke-width="0.09375" opacity="1.00" d=" M 312.54 202.25 C 316.79 202.22 321.04 202.22 325.29 202.25 C 325.28 203.30 325.27 205.39 325.27 206.44 C 321.04 206.45 316.82 206.46 312.60 206.44 C 312.58 205.39 312.56 203.30 312.54 202.25 Z" />
<path fill="#00ff00" stroke="#00ff00" stroke-width="0.09375" opacity="1.00" d=" M 333.33 202.27 C 340.36 202.20 347.39 202.24 354.42 202.23 C 354.41 203.29 354.40 205.40 354.39 206.45 C 348.82 206.47 343.26 206.39 337.69 206.51 C 337.71 207.48 337.75 209.42 337.78 210.39 C 340.44 210.39 343.11 210.39 345.77 210.38 C 345.78 211.46 345.80 213.62 345.81 214.70 C 343.13 214.69 340.47 214.68 337.80 214.67 C 337.77 215.96 337.75 217.25 337.73 218.55 C 343.28 218.50 348.82 218.53 354.37 218.51 C 354.39 219.96 354.41 221.41 354.44 222.86 C 347.42 222.92 340.40 222.85 333.38 222.90 C 333.31 216.02 333.38 209.14 333.33 202.27 Z" />
<path fill="#00ff00" stroke="#00ff00" stroke-width="0.09375" opacity="1.00" d=" M 412.67 202.25 C 416.91 202.22 421.16 202.22 425.40 202.25 C 425.39 203.30 425.36 205.39 425.35 206.44 C 421.12 206.46 416.90 206.45 412.67 206.45 C 412.67 205.40 412.67 203.30 412.67 202.25 Z" />
<path fill="#00ff00" stroke="#00ff00" stroke-width="0.09375" opacity="1.00" d=" M 508.47 202.28 C 509.54 202.26 511.68 202.23 512.75 202.21 C 512.75 203.63 512.76 205.04 512.77 206.46 C 514.32 206.47 515.88 206.49 517.43 206.52 C 517.41 207.46 517.35 209.36 517.32 210.31 C 515.82 210.31 514.32 210.31 512.83 210.30 C 512.73 214.56 512.76 218.81 512.74 223.07 C 511.29 222.95 509.83 222.83 508.40 222.70 C 508.57 215.89 508.46 209.08 508.47 202.28 Z" />
<path fill="#00ff00" stroke="#00ff00" stroke-width="0.09375" opacity="1.00" d=" M 525.45 202.22 C 526.47 202.22 528.51 202.23 529.53 202.23 C 529.54 209.11 529.52 216.00 529.54 222.88 C 528.51 222.88 526.45 222.89 525.42 222.89 C 525.43 218.74 525.43 214.60 525.44 210.45 C 524.04 210.39 522.65 210.33 521.27 210.28 C 521.26 209.32 521.25 207.39 521.25 206.42 C 522.63 206.41 524.01 206.40 525.40 206.39 C 525.41 205.00 525.43 203.61 525.45 202.22 Z" />
<path fill="#00ff00" stroke="#00ff00" stroke-width="0.09375" opacity="1.00" d=" M 612.65 202.30 C 616.96 202.20 621.28 202.21 625.59 202.27 C 625.57 203.32 625.53 205.42 625.50 206.47 C 621.45 206.06 617.05 207.31 613.23 205.77 C 613.09 204.90 612.80 203.17 612.65 202.30 Z" />
<path fill="#00ff00" stroke="#00ff00" stroke-width="0.09375" opacity="1.00" d=" M 308.45 206.39 C 309.47 206.41 311.51 206.45 312.53 206.47 C 312.54 207.45 312.55 209.39 312.56 210.37 C 311.52 210.36 309.45 210.34 308.42 210.34 C 308.43 209.35 308.44 207.38 308.45 206.39 Z" />
<path fill="#00ff00" stroke="#00ff00" stroke-width="0.09375" opacity="1.00" d=" M 325.42 206.56 C 326.75 206.49 328.09 206.43 329.43 206.38 C 329.45 207.33 329.47 209.25 329.48 210.21 C 327.01 209.53 325.90 211.56 325.45 213.61 C 322.09 215.65 317.81 214.28 314.08 214.79 C 313.10 213.57 312.32 212.12 312.25 210.51 C 316.04 210.30 319.84 210.48 323.64 210.40 C 325.22 209.93 325.67 208.00 325.42 206.56 Z" />
<path fill="#00ff00" stroke="#00ff00" stroke-width="0.09375" opacity="1.00" d=" M 408.50 206.34 C 409.90 206.43 411.31 206.51 412.71 206.59 C 412.64 210.59 412.65 214.59 412.63 218.59 C 416.86 218.49 421.10 218.49 425.34 218.55 C 425.36 219.99 425.38 221.43 425.41 222.87 C 421.16 222.89 416.90 222.89 412.65 222.88 C 412.66 221.65 412.67 220.42 412.69 219.19 C 411.31 219.20 409.92 219.21 408.55 219.22 C 408.47 214.93 408.48 210.64 408.50 206.34 Z" />
<path fill="#00ff00" stroke="#00ff00" stroke-width="0.09375" opacity="1.00" d=" M 425.40 206.47 C 426.43 206.45 428.48 206.41 429.51 206.39 C 429.53 210.67 429.54 214.95 429.46 219.22 C 428.45 219.22 426.44 219.21 425.43 219.20 C 425.39 214.96 425.40 210.71 425.40 206.47 Z" />
<path fill="#00ff00" stroke="#00ff00" stroke-width="0.09375" opacity="1.00" d=" M 608.46 206.31 C 610.00 206.18 611.44 206.48 612.76 207.21 C 613.23 210.96 612.70 214.77 612.78 218.54 C 617.00 218.51 621.23 218.51 625.45 218.53 C 625.50 219.97 625.55 221.41 625.61 222.86 C 621.36 222.90 617.11 222.91 612.87 222.83 C 612.87 221.67 612.88 220.51 612.90 219.35 C 611.39 219.15 609.90 218.94 608.41 218.73 C 608.49 214.59 608.48 210.45 608.46 206.31 Z" />
<path fill="#00ff00" stroke="#00ff00" stroke-width="0.09375" opacity="1.00" d=" M 625.49 206.50 C 626.50 206.47 628.53 206.40 629.55 206.37 C 629.57 210.65 629.58 214.94 629.49 219.22 C 628.51 219.22 626.53 219.21 625.54 219.20 C 625.40 214.97 625.41 210.74 625.49 206.50 Z" />
<path fill="#00ff00" stroke="#00ff00" stroke-width="0.09375" opacity="1.00" d=" M 516.76 215.21 C 516.72 213.63 516.69 212.04 516.67 210.46 C 518.29 210.41 519.91 210.37 521.54 210.33 C 521.46 211.97 521.41 213.62 521.33 215.27 C 519.80 215.25 518.28 215.23 516.76 215.21 Z" />
<path fill="#00ff00" stroke="#00ff00" stroke-width="0.09375" opacity="1.00" d=" M 326.15 214.21 C 327.26 214.31 328.37 214.41 329.48 214.50 C 329.44 216.07 329.42 217.64 329.39 219.21 C 328.01 219.21 326.63 219.21 325.26 219.21 C 325.27 220.12 325.29 221.95 325.30 222.87 C 321.02 222.89 316.74 222.90 312.46 222.87 C 312.46 221.56 312.67 220.29 313.07 219.06 C 316.64 217.76 321.18 218.87 325.14 218.58 C 325.47 217.12 325.81 215.66 326.15 214.21 Z" />
<path fill="#00ff00" stroke="#00ff00" stroke-width="0.09375" opacity="1.00" d=" M 308.53 214.04 C 310.97 213.86 313.88 216.43 311.91 218.80 C 311.05 218.93 309.33 219.20 308.47 219.33 C 308.47 217.57 308.49 215.81 308.53 214.04 Z" />
<path fill="#00ff00" stroke="#00ff00" stroke-width="0.09375" opacity="1.00" d=" M 396.32 214.20 C 398.98 214.41 401.63 214.80 404.24 215.43 C 403.25 215.38 401.28 215.26 400.29 215.21 C 400.33 216.10 400.42 217.89 400.47 218.78 C 399.10 218.97 397.73 219.16 396.36 219.34 C 396.33 217.63 396.32 215.91 396.32 214.20 Z" />
<path fill="#00ff00" stroke="#00ff00" stroke-width="0.09375" opacity="1.00" d=" M 158.42 243.58 C 164.09 243.60 169.77 243.56 175.44 243.61 C 175.44 245.23 175.44 246.84 175.43 248.47 C 176.78 248.42 178.12 248.39 179.47 248.36 C 179.44 252.52 179.44 256.69 179.41 260.86 C 178.42 260.81 176.43 260.71 175.44 260.66 C 175.47 262.01 175.51 263.36 175.55 264.71 C 169.80 264.83 164.05 264.79 158.29 264.75 C 158.39 257.69 158.21 250.63 158.42 243.58 M 162.75 248.41 C 162.77 252.43 162.77 256.45 162.74 260.48 C 166.70 260.46 170.66 260.45 174.62 260.53 C 174.62 256.47 174.62 252.41 174.65 248.35 C 170.68 248.37 166.71 248.36 162.75 248.41 Z" />
<path fill="#00ff00" stroke="#00ff00" stroke-width="0.09375" opacity="1.00" d=" M 183.48 243.56 C 190.49 243.61 197.49 243.56 204.49 243.60 C 204.52 245.18 204.55 246.76 204.57 248.35 C 199.13 248.38 193.68 248.37 188.23 248.37 C 188.23 249.36 188.23 251.33 188.23 252.32 C 190.76 252.31 193.29 252.31 195.82 252.30 C 195.83 253.73 195.85 255.17 195.87 256.62 C 193.15 256.62 190.43 256.62 187.71 256.64 C 187.70 257.90 187.69 259.17 187.68 260.43 C 193.29 260.50 198.91 260.44 204.53 260.49 C 204.56 261.55 204.61 263.66 204.64 264.72 C 197.58 264.87 190.51 264.70 183.45 264.83 C 183.35 257.74 183.31 250.65 183.48 243.56 Z" />
<path fill="#00ff00" stroke="#00ff00" stroke-width="0.09375" opacity="1.00" d=" M 237.76 243.58 C 241.96 243.58 246.16 243.58 250.37 243.59 C 250.38 245.21 250.39 246.82 250.40 248.44 C 251.70 248.39 253.00 248.35 254.30 248.30 C 254.30 249.63 254.29 250.95 254.30 252.28 C 253.01 252.27 251.72 252.25 250.44 252.24 C 250.42 253.28 250.39 255.35 250.38 256.39 C 251.68 256.32 252.98 256.25 254.29 256.19 C 254.29 257.74 254.30 259.30 254.31 260.86 C 253.00 260.79 251.70 260.72 250.40 260.65 C 250.41 262.02 250.43 263.38 250.45 264.75 C 246.21 264.79 241.98 264.79 237.74 264.77 C 237.71 263.48 237.68 262.18 237.65 260.89 C 236.03 260.75 234.42 260.60 232.80 260.43 C 232.80 259.15 232.80 257.88 232.80 256.61 C 234.55 256.42 236.30 256.24 238.06 256.08 C 237.75 255.35 237.13 253.90 236.83 253.17 C 235.65 252.33 234.22 252.20 232.84 251.99 C 232.82 250.87 232.81 249.76 232.80 248.65 C 234.44 248.51 236.07 248.38 237.72 248.27 C 237.73 246.70 237.74 245.14 237.76 243.58 M 237.40 248.43 C 237.60 249.27 238.01 250.94 238.22 251.77 C 242.07 253.04 246.31 251.99 250.32 252.30 C 250.32 251.35 250.33 249.45 250.34 248.50 C 246.02 248.32 241.71 248.32 237.40 248.43 M 237.71 256.60 C 237.70 257.56 237.68 259.48 237.68 260.44 C 241.70 260.47 245.72 260.46 249.75 260.53 C 249.72 259.19 249.69 257.86 249.67 256.53 C 245.68 256.65 241.69 256.64 237.71 256.60 Z" />
<path fill="#00ff00" stroke="#00ff00" stroke-width="0.09375" opacity="1.00" d=" M 258.49 243.56 C 265.48 243.61 272.47 243.57 279.47 243.58 C 279.48 245.18 279.49 246.77 279.49 248.37 C 276.80 248.37 274.11 248.38 271.43 248.38 C 271.47 252.42 271.47 256.46 271.46 260.50 C 274.14 260.47 276.82 260.47 279.51 260.47 C 279.52 261.90 279.54 263.33 279.57 264.76 C 272.48 264.79 265.40 264.83 258.32 264.73 C 258.35 263.31 258.38 261.90 258.42 260.48 C 261.21 260.47 263.99 260.48 266.78 260.52 C 266.85 256.47 266.85 252.42 266.83 248.37 C 264.01 248.37 261.19 248.37 258.37 248.35 C 258.40 246.75 258.44 245.16 258.49 243.56 Z" />
<path fill="#00ff00" stroke="#00ff00" stroke-width="0.09375" opacity="1.00" d=" M 287.53 243.61 C 291.83 243.58 296.14 243.58 300.45 243.59 C 300.47 245.20 300.48 246.81 300.50 248.42 C 301.88 248.39 303.26 248.36 304.65 248.34 C 304.66 249.61 304.69 250.88 304.71 252.16 C 303.29 252.22 301.88 252.28 300.47 252.34 C 300.47 253.36 300.47 255.39 300.46 256.40 C 301.84 256.34 303.22 256.28 304.61 256.22 C 304.63 257.31 304.68 259.49 304.70 260.58 C 303.25 260.83 301.81 261.09 300.38 261.35 C 300.44 262.19 300.57 263.87 300.64 264.71 C 296.22 264.82 291.80 264.82 287.39 264.71 C 287.44 263.36 287.49 262.00 287.55 260.66 C 286.19 260.71 284.83 260.77 283.48 260.83 C 283.48 259.29 283.49 257.76 283.50 256.23 C 284.85 256.28 286.20 256.33 287.55 256.40 C 287.51 254.97 287.46 253.54 287.43 252.12 C 286.46 252.18 284.53 252.31 283.57 252.37 C 283.52 251.01 283.47 249.66 283.43 248.31 C 284.79 248.36 286.15 248.43 287.52 248.50 C 287.51 246.86 287.52 245.24 287.53 243.61 M 288.31 248.35 C 288.31 249.35 288.31 251.36 288.31 252.36 C 292.15 252.29 295.99 252.29 299.84 252.35 C 299.84 251.35 299.85 249.36 299.85 248.36 C 296.00 248.38 292.15 248.38 288.31 248.35 M 288.29 257.20 C 288.31 258.31 288.34 259.42 288.37 260.53 C 292.28 260.41 296.21 260.63 300.11 260.23 C 296.54 259.31 292.81 260.23 289.26 259.46 C 293.15 258.42 297.86 260.68 301.10 257.73 C 296.87 256.90 292.56 257.21 288.29 257.20 Z" />
<path fill="#00ff00" stroke="#00ff00" stroke-width="0.09375" opacity="1.00" d=" M 308.98 243.52 C 316.04 243.72 323.11 243.40 330.17 243.73 C 330.17 245.24 330.18 246.74 330.19 248.25 C 327.26 248.36 324.33 248.39 321.40 248.39 C 321.41 253.85 321.39 259.31 321.42 264.78 C 319.79 264.74 318.15 264.71 316.53 264.68 C 316.60 259.24 316.55 253.81 316.58 248.38 C 313.92 248.37 311.27 248.37 308.61 248.37 C 308.72 246.75 308.84 245.13 308.98 243.52 Z" />
<path fill="#00ff00" stroke="#00ff00" stroke-width="0.09375" opacity="1.00" d=" M 333.55 243.59 C 340.48 243.57 347.42 243.60 354.35 243.57 C 354.37 245.17 354.39 246.77 354.41 248.38 C 348.94 248.36 343.47 248.40 338.00 248.34 C 337.90 249.64 337.81 250.94 337.73 252.25 C 340.66 252.31 343.59 252.33 346.53 252.37 C 346.53 253.42 346.55 255.53 346.55 256.58 C 343.78 256.61 341.00 256.61 338.23 256.53 C 338.12 257.86 338.02 259.20 337.91 260.54 C 343.41 260.42 348.91 260.49 354.42 260.46 C 354.39 261.91 354.36 263.37 354.34 264.83 C 347.37 264.72 340.41 264.85 333.44 264.73 C 333.54 257.68 333.38 250.64 333.55 243.59 Z" />
<path fill="#00ff00" stroke="#00ff00" stroke-width="0.09375" opacity="1.00" d=" M 358.52 243.59 C 360.08 243.60 361.65 243.61 363.22 243.63 C 363.24 245.22 363.26 246.80 363.28 248.40 C 364.23 248.38 366.11 248.33 367.06 248.31 C 367.10 249.62 367.15 250.94 367.20 252.26 C 368.11 252.29 369.93 252.35 370.83 252.38 C 370.82 251.06 370.81 249.74 370.81 248.43 C 372.12 248.40 373.44 248.38 374.76 248.36 C 374.76 246.81 374.79 245.26 374.80 243.71 C 376.37 243.64 377.95 243.58 379.53 243.53 C 379.74 250.60 379.57 257.68 379.65 264.76 C 378.19 264.76 376.74 264.77 375.30 264.78 C 375.30 260.67 375.29 256.56 375.36 252.45 C 374.02 252.39 372.69 252.34 371.37 252.30 C 371.43 253.71 371.49 255.12 371.55 256.53 C 370.08 256.58 368.62 256.62 367.16 256.67 C 367.16 255.20 367.17 253.74 367.19 252.28 C 366.21 252.27 364.25 252.26 363.27 252.25 C 363.26 256.40 363.26 260.56 363.29 264.71 C 361.66 264.72 360.03 264.73 358.41 264.74 C 358.51 257.69 358.35 250.64 358.52 243.59 Z" />
<path fill="#00ff00" stroke="#00ff00" stroke-width="0.09375" opacity="1.00" d=" M 391.65 243.64 C 393.18 243.61 394.71 243.59 396.24 243.57 C 396.25 245.17 396.26 246.77 396.27 248.38 C 397.71 248.37 399.14 248.36 400.58 248.36 C 400.54 249.66 400.51 250.96 400.48 252.27 C 401.89 252.29 403.30 252.32 404.72 252.35 C 404.71 256.49 404.71 260.62 404.74 264.76 C 403.24 264.76 401.74 264.76 400.25 264.77 C 400.26 262.25 400.27 259.74 400.29 257.23 C 396.32 257.18 392.34 257.18 388.37 257.19 C 388.38 259.67 388.40 262.16 388.43 264.65 C 386.80 264.70 385.18 264.75 383.56 264.79 C 383.58 260.65 383.58 256.50 383.57 252.36 C 384.90 252.34 386.23 252.31 387.56 252.29 C 387.54 250.99 387.51 249.70 387.50 248.40 C 388.85 248.39 390.22 248.39 391.58 248.39 C 391.60 246.80 391.62 245.22 391.65 243.64 M 392.35 248.33 C 392.36 249.66 392.37 250.99 392.39 252.32 C 393.68 252.31 394.97 252.31 396.27 252.31 C 396.28 251.01 396.28 249.70 396.29 248.40 C 395.31 248.38 393.33 248.35 392.35 248.33 Z" />
<path fill="#00ff00" stroke="#00ff00" stroke-width="0.09375" opacity="1.00" d=" M 412.71 243.60 C 416.93 243.58 421.15 243.59 425.37 243.57 C 425.34 244.42 425.27 246.11 425.24 246.96 C 426.46 248.03 428.00 248.48 429.61 248.53 C 429.61 249.69 429.62 250.86 429.63 252.03 C 428.40 252.21 427.26 252.59 426.18 253.17 C 425.91 253.95 425.35 255.51 425.07 256.29 C 426.18 256.25 428.39 256.17 429.49 256.13 C 429.53 257.66 429.58 259.20 429.62 260.74 C 428.17 260.84 426.73 260.96 425.29 261.09 C 425.34 262.00 425.45 263.80 425.51 264.71 C 421.23 264.82 416.95 264.81 412.68 264.75 C 412.67 263.39 412.66 262.04 412.65 260.69 C 411.37 260.74 410.08 260.78 408.81 260.83 C 408.81 259.29 408.81 257.76 408.82 256.22 C 410.10 256.26 411.39 256.30 412.68 256.34 C 412.69 255.31 412.72 253.25 412.73 252.22 C 411.42 252.23 410.11 252.26 408.81 252.29 C 408.80 250.96 408.79 249.63 408.80 248.31 C 410.10 248.36 411.41 248.43 412.73 248.51 C 412.71 246.87 412.71 245.24 412.71 243.60 M 413.27 248.35 C 413.27 249.35 413.26 251.34 413.25 252.33 C 417.09 251.98 421.17 253.05 424.84 251.74 C 425.43 250.48 424.77 249.15 423.96 248.18 C 420.40 248.45 416.83 248.39 413.27 248.35 M 413.33 256.55 C 413.32 257.87 413.31 259.20 413.30 260.53 C 417.36 260.44 421.42 260.44 425.48 260.53 C 425.45 259.55 425.38 257.59 425.35 256.61 C 421.34 256.63 417.33 256.64 413.33 256.55 Z" />
</svg>
