<?xml version="1.0" encoding="UTF-8" ?>
<!DOCTYPE svg PUBLIC "-//W3C//DTD SVG 1.1//EN" "http://www.w3.org/Graphics/SVG/1.1/DTD/svg11.dtd">
<svg width="1024pt" height="1024pt" viewBox="0 0 1024 1024" version="1.1" xmlns="http://www.w3.org/2000/svg">
<path fill="#fa7556" stroke="#fa7556" stroke-width="0.09375" opacity="1.00" d=" M 454.28 0.00 L 456.84 0.00 C 457.21 0.68 457.59 1.36 457.98 2.04 C 457.06 5.61 456.70 9.30 456.74 12.98 C 456.76 27.31 456.23 41.64 456.34 55.98 C 456.44 88.30 455.41 120.61 455.79 152.93 C 454.53 153.25 453.29 153.58 452.03 153.87 C 436.53 156.13 421.13 159.07 405.57 160.87 C 392.43 162.82 379.24 164.44 366.12 166.47 C 361.55 167.11 356.98 167.72 352.37 167.81 C 351.39 162.36 355.70 158.43 358.28 154.18 C 362.58 147.52 367.11 140.99 371.00 134.07 C 382.96 115.05 394.98 96.06 406.80 76.95 C 420.10 55.83 433.64 34.84 446.29 13.33 C 448.86 8.83 452.20 4.77 454.28 0.00 Z" />
<path fill="#bc6150" stroke="#bc6150" stroke-width="0.09375" opacity="1.00" d=" M 456.74 12.98 C 456.70 9.30 457.06 5.61 457.98 2.04 C 460.42 5.26 462.93 8.45 464.74 12.10 C 471.94 23.04 478.81 34.22 485.65 45.40 C 491.27 53.50 496.35 61.96 501.66 70.27 C 507.19 80.19 513.87 89.39 519.82 99.06 C 525.83 108.44 531.64 117.95 537.74 127.28 C 542.44 135.72 548.48 143.34 553.19 151.78 C 556.09 156.91 560.04 161.65 561.36 167.52 C 526.13 163.06 490.87 158.78 455.77 153.40 C 454.51 153.52 453.26 153.67 452.03 153.87 C 453.29 153.58 454.53 153.25 455.79 152.93 C 455.41 120.61 456.44 88.30 456.34 55.98 C 456.23 41.64 456.76 27.31 456.74 12.98 Z" />
<path fill="#f6f9f9" stroke="#f6f9f9" stroke-width="0.09375" opacity="1.00" d=" M 405.57 160.87 C 421.13 159.07 436.53 156.13 452.03 153.87 C 453.26 153.67 454.51 153.52 455.77 153.40 C 455.54 165.99 456.26 178.60 455.43 191.17 C 447.64 193.09 440.42 196.73 432.72 198.93 C 422.56 202.60 412.63 206.90 402.24 209.94 C 399.54 210.67 397.09 212.02 394.54 213.11 C 390.89 214.57 387.04 215.49 383.60 217.42 C 383.76 232.04 383.67 246.67 383.70 261.30 C 393.68 265.38 403.91 268.79 414.21 271.95 C 424.93 276.73 436.21 279.97 446.96 284.68 C 449.26 285.64 451.66 286.34 454.09 286.86 C 454.82 287.55 455.55 288.24 456.29 288.94 C 456.39 342.88 456.35 396.82 456.30 450.76 C 445.82 453.62 435.87 458.09 425.59 461.56 C 417.84 464.38 410.22 467.50 402.61 470.66 C 402.75 524.78 402.59 578.91 402.69 633.03 C 402.82 638.40 401.93 644.02 404.24 649.08 C 415.73 692.77 431.14 735.34 443.01 778.93 C 444.22 782.47 445.55 785.96 446.74 789.52 C 446.38 789.60 445.67 789.78 445.32 789.86 C 438.00 791.42 430.76 793.29 423.59 795.42 C 417.96 796.91 412.04 797.65 406.86 800.47 C 395.82 768.46 383.95 736.80 373.09 704.76 C 369.39 695.79 367.46 686.18 363.32 677.40 C 360.50 669.88 358.56 662.07 355.62 654.60 C 353.80 650.22 353.54 645.42 352.29 640.88 C 351.22 634.97 352.06 628.94 351.77 622.98 C 352.67 603.66 352.14 584.31 352.24 564.97 C 352.20 532.93 352.17 500.88 352.29 468.84 C 352.44 441.90 352.32 414.95 352.35 388.01 C 352.22 314.61 352.40 241.21 352.37 167.81 C 356.98 167.72 361.55 167.11 366.12 166.47 C 379.24 164.44 392.43 162.82 405.57 160.87 M 353.27 372.92 C 352.52 383.92 353.22 394.97 352.92 405.99 C 353.08 408.35 352.56 411.03 353.84 413.16 C 365.48 427.61 376.82 442.30 388.01 457.10 C 391.96 461.09 395.35 465.67 399.69 469.24 C 395.80 456.33 389.52 444.34 383.76 432.21 C 374.26 414.14 366.04 395.44 356.62 377.33 C 355.72 375.69 354.50 374.29 353.27 372.92 Z" />
<path fill="#bfcace" stroke="#bfcace" stroke-width="0.09375" opacity="1.00" d=" M 455.77 153.40 C 490.87 158.78 526.13 163.06 561.36 167.52 C 561.19 235.11 561.39 302.70 561.26 370.29 C 557.27 376.66 555.02 383.90 551.53 390.52 C 544.63 403.27 539.70 416.94 533.02 429.80 C 528.94 437.64 524.71 445.40 519.72 452.71 C 517.05 456.41 515.26 460.69 512.31 464.21 C 511.50 464.93 510.66 465.64 509.82 466.33 C 508.67 467.18 507.39 467.85 506.08 468.42 C 496.74 464.85 486.93 462.58 477.83 458.38 C 470.96 455.59 463.77 453.70 456.92 450.87 L 456.30 450.76 C 456.35 396.82 456.39 342.88 456.29 288.94 C 455.55 288.24 454.82 287.55 454.09 286.86 C 458.48 287.21 462.51 285.18 466.48 283.63 C 472.59 281.32 478.50 278.47 484.84 276.83 C 499.10 271.24 513.87 267.19 528.28 262.00 C 528.44 247.16 528.17 232.32 528.41 217.49 C 525.42 215.47 521.82 214.86 518.53 213.56 C 509.26 210.12 500.00 206.71 490.60 203.67 C 480.44 200.20 470.53 196.03 460.45 192.34 C 458.83 191.71 457.16 191.26 455.43 191.17 C 456.26 178.60 455.54 165.99 455.77 153.40 Z" />
<path fill="#030204" stroke="#030204" stroke-width="0.09375" opacity="1.00" d=" M 432.72 198.93 C 440.42 196.73 447.64 193.09 455.43 191.17 C 457.16 191.26 458.83 191.71 460.45 192.34 C 470.53 196.03 480.44 200.20 490.60 203.67 C 500.00 206.71 509.26 210.12 518.53 213.56 C 521.82 214.86 525.42 215.47 528.41 217.49 C 528.17 232.32 528.44 247.16 528.28 262.00 C 513.87 267.19 499.10 271.24 484.84 276.83 C 478.50 278.47 472.59 281.32 466.48 283.63 C 462.51 285.18 458.48 287.21 454.09 286.86 C 451.66 286.34 449.26 285.64 446.96 284.68 C 436.21 279.97 424.93 276.73 414.21 271.95 C 403.91 268.79 393.68 265.38 383.70 261.30 C 383.67 246.67 383.76 232.04 383.60 217.42 C 387.04 215.49 390.89 214.57 394.54 213.11 C 397.09 212.02 399.54 210.67 402.24 209.94 C 412.63 206.90 422.56 202.60 432.72 198.93 Z" />
<path fill="#ba6244" stroke="#ba6244" stroke-width="0.09375" opacity="1.00" d=" M 551.53 390.52 C 555.02 383.90 557.27 376.66 561.26 370.29 C 561.06 379.28 561.94 388.34 560.76 397.28 C 560.34 397.80 559.50 398.85 559.09 399.38 C 557.67 399.83 556.07 399.88 554.84 400.77 C 549.52 406.18 547.67 413.96 542.51 419.50 C 540.97 420.96 541.80 423.10 542.10 424.87 C 541.75 425.38 541.42 425.90 541.09 426.44 C 539.88 427.96 538.56 429.42 537.40 430.99 C 535.94 430.58 534.47 430.19 533.02 429.80 C 539.70 416.94 544.63 403.27 551.53 390.52 Z" />
<path fill="#dbe1e1" stroke="#dbe1e1" stroke-width="0.09375" opacity="1.00" d=" M 353.27 372.92 C 354.50 374.29 355.72 375.69 356.62 377.33 C 366.04 395.44 374.26 414.14 383.76 432.21 C 389.52 444.34 395.80 456.33 399.69 469.24 C 395.35 465.67 391.96 461.09 388.01 457.10 C 376.82 442.30 365.48 427.61 353.84 413.16 C 352.56 411.03 353.08 408.35 352.92 405.99 C 353.22 394.97 352.52 383.92 353.27 372.92 Z" />
<path fill="#197e92" stroke="#197e92" stroke-width="0.09375" opacity="1.00" d=" M 560.76 397.28 C 560.93 398.57 561.17 399.85 561.35 401.15 C 558.76 405.52 556.03 409.82 552.81 413.75 C 548.67 418.79 545.17 424.30 541.10 429.39 C 541.10 428.65 541.09 427.18 541.09 426.44 C 541.42 425.90 541.75 425.38 542.10 424.87 C 547.82 416.41 553.15 407.69 559.09 399.38 C 559.50 398.85 560.34 397.80 560.76 397.28 Z" />
<path fill="#bb5238" stroke="#bb5238" stroke-width="0.09375" opacity="1.00" d=" M 554.84 400.77 C 556.07 399.88 557.67 399.83 559.09 399.38 C 553.15 407.69 547.82 416.41 542.10 424.87 C 541.80 423.10 540.97 420.96 542.51 419.50 C 547.67 413.96 549.52 406.18 554.84 400.77 Z" />
<path fill="#8eabb1" stroke="#8eabb1" stroke-width="0.09375" opacity="1.00" d=" M 552.81 413.75 C 556.03 409.82 558.76 405.52 561.35 401.15 C 561.55 406.62 561.37 412.10 561.38 417.58 C 553.10 424.77 547.20 434.17 540.45 442.71 C 538.55 440.84 539.98 438.40 540.13 436.21 C 540.11 434.85 539.49 433.57 539.18 432.28 C 539.82 431.32 540.45 430.35 541.10 429.39 C 545.17 424.30 548.67 418.79 552.81 413.75 Z" />
<path fill="#abb9be" stroke="#abb9be" stroke-width="0.09375" opacity="1.00" d=" M 540.45 442.71 C 547.20 434.17 553.10 424.77 561.38 417.58 C 561.36 419.90 561.34 422.24 561.32 424.57 C 555.89 429.58 552.73 436.43 547.80 441.88 C 540.86 449.60 534.87 458.12 527.85 465.77 C 525.80 467.78 523.72 470.12 520.82 470.85 C 516.78 471.73 512.58 470.85 508.78 469.40 C 507.87 469.07 506.98 468.73 506.08 468.42 C 507.39 467.85 508.67 467.18 509.82 466.33 C 509.92 466.98 510.12 468.28 510.23 468.93 C 513.18 469.07 516.52 469.94 519.18 468.19 C 528.12 461.35 533.34 451.19 540.45 442.71 Z" />
<path fill="#becace" stroke="#becace" stroke-width="0.09375" opacity="1.00" d=" M 547.80 441.88 C 552.73 436.43 555.89 429.58 561.32 424.57 C 561.19 439.54 561.56 454.52 561.11 469.47 C 560.42 474.61 560.69 479.79 560.65 484.96 C 560.55 515.63 560.66 546.29 560.42 576.96 C 560.49 598.98 560.10 621.00 560.62 643.01 C 558.54 651.88 555.00 660.30 552.27 668.98 C 549.08 679.43 544.76 689.49 541.73 699.99 C 537.57 711.23 533.63 722.54 529.64 733.84 C 526.57 743.31 523.63 752.83 519.88 762.06 C 517.27 770.55 514.26 778.92 511.04 787.20 C 509.15 791.74 509.11 796.99 506.07 801.05 C 503.09 798.37 498.93 798.08 495.29 796.84 C 487.89 794.41 480.30 792.66 472.73 790.86 C 475.63 783.16 477.40 775.11 479.25 767.11 C 479.92 764.61 479.26 762.06 478.67 759.63 C 482.65 748.99 486.08 738.11 488.43 726.99 C 490.55 719.46 491.83 711.73 494.14 704.25 C 499.89 689.34 503.54 673.75 507.30 658.25 C 508.48 652.20 510.15 646.22 510.51 640.04 C 510.01 640.23 508.99 640.62 508.49 640.81 C 508.41 583.67 508.35 526.53 508.78 469.40 C 512.58 470.85 516.78 471.73 520.82 470.85 C 523.72 470.12 525.80 467.78 527.85 465.77 C 534.87 458.12 540.86 449.60 547.80 441.88 Z" />
<path fill="#4e656d" stroke="#4e656d" stroke-width="0.09375" opacity="1.00" d=" M 537.40 430.99 C 538.56 429.42 539.88 427.96 541.09 426.44 C 541.09 427.18 541.10 428.65 541.10 429.39 C 540.45 430.35 539.82 431.32 539.18 432.28 C 535.07 438.47 530.70 444.47 525.96 450.18 C 529.13 443.41 534.01 437.64 537.40 430.99 Z" />
<path fill="#ca5d48" stroke="#ca5d48" stroke-width="0.09375" opacity="1.00" d=" M 533.02 429.80 C 534.47 430.19 535.94 430.58 537.40 430.99 C 534.01 437.64 529.13 443.41 525.96 450.18 C 521.99 455.38 516.88 459.56 512.31 464.21 C 515.26 460.69 517.05 456.41 519.72 452.71 C 524.71 445.40 528.94 437.64 533.02 429.80 Z" />
<path fill="#8cb3bc" stroke="#8cb3bc" stroke-width="0.09375" opacity="1.00" d=" M 525.96 450.18 C 530.70 444.47 535.07 438.47 539.18 432.28 C 539.49 433.57 540.11 434.85 540.13 436.21 C 539.98 438.40 538.55 440.84 540.45 442.71 C 533.34 451.19 528.12 461.35 519.18 468.19 C 516.52 469.94 513.18 469.07 510.23 468.93 C 510.12 468.28 509.92 466.98 509.82 466.33 C 510.66 465.64 511.50 464.93 512.31 464.21 C 516.88 459.56 521.99 455.38 525.96 450.18 Z" />
<path fill="#fb7556" stroke="#fb7556" stroke-width="0.09375" opacity="1.00" d=" M 425.59 461.56 C 435.87 458.09 445.82 453.62 456.30 450.76 L 456.92 450.87 C 456.15 491.26 457.74 531.66 457.01 572.06 C 457.22 581.03 456.67 590.00 457.11 598.98 C 456.96 618.72 456.81 638.47 456.76 658.22 C 456.59 688.14 456.82 718.07 456.68 748.00 C 456.82 761.23 456.30 774.49 457.22 787.71 C 453.27 788.52 449.31 789.29 445.32 789.86 C 445.67 789.78 446.38 789.60 446.74 789.52 C 445.55 785.96 444.22 782.47 443.01 778.93 C 431.14 735.34 415.73 692.77 404.24 649.08 C 401.93 644.02 402.82 638.40 402.69 633.03 C 402.59 578.91 402.75 524.78 402.61 470.66 C 410.22 467.50 417.84 464.38 425.59 461.56 Z" />
<path fill="#e35a66" stroke="#e35a66" stroke-width="0.09375" opacity="1.00" d=" M 456.92 450.87 C 463.77 453.70 470.96 455.59 477.83 458.38 C 486.93 462.58 496.74 464.85 506.08 468.42 C 506.98 468.73 507.87 469.07 508.78 469.40 C 508.35 526.53 508.41 583.67 508.49 640.81 C 503.28 642.62 497.78 643.51 492.72 645.74 C 481.04 650.74 468.98 654.80 456.76 658.22 C 456.81 638.47 456.96 618.72 457.11 598.98 C 456.67 590.00 457.22 581.03 457.01 572.06 C 457.74 531.66 456.15 491.26 456.92 450.87 Z" />
<path fill="#fa7556" stroke="#fa7556" stroke-width="0.09375" opacity="1.00" d=" M 318.92 521.84 C 329.90 504.09 340.06 485.77 352.29 468.84 C 352.17 500.88 352.20 532.93 352.24 564.97 C 352.14 584.31 352.67 603.66 351.77 622.98 C 352.06 628.94 351.22 634.97 352.29 640.88 C 348.73 647.88 344.06 654.20 339.65 660.66 C 333.12 671.14 326.72 681.70 320.16 692.16 C 313.65 703.82 305.64 714.54 299.09 726.17 C 287.43 744.51 276.15 763.09 264.61 781.51 C 255.06 795.16 246.89 809.72 237.71 823.62 C 226.84 841.05 215.40 858.12 204.61 875.60 C 204.16 872.75 203.65 869.90 203.71 867.01 C 203.98 852.98 203.78 838.96 203.93 824.93 C 203.91 821.83 204.96 818.90 206.12 816.08 C 208.41 810.48 209.84 804.58 211.86 798.89 C 217.34 783.91 221.87 768.62 227.40 753.66 C 231.55 742.29 234.96 730.66 239.51 719.43 C 247.93 695.40 256.32 671.33 265.74 647.66 C 271.73 633.47 276.46 618.79 282.52 604.62 C 288.25 588.67 295.34 573.25 301.39 557.42 C 303.72 551.41 306.40 545.53 309.77 540.02 C 312.89 534.00 315.19 527.55 318.92 521.84 Z" />
<path fill="#db654f" stroke="#db654f" stroke-width="0.09375" opacity="1.00" d=" M 561.11 469.47 C 565.44 477.10 570.51 484.28 575.20 491.69 C 579.07 498.42 583.42 504.87 587.72 511.34 C 593.85 520.00 598.49 529.60 604.22 538.51 C 603.68 549.99 602.66 561.88 597.24 572.24 C 591.36 583.53 586.51 595.31 580.56 606.56 C 574.29 618.49 567.31 630.06 560.99 641.96 L 560.62 643.01 C 560.10 621.00 560.49 598.98 560.42 576.96 C 560.66 546.29 560.55 515.63 560.65 484.96 C 560.69 479.79 560.42 474.61 561.11 469.47 Z" />
<path fill="#d46550" stroke="#d46550" stroke-width="0.09375" opacity="1.00" d=" M 285.21 537.15 C 289.93 530.41 294.97 523.89 300.44 517.74 C 301.50 520.60 302.54 523.47 303.88 526.22 C 306.13 530.70 307.27 535.65 309.77 540.02 C 306.40 545.53 303.72 551.41 301.39 557.42 C 295.34 573.25 288.25 588.67 282.52 604.62 C 276.46 618.79 271.73 633.47 265.74 647.66 C 256.32 671.33 247.93 695.40 239.51 719.43 C 234.96 730.66 231.55 742.29 227.40 753.66 C 221.87 768.62 217.34 783.91 211.86 798.89 C 209.84 804.58 208.41 810.48 206.12 816.08 C 204.96 818.90 203.91 821.83 203.93 824.93 C 203.78 838.96 203.98 852.98 203.71 867.01 C 203.65 869.90 204.16 872.75 204.61 875.60 C 204.46 876.12 204.18 877.15 204.04 877.66 C 203.61 876.84 203.37 875.99 203.32 875.09 C 203.47 798.70 203.25 722.30 203.30 645.90 C 203.34 642.37 206.43 639.93 208.17 637.10 C 234.14 604.00 258.98 570.05 285.21 537.15 Z" />
<path fill="#fa7556" stroke="#fa7556" stroke-width="0.09375" opacity="1.00" d=" M 611.20 518.50 C 615.09 523.37 619.52 527.78 623.07 532.92 C 632.15 542.65 639.68 553.64 648.12 563.90 C 655.81 572.63 662.15 582.43 669.43 591.49 C 681.08 607.14 693.25 622.41 705.07 637.94 C 706.76 640.52 709.93 642.58 709.86 645.96 C 710.41 653.64 710.23 661.36 710.26 669.06 C 710.31 710.71 710.17 752.36 710.21 794.01 C 709.93 809.01 710.55 824.02 709.78 839.00 C 710.37 851.52 710.42 864.06 710.10 876.59 C 702.38 864.79 695.03 852.74 687.43 840.85 C 681.57 830.49 674.20 821.10 668.21 810.82 C 661.00 800.52 654.99 789.47 647.80 779.16 C 630.90 752.13 613.97 725.12 596.95 698.16 C 588.86 684.62 579.87 671.65 572.03 657.97 C 568.80 652.33 564.57 647.36 560.99 641.96 C 567.31 630.06 574.29 618.49 580.56 606.56 C 586.51 595.31 591.36 583.53 597.24 572.24 C 602.66 561.88 603.68 549.99 604.22 538.51 C 605.98 531.67 607.37 524.55 611.20 518.50 Z" />
<path fill="#799ea0" stroke="#799ea0" stroke-width="0.09375" opacity="1.00" d=" M 508.49 640.81 C 508.99 640.62 510.01 640.23 510.51 640.04 C 510.15 646.22 508.48 652.20 507.30 658.25 C 503.54 673.75 499.89 689.34 494.14 704.25 C 492.75 704.46 491.37 704.67 490.00 704.89 C 493.06 694.56 494.61 683.79 498.86 673.83 C 502.34 662.91 505.80 651.95 508.49 640.81 Z" />
<path fill="#c26150" stroke="#c26150" stroke-width="0.09375" opacity="1.00" d=" M 492.72 645.74 C 497.78 643.51 503.28 642.62 508.49 640.81 C 505.80 651.95 502.34 662.91 498.86 673.83 C 494.61 683.79 493.06 694.56 490.00 704.89 C 487.33 712.73 485.50 720.81 483.41 728.82 C 476.57 748.61 470.72 768.71 464.38 788.67 C 463.76 788.52 462.52 788.21 461.90 788.06 C 460.38 787.59 458.78 787.61 457.22 787.71 C 456.30 774.49 456.82 761.23 456.68 748.00 C 456.82 718.07 456.59 688.14 456.76 658.22 C 468.98 654.80 481.04 650.74 492.72 645.74 Z" />
<path fill="#88acb4" stroke="#88acb4" stroke-width="0.09375" opacity="1.00" d=" M 490.00 704.89 C 491.37 704.67 492.75 704.46 494.14 704.25 C 491.83 711.73 490.55 719.46 488.43 726.99 C 486.75 727.59 485.08 728.20 483.41 728.82 C 485.50 720.81 487.33 712.73 490.00 704.89 Z" />
<path fill="#94b3bb" stroke="#94b3bb" stroke-width="0.09375" opacity="1.00" d=" M 483.41 728.82 C 485.08 728.20 486.75 727.59 488.43 726.99 C 486.08 738.11 482.65 748.99 478.67 759.63 C 477.02 765.85 473.35 771.22 471.37 777.31 C 469.83 781.40 467.91 785.34 466.66 789.54 C 465.06 789.06 463.49 788.52 461.90 788.06 C 462.52 788.21 463.76 788.52 464.38 788.67 C 470.72 768.71 476.57 748.61 483.41 728.82 Z" />
<path fill="#abbec2" stroke="#abbec2" stroke-width="0.09375" opacity="1.00" d=" M 471.37 777.31 C 473.35 771.22 477.02 765.85 478.67 759.63 C 479.26 762.06 479.92 764.61 479.25 767.11 C 477.40 775.11 475.63 783.16 472.73 790.86 C 470.70 790.43 468.66 790.06 466.66 789.54 C 467.91 785.34 469.83 781.40 471.37 777.31 Z" />
<path fill="#4e656d" stroke="#4e656d" stroke-width="0.09375" opacity="1.00" d=" M 445.32 789.86 C 449.31 789.29 453.27 788.52 457.22 787.71 C 458.78 787.61 460.38 787.59 461.90 788.06 C 463.49 788.52 465.06 789.06 466.66 789.54 C 468.66 790.06 470.70 790.43 472.73 790.86 C 480.30 792.66 487.89 794.41 495.29 796.84 C 498.93 798.08 503.09 798.37 506.07 801.05 L 506.69 801.52 C 498.97 805.41 490.14 805.54 481.83 807.27 C 474.32 808.85 466.65 809.57 458.98 809.32 C 442.30 809.84 425.96 805.98 409.70 802.85 C 414.32 800.35 419.49 798.81 423.59 795.42 C 430.76 793.29 438.00 791.42 445.32 789.86 Z" />
<path fill="#5c7b81" stroke="#5c7b81" stroke-width="0.09375" opacity="1.00" d=" M 406.86 800.47 C 412.04 797.65 417.96 796.91 423.59 795.42 C 419.49 798.81 414.32 800.35 409.70 802.85 C 409.14 802.74 408.03 802.51 407.47 802.39 C 407.32 801.91 407.01 800.95 406.86 800.47 Z" />
<path fill="#fb7555" stroke="#fb7555" stroke-width="0.09375" opacity="1.00" d=" M 415.55 869.06 C 417.89 861.26 419.70 853.27 422.73 845.69 C 436.43 845.72 450.13 845.72 463.84 845.73 C 464.29 863.47 464.28 881.21 464.03 898.96 C 464.47 922.09 464.00 945.23 464.39 968.36 L 464.44 969.18 C 463.96 969.36 463.00 969.70 462.52 969.87 C 444.29 946.01 424.29 923.54 406.60 899.26 C 408.41 894.69 409.88 889.99 411.03 885.21 C 413.46 880.11 414.04 874.45 415.55 869.06 Z" />
<path fill="#e75b67" stroke="#e75b67" stroke-width="0.09375" opacity="1.00" d=" M 463.84 845.73 C 476.34 845.69 488.84 845.82 501.33 845.63 C 503.96 852.18 505.73 859.09 507.59 865.91 C 511.52 877.72 514.84 889.72 517.86 901.79 C 514.99 904.64 512.89 908.13 510.35 911.26 C 500.98 922.94 491.52 934.54 482.07 946.14 C 475.89 953.31 470.52 961.15 464.39 968.36 C 464.00 945.23 464.47 922.09 464.03 898.96 C 464.28 881.21 464.29 863.47 463.84 845.73 Z" />
</svg>
