<?xml version="1.0" encoding="UTF-8" ?>
<!DOCTYPE svg PUBLIC "-//W3C//DTD SVG 1.1//EN" "http://www.w3.org/Graphics/SVG/1.1/DTD/svg11.dtd">
<svg width="955pt" height="189pt" viewBox="0 0 955 189" version="1.1" xmlns="http://www.w3.org/2000/svg">
<path fill="#7f233b" stroke="#7f233b" stroke-width="0.09375" opacity="1.00" d=" M 4.96 2.09 C 10.77 2.27 17.05 0.93 22.45 3.67 C 26.16 5.60 28.14 9.45 30.02 12.98 C 45.03 42.25 59.94 71.57 74.95 100.84 C 76.41 103.70 78.00 106.68 77.86 109.99 C 78.00 113.55 76.25 116.76 74.66 119.82 C 73.00 122.90 71.63 126.14 69.73 129.08 C 48.08 86.78 26.64 44.37 4.96 2.09 Z" />
<path fill="#fd6f44" stroke="#fd6f44" stroke-width="0.09375" opacity="1.00" d=" M 192.94 9.03 C 195.13 5.05 199.44 2.56 203.90 2.12 C 207.75 1.82 211.61 2.07 215.47 2.00 C 209.70 13.86 203.24 25.41 197.75 37.40 C 192.31 34.79 186.08 34.52 180.24 33.29 C 184.65 25.30 188.48 16.99 192.94 9.03 Z" />
<path fill="#fd6f44" stroke="#fd6f44" stroke-width="0.09375" opacity="1.00" d=" M 229.85 2.01 C 272.24 2.00 314.63 1.98 357.02 2.02 C 369.24 1.92 381.37 6.47 390.52 14.57 C 401.50 24.03 408.06 38.47 407.65 52.99 C 407.64 61.87 404.68 70.50 400.26 78.13 C 394.20 76.98 388.17 75.67 382.11 74.48 C 388.53 67.37 391.90 57.46 390.50 47.92 C 389.56 40.02 385.62 32.62 379.85 27.19 C 373.64 21.59 365.32 18.45 356.96 18.58 C 317.95 18.53 278.93 18.60 239.92 18.55 C 235.73 18.92 231.01 16.35 230.18 12.00 C 229.70 8.69 229.84 5.34 229.85 2.01 Z" />
<path fill="#fd6f44" stroke="#fd6f44" stroke-width="0.09375" opacity="1.00" d=" M 436.69 2.02 C 440.83 2.13 445.19 1.35 449.16 2.85 C 452.64 4.43 454.60 8.29 454.36 12.03 C 454.45 37.79 454.27 63.55 454.45 89.30 C 448.54 88.03 442.60 86.88 436.68 85.62 C 436.87 57.75 436.59 29.89 436.69 2.02 Z" />
<path fill="#fd6f44" stroke="#fd6f44" stroke-width="0.09375" opacity="1.00" d=" M 589.96 48.06 C 603.26 24.04 627.99 6.75 655.15 2.62 C 671.38 1.00 687.70 2.16 703.97 2.01 C 719.98 1.86 735.50 7.60 749.01 15.89 C 765.48 26.46 778.65 42.37 785.24 60.86 C 796.74 91.83 790.27 128.70 768.58 153.68 C 762.09 152.27 755.59 150.93 749.06 149.69 C 762.43 137.89 771.26 121.09 773.66 103.44 C 775.45 89.39 773.49 74.73 767.14 62.00 C 759.63 46.68 746.95 33.89 731.59 26.42 C 719.74 20.39 706.30 17.69 693.04 18.05 C 681.07 18.26 669.00 17.31 657.12 19.17 C 626.58 24.16 600.85 49.76 595.59 80.23 C 593.31 93.10 594.29 106.62 598.91 118.88 C 593.10 117.71 587.30 116.46 581.49 115.27 C 581.27 115.50 580.84 115.96 580.63 116.18 L 580.21 116.63 C 580.10 114.03 579.65 111.47 579.17 108.92 C 575.57 88.21 579.24 66.19 589.96 48.06 Z" />
<path fill="#fd6f44" stroke="#fd6f44" stroke-width="0.09375" opacity="1.00" d=" M 797.13 2.00 C 848.42 2.00 899.71 1.99 951.00 2.00 C 950.99 6.89 951.03 11.77 950.96 16.65 C 902.95 16.59 854.94 16.64 806.93 16.63 C 804.12 16.71 801.01 15.98 799.28 13.58 C 796.53 10.37 797.29 5.89 797.13 2.00 Z" />
<path fill="#7f233b" stroke="#7f233b" stroke-width="0.09375" opacity="1.00" d=" M 180.24 33.29 C 186.08 34.52 192.31 34.79 197.75 37.40 C 174.79 82.30 151.93 127.26 128.94 172.15 C 126.98 175.80 125.40 179.66 123.06 183.10 C 122.02 184.79 120.03 185.72 118.08 185.75 C 112.97 185.84 107.85 185.77 102.73 185.75 C 103.41 184.14 104.14 182.55 104.94 181.00 C 130.12 131.81 154.90 82.40 180.24 33.29 Z" />
<path fill="#fd6f44" stroke="#fd6f44" stroke-width="0.09375" opacity="1.00" d=" M 898.34 67.32 C 904.68 62.36 913.10 62.47 920.74 62.71 C 886.99 96.31 853.40 130.07 820.23 164.24 C 814.66 163.03 809.07 161.99 803.52 160.73 C 814.61 149.08 826.45 138.16 837.74 126.70 C 850.62 114.27 863.19 101.52 876.01 89.02 C 883.47 81.81 890.34 73.97 898.34 67.32 Z" />
<path fill="#7f233b" stroke="#7f233b" stroke-width="0.09375" opacity="1.00" d=" M 357.98 85.28 C 367.16 85.47 375.74 80.84 382.11 74.48 C 388.17 75.67 394.20 76.98 400.26 78.13 C 397.58 82.39 394.34 86.24 391.30 90.24 C 399.26 95.88 406.97 102.30 411.84 110.92 C 419.67 123.14 420.26 138.97 415.52 152.43 C 410.58 166.92 398.53 178.65 383.93 183.25 C 377.54 185.47 370.72 185.99 364.00 185.88 C 319.29 185.79 274.59 185.69 229.88 185.67 C 229.96 182.13 229.65 178.55 230.28 175.04 C 231.34 171.34 235.07 168.54 238.98 169.01 C 282.34 168.97 325.71 169.08 369.07 168.87 C 377.63 168.74 386.08 165.15 392.00 158.94 C 398.73 152.22 402.20 142.49 401.35 133.02 C 400.50 116.93 386.19 102.91 370.04 102.53 C 339.02 102.11 307.98 101.91 276.95 102.01 C 274.27 102.14 271.42 101.59 269.59 99.45 C 266.01 95.65 267.28 90.06 267.16 85.34 C 297.43 85.27 327.71 85.41 357.98 85.28 Z" />
<path fill="#fd6f44" stroke="#fd6f44" stroke-width="0.09375" opacity="1.00" d=" M 681.41 81.52 C 687.05 79.67 693.42 85.18 692.63 91.01 C 692.32 95.04 688.94 98.42 685.04 99.15 C 679.51 99.96 674.01 94.56 674.93 89.01 C 675.18 85.40 678.22 82.73 681.41 81.52 Z" />
<path fill="#7f233b" stroke="#7f233b" stroke-width="0.09375" opacity="1.00" d=" M 436.68 85.62 C 442.60 86.88 448.54 88.03 454.45 89.30 C 453.25 114.56 464.58 140.62 485.48 155.29 C 498.25 164.76 514.25 169.16 530.04 169.10 C 542.04 169.06 554.05 169.09 566.05 169.13 C 569.11 169.10 572.51 170.19 574.16 172.96 C 576.65 176.79 575.56 181.57 575.77 185.86 C 560.16 185.92 544.55 185.82 528.94 185.83 C 512.01 185.79 495.05 181.14 480.66 172.19 C 459.57 159.14 443.94 137.49 438.74 113.18 C 436.60 104.17 436.57 94.83 436.68 85.62 Z" />
<path fill="#7f233b" stroke="#7f233b" stroke-width="0.09375" opacity="1.00" d=" M 580.63 116.18 C 580.84 115.96 581.27 115.50 581.49 115.27 C 587.30 116.46 593.10 117.71 598.91 118.88 C 607.34 142.15 627.70 160.36 651.54 166.71 C 666.06 170.51 681.19 168.63 696.01 169.09 C 715.33 169.73 734.69 162.62 749.06 149.69 C 755.59 150.93 762.09 152.27 768.58 153.68 C 754.09 170.62 733.22 182.18 711.01 184.67 C 694.35 184.92 677.69 184.84 661.03 184.83 C 654.16 184.98 647.49 183.03 640.99 181.03 C 611.60 171.59 587.69 146.32 580.63 116.18 Z" />
<path fill="#7f233b" stroke="#7f233b" stroke-width="0.09375" opacity="1.00" d=" M 797.15 185.80 C 796.56 177.08 797.50 167.58 803.52 160.73 C 809.07 161.99 814.66 163.03 820.23 164.24 C 818.40 166.25 816.47 168.17 814.57 170.11 C 825.93 170.22 837.30 169.97 848.65 170.22 C 874.60 174.98 900.32 180.99 926.26 185.74 C 883.23 186.07 840.19 185.76 797.15 185.80 Z" />
<path fill="#fd6f44" stroke="#fd6f44" stroke-width="0.09375" opacity="1.00" d=" M 848.65 170.22 C 882.75 170.30 916.85 170.21 950.95 170.27 C 951.03 175.43 951.00 180.60 950.98 185.76 C 942.74 185.71 934.50 185.79 926.26 185.74 C 900.32 180.99 874.60 174.98 848.65 170.22 Z" />
</svg>
