<?xml version="1.0" encoding="UTF-8" ?>
<!DOCTYPE svg PUBLIC "-//W3C//DTD SVG 1.1//EN" "http://www.w3.org/Graphics/SVG/1.1/DTD/svg11.dtd">
<svg width="1905pt" height="377pt" viewBox="0 0 1905 377" version="1.1" xmlns="http://www.w3.org/2000/svg">
<path fill="#4d3efb" stroke="#4d3efb" stroke-width="0.09375" opacity="1.00" d=" M 0.01 4.76 C 10.62 5.16 21.76 2.97 31.89 7.12 C 38.67 9.85 43.63 15.71 46.93 22.06 C 78.43 83.86 109.98 145.64 141.59 207.38 C 144.40 212.70 145.49 218.96 144.38 224.89 C 143.79 228.90 141.84 232.51 140.09 236.10 C 136.46 243.46 132.58 250.68 128.88 258.00 C 85.76 173.67 42.90 89.21 0.01 4.76 Z" />
<path fill="#4d3efb" stroke="#4d3efb" stroke-width="0.09375" opacity="1.00" d=" M 377.27 14.28 C 381.93 8.79 388.92 5.62 396.02 4.90 C 403.74 4.13 411.49 4.94 419.23 4.74 C 359.19 124.16 297.80 242.89 237.18 362.02 C 235.08 366.02 232.07 370.61 227.08 370.91 C 216.32 371.32 205.55 370.99 194.79 371.07 C 252.71 257.48 309.89 143.52 368.14 30.10 C 370.89 24.67 373.30 18.96 377.27 14.28 Z" />
<path fill="#4d3efb" stroke="#4d3efb" stroke-width="0.09375" opacity="1.00" d=" M 447.89 4.71 C 532.90 4.71 617.92 4.69 702.93 4.77 C 739.12 4.53 774.08 26.37 790.76 58.31 C 807.46 89.16 805.83 129.07 786.16 158.20 C 780.93 166.02 774.81 173.17 769.25 180.74 C 777.12 186.84 785.39 192.47 792.60 199.38 C 805.02 211.50 814.84 226.50 819.86 243.18 C 829.37 275.53 820.96 312.34 798.61 337.55 C 780.20 358.41 752.74 370.95 724.93 371.30 C 632.67 370.96 540.41 370.87 448.16 370.85 C 448.27 362.51 446.36 353.37 450.86 345.81 C 453.79 340.39 460.14 337.96 466.03 337.86 C 553.03 337.80 640.03 337.78 727.03 337.79 C 756.19 337.33 782.88 314.41 788.54 285.93 C 792.21 269.02 789.22 250.68 779.99 236.00 C 768.41 216.84 746.27 204.73 723.93 204.92 C 664.62 203.85 605.30 204.51 545.98 204.22 C 541.68 204.07 537.15 204.86 533.09 203.05 C 528.12 201.12 523.86 196.80 522.86 191.45 C 521.72 184.78 522.30 178.01 522.30 171.28 C 579.86 171.27 637.42 171.43 694.99 171.25 C 701.67 171.20 708.44 171.50 715.01 170.08 C 733.60 166.37 750.09 154.13 759.71 137.89 C 765.47 128.30 768.47 117.17 768.76 106.02 C 768.95 86.99 760.75 68.09 746.82 55.14 C 735.85 44.75 721.01 38.71 705.96 37.93 C 701.99 37.61 698.00 37.60 694.03 37.68 C 617.69 37.80 541.34 37.65 464.99 37.76 C 458.50 37.58 451.93 33.82 449.31 27.75 C 446.69 20.35 448.05 12.38 447.89 4.71 Z" />
<path fill="#4d3efb" stroke="#4d3efb" stroke-width="0.09375" opacity="1.00" d=" M 859.91 4.79 C 866.97 4.78 874.10 4.08 881.12 5.23 C 888.97 6.59 895.04 14.12 895.20 21.99 C 895.10 76.68 895.22 131.36 895.13 186.04 C 894.48 222.77 907.75 259.50 931.53 287.48 C 958.71 319.84 1000.81 338.75 1043.01 338.15 C 1069.01 338.86 1095.04 337.78 1121.03 338.54 C 1127.22 338.74 1133.04 342.72 1135.33 348.50 C 1138.17 355.81 1136.33 363.74 1136.67 371.34 C 1105.78 371.25 1074.89 371.32 1044.01 371.13 C 1010.71 371.44 977.50 362.02 949.00 344.89 C 900.76 316.30 867.27 264.36 861.18 208.62 C 859.29 187.46 860.28 166.19 859.99 144.98 C 859.99 98.25 859.95 51.52 859.91 4.79 Z" />
<path fill="#4d3efb" stroke="#4d3efb" stroke-width="0.09375" opacity="1.00" d=" M 1302.15 5.14 C 1329.40 3.45 1356.70 4.64 1383.98 4.82 C 1392.28 4.97 1400.64 4.44 1408.89 5.71 C 1475.98 13.59 1535.99 63.28 1556.50 127.61 C 1570.83 170.91 1568.51 219.37 1550.21 261.14 C 1537.83 290.06 1517.52 315.36 1492.43 334.26 C 1468.19 352.60 1439.26 365.22 1408.92 368.45 C 1399.00 369.76 1388.99 369.01 1379.03 369.20 C 1352.32 369.33 1325.62 369.36 1298.92 368.97 C 1260.63 364.29 1224.48 345.99 1196.84 319.26 C 1171.85 295.40 1154.41 264.02 1146.37 230.48 C 1135.89 187.40 1141.44 140.51 1162.51 101.42 C 1179.20 69.98 1204.93 43.22 1236.23 26.15 C 1256.53 14.92 1278.98 7.28 1302.15 5.14 M 1307.56 37.74 C 1259.41 42.90 1215.15 73.50 1192.41 116.12 C 1172.14 153.02 1168.61 198.62 1183.18 238.13 C 1189.08 253.95 1197.51 268.85 1208.20 281.93 C 1230.48 309.26 1262.28 328.76 1296.90 335.66 C 1317.68 339.54 1338.92 338.04 1359.93 338.36 C 1377.24 338.43 1394.72 338.77 1411.79 335.42 C 1451.49 327.73 1486.97 302.63 1508.76 268.75 C 1531.01 234.78 1538.55 191.48 1528.54 152.08 C 1521.11 121.18 1502.59 93.56 1478.30 73.31 C 1450.10 49.95 1413.64 36.50 1376.96 36.81 C 1353.83 37.17 1330.63 35.73 1307.56 37.74 Z" />
<path fill="#4d3efb" stroke="#4d3efb" stroke-width="0.09375" opacity="1.00" d=" M 1578.13 4.88 C 1680.41 4.29 1782.69 4.91 1884.97 4.64 C 1891.12 4.82 1898.23 7.19 1900.86 13.27 C 1902.65 20.07 1901.81 27.19 1901.80 34.13 C 1800.20 34.16 1698.61 34.11 1597.01 34.17 C 1591.08 34.12 1584.60 31.94 1581.37 26.64 C 1577.22 20.18 1578.55 12.15 1578.13 4.88 Z" />
<path fill="#4d3efb" stroke="#4d3efb" stroke-width="0.09375" opacity="1.00" d=" M 1797.99 126.97 C 1806.77 125.11 1815.80 125.81 1824.71 125.79 C 1753.30 196.63 1682.53 268.11 1612.63 340.43 C 1698.11 340.60 1783.59 340.41 1869.07 340.45 C 1876.17 340.61 1883.44 339.56 1890.41 341.43 C 1894.62 342.58 1898.77 345.20 1900.51 349.36 C 1902.92 356.49 1901.79 364.09 1901.59 371.44 C 1793.83 371.08 1686.07 371.49 1578.31 371.12 C 1576.94 352.96 1580.07 332.84 1593.10 319.18 C 1646.60 265.01 1701.54 212.28 1755.22 158.29 C 1762.61 150.96 1769.73 143.33 1777.78 136.71 C 1783.60 131.90 1790.56 128.42 1797.99 126.97 Z" />
<path fill="#4d3efb" stroke="#4d3efb" stroke-width="0.09375" opacity="1.00" d=" M 1348.14 163.17 C 1358.60 160.33 1370.06 169.36 1370.24 180.08 C 1370.92 190.78 1359.89 201.12 1349.19 198.32 C 1341.01 196.41 1334.13 188.66 1334.45 180.06 C 1334.47 172.14 1340.77 165.33 1348.14 163.17 Z" />
</svg>
