<?xml version="1.0" encoding="UTF-8"?>
<svg id="Camada_2" data-name="Camada 2" xmlns="http://www.w3.org/2000/svg" viewBox="0 0 946.76 1009">
  <defs>
    <style>
      .cls-1 {
        fill: #9b1c36;
      }

      .cls-2 {
        fill: #ea5c26;
      }

      .cls-3 {
        fill: #c9d0cd;
      }

      .cls-4 {
        fill: #9f1437;
      }

      .cls-5 {
        fill: #b82347;
      }

      .cls-6 {
        fill: #fe7144;
      }

      .cls-7 {
        fill: #f4fafb;
      }

      .cls-8 {
        fill: #cf4166;
      }

      .cls-9 {
        fill: #fdfefe;
      }

      .cls-10 {
        fill: #d6dddd;
      }

      .cls-11 {
        fill: #ec6841;
      }

      .cls-12 {
        fill: #f1f7f7;
      }

      .cls-13 {
        fill: #bd4e47;
      }

      .cls-14 {
        fill: #fd7447;
      }

      .cls-15 {
        fill: #b6b9b8;
      }

      .cls-16 {
        fill: #f1f9f9;
      }

      .cls-17 {
        fill: #dd3c63;
      }

      .cls-18 {
        fill: #e2eceb;
      }

      .cls-19 {
        fill: #fd6f44;
      }

      .cls-20 {
        fill: #f6dcd3;
      }

      .cls-21 {
        fill: #edf5f5;
      }

      .cls-22 {
        fill: #f65b5e;
      }

      .cls-23 {
        fill: #af243d;
      }

      .cls-24 {
        fill: #fa6552;
      }

      .cls-25 {
        fill: #bd3e5e;
      }

      .cls-26 {
        fill: #c3c8ca;
      }

      .cls-27 {
        fill: #f25268;
      }

      .cls-28 {
        fill: #f25169;
      }

      .cls-29 {
        fill: #c4cac8;
      }

      .cls-30 {
        fill: #f96157;
      }

      .cls-31 {
        fill: #dce3e3;
      }

      .cls-32 {
        fill: #7f233b;
      }

      .cls-33 {
        fill: #6f091f;
      }

      .cls-34 {
        fill: #f14c6e;
      }

      .cls-35 {
        fill: #d1d8d7;
      }

      .cls-36 {
        fill: #ed6330;
      }

      .cls-37 {
        fill: #f094ad;
      }

      .cls-38 {
        fill: #c9523f;
      }

      .cls-39 {
        fill: #fcfefe;
      }

      .cls-40 {
        fill: #dedfde;
      }

      .cls-41 {
        fill: #a62d3c;
      }

      .cls-42 {
        fill: #d75f40;
      }

      .cls-43 {
        fill: #fd6e49;
      }

      .cls-44 {
        fill: #fe7046;
      }

      .cls-45 {
        fill: #f45565;
      }

      .cls-46 {
        fill: #e4426b;
      }

      .cls-47 {
        fill: #942641;
      }

      .cls-48 {
        fill: #f8deda;
      }

      .cls-49 {
        fill: #f7e6e0;
      }

      .cls-50 {
        fill: #ad3856;
      }

      .cls-51 {
        fill: #f2652f;
      }

      .cls-52 {
        fill: #f96058;
      }

      .cls-53 {
        fill: #b0a3a8;
      }

      .cls-54 {
        fill: #621d2f;
      }

      .cls-55 {
        fill: #fb684f;
      }

      .cls-56 {
        fill: #f8ebe6;
      }

      .cls-57 {
        fill: #efe1d6;
      }

      .cls-58 {
        fill: #aa333e;
      }

      .cls-59 {
        fill: #f14e6c;
      }

      .cls-60 {
        fill: #e2e8e6;
      }

      .cls-61 {
        fill: #e7eceb;
      }

      .cls-62 {
        fill: #a3283a;
      }

      .cls-63 {
        fill: #af3b40;
      }

      .cls-64 {
        fill: #fa6453;
      }

      .cls-65 {
        fill: #ac363f;
      }

      .cls-66 {
        fill: #a8303d;
      }

      .cls-67 {
        fill: #df4770;
      }

      .cls-68 {
        fill: none;
      }

      .cls-69 {
        fill: #eaf3f3;
      }

      .cls-70 {
        fill: #faa181;
      }

      .cls-71 {
        fill: #79213c;
      }

      .cls-72 {
        fill: #f0e2d7;
      }

      .cls-73 {
        fill: #971332;
      }

      .cls-74 {
        fill: #f04972;
      }

      .cls-75 {
        fill: #f3d8cd;
      }

      .cls-76 {
        fill: #b34042;
      }

      .cls-77 {
        fill: #a4293b;
      }

      .cls-78 {
        fill: #f5a287;
      }

      .cls-79 {
        fill: #f74d7a;
      }

      .cls-80 {
        fill: #f0642f;
      }

      .cls-81 {
        fill: #f55861;
      }

      .cls-82 {
        fill: #fbe5d6;
      }

      .cls-83 {
        fill: #ef4873;
      }

      .cls-84 {
        fill: #fc6b4c;
      }

      .cls-85 {
        fill: #c4574a;
      }

      .cls-86 {
        fill: #b74845;
      }

      .cls-87 {
        fill: #fb702a;
      }

      .cls-88 {
        fill: #ec6840;
      }

      .cls-89 {
        fill: #fef6f1;
      }

      .cls-90 {
        fill: #cbd0d0;
      }

      .cls-91 {
        fill: #fa517f;
      }

      .cls-92 {
        fill: #e0e7e7;
      }

      .cls-93 {
        fill: #f65d5c;
      }

      .cls-94 {
        fill: #a34054;
      }
    </style>
  </defs>
  <g id="Camada_1-2" data-name="Camada 1">
    <g>
      <g>
        <path class="cls-89" d="M945.87,986.57c.3,0,.59-.01,.89-.02v15.54h-.86c-2.38-4.59-1.2-9.4-.88-14.16,.22-.5,.51-.95,.86-1.37h-.01Z"/>
        <path class="cls-89" d="M946.75,832.88c-.29,0-.59,0-.88-.01-2.09-4.89-2.09-9.78,.01-14.66h.87v14.67Z"/>
        <path class="cls-19" d="M131.72,469.5c-9.97,2.56-19.95,5.12-29.92,7.68-.15-.19-.31-.37-.46-.56,1.85-2.25,3.65-4.53,5.55-6.73,5.93-6.84,11.15-14.25,17.26-20.94,.76-.83,1.26-1.91,1.87-2.87,1.88-4.15,4.63-7.65,8.02-10.67,1.28-.79,2.5-1.66,3.16-3.09,1.73-3.23,4.27-5.89,6.24-8.95,8.73-10.86,17.89-21.35,26.61-32.2,10.53-13.09,21.74-25.61,32.3-38.67,3.25-4.02,7.05-7.55,10.31-11.58,1.76-2.18,4.2-3.31,6.98-3.96,46.6-10.81,93.36-20.89,140.05-31.3,13.04-2.91,26.07-5.86,39.09-8.83,1.53-.35,3.03-.97,4.65-.51,2.2,3.5-.8,4.89-2.84,6.35-8.17,5.87-16.51,11.53-24.25,17.97-9.71,8.09-19.05,16.61-28.37,25.16-17.67,16.21-34.06,33.8-53.17,48.47-7.26,5.57-13.94,11.97-20.57,18.36-6.61,6.38-14,11.91-20.48,18.44-1.22,1.23-2.63,2.28-3.31,3.9-1.43,3.38-4.15,4.93-7.52,5.83-7.77,2.1-15.49,4.37-23.32,6.25-3.21,.77-6.45,1.55-9.12,3.7-11.02,3.22-22.24,5.68-33.35,8.55-8.06,2.08-16.14,4.09-24.23,6.06-5.4,1.37-10.81,2.71-16.22,4.03-1.63,.4-3.29,1.16-4.96,.07v.04Z"/>
        <path class="cls-74" d="M232.07,103.52c7.23-7.44,15.25-13.98,23.4-20.35,40.33-31.5,85.38-53.38,135.03-65.71,18.85-4.68,37.97-7.67,57.35-9.23,17.53-1.42,35.06-1.68,52.57-.47,62,4.31,119.3,22.99,171.56,56.81,4.57,2.96,9.23,5.82,13.37,9.41-.56,.73-1.37,1.13-2.22,1.12-7.54-.1-15.02,2.01-22.58,.6-3.47-.65-6.81,.06-10.18,.59-2.14,.16-3.87-.92-5.61-1.93-38.86-22.48-80.66-36.3-125.11-42.05-17.1-2.21-34.34-3.48-51.59-2.8-46.19,1.83-90.53,11.54-132.62,31.14-24.78,11.54-47.83,25.72-69.19,42.73-1.69,1.35-3.35,2.76-5.67,2.87-7.87,.39-15.74,.21-23.61,.11-2.02-.03-4.51,.21-4.9-2.86v.02Z"/>
        <path class="cls-91" d="M239.56,637.17c-6.97,3.42-13.31,7.91-19.99,11.83-8.54,5.01-17.07,10.05-25.82,14.7-1.62,.86-3.59,2.56-5.11,1.39-1.75-1.34,.02-3.43,.61-5.07,5.1-14.22,12.04-27.61,18.63-41.16,1.38-2.84,2.76-5.68,4.15-8.52,.22-5.36,4-9.32,5.56-14.17,.78-2.42,2.22-4.64,3.33-6.96,11.81-24.16,23.7-48.28,35.46-72.47,.92-1.9,1.5-4.1,3.57-5.25,2-.08,2.53-1.75,3.15-3.14,3.42-7.67,8.5-14.33,12.97-21.36,1.87-2.93,4.08-3.72,7.65-2.87,6.87,1.63,11.89,5.3,15.6,11.24,1.82,2.91,4.08,5.57,6.54,8.01,1.91,1.9,2.8,4.15,1.82,6.66-1.24,3.16-.91,6.15,.15,9.21-.18,2.02-1.41,3.5-2.56,5.02-7.21,8.22-13.7,17-20.05,25.89-12.26,15.04-23.45,30.88-34.35,46.98,14.35-10.1,28.25-20.73,40.4-33.48,.27-.3,.55-.58,.85-.86,.28-.3,.57-.57,.87-.84,2.56-1.9,4-5.26,7.57-5.86,2.81,.61,4.58,2.2,4.86,5.19,.08,.85-.04,1.97,.89,2.26,4.78,1.5,5.56,6.22,7.92,9.65,1.19,1.74,2.13,3.45,4.2,4.63,3.04,1.73,1.74,4.57,.25,6.69-2.39,3.4-5.46,6.21-8.96,8.51-2.5,1.64-5.17,3.08-6.97,5.6-9,6.81-18.75,12.46-28.4,18.26-5.13,3.09-10.37,6-15.32,9.39-4.87,2.76-9.71,5.58-14.39,8.66-1.56,1.03-3.13,2.05-5.06,2.25h-.02Z"/>
        <path class="cls-82" d="M575.72,931.53c-1.16-1.63-.83-3.59-1.19-5.4-1.82-9.06-1.89-18.1-.86-27.31,1.32-11.74,4.88-22.64,10.46-32.94,5.36-9.9,12.19-18.56,20.81-25.98,7.17-6.16,14.98-11.08,23.53-14.88,9.22-4.09,18.83-6.79,29.04-6.86,2.28-.02,4.59,.28,6.82-.62,.8-.33,1.68-.11,2.54,.11,.96,.25,1.98,.55,2.94,.47,11.82-1.01,23.63,.17,35.44,.24,8.13,.05,15.98,2.68,23.64,5.66,14.41,5.6,26.19,14.8,36.21,26.28,10.19,11.68,16.31,25.42,19.47,40.6,1.77,8.53,2.14,17.12,1.46,25.66-.83,10.42-3.26,20.58-7.56,30.25-3.81,8.56-8.46,16.53-14.93,23.36-6.47,.35-12.59-.86-18.28-4.03-.25-2,1.2-3.14,2.3-4.42,6.73-7.77,12.67-16.06,16.03-25.88,9.74-28.51,4.93-54.21-15.86-76.23-15.39-16.3-34.67-24.1-57.15-23.89-9.2,.09-18.42-.31-27.6,.07-27.97,1.17-48.79,14.23-62.78,38.4-6.36,10.99-9.03,23.01-9.26,35.5-.13,6.7,.65,13.49,2.74,20,.56,1.73,1.43,3.55,.06,5.34-6.42,.95-12.32-.76-18.01-3.53v.03Z"/>
        <path class="cls-19" d="M394.48,895.92c-1.83,2.41-3.65,4.81-5.48,7.21-1.7,2.22-1.48,4.14,.67,5.75,4.5,3.37,8.72,7.02,12.44,11.28,22.74,26.08,11.29,72.06-28.26,81.05-3.68,.84-7.4,1-11.14,1-44.6-.05-89.19-.12-133.79-.18-3.81,0-3.85-.03-3.92-3.67-.04-1.87-.1-3.76,.15-5.6,.59-4.25,3.55-6.9,7.85-7.2,1.43-.1,2.88-.05,4.31-.05,41.57-.04,83.15-.13,124.72-.1,11.92,0,21.71-4.33,28.54-14.11,14.7-21.05,1.49-49.88-23.73-52.33-4.45-.43-8.91-.44-13.36-.46-26.47-.08-52.94-.1-79.41-.15-1.29,0-2.6,.06-3.88-.05-4.16-.34-7.36-3.2-7.85-7.31-.29-2.41-.1-4.88-.14-7.33-.02-1.5,.83-1.99,2.19-1.97,1.01,.02,2.01,0,3.02,0,27.19,.01,54.38-.1,81.57,.1,10.59,.08,19.82-2.77,27.45-10.28,.4-.39,.96-.61,1.44-.91,5.86-.85,11.19,1.21,16.58,2.98,.58,.19,.79,.76,.58,1.39l.04-.05c-.23,.3-.43,.63-.6,.97v.02Z"/>
        <path class="cls-44" d="M682.57,661.84c-9.03,6.91-18.75,12.75-28.61,18.36-35.66,20.26-73.74,33.86-114.08,41.07-13.57,2.42-27.26,3.94-41.04,4.8-11.07,.69-22.12,.84-33.18,.53-21.86-.62-43.5-3.32-64.89-7.88-.41-.09-.79-.33-1.18-.51-.67-.9-.2-1.76,.44-2.21,4.21-2.97,6.71-7.57,10.51-10.91,.61-.27,1.32-.37,1.73-1,.09-.14,.19-.27,.28-.41,.09-.14,.19-.27,.28-.4,.19-.27,.4-.52,.63-.76,.11-.12,.23-.24,.34-.36,.23-.25,.47-.48,.71-.71,.12-.12,.25-.24,.37-.36,.26-.26,.54-.48,.83-.7,.32-.23,.66-.41,1.01-.59,.79-.37,1.61-.56,2.48-.54,22.18,3.76,44.51,5.16,67,4.66,28.77-.64,56.94-5.12,84.56-13.07,24.27-6.98,47.5-16.55,69.55-28.92,2.12-1.19,4.27-2.4,6.75-2.8,10.26-.57,20.52-.29,30.78-.17,1.79,.02,5.02-1.1,4.72,2.88h0Z"/>
        <path class="cls-82" d="M395.04,895c-4.08-2.14-8.71-2.18-13.04-3.35-1.37-.37-2.75-.68-4.12-1.02,1.89-3.69,4.63-6.85,6.02-10.89,3.11-9.05,2.38-17.82-1.58-26.32-3.47-7.44-9.17-12.66-16.75-15.99-4.46-1.96-9.14-2.7-13.8-2.72-36.82-.15-73.65-.08-110.48-.08-2.85,0-5.71,.09-8.56-.03-3.51-.15-6.97-2.81-7.43-6.1-.4-2.82-.16-5.74-.14-8.61,0-1,.67-1.56,1.66-1.62,1-.06,2.01-.06,3.02-.06,41.86,0,83.72-.12,125.58,.08,11.61,.06,21.74,4.63,30.31,12.51,5.11,4.7,9.76,9.79,12.58,16.23,5.7,13.06,6.46,26.31,1.02,39.67-1.18,2.89-1.89,6.04-4.29,8.31h0Z"/>
        <path class="cls-43" d="M239.56,637.17c6.06-4.29,12.26-8.35,19-11.52,1.75-.09,2.93,.97,4.16,1.98,18.83,15.45,39.04,28.87,60.74,39.87,21.16,10.73,43.05,19.74,66.29,25.06,.73,.17,1.38,.36,1.63,1.17,0,6.15-1.58,12.12-2.19,18.2-.14,1.41-.57,2.81-1.88,3.7-12.84-3.63-25.63-7.41-38.12-12.16-38.91-14.82-74.16-35.79-105.87-62.75-1.31-1.11-2.5-2.36-3.75-3.54h0Z"/>
        <path class="cls-19" d="M575.72,931.53c6.04,.76,11.85,2.84,17.95,3.27,2.22,.76,2.62,2.88,3.49,4.65,12.43,25.25,31.91,41.31,60.37,44.17,18.1,1.82,36.43,2.61,54.43-1.58,10.47-2.44,19.98-7.15,28.4-13.95,1.5-1.21,2.85-3.02,5.24-2.17,4.46,1.77,9.29,1.99,13.86,3.29,1.35,.38,2.73,.66,4.09,.99-10.33,12.72-23.56,21.24-38.86,26.73-8.17,2.93-16.55,4.49-25.3,4.36-12.64-.19-25.29-.29-37.93,.03-15.59,.39-29.8-3.96-42.96-11.86-21.66-13.01-36.03-31.68-42.52-56.23-.15-.55-.17-1.13-.25-1.7h-.01Z"/>
        <path class="cls-19" d="M449.47,905.54c-.35,12.39,1.51,24.39,6.7,35.7,11.65,25.41,31.31,40.09,59.11,43.78,6.6,.88,13.21,.5,19.81,.57,8.48,.09,16.98,.21,25.45-.03,6.2-.18,10.61,2.99,10.53,10.65-.08,7.07,.72,5.93-5.95,5.97-14.24,.08-28.48,.14-42.71,.01-44.01-.4-82.4-33.53-89.35-77-.27-1.7-.58-3.4-.87-5.1-.75-5.4-.12-10.82-.33-16.23-.06-1.54,.56-2.71,2.16-2.44,5.27,.89,10.89,.57,15.45,4.13h0Z"/>
        <path class="cls-19" d="M192.38,854.47c-10.06,19.71-20.12,39.42-30.19,59.13l-41.58,81.39c-.59,1.15-1.2,2.29-1.81,3.43-1.34,2.49-3.33,3.8-6.27,3.74-4.59-.09-9.19-.02-13.77-.02-.74-1.6,.36-2.59,.89-3.64,14.72-29.11,29.47-58.21,44.23-87.3,9.88-19.48,19.77-38.96,29.69-58.42,.64-1.25,1.03-2.71,2.32-3.56,5.41-1.03,10.32,1.03,15.3,2.57,1.14,.35,1.9,1.29,1.19,2.68h0Z"/>
        <path class="cls-28" d="M814.43,242.33c.07,.31,.14,.61,.21,.92-.93,1.08-2.24,1.24-3.52,1.25-5.84,.04-11.69,.39-17.52-.21-2.43-.56-3.29-2.56-4.11-4.58-7.27-17.87-16.07-34.95-26.31-51.29-9.7-15.47-20.41-30.21-32.64-43.81-2.21-2.45-4.26-5.04-6.47-7.5-1.11-1.23-1.99-2.74,.53-3.6,7.64-.8,15.3-.29,22.94-.31,1.32,0,2.48,.53,3.6,1.17,6.66,6.96,12.32,14.73,17.94,22.51,18.22,25.25,32.87,52.46,44.02,81.54,.36,.94,.85,1.83,.79,2.88,.17,.36,.35,.71,.54,1.05v-.02Z"/>
        <path class="cls-93" d="M836.33,375.33c.42,8.35-.34,16.67-1.12,24.95-1.62,17.17-4.33,34.17-8.41,50.94-2.58,10.61-5.58,21.09-9.17,31.4-.52,1.49-.95,3.02-1.93,4.3-7.14,.16-14.29,.97-21.38-.56-1.69-1.54-.67-3.21-.12-4.76,8.17-22.99,13.94-46.55,17-70.76,1.11-8.83,2.37-17.66,2.29-26.61-.03-3.02,.17-6.06,1.99-8.69,1.48-1.42,3.38-1.64,5.23-1.51,5.21,.38,10.6-1.31,15.63,1.29h-.01Z"/>
        <path class="cls-19" d="M64.75,945.55c-21.75-42.77-43.13-84.82-64.75-127.35,4.53,0,8.39-.21,12.22,.06,4.24,.3,7.63,2.46,9.97,6.03,1.26,1.92,2.32,3.97,3.36,6.01,14.9,29.17,29.71,58.39,44.74,87.5,2.97,5.76,3.37,11.09,.16,16.74-1.89,3.33-3.54,6.81-5.7,11.01h0Z"/>
        <path class="cls-82" d="M945.88,818.21c0,4.89,0,9.77-.01,14.66-47.76,0-95.52,.01-143.28,0-7.35,0-11.94-5.84-10.3-13.01,.22-.97,.68-1.57,1.68-1.62,1-.06,2.01-.06,3.02-.06,49.63,0,99.26,0,148.89,.01v.02Z"/>
        <path class="cls-24" d="M221.71,589.35c-2.85,7.17-6.17,14.12-9.67,20.99-11.39-11.8-21.42-24.69-30.79-38.11-10.28-14.72-19.39-30.16-27.3-46.29-.56-1.15-1.36-2.21-1.44-3.56-.05-.43-.38-.73-.53-1.11-.06-.3-.11-.61-.17-.91,2.04-1.88,4.66-1.94,7.16-2.05,4.65-.2,9.32-.29,13.96,.08,2.3,.31,3.28,2.06,4.24,3.87,12.01,22.8,26.4,44,42.98,63.72,.82,.98,1.84,1.87,1.57,3.36h-.01Z"/>
        <path class="cls-34" d="M751.14,134.35c-9.31,.04-18.63,.07-27.94,.11-2.62,.47-3.51-1.88-5-3.17-1.8-1.55-3.39-3.34-5.1-4.99-12.04-12.58-25.57-23.4-39.63-33.6-6.13-4.4-12.42-8.57-18.81-12.59-1.87-1.17-4.23-1.9-4.85-4.47,3.75-1.74,7.59-2.11,11.62-1.06,2.8,.73,5.81,.72,8.54,.19,5.13-.99,10.26-.52,15.38-.8,3.22,1.29,5.52,3.91,8.37,5.73,1.19,.76,2.12,1.91,3.56,2.26,6.17,2.86,10.77,7.82,15.76,12.18,2.61,2.28,6.08,3.87,7.41,7.47,2.3,2.33,4.58,4.68,6.91,6.98,7.32,7.21,14.53,14.53,21.2,22.36,.92,1.08,2.03,2.02,2.57,3.39h.01Z"/>
        <path class="cls-82" d="M799.21,977.14c.57-1.57,1.93-2.48,3.03-3.59,12.8-12.83,25.33-25.95,38.52-38.37,16.96-15.97,33.11-32.75,49.72-49.06,4.87-4.78,10.85-6.81,17.42-7.43,2.27-.22,4.58-.03,7.1-.03,.05,2.73-1.87,4.06-3.47,5.21-2.47,1.79-4.55,3.95-6.68,6.07-8.87,8.83-17.96,17.45-26.5,26.59-16.07,17.22-33.11,33.47-49.53,50.34-3.5,3.59-6.58,7.6-10.26,11.02-1.04,.97-1.86,2.22-3.31,2.69-5.73,.62-11.16-.12-16.04-3.45h0Z"/>
        <path class="cls-27" d="M139.52,242.15c1.69-6.41,4.48-12.4,7.08-18.45,8.58-19.98,19.08-38.93,31.16-57,.47-.7,1.07-1.32,1.62-1.98,7.96-.81,15.92-.72,23.87-.06,3.16,1.98,.62,3.76-.42,5.26-5.37,7.82-10.7,15.65-15.54,23.81-8.74,14.72-16.43,29.96-22.91,45.82-.86,2.1-1.4,4.46-3.91,5.38-5.92-.09-11.83-.56-17.76-.42-1.29,.03-3.34,.05-3.18-2.36h-.01Z"/>
        <path class="cls-59" d="M204.42,165.56c-7,0-14.01,.02-21.01-.03-1.37,0-2.9,.47-4.03-.81,4.87-8.17,10.82-15.55,16.71-22.97,10.04-12.62,21-24.4,32.63-35.57,1.03-.99,2.01-2.06,3.35-2.66,.98,1.97,2.82,1.58,4.48,1.59,8.38,.06,16.76,.11,25.13,.16-.24,2.43-2.19,3.63-3.79,4.98-18.13,15.18-34.11,32.39-48.62,51.01-1.31,1.68-2,4.28-4.85,4.29h0Z"/>
        <path class="cls-81" d="M117.28,376.18c-.59-9.88-.32-19.76,.21-29.61,.57-10.57,1.54-21.12,3.18-31.59,.77-4.94,1.22-9.94,2.69-14.75,1.89-1.73,4.25-1.32,6.48-1.35,3.54-.05,7.09-.12,10.63,.07,2.28,.12,4.23,.75,4.61,3.45,.45,6.41-1.57,12.51-2.35,18.78-1.82,14.71-3.11,29.45-2.64,44.29,.06,1.72,0,3.45-.33,5.16-1.63,5.89-1.66,5.95-7.93,5.96-4.85,.01-9.7,.03-14.54-.4h-.01Z"/>
        <path class="cls-81" d="M836.33,375.33c-5.42,0-10.84,.02-16.26-.01-1.59,0-3.14,.05-4.55,.88-1.26-1.23-1.25-2.85-1.26-4.41-.2-21.94-1.79-43.77-5.63-65.4-.28-1.56-.41-3.13,.22-4.66,.46-.95,1.23-1.7,2.2-1.89,6.42-1.2,12.85-2.06,19.2,.39,1.89,6.19,2.42,12.63,3.34,18.98,2.15,14.91,2.76,29.94,3.2,44.98,.11,3.72,.12,7.45-.47,11.15h0Z"/>
        <path class="cls-82" d="M449.47,905.54c-5.56-1.14-11.12-2.27-17.04-3.48-.79,6.17,0,12.11-.24,18.02-1.18-1.18-.78-2.7-.78-4.09-.01-31.31,0-62.62,.03-93.93,0-3.79,.06-3.8,3.85-3.86,1.58-.03,3.16-.03,4.74,0,5.84,.12,9.51,3.61,9.51,9.35,.02,25.99-.04,51.99-.06,77.98h-.01Z"/>
        <path class="cls-84" d="M682.57,661.84c-.36-2.13-2.05-1.59-3.37-1.6-5.69-.04-11.38-.02-17.07-.02h-15.79c-.15-2.12,1.75-2.46,2.97-3.19,17.66-10.52,34.05-22.79,49.71-36.08,2.88-2.45,4.91-6.16,9.2-6.74,7.77-.45,15.53-.21,23.29-.15,1.69,.01,3.9-.48,4.56,2.08l-.03,.04c-.23,.31-.5,.59-.8,.84-5.88,6.92-12.69,12.88-19.41,18.92-9.41,8.46-19.32,16.32-29.62,23.66-1.16,.83-2.43,1.5-3.64,2.25h0Z"/>
        <path class="cls-19" d="M799.21,977.14c5.35,1.15,10.7,2.3,16.05,3.45-.94,2.16-3.14,3.28-4.35,5.22,.55,.21-.15-.11,.13,.39,.06,.11,.17,.26,.26,.27,1.14,.06,2.28,.12,3.42,.13,10.86,.03,21.72,.05,32.58,.07,1.76,.51,3.61,.37,5.39,.75,19.62,3.22,38.97,7.82,58.47,11.67,1.76,.35,3.74,.58,4.76,2.49-.11,.6-.46,.91-1.08,.92-39.48,.01-78.96,0-118.43-.02-1.36,0-2.88,.6-4.07-.63-.11-4,.02-7.98,.72-11.95,.79-4.46,2.62-8.42,5.2-12.08,.33-.22,.66-.46,.97-.71v.02h-.02Z"/>
        <path class="cls-55" d="M736.08,616.14c-.99-1.16-2.35-.79-3.58-.79-8.51-.01-17.01,.01-25.52,.03-.8-1.73,.87-2.19,1.66-2.95,14.39-13.93,27.52-28.96,39.62-44.91,1.29-1.7,2.39-3.66,4.81-4.07,6.44,.56,12.89,.51,19.34,.55,1.56,0,3.19-.02,4.39,1.3-3.47,6.29-7.9,11.92-12.15,17.67-7.93,10.74-16.64,20.83-25.72,30.6-.87,.93-1.61,2.03-2.83,2.58h-.02Z"/>
        <path class="cls-22" d="M117.28,376.18c2.09-.99,4.11-1.38,6.57-1.02,3.52,.51,7.18,.06,10.77,.21,2.34,.1,3.56-.63,3.35-3.12-.03-.4,.24-.82,.36-1.23,2,.94,1.72,2.85,1.7,4.47-.18,14.77,1.62,29.37,3.73,43.95,.25,1.72,.05,3.41,.18,5.11-1.91,2.93-4.52,5.38-6.02,8.59-1.26,.8-2.6,1.49-3.49,2.76-3.11,3.15-5.03,7.27-8.41,10.2-2.39-8.29-3.83-16.79-5.11-25.3-2.08-13.78-3.3-27.66-3.7-41.6-.03-1,.04-2.01,.07-3.01h0Z"/>
        <path class="cls-45" d="M830.25,300.22h-14.52c-2.29,0-4.54,.14-6.31,1.89-2.08-.44-1.93-2.31-2.23-3.73-3.65-17.27-8.58-34.15-14.76-50.68-.53-1.43-1.35-2.93-.15-4.46h22.35c3.43,7.59,5.54,15.62,7.95,23.56,2.99,9.87,5.23,19.93,7.36,30.01,.23,1.11,.21,2.27,.31,3.41h0Z"/>
        <path class="cls-45" d="M144.06,303.03c.09-2.25-1.11-2.87-3.2-2.84-5.83,.09-11.67,.03-17.5,.03,.92-7.68,2.9-15.14,4.78-22.62,2.69-10.69,5.91-21.21,9.61-31.59,.48-1.34,.79-2.75,1.77-3.86,.88,1.53,2.62,1.5,3.8,1.35,5.98-.72,11.86-.04,17.77,.6,1.35,1.53,.32,3.02-.21,4.4-6.4,16.47-10.81,33.51-14.6,50.74-.32,1.44-.2,3.28-2.21,3.79h0Z"/>
        <path class="cls-52" d="M174.3,519.47c-7.5,.17-15.03-.37-22.49,.9-3.09-4.35-4.8-9.39-6.91-14.21-5.22-11.92-9.22-24.28-13.18-36.65,7-1.73,14-3.46,21-5.2,1.39,1.17,1.89,2.83,2.41,4.47,5.08,15.85,11.23,31.28,18.47,46.27,.66,1.37,1.71,2.75,.7,4.42h0Z"/>
        <path class="cls-82" d="M915.61,1001.34c-19.56-4.05-39.12-8.1-58.68-12.17-1.68-.35-3.33-.79-4.99-1.2,.81-1.9,2.47-.92,3.69-.93,10.27-.09,20.53-.03,30.8-.07,1.4,0,2.86,.35,4.2-.39h24.22c8.51,.93,17.05,.13,25.57,.43,1.82,.06,3.7-.44,5.47,.4,0,4.89,.01,9.78,.02,14.68-16.91-.58-33.78,1.02-50.7,.92-32.72-.19-65.44-.05-98.15-.1-1.58,0-3.5,.84-4.71-1.06,1.14,.08,2.29,.23,3.43,.23,39.23,0,78.46,0,117.68-.01,.72,0,1.43-.07,2.15-.11,.47-.33,1-.28,1.53-.29-.52-.03-1.07,.02-1.52-.33h0Z"/>
        <path class="cls-64" d="M776.79,565.29c-8.28-.17-16.58,.45-24.82-.88-1.09-1.47,.24-2.38,.88-3.32,7.4-10.74,14.36-21.75,20.64-33.19,.84-1.54,1.8-2.95,3.68-3.37,6.02-.65,12.05-.32,18.07-.22,1.54,.02,3.62-.28,3.95,2.19-3.58,8.58-8.38,16.51-13.09,24.48-2.89,4.9-5.69,9.88-9.32,14.3h.01Z"/>
        <path class="cls-30" d="M799.2,526.5c-1.06-1.39-2.58-.93-3.94-.94-6.39-.04-12.78-.01-19.16-.01-1.13-1.5-.06-2.77,.55-3.96,5.52-10.75,10.53-21.73,15.05-32.93,.48-1.18,.88-2.48,2.39-2.83,5.89,0,11.78-.02,17.68,.01,1.39,0,2.93-.4,3.94,1.07-.92,4.97-2.95,9.58-4.85,14.21-3.53,8.61-7.05,17.24-11.65,25.37h-.01Z"/>
        <path class="cls-82" d="M192.38,854.47c.08-1.29-.71-1.69-1.81-1.93-3.51-.75-7-1.55-10.5-2.34-1.4-.32-2.79-.65-4.19-.98,2.53-6.58,5.99-12.71,9.23-18.94,1.44-2.77,2.77-5.59,5.05-7.9,2.02-2.05,4.33-3.44,7.04-3.88,4.22-.69,8.48-.28,13.6-.19-6.69,12.38-12.6,24.24-18.43,36.16h0Z"/>
        <path class="cls-87" d="M720.46,101.62c-7.56-6.09-14.6-12.82-22.38-18.64-.33-.25-.53-.67-.79-1.01,10.35-4.34,20.7-8.68,31.71-13.3-2.5,11.61-5.28,22.34-8.54,32.95h0Z"/>
        <path class="cls-51" d="M387.31,715.63c1.14-7.59,2.29-15.17,3.43-22.76-1.79-2.48-.85-4.97-.03-7.45,.22-.53-.16,.07,.16-.39,.76-1.08,.54-3.46,2.37-3.04,1.94,.45,2.04,2.59,1.8,4.36-.91,6.69-2,13.37-2.68,20.08-.42,4.21-1.65,8.38-1.12,12.98,2.45-.76,3.8-2.48,5.33-3.91,7.78-7.24,14.29-15.75,22.52-22.56,1.77-1.46,3.37-3.13,5.31-4.39,1.16-.76,2.34-1.92,3.79-.45-1.28,5.51-5.85,8.08-9.93,11.08-.91,.39-1.62,1.09-2.43,1.63l.06-.05c-.31,.31-.61,.62-.93,.92l.07-.06c-.31,.31-.61,.62-.93,.93l.07-.07c-.3,.31-.61,.62-.93,.93l.05-.06c-.28,.35-.43,.78-.72,1.12-.31,.33-.65,.62-1.14,.63-3.58,3.77-6.02,8.62-10.7,11.38-.53,.32-.77,1.14-1.14,1.73v-.04c-.44,.07-.64,.49-1.01,.66-4.27,4.1-8.32,8.41-12.72,13.35-.99-6.15,.96-11.29,1.43-16.54h.02Z"/>
        <path class="cls-72" d="M890.62,986.59c-1.29,1.37-2.96,.79-4.47,.8-10.02,.05-20.04,0-30.06,.05-1.39,0-2.88-.41-4.16,.54-1.54-.46-3.25-.31-4.64-1.3,14.44-.03,28.88-.05,43.32-.08h0Z"/>
        <path class="cls-57" d="M945.87,987.42c-9,0-18,.02-27.01-.02-1.37,0-2.89,.48-4.03-.81,10.34,0,20.69-.01,31.03-.02,.02,.28,.02,.56,0,.85h.01Z"/>
        <path class="cls-45" d="M814.43,242.33c-.18-.35-.36-.7-.54-1.05,.4,.24,.61,.57,.54,1.05Z"/>
        <path class="cls-44" d="M398.59,718.82c.2-.42,.53-.65,1.01-.66-.34,.22-.67,.44-1.01,.66Z"/>
        <path class="cls-82" d="M394.48,895.92c-.01-.45,.18-.78,.6-.97,.02,.46-.19,.78-.6,.97Z"/>
        <path class="cls-52" d="M151.97,521.28c.18,.37,.35,.74,.53,1.1-.4-.26-.6-.62-.53-1.1Z"/>
        <path class="cls-82" d="M799.22,977.12c-.32,.24-.65,.47-.97,.71,.17-.44,.49-.69,.97-.71Z"/>
        <path class="cls-55" d="M735.25,617.01c.27-.28,.53-.56,.8-.84-.06,.47-.33,.74-.8,.84Z"/>
        <path class="cls-88" d="M265.67,436.49c-8.01,2.27-16.24,3.55-24.27,5.8-9.11,2.56-18.36,4.65-27.55,6.91-1.11,.27-2.27,.32-3.4,.47,2.34-2.44,5.62-2.68,8.59-3.52,7.98-2.25,16.01-4.35,24.04-6.44,3.09-.81,5.58-2.18,6.57-5.51,.32-1.08,1.02-2.03,1.89-2.84,8.82-8.18,18.03-15.93,26.87-24.09,6.71-6.19,13.53-12.31,20.81-17.91,5.53-4.26,10.8-8.94,15.95-13.73,8.31-7.73,16.16-15.93,24.47-23.64,6.93-6.43,13.84-12.9,20.88-19.21,12.37-11.09,25.34-21.43,39.18-30.65,1.94-1.3,3.84-2.56,4.1-5.17,2.24-.61,4.48-1.21,6.71-1.82,1.77,1.78,.21,3.06-.66,4.45-.92,1.12-1.66,2.43-3.21,2.84-6.13,2.5-10.5,7.4-15.4,11.51-28.91,24.3-56.58,49.97-82.52,77.41-13.89,14.69-28.96,28.28-41.74,44.02-.36,.44-.88,.73-1.3,1.12h-.01Z"/>
        <path class="cls-48" d="M134.43,435.89c.15-2.2,1.29-3.14,3.49-2.76-.69,1.51-1.78,2.52-3.49,2.76Z"/>
        <path class="cls-79" d="M260.45,511.62c4.51-9.6,8.94-19.24,13.55-28.79,4.25-8.78,8.7-17.46,13.06-26.18-.22-.4-.19-.78,.09-1.14,3.69-.36,5.89,2.72,8.94,3.86,6.11,4.31,12.73,7.89,18.54,12.66,5.87,4.02,11.73,8.06,17.46,12.28,1.12,.82,2.53,1.4,2.87,2.99-2.1,2.86-5.13,4.83-7.31,7.62-1.17,1.58-2.37,3.13-3.72,4.56-4.07,5.18-7.86,10.57-11.94,15.73-1.34,1.69-2.25,4.02-4.89,4.3-1.97-3.15-2.01-6.32-.4-9.68,.95-2,.4-3.82-1.28-5.41-3.32-3.15-5.94-6.9-8.6-10.61-2.62-3.65-5.5-6.96-10.39-7.55-1.11-.13-2.16-.73-3.24-1.09-3.4-1.1-4.33-.74-6.26,2.33-4.78,7.6-10.18,14.83-13.76,23.15-.4,.93-.92,1.91-1.94,2.16-.7,.17-.69-.67-.8-1.19h.02Z"/>
        <path class="cls-83" d="M348.6,569.83c-10.11,6.28-20.2,12.59-30.34,18.82-5.37,3.3-10.56,6.91-16.29,9.6,.73-1.83,2.22-2.88,3.83-3.88,4.02-2.48,7.74-5.35,10.91-8.89,1.17-1.31,2.24-2.65,2.42-4.42,.15-1.44,.25-3.12-2.1-2.6-1.2,.26-1.44-.65-1.84-1.36-1.54-2.74-3.31-5.38-4.49-8.27-1.06-2.59-3-3.45-5.32-4.42-2.61-1.09,.56-4.75-2.23-6.09-1.02-.49-1.98-1.13-2.96-1.71-.17-3.12,2.72-4.11,4.25-6.02,1.16-1.44,2.59-2.67,3.89-4,3.46-3.16,6.41-6.84,10.14-9.71,2.99-1.76,5.7-1.07,7.64,1.49,5.6,7.37,13.22,12.98,18.1,20.95,.98,1.61,2.39,2.85,3.84,4.03,2.42,1.97,3.04,4.09,.54,6.47h0Z"/>
        <path class="cls-8" d="M308.84,547.13c-2.42,3.58-6.21,5.91-8.64,9.48-2.69,1.58-4.19,4.5-6.89,6.07-.28,.29-.6,.55-.87,.85h0c-1.99,1.43-3.89,2.96-5.59,4.73-1.9,1.98-3.23,1.83-4.53-.73-2.62-5.12-3.38-10.04,.47-14.93,.7-.89,1.3-1.89,1.89-2.88,3.5-5.84,7.67-11.2,11.86-16.54,2.53-3.22,5.33-6.22,8.01-9.32,2.11,5.22,1.57,10.8,2.05,16.23,.23,2.59,.25,5.09,2.25,7.05h0Z"/>
        <path class="cls-25" d="M308.84,547.13c-1.74,0-3.64,.19-3.44-2.47,.53-6.97-1.45-13.84-.86-20.81,.86-1.45,1.71-2.91,2.57-4.36,5.38-6.09,9.95-12.82,14.83-19.3,.44-.58,.89-1.11,1.58-1.39,1.18,1.12,1.22,2.58,.98,3.99-1.22,7.07,.05,14.29-1.32,21.36-.36,1.84,.16,3.69,.63,5.5,.39,4.16-2.73,5.94-5.45,7.98-2.89,3.46-6.01,6.67-9.53,9.49h.01Z"/>
        <path class="cls-67" d="M284.66,549.71c0,1.2-.58,2.22-1.2,3.15-2.88,4.32-3.14,8.7-.55,13.24,.49,.85,.8,1.81,1.3,2.99,2.88-1.7,4.73-4.92,8.22-5.56-3.63,4.25-7.65,8.07-11.88,11.75-4.21,3.66-8.41,7.34-12.81,10.75-5.65,4.38-11.42,8.59-17.14,12.87-.46,.35-.91,.68-1.72,.44-.38-2.38,1.5-3.87,2.64-5.46,8.09-11.26,15.84-22.78,24.49-33.64,2.83-3.55,5.11-7.58,8.67-10.54h-.02Z"/>
        <path class="cls-67" d="M292.44,563.53c.29-.28,.58-.57,.87-.85-.29,.28-.58,.57-.87,.85Z"/>
        <path class="cls-78" d="M411.44,705.09c.15-.42,.38-.77,.87-.85,.31-.29,.63-.29,.96-.02-.4,.73-.61,1.86-1.83,.86h0Z"/>
        <path class="cls-75" d="M417.63,699.11c.02,.28,0,.56-.02,.84-.42,.64-.98,1-1.77,.86,.24-.94,.94-1.4,1.79-1.7h0Z"/>
        <path class="cls-56" d="M413.24,703.41c.02-.59,.32-.92,.93-.93,0,.62-.31,.93-.93,.93Z"/>
        <path class="cls-20" d="M413.27,704.23c-.32,0-.64,.01-.96,.02,.15-.5,.4-.88,.99-.9,0,.29-.02,.59-.03,.88Z"/>
        <path class="cls-49" d="M414.97,701.68c.02-.6,.35-.88,.93-.92,0,.62-.31,.93-.93,.92Z"/>
        <path class="cls-56" d="M414.11,702.55c.01-.61,.33-.9,.93-.93,0,.62-.31,.93-.93,.93Z"/>
        <path class="cls-14" d="M713.7,125.75c-13.21,41.26-27.17,82.29-39.14,123.95-.27,.96-.42,1.95-.62,2.93-2.2,1.14-2.71-.74-3.31-2.03-1.21-2.61-2.4-5.22-3.43-7.9-8.49-18.54-17.42-36.87-26.26-55.24-1.92-4-3.1-8.38-5.86-11.96-1.69-1.99-4.12-2.56-6.43-3.31-23.54-7.59-46.37-17.18-69.9-24.8-2.17-.7-4.36-1.49-6.33-2.72-.68-.63-1.31-1.28-.7-2.3,7.1-1.87,13.74-4.97,20.53-7.66,28.01-11.11,55.49-23.51,83.31-35.09,6.09-2.54,12.2-5.03,18.3-7.54,4.76,2.42,8.74,5.97,12.86,9.23,8.96,7.11,17.75,14.46,25.66,22.76,.49,.51,.88,1.12,1.32,1.68h0Z"/>
        <path class="cls-70" d="M915.61,1001.34c.37,.06,1.05,.15,1.05,.18-.06,.78-.64,.43-1.06,.45,.05-.21,.05-.42,.01-.63Z"/>
        <path class="cls-6" d="M527.15,472.87c-.97,7.96-1.88,15.93-2.92,23.88-1.83,14.08-3.73,28.14-5.62,42.21-.8,5.95-1.66,11.89-2.5,17.83-.44,.44-.69-1.93-.9-.21-1.63,13.2-3.17,26.41-5.13,39.58-.87,5.87-3.25,10.67-7.44,14.66-9.38,8.93-17.67,18.9-26.7,28.16-.91,.93-1.83,1.84-2.11,3.19-15.28,15.52-30.56,31.05-45.85,46.57-.49-.73-1.1-.84-1.8-.32-1.26,.94-2.68,1.73-3.73,2.87-3.6,3.93-8.27,6.74-11.63,10.81-4.5,5.44-9.71,10.15-14.51,15.26-1.4,1.49-3.12,2.52-4.74,3.68-.47,.34-1.06,.5-1.62,.18-.6-.34-.48-.89-.39-1.48,1.32-9.31,2.04-18.69,3.75-27.95,.36-1.95,.12-3.98,.85-5.93,.42-1.12-.12-2.25-.97-3.36-1.04,.63-.31,2.22-1.42,2.72,.42-5.57,1.28-11.07,2.43-16.53,.91,.6,.88-.21,.94-.69,3.59-28.7,8.69-57.17,12.4-85.85,.57-4.39,1.15-8.8,1.47-13.22-.15-6.57,5.37-9.62,8.99-13.53,23.71-25.59,44.3-53.5,63.09-82.83,7.29-11.38,16.43-21.42,24.4-32.31,2.04-2.79,3.99-5.62,5.44-8.77,.93-1.79,2.15-3.37,3.61-4.76,1.36-1.3,2.69-2.62,4.02-3.94,.24-.26,.49-.49,.75-.72,.12-.11,.25-.22,.37-.34,.23-.23,.48-.44,.72-.65,.11-.11,.24-.21,.35-.32,.21-.22,.44-.42,.67-.62,.1-.1,.22-.2,.32-.31,.2-.21,.42-.41,.63-.61,.1-.1,.21-.2,.31-.3,.19-.21,.4-.4,.61-.59,0,0,.31-.29,.3-.29,.19-.21,.39-.4,.59-.59l.3-.29c.19-.21,.39-.4,.59-.59,0,0,.3-.29,.3-.3,.19-.21,.39-.41,.6-.6,0,0,.31-.3,.3-.31,.2-.22,.41-.43,.62-.64,.1-.11,.21-.22,.31-.33,.21-.24,.43-.47,.65-.7,.11-.13,.22-.25,.33-.38,.21-.29,.44-.56,.66-.84,.12-.15,.24-.29,.36-.44,.28-.31,.6-.55,.97-.74,.73-.17,1.32,.05,1.82,.58,2.6,3.93,1.03,8.14,.56,12.13-1.85,15.6-3.55,31.21-5.68,46.77-.1,.71-.1,1.43,.31,2.08l-.03,.02Z"/>
        <path class="cls-12" d="M334.49,487.5c-5.17-4.31-10.89-7.85-16.32-11.8-1.39-1.01-2.75-2.05-4.13-3.07-1.01-1.91,.68-2.26,1.74-2.68,1.92-.76,2.71-2.07,3.39-4.02,2.08-6,4.55-11.86,11.54-13.85,1.48-.42,1.99-1.66,2.06-2.99,.39-7.28,3.13-13.62,7.54-19.33,.62-.8,1.1-1.86,.85-2.83-1.02-4.03,1.24-6.72,3.4-9.68,5.59-7.63,8.22-16.69,11.75-25.31,2.29-5.6,4.58-11.16,8.28-16.03,2.03-2.67,2.76-6,4.3-8.9,10.12-19.05,21.23-37.5,33.57-55.19,2.72-3.9,5.51-7.61,6.54-12.34,.45-1.46,2.27-2.45,1.49-4.33,2.79-1.91,5.08-4.33,7.1-7.01,2.33,.29,1.85,2.23,1.99,3.64,.36,3.62-.49,7.15-1.13,10.68-2.78,15.42-4.26,30.99-5.54,46.58-.08,.99-.14,1.99,.44,2.93,1.36-.51,1.54-1.8,1.79-2.81,2.21-8.96,7.26-16.51,11.9-24.26,3.93-6.57,6.45-13.37,5.05-21.28-.62-3.51-.14-7.17-.15-10.76-.02-6.27,.56-12.61-2.25-18.53,3.15-3.3,6.65-6.34,9.35-9.98,3.09-4.17,6.85-7.71,10.27-11.52,4.58-5.1,9.3-10.13,13.92-15.21,7.21-7.93,14.43-15.86,21.72-23.72,1.69,.88,2.23-.67,3.05-1.51,2-2.03,4.01-4.06,6.49-5.51,1.3-.76,2.62-2.34,4.17-1.45,1.54,.89,1.09,2.75,.84,4.31-5.01,9.04-10.03,18.07-15.33,26.94-2.68,4.1-5.36,8.2-8.18,12.21-.25,.34-.53,.65-.82,.96-.14,.16-.29,.31-.43,.47-4.46,8.01-12.45,12.12-19.41,17.29-10.85,8.05-15.67,19.06-16.75,32.12-.34,4.14-1.11,8.25-.95,12.43-.23,1.95-1.16,3.64-1.98,5.36-2.94,6.52-8.41,11.62-10.64,19.25,4.86-5.91,8.14-12.11,11.65-18.17,4.7-7.35,8.59-15.19,13.7-22.28,.93-1.29,1.41-3.28,3.66-3.09,1.6,2.43,.09,4.38-1.03,6.35-9.56,16.89-19.77,33.39-30.08,49.84-15.34,24.49-30.19,49.27-45.4,73.84-8.32,13.44-16.79,26.8-25.02,40.3-4.59,7.53-8.39,15.38-11.45,23.63-.5,1.34-.76,2.79-1.81,3.88-2.55,.09-4.11-1.13-4.73-3.59v.02Z"/>
        <path class="cls-39" d="M429.69,274.33c2.98,2,3.33,5.16,3.41,8.3,.13,5.17,0,10.35,.05,15.53,.03,3.14,.2,6.25,.62,9.4,.55,4.11-.76,8.21-2.54,12.02-2.68,5.73-6.14,11.03-9.39,16.42-1.88,3.12-3.26,6.33-4.23,9.79-.88,3.16-2.01,6.23-3.71,9.14-2.53-.78-2.52-2.74-2.3-4.54,.48-3.98,.31-8.08,1.03-11.94,.99-5.26,.26-10.55,1.41-15.8,1.85-8.49,2.55-17.2,4.15-25.75,.53-2.82,1.15-5.95-.59-8.75,3.5-5.06,7.9-9.35,12.09-13.81h0Z"/>
        <path class="cls-60" d="M498.74,209.57v-3.85c-3.18,1.4-5.68,3.08-7.87,5.26-1.32,1.31-2.6,2.68-4.01,3.89-1.21,1.04-1.76,.3-1.92-.98,6.04-6.65,12.24-13.15,18.01-20.05,3.03-3.61,6.37-6.97,9.59-10.41,7.63-8.15,14.91-16.6,22.54-24.75,4.08-4.35,8.67-8.33,12.03-13.38,1.04-1.57,2.64-2.62,4.59-2.94,.19,.52,.38,1.04,.57,1.56-1.81,4.44-5.14,7.88-7.77,11.77-10.04,14.82-20.46,29.37-30.82,43.96-1.16,1.63-1.94,3.99-4.6,4.03-1.31-2.22,.33-3.85,1.28-5.49,1.92-3.33,4.24-6.41,6.79-10.45-5.37,6.23-9.67,12.1-13.73,18.15-1.14,1.7-1.89,4.02-4.68,3.68Z"/>
        <path class="cls-18" d="M295.77,460.19c-2.84-1.53-5.67-3.06-8.51-4.59-.62-.19-1.22-.41-1.72-.84-1.17-.57-2.03-1.44-2.62-2.59,.09-2.33,1.65-3.93,2.96-5.58,6.65-8.41,13.61-16.56,20.35-24.89,3.68-4.55,7.3-9.16,11.11-13.6,.37-.45,.73-.92,1.05-1.41,.2-.35,.43-.67,.67-.98,3.89-4.3,7.44-8.88,10.93-13.51,9.36-10.3,17.55-21.56,26.56-32.15,4.74-5.57,9.36-11.24,13.91-16.97,1-1.26,2.03-2.94,4.19-2.27,1.52,2.66-.12,4.69-1.43,6.7-5.89,9.02-12.43,17.58-18.89,26.19-7.52,10.01-13.15,21.23-20.34,31.44-6.93,9.85-13.46,19.93-19.65,30.28-3.02,5.04-6.55,10.07-10.72,14.43-1.32,1.38-2.06,3.08-2.8,4.8-1.04,2.41-2.42,4.58-5.07,5.54h.02Z"/>
        <path class="cls-42" d="M265.67,436.49c.61-2.12,1.94-3.78,3.37-5.39,9.34-10.53,19.78-20.01,29.32-30.33,14.15-15.3,29.04-29.85,43.88-44.44,7.94-7.81,16.35-15.18,24.76-22.54,5.7-4.99,11.33-10.09,17.05-15.06,6.69-5.81,13.61-11.35,20.43-17,.62-.51,1.26-.64,1.88,0,.44,.5,.46,1.14,.06,1.56-4.66,4.82-8.35,10.52-13.47,14.92-2.4,.77-4.24,2.35-5.95,4.13-6.67,6.91-13.25,13.89-20.3,20.45-8.62,8.02-16.84,16.48-25.03,24.94-12.29,12.7-25.34,24.61-38.04,36.87-8.34,8.06-16.87,15.98-25.72,23.51-1.54,1.31-2.96,2.73-3.82,4.61-1.93,1.96-4.03,3.62-6.89,3.97-.51-.07-1.03-.14-1.54-.21h.01Z"/>
        <path class="cls-73" d="M267.21,436.7c1.77-1.91,4.38-2.61,6.24-4.39,4.31-4.06,9.7-6.59,14.4-10.11,7.8-5.84,15.32-12.08,23.61-17.26,.54-.31,1.11-.55,1.72-.7,.41-.07,.83-.06,1.24-.01,1.77,.45,3.74,.46,4.93,2.2-.16,.3-.32,.59-.49,.89-.07,.31-.25,.54-.54,.67-3.43,4.39-6.8,8.83-10.3,13.16-5.14,6.34-10.42,12.56-15.57,18.89-3.24,3.99-6.36,8.08-9.53,12.12-5.24-5.16-10.48-10.31-15.71-15.47h0Z"/>
        <path class="cls-37" d="M285.53,454.76c.7,.02,1.38,.09,1.72,.84-.06,.35-.13,.69-.19,1.04-.74-.44-1.23-1.09-1.53-1.88Z"/>
        <path class="cls-69" d="M392.85,317.57c4.5-5.27,9-10.55,13.51-15.82,.88-.76,1.77-1.51,2.65-2.27,.49,4.14-1.24,7.18-3.8,10.46-7.04,9.05-12.89,18.94-18.87,28.72-4.26,6.97-8.41,14.01-12.37,21.16-1.86,3.35-3.86,6.65-5.2,10.3-1.13,3.08-2.71,5.92-4.81,8.55-2.59,3.25-4.33,7.15-5.62,11.06-1.75,5.31-4.03,10.43-6.08,15.59-2.17,5.48-4.64,11.13-9.03,15.45-1.25,1.23-1.75,2.39-1.07,4.2,.86,2.3-.02,4.2-1.4,6.33-2.07,3.2-5.04,5.99-5.7,9.99-.46,2.81-.81,5.65-1.18,8.48-.41,3.08-.53,3.23-3.91,3.54-1.7,.15-3.45,1.16-3.89,2.28-1.04,2.66-3.46,4.2-4.57,6.69-.41,.92-1.28,1.86-1.2,2.73,.37,4.04-1.78,5.69-5.34,6.3-.62,.11-.8,.76-.92,1.33-6.09-4.15-12.18-8.3-18.27-12.44,2.1-2.7,4.37-5.27,5.3-8.72,.24-.89,1.08-1.7,1.8-2.36,2.05-1.87,3.68-4,4.77-6.56,.33-.78,.77-1.6,1.38-2.15,5.18-4.62,7.97-10.83,11-16.81,2.76-5.43,6.98-9.76,10.28-14.76,4.18-6.33,8.6-12.51,12.28-19.14,4.33-7.8,9.75-14.82,14.94-22.01,5.11-7.07,10.43-13.99,15.24-21.28,1.16-1.75,1.89-3.52,1.67-5.63-.57-1.23,0-2.29,.73-3.14,5.56-6.47,10.42-13.52,16.56-19.49,.3-.3,.72-.44,1.13-.57h0Z"/>
        <path class="cls-17" d="M388.13,547.01c-5.21,1.67-9.77,4.6-14.36,7.46-3.5,2.18-6.74,4.78-10.52,6.5-2.36-.46-1.39-2.09-.84-3.1,2.38-4.27,.15-7.25-1.95-10.93-5.39-9.45-14.67-14.12-22.93-20.09-1.67-1.21-3.1-2.51-3.91-4.43,.54-4.14,3.88-6.33,6.35-9.14,.54-.54,1.1-1.08,1.64-1.63,.25-.29,.53-.56,.8-.82,.26-.29,.54-.55,.82-.82,3.1-2.02,4.09-6.34,8.05-7.42,5.12,2.64,7.68,7.84,11.59,11.69,2.52,2.49,4.58,5.44,6.92,8.13,6.27,7.65,12.94,14.98,18.85,22.94,.14,.65,.1,1.24-.52,1.65h0Z"/>
        <path class="cls-46" d="M333.82,522.05c5.21,4.89,10.96,9.04,17.21,12.48,2.47,1.36,4.39,3.16,5.71,5.65,1.21,2.28,2.65,4.39,4.47,6.28,4.15,4.29,4.45,6.39,2.02,11.89-.39,.87-1.22,1.76,.02,2.62-4.74,3.2-9.48,6.38-14.65,8.86,1.07-3.67,1.04-3.64-1.79-6-1.42-1.19-2.65-2.54-3.71-4.12-1.34-2.01-1.73-4.99-4.89-5.39-1.06-5.11-6.87-6.19-8.9-10.5-.81-1.71-2.33-2.88-3.45-4.34-2.08-2.71-4.51-3.24-7.51-1.85,1.73-2.29,3.45-4.59,5.18-6.88,1.7-3.76,5.02-6.03,7.95-8.65,.63-.56,1.53-.76,2.32-.06h.02Z"/>
        <path class="cls-26" d="M388.13,547.01c-.04-.48-.07-.97-.11-1.45,12.66-12.27,23.46-26.3,36.45-38.25,15.44-14.21,30.47-28.83,45.46-43.51,5.41-5.3,10.86-10.67,16.87-15.37,1.21-.94,2.19-2.42,4.09-1.67,.82,2.13-1,3.03-2.06,4.2-2.96,3.26-6.43,6.04-9.1,9.58-2.43,3.22-5.46,5.88-8.3,8.71-11.04,11.03-21.59,22.55-33.07,33.14-5.37,4.95-11.03,9.6-15.91,15.06-10.17,9.4-19.95,19.19-29.47,29.25-.78,.82-1.58,1.72-2.94,1.3l-1.91-.99h0Z"/>
        <path class="cls-54" d="M390.04,548c4.61-4.65,9.32-9.21,13.82-13.97,5.69-6.02,11.73-11.67,17.88-17.21,3.65,.23,4.02,.92,3.06,5.64-.61,1.82-1.94,3.14-3.25,4.45-8,7.98-15.93,16.02-23.98,23.94-.94,.79-1.92,1.48-3.23,1.48-1.75-1.14-3.36-2.41-4.3-4.34h0Z"/>
        <path class="cls-36" d="M409.85,567.85c.02,7.75-1.29,15.35-2.36,22.99-.94,6.64-1.86,13.28-2.82,19.92-.68,4.66-1.41,9.31-2.12,13.96-1.03,6.77-2.05,13.54-3.08,20.31-.67,4.37-1.17,8.78-2.07,13.1-.65,3.09-.39,6.27-1.29,9.33-.4,1.36-.62,2.76-1.31,4.06-.86-.83-.27-1.92-.59-2.81,.51-8.32,2-16.53,3.11-24.78,2.07-15.37,4.31-30.71,6.49-46.06,1.31-9.24,2.62-18.48,3.94-27.72,.31-2.14,.63-4.27,.44-6.43,.14-.79,.51-1.29,1.4-1.16,1.2,1.71,.79,3.5,.26,5.3h0Z"/>
        <path class="cls-4" d="M409.03,562.7c-.28,.34-.57,.68-.85,1.02-3.61-2.78-7.42-5.31-10.64-8.58,.15-.4,.4-.71,.76-.94,7.04-3.04,11.04-9.41,15.93-14.75,4.15-4.54,7.56-9.75,12.07-13.98,.97-.91,2.24-3.34,3.98-.58-.33,3.6-2.74,6.2-4.51,9.06-5.26,8.48-10.45,17-14.73,26.04-.49,1.03-1.01,2.05-2,2.73v-.02Z"/>
        <path class="cls-4" d="M394.34,552.34c.53-1.01,1.6-1.27,2.48-1.79,2.65,.92,1.91,2.6,.96,4.32l-.23,.26c-1.35-.61-2.45-1.5-3.2-2.79h0Z"/>
        <path class="cls-50" d="M333.82,522.05c-1.77,.11-2.62,1.57-3.76,2.6-2.21,1.99-4.02,4.42-6.52,6.11-2.67-2.42-2.01-5.64-1.51-8.47,.46-2.58,.75-5.11,.58-7.66-.35-5.32,.67-10.54,.91-15.82,1.15-1.44,2.3-2.89,3.44-4.33,1.83,1.29,3.18,2.99,4.26,4.92,2.33,5.28,6.71,9.16,9.57,14.08-2.33,2.86-4.65,5.72-6.98,8.58h.01Z"/>
        <path class="cls-33" d="M330.41,499.66c-.94-1.87-3.3-2.79-3.44-5.19,2.31-2.53,3.91-5.84,7.52-6.98,1.55,1.1,2.74,2.68,4.57,3.41,1.7,.05,2.76,1.21,3.92,2.21,1.76,1.73,3.4,3.58,5.33,5.13,1.53,1.24,3.38,2.29,2.99,4.74-3.06,2.21-4.7,5.82-7.83,7.95-.38,.18-.69,.47-.96,.79h0c-1.38,.47-2.17-.46-2.87-1.35-2.91-3.73-6.49-6.86-9.23-10.73v.02Z"/>
        <path class="cls-82" d="M687.8,906.87c-.03,4.53-4.21,8.85-8.58,8.89-4.45,.04-9.56-4.89-9.47-9.39,.09-4.84,4.96-9.21,9.7-8.82,5.17,.43,8.39,3.73,8.35,9.32Z"/>
        <path class="cls-21" d="M347.86,498.74c-1.94-1.52-3.76-3.17-5.25-5.15,9.82-1.16,12.17-10.76,18.17-16.23,2.08-1.89,3.64-4.45,5.83-6.27,5.34-4.44,8.62-10.68,13.62-15.4,1.24-1.17,2.28-2.62,4.1-2.97,3.31,.32,4.35-1.22,3.52-4.3,.12-2.2,1.67-3.55,2.99-5.06,14.12-16.17,28.64-32,43.25-47.69,7.36-7.91,14.28-16.38,22.48-23.53,1.84-.5,3.28-1.44,4.53-3.01,3.5-4.39,7.75-8.09,11.73-12.03,1.35-1.35,3.01-2.23,4.9-2.57,1.95-.35,3.17-1.52,4.51-2.97,1.95-2.11,4.4-4.44,6.96-5.1,5.03-1.3,9.01-4.39,13.58-6.39,.4-.17,.83-.33,1.12-.64,5.87-6.31,14.08-8.52,21.38-12.35,5.78-3.03,11.25-6.66,17.58-8.55,.82-.25,1.73-.94,2.47-.6,4.36,1.99,7.57-1.55,11.32-2.09,5.51-.79,9.67-4.64,15.42-5.23,5.88-.6,11.27-4.09,16.03-7.94,.56-.45,1.08-1.45,1.61-1.34,4.04,.83,6.44-2.54,8.7-4.37,3.62-2.94,7.99-4.71,11.3-8.01,2.1-2.1,3.04-4.16,1.22-6.9-.46-.69-.47-1.65-.27-2.53,4.52-4.79,9.58-9.05,13.61-14.33,1.86-2.43,2.38-4.55,1.26-7.49-3.28-8.59-6.6-17.16-9.84-25.77-.59-1.57-1.66-3.11-.71-4.92,2.6-.91,3.15,1.41,4.03,2.79,2.79,4.37,4.35,9.35,6.61,14,.31,.64,.51,1.34,.79,2,3.48,8.06,4.14,8.3,12.09,4.3,.76-.38,1.75-1.35,2.29-.93,3.47,2.73,6.05-1.23,9.14-1.06,.71,.04,1.54-.32,1.8-1,1.19-3.08,3.11-3.79,6.05-2.27,.86,.44,1.51-.41,2.08-1.11,2.27-2.76,4.97-3.22,8.1-1.39,1.68,2.51,2.48,5.42,3.77,8.11,.46,.95,.6,2.35,2.21,2.17-.41,2.78-1.63,5.25-3.82,6.91-3.07,2.31-5.68,5.03-8.18,7.89-3.65,.64-5.9,3.44-8.42,5.69-9.78,8.72-20.67,16-30.96,24.04-21.85,17.07-43.45,34.45-65.5,51.28-16.55,12.23-33.2,24.32-49.89,36.37-5.52,3.83-10.44,8.53-16.66,11.34-11.05,4.01-19.53,11.9-28.56,18.95-20.81,16.24-41.14,33.1-62.3,48.9-11.61,8.67-22.97,17.69-34.59,26.35-4.16,3.1-8.61,5.7-13.2,8.08-1.29,.67-2.55,1.38-3.97,.32h-.03Z"/>
        <path class="cls-90" d="M556.55,347.67c8.34-6.5,16.85-12.8,25-19.53,16.65-13.76,34.18-26.39,50.83-40.15,4.3-3.56,9.31-6.15,13.49-9.91,3.08-2.77,6.37-5.31,9.48-8.04,1.63-1.43,3.37-2.67,5.28-3.66,.95-.49,1.21,.26,1.3,1.04-3.11,3.95-6.81,7.35-10.1,11.16-6.94,8.02-14.45,15.55-21.45,23.52-4.35,4.95-9,9.6-13.37,14.52-3.06,.06-1.23-2.97-2.75-4.26-7.21,4.63-13.76,10.19-20.46,15.56-13.86,11.09-24.18,25.24-34.62,39.32-2.56,3.46-5.25,6.83-8.43,9.79-4.09,3.8-8.75,6.56-14.27,7.59-3.99,.74-7.76,2.06-11.49,3.61-9.62,3.07-19.22,6.2-28.94,8.93-1.23,.35-2.44,.91-3.73,.88-1.78-.05-3.14-.61-2.21-2.85,6.19-2.69,10.9-7.57,16.49-11.15,20.25-4.37,37.88-12.82,49.06-31.4,.98-1.63,.86-3.26,.89-4.96h0Z"/>
        <path class="cls-10" d="M525.5,387.42c2.45-2.23,5.64-2.91,8.67-3.34,8.84-1.25,15.3-6.14,20.55-12.87,7.02-8.99,13.52-18.41,20.86-27.12,4.58-5.44,9.82-10.39,15.34-15.01,6.03-5.04,12.11-9.99,18.41-14.69,1.72-1.28,3.42-2.6,5.4-3.48,.54-.24,1.12-.35,1.62,.04,.58,.45,.37,1.02,.09,1.53-.83,1.53-1.11,2.96,.55,4.15-2.2,2.62-4.33,5.31-6.62,7.85-3.93,4.35-8.13,8.47-11.92,12.94-6.57,7.74-13.77,14.9-20.39,22.6-3.51,4.09-6.67,8.62-11.06,11.94-4.13,2.58-7.3,6.2-10.68,9.62-1.38,1.4-2.48,3.77-5.2,2.34-.73-2.08,.83-3.17,1.96-4.39,2.9-3.14,5.71-6.36,8.38-9.76-7.83,11.72-18.95,17.54-32.8,18.5-1.15,.08-2.3,.16-3.17-.84h0Z"/>
        <path class="cls-80" d="M473.84,642.17c-1.24-1.74,.37-2.62,1.23-3.54,8.29-8.89,15.85-18.49,24.94-26.57,6.31-5.61,9.04-12.57,9.96-20.6,1.13-9.89,2.16-19.8,3.59-29.65,.42-2.87,.27-6,1.99-8.74,.86,1.22,.19,2.56,.57,3.73-.37,8.49-2.08,16.82-3.06,25.23-.69,5.85-1.64,11.67-2.23,17.53-.41,4.04-1.66,7.57-4.64,10.37-10.6,9.94-20.53,20.54-30.69,30.91-.49,.5-1.1,.9-1.66,1.34h0Z"/>
        <path class="cls-53" d="M479.01,460.13c.89-2.38,3.1-3.62,4.67-5.42,2.33-2.66,5.29-4.74,7.26-7.74,1.02-2.95,3.27-4.98,5.32-7.17,8.81-9.43,18.76-17.67,27.76-26.89,2.3-2.36,4.69-4.62,6.66-7.29,1.19-1.61,2.59-3.09,4.72-3.52,1.25,.09,2.86-.44,2.97,1.67-1.15,.98-2.33,1.95-2.72,3.52-1.36,1.8-2.84,3.47-5.01,4.34-.28,.22-.55,.45-.83,.67-.26,.37-.55,.72-.91,1.01l.04-.04c-.28,.33-.58,.63-.9,.91l.04-.05c-.28,.33-.58,.63-.91,.91l.05-.05c-.28,.32-.59,.63-.91,.91l.05-.05c-.29,.32-.59,.62-.91,.91l.05-.05c-.29,.32-.59,.62-.91,.91l.05-.05c-.29,.32-.59,.62-.91,.91l.05-.05c-.29,.32-.59,.62-.91,.91l.04-.05c-.29,.32-.59,.62-.91,.91l.04-.04c-.29,.31-.59,.62-.91,.91l.04-.04c-.29,.31-.59,.62-.91,.91l.04-.04c-.3,.25-.63,.45-.99,.59-1.66,1.64-3.34,3.26-4.96,4.94-7.28,8-14.76,15.79-22.84,22.99-3.08,2.26-5.44,5.27-8.26,7.8-1.19,1.07-2.19,2.74-4.27,1.9h.03Z"/>
        <path class="cls-2" d="M530.65,411.62c1.39-1.77,2.6-3.75,5.01-4.34-.29,7.89-1.75,15.65-2.66,23.47-1.44,12.23-3.21,24.42-4.87,36.62-.25,1.84-.65,3.66-.98,5.49-1.54-2.23-.99-4.77-.51-7.03,.85-4.07,.75-8.2,1.34-12.28,.99-6.73,1.44-13.54,2.47-20.28,.63-4.07,.57-8.24,1.16-12.31,.41-2.84,.84-5.6-.19-8.36-.14-.37-.51-.66-.78-.98h.01Z"/>
        <path class="cls-3" d="M538.37,403.77c-.87-1.27-2.23-.67-3.38-.87,1.03-4.3,4.91-6.54,7.22-9.92,3.08-2.99,4.98-7.19,9.19-9.02,1.8,0,2.83-1.32,3.72-2.51,2.38-3.19,5.72-5.36,8.39-8.23,.84-.91,1.79-2.38,3.5-1.27-1.58,2.61-4.07,4.38-6.04,6.58-3.72,4.17-7.71,8.1-11.33,12.36-3.69,4.35-7.5,8.59-11.26,12.88h0Z"/>
        <path class="cls-9" d="M456.45,372.74c-5.32,5.8-9.62,12.53-15.61,17.72-6.2,5.37-11.38,11.58-16.43,18.01-3.09,3.93-6.83,7.41-10.62,10.72-5.36,4.67-9.13,10.67-13.78,15.93-2.67,3.02-5.52,5.83-8.26,8.75-1.39,1.48-2.76,2.92-3.5,4.85,.19,2.51-1.53,3.5-3.46,4.31-3.64,3.2-7.46,6.19-9.74,10.68-.69,1.35-2.02,2.39-3.14,3.49-7.33,7.21-14.32,14.72-20.1,23.28-1.38,2.04-3.29,3.12-5.78,3.12h-3.44c-1.32-.72-2.56-1.54-3.55-2.68,.91-5.6,3.56-10.56,5.78-15.67,3.04-6.99,7.5-13.21,11.29-19.8,8.59-14.91,18.56-28.95,27.09-43.91,5.32-9.32,11.5-18.15,17.06-27.36,8.3-13.74,16.7-27.42,25.23-41.01,8.76-13.97,17.38-28.01,25.48-42.37,1.32-2.34,3.35-4.41,2.88-7.44-.64-1.97,.8-3.27,1.64-4.66,9.1-15.14,18.87-29.85,27.93-45.01,6.27-8.97,11.37-18.65,17.15-27.91,2.63-4.21,4.35-9.08,8.51-12.23,2.89-2.6,4.89-5.92,7.09-9.05,11.25-16.04,22.43-32.14,33.62-48.22,.67-.96,1.4-1.82,2.47-2.34,19.97,6.58,39.59,14.14,59.39,21.21,6.46,2.31,12.99,4.44,19.47,6.72,1.84,.65,3.98,.93,4.89,3.09,.8,1.34,.19,2.52-.56,3.56-3.48,4.83-6.66,9.9-11.22,13.88-3.11,2.72-5.26,6.37-8.43,9.07-2.96,2.51-5.91,5.01-10.13,4.89-9.07-1.64-17.75-4.75-26.59-7.27-8.99-2.57-18-5.07-26.95-7.77-2.46-.74-4.37-.3-6.26,1.52-3.65,3.5-6.64,7.56-10.09,11.23-2.02,2.15-1.53,4.36-.3,6.74,6.95,13.41,13.13,27.21,20.58,40.36,1.13,2,2.18,4.06,2.99,6.22,1.71,3.65-.21,6.45-2.4,8.98-5.35,6.19-10.69,12.41-16.36,18.28-17.34,17.95-33.84,36.67-50.81,54.96-9.46,10.2-19.22,20.16-28.81,30.26-1.21,1.28-2.81,1.96-4.25,2.9l.03-.03Z"/>
        <path class="cls-7" d="M605.6,205.38c3.45,.27,6.06-1.65,8.38-3.71,2.44-2.15,4.97-4.31,6.72-7.16,.51-.84,1.21-1.63,1.98-2.23,5.29-4.05,8.47-9.82,12.4-14.99,.54-.71,.89-1.45,.95-2.33,2.88,4.46,4.68,9.45,6.96,14.2,7.85,16.39,15.6,32.82,23.37,49.24,.61,1.28,1.45,2.48,1.59,3.95-.1,.51-.03,1.29-.83,1.09-.5-.12-.88-.68-1.32-1.04-2.45-2-3.34-1.81-4.69,1-1.21,2.52-3.03,3.1-5.48,1.75-.37-.2-.75-.38-1.09-.54-1.22,.49-1.19,1.55-1.34,2.53-.2,1.31-1.08,2.26-2.32,2.06-2.97-.49-4.78,1.15-6.31,3.08-1.01-.08-1.54-.6-1.96-1.15-1.29-1.7-2.45-1.58-3.75,.03-.6,.74-1.34,1.77-2.48,1.26-1.81-.81-2.69,.42-3.6,1.46-1.19,1.34-2.13,1.07-3.13-.15-2.21-2.69-3.38-5.93-4.83-9.03-2.54-5.41-4.32-11.2-7.79-16.17-.51-.73-1-1.39-1.9-1.61-1.24,.01-1.77-.9-2.15-1.82-2.71-6.47-5.32-12.98-7.36-19.71h-.02Z"/>
        <path class="cls-11" d="M409.03,562.7c1.72-5.67,4.77-10.7,7.61-15.82,4.16-7.5,9.33-14.42,13.16-22.12,.14-1.94,1.2-3.47,2.22-5.03,9.34-14.2,20.17-27.18,31.64-39.7,3.77-4.12,7.82-8.01,11.18-12.5,5.01-5.51,10.49-10.55,15.64-15.93,6.18-5.61,11.78-11.78,17.6-17.74,.96-.98,1.58-2.9,3.64-2.27-1.28,4.71-4.57,8.21-7.41,11.94-6.82,8.98-14.06,17.66-20.53,26.88-5.16,7.37-9.78,15.14-14.91,22.55-6.99,10.1-14.31,19.95-21.83,29.67-6.46,8.36-13.61,16.16-19.83,24.71-.59,.8-1.32,1.53-2.1,2.16-5,4.09-8.21,9.94-13.52,13.72-1.61,1.14-.16,3.47-1.76,4.63-.27-1.72,.66-3.62-.81-5.15h0Z"/>
        <path class="cls-1" d="M511.72,431.59c-2.7,1.71-4.76,4.1-6.78,6.52-4.23,5.08-8.94,9.67-13.96,13.95-.75-.73-.64-1.47-.02-2.22,7.81-7.53,14.98-15.72,23.28-22.74,.41-.36,.81-.34,1.2,.05-1.24,1.48-2.48,2.96-3.72,4.44h0Z"/>
        <path class="cls-94" d="M515.44,427.15c-.4-.02-.8-.03-1.2-.05,1.49-1.95,3.16-3.7,5.26-5,.18,.18,.24,.36,.18,.55s-.11,.28-.17,.28c-1.06,1.7-2.49,3.04-4.07,4.22Z"/>
        <path class="cls-77" d="M520.29,421.96c.04-.57,.35-.86,.91-.91-.09,.51-.4,.81-.91,.91Z"/>
        <path class="cls-77" d="M521.15,421.09c.04-.56,.35-.86,.91-.91-.1,.51-.4,.81-.91,.91Z"/>
        <path class="cls-13" d="M528.05,414.18c.1-.51,.41-.8,.9-.91-.14,.46-.44,.77-.9,.91Z"/>
        <path class="cls-41" d="M522.01,420.23c.05-.56,.35-.86,.91-.91-.1,.5-.4,.81-.91,.91Z"/>
        <path class="cls-85" d="M528.91,413.31c.3-.34,.61-.67,.91-1.01-.12,.5-.42,.84-.91,1.01Z"/>
        <path class="cls-66" d="M522.88,419.37c.05-.55,.35-.86,.91-.91-.11,.49-.41,.8-.91,.91Z"/>
        <path class="cls-58" d="M523.74,418.5c.05-.55,.36-.85,.91-.91-.12,.49-.42,.79-.91,.91Z"/>
        <path class="cls-63" d="M525.46,416.77c.07-.54,.37-.84,.91-.91-.13,.48-.43,.79-.91,.91Z"/>
        <path class="cls-76" d="M526.33,415.91c.07-.53,.39-.83,.91-.91-.13,.47-.43,.78-.91,.91Z"/>
        <path class="cls-62" d="M519.52,422.93c0-.28-.01-.55-.01-.83,.28-.06,.55-.13,.83-.19-.07,.5-.37,.81-.81,1.02h-.01Z"/>
        <path class="cls-86" d="M527.19,415.04c.09-.52,.4-.81,.91-.91-.14,.47-.43,.78-.91,.91Z"/>
        <path class="cls-65" d="M524.6,417.64c.06-.54,.37-.85,.91-.91-.12,.49-.42,.79-.91,.91Z"/>
        <path class="cls-61" d="M436.62,312.35c.18-9.14,.91-18.17,3.86-26.96,2.47-7.38,7.21-12.92,13.01-17.75,3.95-3.3,8.25-6.11,12.57-8.91,1.82-1.18,3.2-2.78,4.45-4.58,1.2-1.72,1.92-3.92,4.09-4.84,1.14,1.66,.09,3.08-.68,4.37-11.13,18.59-21.6,37.59-33.53,55.7-.88,1.34-1.5,3.26-3.76,2.98h-.01Z"/>
        <path class="cls-29" d="M436.62,312.35c2.76-2.38,4.39-5.63,6.23-8.64,7.74-12.7,15.24-25.54,22.85-38.33,2.12-3.56,4.29-7.1,6.42-10.65,1.03-1.71,2.18-3.38,2.47-5.43h0c.28-.28,.55-.57,.79-.88,2.62-4.02,5.24-8.05,7.86-12.07,1.13-.78,2.36-1.12,3.43-.05s.56,2.35-.08,3.47c-.83,1.46-1.6,2.94-2.5,4.36-3.72,7.08-8.12,13.76-12.33,20.54-5.94,9.57-11.92,19.12-17.88,28.68-4.56,5.49-7.88,11.79-11.54,17.85-1.62,2.67-3.26,5.33-4.89,8-1.82,.85-3.28,1.15-2.63-1.74,.6-1.7,1.21-3.41,1.81-5.11h-.01Z"/>
        <path class="cls-35" d="M484.08,244.13c.03-1.48,.93-2.63,1.51-3.9,1.55-3.38,1.47-3.52-2.36-3.88,5.34-8.83,9.9-18.11,15.51-26.78,3.62-2.01,4.62-6.08,7.06-9.03,3-3.63,5.65-7.56,8.57-11.26,1.03-1.3,2.19-2.6,3.98-3.54,.39,2.02-.7,3.22-1.54,4.48-1.9,2.86-3.91,5.66-5.71,8.59-.89,1.44-1.87,2.92-1.99,4.72-7.44,12.46-14.86,24.93-22.35,37.35-.71,1.17-1.22,2.63-2.67,3.24h-.01Z"/>
        <path class="cls-40" d="M434.81,317.46c.14,1.7,1.32,1.81,2.63,1.74-5.44,10.33-9.63,16.44-13.45,19.43-.72-3.21,1.13-5.55,2.41-7.82,2.58-4.58,5.58-8.91,8.41-13.35h0Z"/>
        <path class="cls-61" d="M475.37,248.42c-.26,.29-.53,.59-.79,.88,.27-.29,.53-.59,.79-.88Z"/>
        <path class="cls-38" d="M392.85,317.57c-3.98,4.89-7.91,9.81-11.95,14.65-2.29,2.75-4.76,5.37-6.47,8.55-1.36,.62-2.24,1.8-3.13,2.89-5.18,6.34-10.27,12.75-15.45,19.08-4.73,5.77-9.49,11.52-14.34,17.19-1.78,2.08-3.38,4.28-4.98,6.49-1.68,2.32-3.33,4.69-5.83,6.25-5.56,4-10.52,8.84-16.7,11.98-.28,.03-.55,.06-.83,.1-.32,.23-.62,.5-.88,.79-8.41,5.49-16.13,11.93-24.29,17.76-4.65,3.32-9.21,6.8-14.56,9.01,.36-2.74,2.63-4.09,4.47-5.51,1.71-1.32,3.29-2.75,4.83-4.23,11.85-11.45,23.99-22.58,35.93-33.93,15.4-14.63,30.08-29.96,45.32-44.75,3.39-3.29,6.85-6.49,10.37-9.65,4.67-4.2,8.31-9.46,12.98-13.72,1.61-1.47,3.12-2.99,5.51-2.95h0Z"/>
        <path class="cls-23" d="M314.01,404.66c2.73-3.35,6.53-5.37,9.89-7.93,2.1-1.6,3.87-3.84,6.81-4.05-3.5,4.82-6.9,9.72-11.36,13.76-1.77-.63-3.79-.5-5.34-1.78h0Z"/>
        <path class="cls-23" d="M318.32,408c.18-.22,.36-.45,.54-.67,.03,.39-.18,.59-.54,.67Z"/>
        <path class="cls-23" d="M312.29,405.55c.29-.26,.59-.53,.88-.79-.29,.26-.59,.53-.88,.79Z"/>
        <path class="cls-31" d="M551.4,383.97c-2.88,3.16-5.76,6.33-8.63,9.49-5.3,5.75-11.61,10.21-18.06,14.53-2.84,1.9-5.75,3.24-9.24,2.95-3.07-.26-4.56,1.07-4.51,4.22,.03,2.17-1.02,3.98-2.82,5.08-5.02,3.05-9.42,7.16-15.18,8.95-1.69,.52-3.19,1.33-4.11,2.93-1.4,2.42-3.56,4.07-5.61,5.89-10.62,9.43-22.17,17.72-34.42,24.65-7.43,4.2-13.98,9.35-20.99,13.97-4.7,3.1-9.07,6.87-14.89,8.41-3.77,1-6.99,4.17-9.65,7.06-6.6,7.15-14.05,13.43-20.59,20.62-2.26,2.49-3.1,5.82-4.96,8.57-3.18,4.68-3.8,4.84-8.42,1.65-5.18-4.92-9.18-10.89-14.17-15.98-1.29-1.31-2.19-3-3.84-3.97-.62-1.84-2.52-2.65-3.43-4.26,3.95-.92,7.35-3.08,10.64-5.25,5.36-3.54,10.52-7.4,15.64-11.28,12.97-9.83,25.83-19.82,38.85-29.59,9.36-7.02,18.28-14.64,27.44-21.93,4.92-3.91,9.97-7.65,14.9-11.54,5.83-4.6,11.53-9.36,17.41-13.88,5.34-4.1,10.88-7.93,17.37-10.07,.12,1.52,.65,2.59,2.42,1.85,4.88-2.02,10.23-2.47,15.09-4.55,1.7-.73,3.49-1.19,5.27-1.71,2.84-.82,5.91-.99,8.43-2.86,1.22-.9,2.77-.41,4.18-.51,8.4-.79,16.81-1.63,23.93-6.81,4.06-2.95,7.48-6.62,10.62-10.52,1.02-1.28,1.8-2.83,3.61-3.08,.71,1.03,.04,1.51-.39,2.03-3.32,4.1-6.47,8.34-10.27,12.02-.83,.8-1.64,1.62-1.61,2.91h-.01Z"/>
        <path class="cls-10" d="M369.3,522.94c4.95,1.67,4.85,1.61,7.9-2.78,1.26-1.81,1.64-3.98,2.88-5.74,2.72-3.86,6.17-7.05,9.59-10.26,2.69-2.53,4.63-5.9,8.22-7.43,2.77-5.55,8.55-7.91,12.72-11.98,.49-.48,1.22-1,1.86-1.02,5.95-.21,9.37-5.16,14.17-7.54,3.67-1.82,6.78-4.77,9.66-7.78,1.41-1.48,2.91-2.81,4.96-3.27,4.47-1,8.09-3.55,11.57-6.36,1.79-1.45,3.56-2.98,5.87-3.43s2.44-3.15,4.21-3.89c1.82-.76,4.12-.64,5.47-2.24,4.64-5.54,11.12-8.85,16.33-13.69,.74-.68,1.71-1.31,2.06-2.17,1.38-3.39,4.09-4.69,7.37-5.78,5.22-1.74,9.15-5.81,13.88-8.5,1.6-.91,1.97-2.61,2-4.49,.09-4.58,.27-4.88,4.56-4.66,3.8,.19,7-.81,9.99-3.08,5.23-3.98,11.11-7.12,15.6-12.07,.7-.77,1.51-1.33,2.61-1.32-2.21,3.46-5.18,6.3-7.77,9.44-3.1,1.98-4.78,5.3-7.35,7.79-10.31,9.98-20.5,20.09-30.84,30.04-2.07,1.99-3.32,4.71-5.85,6.23-.73,.05-1.4,.25-1.96,.76-3.28,2.98-6.55,5.98-9.86,8.94-11.14,9.94-21.24,20.96-32.14,31.14-11.73,10.96-23.76,21.61-34.74,33.33-6.34,6.77-13.07,13.25-18.48,20.86-1.45,2.04-3.71,2.56-5.74,3.56-6.47-7.34-12.73-14.87-18.72-22.61h-.03Z"/>
        <path class="cls-47" d="M330.41,499.66c3.54,2.72,6.6,5.94,9.4,9.38,.82,1.01,1.52,2.08,2.7,2.7-.33,.81-.93,1.36-1.71,1.73-4.65-3.72-7.84-8.52-10.39-13.81Z"/>
        <path class="cls-47" d="M342.51,511.74c.32-.26,.64-.53,.96-.79-.32,.26-.64,.53-.96,.79Z"/>
        <path class="cls-71" d="M490.96,449.84c0,.74,.02,1.48,.02,2.22-4.8,5.58-10.25,10.51-15.47,15.67-9.62,9.8-18.52,20.23-27.51,30.59-6.56,7.55-12.93,15.29-20.13,22.25-1.17,1.13-2.1,2.86-4.21,2.4,.22-.79,.47-1.58,.66-2.38,.52-2.19-.29-3.49-2.57-3.77,8.03-8.65,17-16.31,25.49-24.47,3.74-3.59,7.22-7.39,10.8-11.12,6.87-7.15,13.97-14.08,20.98-21.1,2.48-1.03,3.92-3.27,5.83-4.96,2.02-1.79,3.71-3.98,6.12-5.32h0Z"/>
        <path class="cls-5" d="M423.65,522.98c4.16-3.54,8.03-7.35,11.46-11.62,2.87-3.58,6.12-6.85,9.24-10.19,8.7-9.34,16.59-19.41,25.59-28.47,1.76-1.77,2.5-4.67,5.57-4.96-.08,.9-.51,1.62-1.13,2.25-3.27,3.4-6.43,6.92-9.63,10.38-12.54,13.57-24.24,27.78-34.15,43.41-.23,.36-.54,.66-.81,.98-1.31-1.18-1.75,.32-2.32,.87-4.64,4.48-8.31,9.8-12.54,14.62-3.84,4.38-7.44,9.02-12.12,12.62-1.52,1.17-3.03,2.16-5.05,2-.26-1.45,.56-3.14-.96-4.32,2.98-3.86,6.75-6.94,10.1-10.44,5.52-5.76,11.54-11.05,16.73-17.14h.02Z"/>
        <path class="cls-32" d="M605.6,205.38c1.49,.85,1.87,2.37,2.41,3.83,2.21,5.96,4.19,12.02,7.09,17.7,2.6,8.35,6.24,16.31,9.15,24.54,.67,1.89,1.23,3.85,2.18,5.6,1.82,3.36,1.24,6.05-1.31,8.84-4.44,4.86-8.56,10.02-14.16,13.67-1.19,.55-2.24-.02-3.28-.48-14.03-6.21-28.53-11.21-42.91-16.52-2.61-.96-5.05-2.07-6.47-4.64-8.48-15.66-16.41-31.6-24.4-47.51-1.41-2.81-1.08-4.58,.81-6.79,3.56-4.15,7.34-8.09,11.07-12.08,1.83-1.96,3.55-2.29,6.04-1.54,12.09,3.64,24.2,7.19,36.36,10.62,5.79,1.63,11.45,3.74,17.41,4.77h.01Z"/>
        <path class="cls-16" d="M558.31,257.91c1.35,1.34,3.02,2.04,4.77,2.72,14.67,5.71,29.64,10.65,44.05,17.03,1.3,.58,2.56,1.25,3.83,1.88,1.1,2.79,2.21,5.59,3.31,8.37-1.03,.97-1.52-.48-2.29-.34-1.12,.2-1.02,1.26-1.32,2-.7,1.73-1.72,2.75-3.75,3.03-2.26,.32-4.47,1.1-5.28,3.75-.56,1.81-2.04,2.23-3.78,2.15-1.61-.08-2.35,.37-1.84,2.29,.53,1.99-.79,2.21-2.29,1.57-2.23-.96-3.42-.36-5.33,1.46-2.9,2.77-6.78,4.65-10.68,6.09-3.2,1.19-6.25,2.92-9.9,2.42-1.73-.24-3.07,.37-3.55,2.32-.38,1.57-1.38,1.98-2.95,1.4-1.73-.64-3.3-.26-4.82,.92-2.13,1.65-5.27,1.34-7.2,3.57-.37,.43-1.19,.17-1.53-.31-1.62-2.33-3.28-1.31-5.15-.3-1.1,.59-2.47,.67-3.73,.96-.42,.1-1.12,0-1.24,.22-2.24,4.4-8.29,2.53-10.75,6.56-.21,.34-.67,.71-1.03,.73-5.35,.24-8.77,4.13-12.86,6.73-1.07,.68-2.22,.46-3.35,.49-1.38,.04-2.84,.28-2.97,1.86-.2,2.41-2.02,2.92-3.66,3.74-.38,.19-.86,.21-1.2,.45-4.44,3.08-9.25,5.35-14.5,6.15-.09,1.53,1.46,1.84,1.23,3.02-.71,.44-1.36,.15-2.03-.12-1.77-.72-2.99-.45-3.58,1.64-.58,2.01-2.11,3.06-4.19,3.11-2.34,.05-4.12,1.13-5.63,2.77-3.98,4.33-8.75,7.92-12.08,12.85-1.13,1.67-2.83,1.79-4.61,1.68,.33-.47,.55-1.08,1-1.38,4.18-2.88,7.27-6.83,10.57-10.59,6.54-7.44,13.9-14.13,20.41-21.55,7.01-7.98,14.47-15.5,21.63-23.32,4.32-4.72,8.98-9.24,12.47-14.71,.61-.95,1.54-1.7,2.36-2.51,3.42-3.42,7-6.68,10.36-10.19,6.94-7.25,13.4-14.92,20.21-22.27,2.01-2.16,4.58-4.64,2.85-8.31l.02-.03Z"/>
        <path class="cls-15" d="M556.55,347.67c1.78,1.44,1.92,3.11,.58,4.88-3.02,3.99-5.85,8.15-9.17,11.88-5.51,6.19-12.43,10.4-20.03,13.75-5.27,2.32-10.84,3.75-16.08,6.08-1.73,.77-3.56,1.14-5.25-.23,6.26-5.26,13.21-9.56,19.8-14.37,10.05-7.34,20.1-14.67,30.16-22h0Z"/>
        <path class="cls-92" d="M384.8,453.03c1.15-1.44,2.31-2.87,3.46-4.31,1.32,.68,2.15,1.55,.86,2.95-.86,.93-1.74,1.93-2.8,2.58-1.15,.71-1.37-.35-1.53-1.22h.01Z"/>
      </g>
      <rect class="cls-68" width="946.76" height="1009"/>
    </g>
  </g>
</svg>