<?xml version="1.0" encoding="UTF-8"?>
<svg id="Camada_1" data-name="Camada 1" xmlns="http://www.w3.org/2000/svg" viewBox="0 0 897.58 885.17">
  <defs>
    <style>
      .cls-1 {
        fill: #d7e2e0;
      }

      .cls-2 {
        fill: #c9d0cd;
      }

      .cls-3 {
        fill: #e8ecec;
      }

      .cls-4 {
        fill: #952441;
      }

      .cls-5 {
        fill: #fe7144;
      }

      .cls-6 {
        fill: #f4fafb;
      }

      .cls-7 {
        fill: #cf4166;
      }

      .cls-8 {
        fill: #fdfefe;
      }

      .cls-9 {
        fill: #d6dddd;
      }

      .cls-10 {
        fill: #ec6841;
      }

      .cls-11 {
        fill: #f1f7f7;
      }

      .cls-12 {
        fill: #fd7447;
      }

      .cls-13 {
        fill: #b6b9b8;
      }

      .cls-14 {
        fill: #f1f9f9;
      }

      .cls-15 {
        fill: #dd3c63;
      }

      .cls-16 {
        fill: #e2eceb;
      }

      .cls-17 {
        fill: #ee622f;
      }

      .cls-18 {
        fill: #fd6f44;
      }

      .cls-19 {
        fill: #edf5f5;
      }

      .cls-20 {
        fill: #f65b5e;
      }

      .cls-21 {
        fill: #9f1337;
      }

      .cls-22 {
        fill: #853556;
      }

      .cls-23 {
        fill: #bd3e5e;
      }

      .cls-24 {
        fill: #f25268;
      }

      .cls-25 {
        fill: #ef632d;
      }

      .cls-26 {
        fill: #cb594c;
      }

      .cls-27 {
        fill: #c4cac8;
      }

      .cls-28 {
        fill: #f96157;
      }

      .cls-29 {
        fill: #dce3e3;
      }

      .cls-30 {
        fill: #7f233b;
      }

      .cls-31 {
        fill: #f14f6c;
      }

      .cls-32 {
        fill: #6f091f;
      }

      .cls-33 {
        fill: #f86058;
      }

      .cls-34 {
        fill: #d1d8d7;
      }

      .cls-35 {
        fill: #77203b;
      }

      .cls-36 {
        fill: #c9523f;
      }

      .cls-37 {
        fill: #fcfefe;
      }

      .cls-38 {
        fill: #924c5a;
      }

      .cls-39 {
        fill: #f0819f;
      }

      .cls-40 {
        fill: #d0d5d5;
      }

      .cls-41 {
        fill: #dedfde;
      }

      .cls-42 {
        fill: #ae213b;
      }

      .cls-43 {
        fill: #d75f40;
      }

      .cls-44 {
        fill: #fd6e49;
      }

      .cls-45 {
        fill: #fe7046;
      }

      .cls-46 {
        fill: #f45565;
      }

      .cls-47 {
        fill: #e4426b;
      }

      .cls-48 {
        fill: #ad3856;
      }

      .cls-49 {
        fill: #fa6354;
      }

      .cls-50 {
        fill: #fb684f;
      }

      .cls-51 {
        fill: #f68660;
      }

      .cls-52 {
        fill: #f3652e;
      }

      .cls-53 {
        fill: #611c2e;
      }

      .cls-54 {
        fill: #e2e8e6;
      }

      .cls-55 {
        fill: #e7eceb;
      }

      .cls-56 {
        fill: #d1533e;
      }

      .cls-57 {
        fill: #afa4a9;
      }

      .cls-58 {
        fill: #fa6453;
      }

      .cls-59 {
        fill: #df4770;
      }

      .cls-60 {
        fill: #fc6c4a;
      }

      .cls-61 {
        fill: #eaf3f3;
      }

      .cls-62 {
        fill: #e0e8e8;
      }

      .cls-63 {
        fill: #971332;
      }

      .cls-64 {
        fill: #f74d7a;
      }

      .cls-65 {
        fill: #f55861;
      }

      .cls-66 {
        fill: #f2506a;
      }

      .cls-67 {
        fill: #ef977c;
      }

      .cls-68 {
        fill: #ea5a24;
      }

      .cls-69 {
        fill: #fb6750;
      }

      .cls-70 {
        fill: #b92347;
      }

      .cls-71 {
        fill: #ef4873;
      }

      .cls-72 {
        fill: #f04a71;
      }

      .cls-73 {
        fill: #fb702a;
      }

      .cls-74 {
        fill: #ec6840;
      }

      .cls-75 {
        fill: #fa517f;
      }

      .cls-76 {
        fill: #c5cbcd;
      }

      .cls-77 {
        fill: #c3c9c8;
      }

      .cls-78 {
        fill: #f65d5c;
      }
    </style>
  </defs>
  <path class="cls-18" d="M36.8,564.57c-12.17,3.16-24.34,6.31-36.33,9.42-.55-.89-.6-1.32-.26-1.65,5.79-5.63,10.37-12.3,15.58-18.42,3.72-4.37,7.11-9.02,11-13.27,1.27-1.38,2.34-2.91,3.16-4.61,2.64-4.94,6.08-9.28,9.93-13.32,1.79-1.12,3.4-2.43,4.55-4.24,.19-.33,.4-.64,.6-.96,.29-.5,.58-.99,.87-1.49,1.54-3.04,4.32-5.14,6.04-8.05,4.49-6.15,9.52-11.88,14.31-17.78,7.76-9.59,15.63-19.11,23.68-28.46,13.3-15.45,25.65-31.72,39.73-46.51,.4-.42,.86-.8,1.13-1.3,4.61-8.4,12.5-10.88,21.24-12.83,45.33-10.09,90.66-20.18,135.99-30.28,25.68-5.72,51.39-11.34,77.02-17.29,1.26-.29,2.52-.66,3.82-.2,2.95,2.43,.89,3.92-1.06,5.32-7.6,5.44-15.23,10.84-22.65,16.53-14.37,11.04-27.77,23.2-41.24,35.31-19.88,17.87-37.78,37.88-58.75,54.52-6.29,4.99-12.47,10.17-18.51,15.38-6.24,5.39-12.78,10.65-18.19,17.02-.47,.55-.89,1.18-1.5,1.55-7.96,4.82-13.52,12.37-20.66,18.11-2.28,1.84-4.32,3.73-5.32,6.59-.95,2.73-3.28,3.76-5.81,4.66-11.14,3.96-22.74,6.23-34.07,9.46-3.87,1.1-7.56,2.81-11.58,3.35-.82,.11,.1,.96-.49,1.19-.55,.49-1.19,.83-1.89,1-21.29,5.23-42.41,11.15-63.9,15.58-7.35,2.29-14.88,3.86-22.32,5.79-1.37,.36-2.78,.74-4.13-.15Z"/>
  <path class="cls-72" d="M153.37,123.37c6.29-6.94,13.48-12.92,20.6-18.96,28.89-24.48,60.37-44.99,94.53-61.35,34.64-16.59,70.82-28.48,108.61-35.45,15.55-2.87,31.19-4.96,46.97-6.15,14.21-1.07,28.42-1.72,42.67-1.37,74.24,1.81,143.84,20.55,208.5,57.26,17.16,9.74,33.56,20.62,49.28,32.53,.91,.69,1.73,1.54,2.93,1.74,6.01,2.92,10.58,7.76,15.59,11.96,4.46,3.73,9.29,7.15,12.7,12.02,2.63,3.45,6.14,6.02,9.1,9.14,3.65,3.85,7.71,7.31,11.05,11.47-.45,2.67-2.7,2.23-4.36,2.24-9.82,.08-19.64,.31-29.44-.1-4.86-.93-7.62-4.94-11-7.89-10.82-9.45-21.87-18.56-33.76-26.64-41.76-29.91-87.63-51.05-137.33-63.78-23.43-6-47.24-9.83-71.42-11.56-9.9-.71-19.84-1.04-29.68-1.16-12.28-.14-24.69,.31-36.99,1.53-24.52,2.43-48.73,6.52-72.5,13.05-40.23,11.06-77.98,27.72-113.07,50.32-14.28,9.2-28.09,19.04-41.07,30.03-1.65,1.4-3.41,2.66-5.63,3.06-9.69,.55-19.37,.3-29.06,.15-2.52-.04-5.16-.19-7.21-2.11Z"/>
  <path class="cls-75" d="M168.74,769.32c-2.39,.31-4.11,1.95-6.04,3.12-16.42,10.02-32.85,20.03-49.84,29.09-1.63,.87-3.2,1.95-5.12,2.16-1.64,.18-2.63-.44-2.08-2.19,.81-2.6,1.73-5.17,2.71-7.71,6.93-17.83,15.64-34.83,24.08-51.95,.88-1.79,2.06-3.48,2.24-5.56,2.04-7.67,6.53-14.27,9.41-21.58,.62-1.58,1.52-3.07,2.08-4.7,11.75-23.14,23.04-46.5,34.34-69.87,3.5-7.23,7.13-14.39,10.74-21.57,.51-1.02,1.08-2.04,2.24-2.51,2.09-.11,2.88-1.77,3.65-3.28,4.63-9.1,10.14-17.66,15.75-26.18,2.88-4.38,4.73-5.29,9.56-3.54,3.5,1.27,7.42,1.27,10.6,3.47,3.63,2.52,5.93,6.18,8.45,9.69,2,2.77,3,6.5,7.44,7.09,1.93,.26,3.45,7.87,2.41,11.15-1.05,3.31-1.49,6.44,.83,9.4,.6,2.97-1.74,4.59-3.05,6.69-8.54,10.02-16.46,20.53-24.24,31.15-15.35,19.05-29.48,38.99-43.3,59.27,2.34-.96,4.39-2.36,6.35-3.88,12.85-9.94,25.92-19.6,37.38-31.22,2.31-2.34,5.3-3.99,6.97-6.97,4.04-2.12,5.65-7.07,10.1-8.73,3.93,.93,6.36,3.3,6.56,7.41,.08,1.65,.58,2.41,2.17,2.5,2.35,.13,3.56,1.67,4.4,3.61,1.5,3.44,3.47,6.59,5.57,9.7,1.07,1.58,1.72,2.94,4.05,3.17,2.44,.24,2.4,2.57,1.88,4.46-1.04,3.73-3.46,6.56-6.34,9.03-3.61,3.09-7.55,5.74-11.53,8.32-1.57,1.02-3.16,2.03-3.91,3.88-7.73,5.99-16.2,10.84-24.45,16.04-9.6,6.05-19.66,11.35-29.15,17.59-6.24,3.51-12.13,7.58-18.29,11.22-1.47,.87-2.87,1.92-4.62,2.21Z"/>
  <path class="cls-45" d="M649.73,834.56c-11.95,6.31-24.44,11.4-37.06,16.14-28.97,10.88-58.77,18.56-89.4,23.04-15.5,2.27-31.06,3.6-46.7,4.45-15.97,.87-31.9,.52-47.8-.54-21.49-1.43-42.83-4.21-63.84-9.12-.55-.13-1.14-.05-1.71-.06-.37-.78-.08-1.47,.5-1.91,5.49-4.25,9.21-10.27,14.61-14.6,3.18-2.35,5.24-6.5,10.02-6.3,10.59,1.02,21.06,2.99,31.67,3.74,6.44,.45,12.86,1.39,19.33,1.32,9.9-.11,19.79,.29,29.69,.14,27.28-.44,54.13-4.02,80.73-9.87,10.68-2.35,21.12-5.59,31.73-8.22,1.03-.11,2.06-.27,3.1-.38,.54-.02,1.07,.04,1.6,.17,19.05-.02,38.09-.07,57.13,.04,2.23,.01,4.97-.89,6.41,1.98Z"/>
  <path class="cls-66" d="M153.37,123.37c12.38,1.64,24.82,.54,37.23,.9,.34,1.99-1.28,2.7-2.43,3.71-36.31,31.83-66.45,68.66-90.03,110.84-8.49,15.2-15.94,30.89-22.56,46.98-.76,1.84-1.4,3.87-3.85,4.23-6.95-.58-13.91-.3-20.85-.52-1.72-.05-4.2,.68-4.64-2.29,1.79-6.67,4.65-12.94,7.35-19.26,18.09-42.44,42.24-81.12,72.41-116.04,7.7-8.91,15.74-17.51,24.15-25.75,1.01-.99,1.87-2.19,3.22-2.81Z"/>
  <path class="cls-44" d="M168.74,769.32c.41-.78,1.02-1.36,1.78-1.82,5.85-3.61,11.68-7.24,17.53-10.85,1.1-.68,2.22-1.34,3.54-1.5,1.78-.31,2.98,.77,4.2,1.79,26.65,22.15,55.69,40.59,87.03,55.33,21.48,10.1,43.64,18.46,66.62,24.55,1.47,.39,3.25,.25,4.01,2.06,.21,6.31-1.32,12.43-2.04,18.64-.31,2.69-.75,5.35-.87,8.07-.07,1.42,.26,3.31-1.97,3.67-.01-.57-.14-1.17-.02-1.71,.49-2.28-.74-2.97-2.7-3.47-8.76-2.22-17.4-4.85-25.97-7.71-54.43-18.2-103.5-45.87-147.11-83.19-1.41-1.21-2.69-2.57-4.03-3.86Z"/>
  <path class="cls-60" d="M649.73,834.56c-1.38-1.15-3.02-.64-4.54-.65-18.44-.04-36.88,0-55.32-.05-1.63,0-3.47,.67-4.84-.9,.32-2.26,2.37-2.26,3.86-2.74,20.13-6.55,39.42-15.02,58.25-24.66,27.62-14.13,53.13-31.37,76.88-51.28,4.18-3.51,7.99-7.43,12.35-10.73,1.39-1.05,2.73-2.12,4.55-2.3,9.5-.47,18.99-.22,28.48-.13,2.06,.02,4.5-.02,4.74,3.06-5.3,6.27-11.33,11.81-17.32,17.37-30.96,28.72-65.37,52.47-103.17,71.3-1.28,.64-2.62,1.14-3.93,1.71Z"/>
  <path class="cls-78" d="M897.28,449.72c.49,7.33-.4,14.62-.89,21.89-.92,13.72-2.58,27.38-4.9,40.95-4.21,24.62-10.25,48.77-18.68,72.29-.29,.8-.38,1.7-1.09,2.29-2.6-1.45-5.45-1.35-8.31-1.49-5.81-.27-11.69,.93-17.43-.8-1.79-1.82-.83-3.78-.16-5.62,11.97-32.85,19.18-66.77,22.64-101.5,.67-6.69,1.37-13.42,1.15-20.19-.1-2.97-.05-6.08,2.38-8.43,8.46-.94,16.91-1.95,25.28,.59Z"/>
  <path class="cls-24" d="M821.4,192.5c1,.44,1.38,1.43,1.93,2.25,19.07,28.87,34.96,59.38,46.96,91.87,.29,.8,.42,1.66,.63,2.49-.96,1.09-2.28,1.28-3.56,1.09-7.02-1-14.02-.75-21.03,.09-.71,.09-1.43-.07-2.12-.25-2.18-.76-2.77-2.79-3.51-4.62-12.62-30.96-28.6-60.06-48.24-87.14-1.18-1.63-2.53-3.27-1.1-5.45,1.26-1.43,2.97-1.63,4.69-1.67,6.98-.12,13.96-.08,20.95-.03,1.6,.01,3.11,.34,4.4,1.37Z"/>
  <path class="cls-65" d="M19.21,449.7c-.76-7.88-.42-15.77-.14-23.65,.29-8.03,.75-16.05,1.44-24.06,1.26-14.71,2.9-29.38,6.13-43.83,1.03-2.03,2.97-2.1,4.84-2.13,5.61-.11,11.22-.13,16.83,0,2.01,.05,4.13,.14,4.98,2.55,.59,2,.16,3.99-.18,5.96-3.79,21.95-6.43,44-6.41,66.33,0,5.13-.91,10.27-.47,15.45-.43,2.43-1.4,4.42-4.24,4.55-6.7,.3-13.4,.29-20.1,0-1.01-.04-1.96-.37-2.66-1.19Z"/>
  <path class="cls-65" d="M897.28,449.72c-8.55,0-17.1,0-25.66,0-1.56-1.64-1.26-3.73-1.27-5.7-.16-26.67-2.16-53.18-7.02-79.44-.41-2.23-1.04-4.5,.02-6.76,.87-1.36,2.27-1.68,3.7-1.73,6.51-.22,13.03-.22,19.54,0,1.15,.04,2.24,.37,3.07,1.25,1.75,6.23,2.54,12.65,3.44,19.02,3.23,22.9,4.82,45.93,4.43,69.07-.02,1.43-.16,2.86-.24,4.29Z"/>
  <path class="cls-20" d="M19.21,449.7c7.12,0,14.24,.02,21.35,0,3.51,0,3.51-.03,4.48-3.45,2.41,1.37,1.7,3.76,1.71,5.77,.12,19.26,2.44,38.3,5.61,57.25-1.89,2.69-4.51,4.82-6.03,7.8-.29,.27-.58,.55-.85,.84l.03-.03c-1.86,1.61-3.29,3.63-5.17,5.21-2.72,3.66-5.43,7.32-8.15,10.97-.6,.81-1.27,1.55-2.23,1.96-2.15-4.6-2.45-9.65-3.35-14.53-3.88-21.2-6.65-42.53-7.22-64.11-.07-2.57-.81-5.13-.17-7.71Z"/>
  <path class="cls-58" d="M851.86,633.69c-2.69,6.96-6.42,13.39-10,19.9-7.47,13.56-15.88,26.52-24.75,39.19-.73,1.04-1.61,1.98-2.43,2.96-10.13-1.3-20.32,1.8-30.44-.33-2.58-2.33-.03-3.9,1.06-5.33,5.47-7.18,10.72-14.51,15.75-22,6.94-10.35,13.4-21.01,19.39-31.94,.91-1.65,1.82-3.26,3.69-4.03,8.34-1.42,16.73-.62,25.1-.49,1.15,.02,2.7,.19,2.63,2.07Z"/>
  <path class="cls-31" d="M821.4,192.5c-8.59-.02-17.18-.03-25.77-.06-1.74,0-3.52-.14-4.34,1.91-2.85-.34-3.81-2.92-5.19-4.75-11.9-15.73-24.96-30.4-39.2-44.03-1.96-2.94-6.08-4.23-6.47-8.38,10.35,0,20.7,.02,31.05-.03,1.51,0,3.21,.57,4.42-.95,5.94,5.41,11,11.62,16.22,17.68,10.57,12.25,20.53,24.96,29.28,38.6Z"/>
  <path class="cls-46" d="M52.48,359.25c-.17-1.11-.7-1.88-1.93-1.88-7.45,.03-14.89,.06-22.34,.14-.53,0-1.05,.43-1.57,.65,1.23-9.38,3.6-18.51,5.89-27.66,3.34-13.33,7.38-26.46,12.02-39.39,.48-1.33,.72-2.77,1.7-3.9,.87,1.3,2.22,1.03,3.47,1.04,3.4,.02,6.8,.03,10.2,0,4.38-.04,8.75-.08,13.06,.87,1.46,1.71,.22,3.29-.36,4.8-7.56,19.76-13.16,40.08-17.71,60.71-.37,1.69-.08,3.87-2.41,4.6Z"/>
  <path class="cls-46" d="M889.66,357.34c-7.3,0-14.59-.02-21.89,.02-1.37,0-2.92-.45-3.95,1-2.1-.42-1.92-2.31-2.24-3.73-4.6-20.75-10.14-41.22-17.87-61.06-.54-1.4-1.48-2.89-.25-4.43,5.65-.02,11.23-1.15,16.93-.96,3.55,.12,6.96,1.45,10.53,.94,3.43,7.59,5.64,15.61,8.08,23.54,4.35,14.13,7.77,28.49,10.61,42.99,.11,.55,.04,1.14,.05,1.71Z"/>
  <path class="cls-69" d="M146.51,710.7c.27,.5,.57,1.02,.21,1.59-3.65,5.68-5.49,12.24-8.86,18.05-1.13,1.94-1.1,4.51-3.17,5.95-13.8-14.59-26.17-30.34-37.6-46.83-4.8-6.93-9.69-13.82-13.62-21.3,.41-2.4,2.44-2.12,3.98-2.13,8.23-.06,16.47-.41,24.7,.17,2.35,.42,3.58,2.21,4.77,4.01,8.63,13.03,18.16,25.37,28.4,37.17,.8,.92,2,1.79,1.2,3.33Z"/>
  <path class="cls-50" d="M783.33,694.8c.41-.12,.84-.39,1.22-.33,7.64,1.09,15.23,.09,22.84-.42,2.56-.17,5.03,.37,7.28,1.69-4.41,7.08-9.77,13.46-14.97,19.95-6.92,8.63-14.24,16.92-21.8,24.99-1.17,1.25-2.23,2.64-3.76,3.49-.99-2.22-3-1.79-4.8-1.79-9.96-.03-19.92-.03-29.88-.05-.21-2.42,1.78-3.48,3.15-4.82,13.11-12.87,25.89-26.03,37.27-40.49,.88-1.11,1.76-2.32,3.45-2.22Z"/>
  <path class="cls-49" d="M113.37,667.28c-8.62,0-17.25-.03-25.87,.01-1.38,0-2.92-.47-4.03,.86-4.93-7.03-8.87-14.64-12.98-22.15-5.08-9.28-9.64-18.83-13.91-28.5-.4-.91-.64-1.88-.95-2.83,1.16-1.33,2.76-1.37,4.31-1.37,7.37,0,14.74-.28,22.09,.14,2.27,.27,3.43,1.87,4.34,3.73,7.86,16.09,16.39,31.81,26.33,46.73,.63,.95,1.81,1.99,.67,3.38Z"/>
  <path class="cls-33" d="M83.65,614.55c-9.34,.04-18.68,.08-28.03,.11-3.84-7.21-6.59-14.88-9.35-22.53-3.29-9.14-6.33-18.38-9.48-27.57,8.76-2.25,17.52-4.5,26.28-6.76,3.91,10.33,7.01,20.95,11.15,31.2,2.42,5.99,4.85,11.97,7.43,17.89,1.05,2.41,2.91,4.7,1.99,7.66Z"/>
  <path class="cls-28" d="M851.86,633.69c-.55-.79-1.36-.95-2.25-.95-7.69,0-15.37,.01-23.06-.02-1.19,0-2.22,.4-3.26,.87-1.17-1.69,.04-2.99,.75-4.33,7.02-13.18,12.94-26.85,18.47-40.7,.65-1.64,.71-3.8,3.07-4.23,7.65,.02,15.31,.08,22.96,.03,2.04-.01,3.32,.48,3.19,2.79-1.2,5.5-3.59,10.57-5.63,15.76-3.57,9.08-7.58,17.98-11.8,26.77-.68,1.41-1.19,2.94-2.44,4.01Z"/>
  <path class="cls-73" d="M755.75,115.61c-4.17-2.09-6.91-5.91-10.44-8.78-5.3-4.3-10.43-8.82-15.81-13.03-.77-.6-1.36-1.45-2.04-2.18,12.36-5.72,25.07-10.57,38.46-16.13-2.7,14.06-6.52,27.07-10.17,40.12Z"/>
  <path class="cls-52" d="M348.56,869.27c.75-.61,.83-1.46,.81-2.33-.11-6.88,1.54-13.54,2.38-20.3,.35-2.81,.68-5.64,1.05-8.45-1.95-4.07-.11-7.9,.72-11.79,.76-1.06,.83-3.18,2.73-2.64,1.51,.43,1.82,2.17,1.85,3.62,.12,5.64-1.24,11.12-1.99,16.67-.97,7.12-1.78,14.26-2.9,21.36-.24,1.52-.5,3.12,.19,4.98,2.56-.91,4.29-2.82,6.08-4.6,9.38-9.33,18.73-18.68,28.06-28.06,2.25-2.26,4.68-4.26,7.42-5.86,1.2-.7,2.46-1.76,3.84-.27,.52,1.45-.33,2.48-1.22,3.36-3.71,3.65-7.04,7.7-11.26,10.82-3.3,1.56-5.38,4.43-7.62,7.12-5.37,5-9.81,10.91-15.51,15.59-3.19,3.78-7.36,6.6-10.4,10.56-1.54,2.01-3.42,3.77-5.61,6.14-1.14-5.86,.2-10.88,1.37-15.9Z"/>
  <path class="cls-74" d="M201.59,524.5c-10.15,1.76-20.15,4.11-30.12,6.72-13,3.41-26.08,6.53-39.13,9.75-.96,.24-1.98,.24-2.98,.36-.8-1.32,.52-.95,.96-1.12,8.61-3.19,17.51-5.37,26.4-7.6,6.53-1.64,12.98-3.55,19.37-5.68,1.78-.59,3.3-1.35,3.7-3.18,.98-4.55,4.76-6.61,7.97-9.13,1.25-.98,2.65-1.87,3.5-3.14,2.94-4.41,6.97-7.57,11.33-10.36,4.64-2.97,7.66-7.65,11.86-11.09,1.99-1.63,3.59-3.71,5.9-4.98,.62-.34,1.4-.72,1.69-1.29,1.93-3.83,5.87-5.26,8.85-7.83,3.21-2.78,6.1-5.92,9.58-8.47,8.11-5.93,15.28-12.96,22.64-19.78,8.44-7.82,16.26-16.25,24.76-23.97,7.74-7.04,15.35-14.23,23.07-21.29,8.43-7.72,17.11-15.18,26.14-22.25,10.04-7.86,20.28-15.41,30.73-22.7,1.33-.93,1.94-1.91,1.39-3.48,3.15-.98,6.3-1.96,9.44-2.94,.31,.29,.51,.64,.59,1.06-.12,2.5-1.86,4.02-3.39,5.68-1.84,1.52-3.12,3.76-5.65,4.39-1.51,.06-2.71,.78-3.85,1.72-12.07,9.98-23.98,20.15-35.71,30.52-17.64,15.61-34.61,31.96-51.86,48-13.4,12.47-25.19,26.38-38.08,39.28-12.3,12.3-24.78,24.41-36.02,37.72-1.32,1.56-2.52,3.12-3.11,5.09Z"/>
  <path class="cls-56" d="M40.33,523.11c1.1-2.36,2.22-4.69,5.17-5.21-.73,2.72-2.43,4.48-5.17,5.21Z"/>
  <path class="cls-56" d="M45.48,517.93c.28-.28,.57-.56,.85-.84-.28,.28-.57,.56-.85,.84Z"/>
  <path class="cls-12" d="M549.74,165.74c22.14-8.41,44.03-17.44,65.81-26.73,27.07-11.55,54.06-23.3,81.3-34.43,.65-.27,1.25-.67,1.87-1.02,7.27,4.59,13.79,10.18,20.54,15.46,7.33,5.74,13.99,12.26,21.16,18.18,1.86,2.98,5.03,4.77,6.94,7.71,1.11,1.72,.23,3.35-.29,4.95-9.05,27.72-18.04,55.46-26.9,83.24-6.67,20.94-13.32,41.89-19.34,63.02-.32,1.11-.6,2.22-1.21,3.22-2.06,2.36-3.16,.6-4.1-1.07-1.75-3.09-2.75-6.51-4.19-9.74-9.27-19.59-18.47-39.21-27.92-58.71-4-8.26-7.68-16.67-11.99-24.76-1.69-1.72-3.96-2.26-6.13-2.98-30.88-10.26-61.08-22.47-91.97-32.7-.95-.32-1.88-.7-2.71-1.29-.71-.63-1.33-1.3-.86-2.36Z"/>
  <path class="cls-64" d="M193.91,616.17c2.52-5.44,5.02-10.88,7.58-16.3,8.03-17.07,16.2-34.08,25.13-50.71-.25-.78,.18-1.18,.82-1.45,4,.27,6.84,2.96,10.07,4.85,7.41,4.65,14.77,9.38,21.83,14.56,7.01,5.42,14.83,9.71,21.68,15.35,1.19,.98,2.79,1.57,3.05,3.38-2.08,3.96-5.98,6.43-8.34,10.17-1.79,1.56-3.17,3.47-4.54,5.39-5.32,6.16-9.72,13.03-14.77,19.39-1.18,1.49-1.99,3.6-4.51,3.33-3.44-1.64-2.89-4.58-2.34-7.44,.3-1.54,1.01-3,1.31-4.53,.22-1.1,.4-2.46-.39-3.34-1.27-1.41-1.09-3.2-1.69-5.21-1.76,1.51-2.95,1.02-4.05-.74-1.83-2.91-3.93-5.64-5.83-8.5-3.3-4.96-7.19-8.94-13.67-9.25-1.11-.05-2.2-.61-3.28-1.02-4.16-1.59-6.14-1.24-7.9,2.69-1.69,3.76-4.43,6.61-6.71,9.87-1.23,1.76-2.28,3.65-3.27,5.56-2.05,3.95-3.97,7.96-6.31,11.76-.77,1.25-1.49,2.52-2.71,3.28-1.05,.65-.99-.47-1.16-1.08Z"/>
  <path class="cls-71" d="M302.93,686.38c-12.91,7.99-25.79,16.03-38.75,23.95-6.35,3.88-12.5,8.11-19.22,11.36-.61-2.06,1.23-2.59,2.33-3.33,4.25-2.87,8.55-5.65,12.54-8.9,2.82-2.3,5-5.02,6.22-8.48,.39-1.12,.75-2.25-.03-3.27-1.03-1.34-2.04-.03-3.05,.18-.27,.06-.55,.06-1.17,.12-.42-2.79-1.92-5.11-3.81-7.24-1.65-1.85-2.19-4.3-3.22-6.48-.99-2.09-2.07-3.47-4.79-3.3-2.64,.16-2.77-.19-1.94-2.73,.42-1.29-.01-2.23-.55-3.23-1.14-2.12-3.01-3.39-5.16-4.32-.43-2.48,1.75-3.38,3-4.77,2-2.22,4.22-4.24,6.29-6.4,.26-.3,.55-.58,.83-.86,.27-.29,.56-.57,.86-.84,4.28-3.63,7.39-8.55,12.47-11.3,3.42-1.34,6.07-.08,8.5,2.36,2.03,2.05,3.78,4.31,5.47,6.62,1.54,2.11,3.25,4.01,5.56,5.29,1.82,1.01,2.58,2.97,3.86,4.38,4.26,4.66,6.52,11.13,12.59,14.14,3.67,1.82,1.85,4.52,1.17,7.04Z"/>
  <path class="cls-7" d="M252.68,659.5c-2.02,2.96-4.9,5.1-7.28,7.72-1.04,1.15-2.38,2.04-3.08,3.49-1.18,.55-2.17,1.45-2.77,2.51-1.58,2.82-4.12,4.5-6.73,6.14-2.29,2.38-4.96,4.32-7.44,6.47-1.88,1.63-3.9,1.77-4.61-1.03-.8-3.18-2.04-6.25-2.13-9.64-.11-4.24,.68-8,3.9-10.96,.9-.83,1.09-1.98,1.64-2.96,7.54-10.75,15.37-21.29,24.19-31.04,.41,.41,.85,.93,.75,1.48-1.34,7.33,2.02,14.35,1.35,21.63-.22,2.41,.51,4.48,2.2,6.22Z"/>
  <path class="cls-23" d="M252.68,659.5c-3.36-.41-3.43-.41-3.44-3.38-.01-5.44,.12-10.84-1.6-16.17-1.03-3.19,.58-6.49,.73-9.77,1.05-2.09,2.98-3.67,3.52-6.06,3.68-2.63,5.58-6.74,8.36-10.12,2.96-3.61,5.57-7.5,8.34-11.26,.59-.8,1.26-1.54,2.21-1.96,1.32,1.24,1.25,2.88,1.07,4.41-1.02,8.94,.3,18.04-1.98,26.9-.58,2.26,.39,4.21,1.72,5.99,.52,4.72-3.46,6.56-6,9.32-3.21,2.35-5.66,5.51-8.57,8.19-1.14,1.05-2.05,2.36-3.48,3.07-.29,.29-.63,.51-.88,.84h0Z"/>
  <path class="cls-59" d="M224.19,661.23c.1,1.36-.32,2.47-1.29,3.47-3.83,3.95-3.36,8.93-2.79,13.71,.25,2.16,1.51,4.19,1.68,6.54,.11,1.62,1.63,1.5,2.54,.59,1.93-1.91,4.15-3.45,6.21-5.19,.68-.58,1.4-.97,2.29-.99-.99,2.31-2.45,4.15-4.68,5.42-.97,.55-1.76,1.46-2.56,2.27-9.36,9.5-19.82,17.69-30.38,25.77-3.97,3.04-7.82,6.23-12.06,8.9-.98,.61-1.93,1.18-3.15,1.52-.9-1.58,.23-2.57,.89-3.5,5.47-7.85,10.91-15.74,16.56-23.47,7.07-9.69,14.31-19.26,21.53-28.84,1.63-2.16,3.49-4.14,5.24-6.2Z"/>
  <path class="cls-51" d="M385.7,845.14c.2,1.03,1.38,.9,1.87,1.58-1.64,.03-2.97,.61-4.15,1.83-1.48,1.52-2.78,3.27-4.7,4.32,1.15-3.64,4.29-5.49,6.98-7.74Z"/>
  <path class="cls-60" d="M582.29,833.83c.49-.59,1.12-.77,1.86-.68-.46,.66-1.14,.73-1.86,.68Z"/>
  <path class="cls-5" d="M519.36,571.43c-.67,5.4-1.32,10.81-2.01,16.21-1.89,14.67-3.77,29.34-5.69,44.01-1.27,9.68-2.55,19.36-3.98,29.02-.38,2.54,.16,5.21-1.08,7.62-2.52,2.76-1.86,6.36-2.3,9.57-1.88,13.62-3.4,27.29-5.43,40.89-1.11,7.44-4.21,13.58-9.61,18.71-11.03,10.48-21.1,21.87-31.31,33.12-1.53,1.69-3.16,3.33-4.12,5.47-8.71,9.55-18.1,18.44-27.18,27.63-3.43,3.48-6.92,6.89-10.13,10.58-3.11,3.58-6.34,7.06-10.12,9.97-2.98,2.29-4.66,5.84-7.76,8.02-.47-.7-1.07-.95-1.79-.41-2.51,1.89-5.29,3.38-7.55,5.66-9.9,10.02-19.93,19.92-29.83,29.94-1.74,1.76-3.82,3.01-5.67,4.6-1.16,1-2.26,.35-2.13-1.19,.37-4.27,.77-8.54,1.33-12.78,.71-5.37,1.65-10.7,2.38-16.07,.48-3.53,.87-7.07,1.53-10.58,.44-2.37,.71-4.87-.74-7.13-1.11,.11-.66,1.55-1.56,1.81,.36-5.57,1.29-11.06,2.44-16.52,2.44-1.96,1.67-4.97,1.99-7.38,4.33-33.45,10.85-66.58,14.71-100.09,.84-7.26,1.35-14.56,2.39-21.79,5.66-5.66,11.06-11.56,16.44-17.5,14.69-16.22,28.21-33.35,41.38-50.81,15.68-20.8,28.61-43.5,44.61-64.07,7.5-9.65,15.45-18.96,21.79-29.47,2.37-3.46,5.57-6.16,8.53-9.06,4.01-3.92,7.66-8.13,11.17-12.48,.21-.36,.43-.69,.66-1.03,.33-.55,.7-1.08,1.13-1.57,.99-.95,2.01-1.13,3.11-.18,2.91,3.53,2.06,7.75,1.58,11.6-2.38,19.2-4.26,38.45-6.93,57.61-.36,2.61-.94,5.36-.24,8.07Z"/>
  <path class="cls-11" d="M283.79,585.98c-5.17-4.31-10.65-8.18-16.32-11.82-3.01-1.93-6.07-3.84-8.7-6.31-.08-.44-.04-1.05,.31-1.16,4.34-1.37,6.19-4.4,7.44-8.75,1.2-4.18,4.7-7.43,7.11-11.14,1.03-1.59,2.84-2.49,4.75-2.72,2.8-.34,4.07-1.98,4.18-4.59,.36-8.16,3.13-15.39,8.11-21.83,1.64-2.13,2.32-4.43,1.89-7.24-.62-4.09,2.01-7.08,4.33-9.96,1.91-2.38,2.86-5.18,4.27-7.75,6.71-12.21,9.38-26.29,17.1-37.84,5.23-7.82,8.16-16.67,13.02-24.5,4.77-7.68,8.55-15.9,13.7-23.35,4.49-6.5,8.16-13.52,12.51-20.12,2.61-3.96,5.1-8,7.87-11.84,3.99-5.54,8.86-10.56,9.89-17.73,1.17-1.7,2.34-3.4,3.51-5.11,.48-.64,.46-1.27-.07-1.87,2.64-3.1,5.4-6.07,8.65-8.55,1.9,2.29,1.17,4.92,.85,7.44-1.89,14.69-4.49,29.27-6.18,43.99-.96,8.42-.84,16.93-2.31,25.31-.19,1.1-.35,2.6,.96,3.01,1.2,.38,1.69-1,1.89-1.89,3.13-14.09,12.12-25.33,18.46-37.85,2.43-4.79,3.59-9.91,3.06-15.02-1.04-10.06-.51-20.11-.62-30.17-.04-3.67-.4-7.15-2.29-10.35,2.52-3.5,5.7-6.43,8.54-9.63,5.32-6,10.9-11.77,16.03-17.95,2.65-3.19,6-5.67,8.85-8.69,4.84-5.1,9.65-10.26,14.24-15.55,5.83-6.73,12.84-12.33,18.15-19.52,1.09-1.47,2.41-2.87,4.09-3.79,3.04-1.2,4.5-4.33,7.27-5.89,1.36-.77,2.53-1.89,3.99-2.53,1.05-.46,2.22-1.15,3.25-.33,1.3,1.04,.51,2.37,.02,3.54-1.76,4.27-4.6,7.95-6.56,12.11-.13,.38-.29,.74-.45,1.1-.21,.56-.42,1.11-.62,1.67-2.94,7.13-8.06,13.01-11.41,19.9-1.64,2.66-3.15,5.41-5.41,7.64-3.23,3.14-5.39,7.05-7.65,10.86-2.54,4.28-5.77,7.65-10.01,10.39-6.48,4.2-12.62,8.9-18.23,14.31-10.23,9.87-13.15,22.52-14.28,35.89-.36,4.27-1.27,8.51-1.03,12.83-.28,2.1-1,4.06-1.88,5.97-.26,.55-.54,1.09-.82,1.64-.16,.37-.35,.73-.55,1.08-4.04,6.97-9.61,13.1-11.62,21.18,5.71-6.52,9.92-13.99,13.9-21.6,5.96-9.57,11.31-19.52,17.75-28.78,1.22-1.76,2.02-4.2,4.78-4.35,1.51,2.23,.23,4.1-.8,5.98-13.1,24.14-28.07,47.14-42.6,70.41-14.61,23.4-28.66,47.14-43.21,70.57-12.65,20.39-25.54,40.63-38.04,61.12-6.23,10.21-11.64,20.82-15.23,32.28-.31,.98-.69,1.89-1.6,2.48-3.36,.19-5.2-1.69-6.26-4.62Z"/>
  <path class="cls-37" d="M401.16,326.26c3.57,.67,3.23,3.76,3.37,6.11,.29,5.02,0,10.07,.12,15.1,.15,6.01-.15,11.99,.65,18.04,.73,5.49-.32,11.02-2.87,16.24-3.23,6.6-7.31,12.67-10.89,19.05-2.94,5.25-5.52,10.67-6.88,16.6-.51,2.21-1.04,4.51-2.77,6.21-.82,.81-1.7,1.24-2.4-.11-.84-1.62-1.84-3.05-1.16-5.22,1.21-3.84,1.08-7.9,1.36-11.9,.35-4.82,.94-9.66,1.32-14.48,.59-7.28,2.02-14.42,2.92-21.64,.88-7.07,2.04-14.11,3.16-21.15,.39-2.44,.13-4.88,.25-7.31,.08-.42,.02-1,.28-1.24,4.78-4.52,8.19-10.33,13.54-14.3Z"/>
  <path class="cls-54" d="M478,258.92c-.03-2.94,2.08-4.91,3.41-7.18,1.58-2.71,2.83-5.54,4.5-8.67-2.56-.31-4.12,.9-5.61,1.99-2.4,1.77-4.8,3.55-6.8,5.8-.66,.75-1.47,1.53-2.43,.27,4.07-6.45,9.26-11.95,14.43-17.52,6.81-7.33,13.31-14.94,19.98-22.4,2.57-2.88,5.27-5.63,7.78-8.59,4.99-5.88,10.38-11.42,15.6-17.1,.1-.1,.31-.16,.33-.26,.55-3.61,4.16-4.35,6.23-6.53,2.27-2.4,4.1-5.16,6.46-7.46,.92-.89,1.89-1.83,2.49-2.93,1.21-2.22,2.99-2.95,5.36-2.62,.27,.54,.55,1.08,.82,1.62-13.63,19.52-27.15,39.12-41.05,58.44-2.93,4.08-5.44,8.45-8.61,12.36-1.04,1.28-1.79,3.07-3.96,2.78-.89-4.16,1.93-6.98,3.86-10,2.54-3.97,5.38-7.75,8.16-12.71-10.35,12.47-19.28,24.76-27.24,37.75-.83,1.36-1.46,3.27-3.72,2.95Z"/>
  <path class="cls-67" d="M378.7,350.35c1.39,.57,.89,1.21,.07,1.87-.04-.4-.07-.79-.11-1.19-.06-.23-.05-.46,.04-.68Z"/>
  <path class="cls-43" d="M201.59,524.5c-.24-.57-1.48-.64-.84-1.65,.54-.85,1.02-1.75,1.67-2.5,2.74-3.12,5.58-6.16,8.32-9.29,10.99-12.56,23.49-23.67,34.87-35.85,8.52-9.12,16.6-18.68,25.73-27.19,7.05-6.56,13.76-13.46,20.82-19.99,7.79-7.21,15.5-14.51,23.39-21.6,8.08-7.27,16.26-14.45,24.55-21.51,6.76-5.75,13.54-11.48,20.21-17.35,2.04-1.8,4.26-3.37,6.27-5.23,.85-.78,2.14-2.33,3.6-.52-.37,3.06-2.77,4.86-4.58,6.93-2.69,3.08-4.7,6.79-8.14,9.2-7.44,4.15-12.51,10.89-18.25,16.88-1.69,1.76-3.29,3.56-5.19,5.13-6.96,5.76-13.11,12.37-19.42,18.82-10.24,10.48-20.21,21.23-31.31,30.83-1.31,1.13-2.52,2.35-3.72,3.59-15.2,15.69-31.46,30.26-47.23,45.36-7.87,7.54-16.21,14.6-23.78,22.46-1.82,1.63-3.56,3.37-6.13,3.78-.28-.11-.56-.21-.84-.32Z"/>
  <path class="cls-16" d="M237.16,553.23c-3.15-1.73-6.29-3.46-9.44-5.19-.92-.28-1.87-.47-2.78-.77-.91-1.92-3.13-2.51-4.24-4.23,3.24-4.16,5.62-9.03,10.14-12.12,6.23-1.87,10.57-6.38,14.41-11.15,12.47-15.48,25.37-30.63,36.59-47.09,1.4-2.05,2.34-4.26,2.81-6.68,.77-2.5,2.04-4.77,3.79-6.68,7.05-7.71,13.25-16.12,19.94-24.13,7.51-8.99,14.69-18.27,22.5-27.02,1.08-1.21,1.77-3.12,4.01-2.54,1.58,2.64-.04,4.71-1.37,6.7-5.42,8.13-10.63,16.45-16.77,24.01-11,13.56-19.88,28.48-29.04,43.24-3.41,5.49-6.93,10.91-10.79,16.1-3.86,5.18-7.72,10.33-10.67,16.14-5.48,10.79-13.13,20.1-20.69,29.45-.64,.8-1.22,1.68-1.37,2.66-.68,4.38-3.55,7.04-7.01,9.28Z"/>
  <path class="cls-63" d="M231.07,531.72c-3.06,2.83-5.55,6.12-7.83,9.59-.61,.93-1.02,2.15-2.54,1.75-6.09-6.08-12.18-12.16-18.27-18.23,1.3-2.05,3.84-2.53,5.38-4.27,14.62-9.84,28.84-20.23,42.98-30.75,2.5-1.86,4.95-3.95,8.15-4.66,2.49-.07,4.73,.65,6.71,2.14,1.17,1.74,0,3.04-.97,4.22-4.87,5.84-9.38,11.96-14.32,17.75-4.83,5.66-8.93,11.92-14.18,17.25-1.7,1.73-3.11,3.75-5.1,5.21Z"/>
  <path class="cls-39" d="M224.94,547.28c1.24-.87,2-.02,2.78,.77-.37,.37-.74,.74-1.11,1.11-.56-.63-1.12-1.25-1.68-1.88Z"/>
  <path class="cls-61" d="M237.16,553.23c0-1.11,.49-2.13,1.4-2.53,3.04-1.33,3.85-4,4.5-6.83,.47-2.02,1.29-3.77,3.32-4.76,1.04-.51,1.61-1.58,2.21-2.58,2.37-3.91,4.7-7.8,7.98-11.14,3.94-4.02,6.26-9.26,8.84-14.18,2.75-5.25,6.06-10.04,9.62-14.73,6.07-8,11.23-16.62,16.5-25.15,4.9-7.93,9.76-15.88,15.13-23.5,4.78-6.78,10.33-12.99,14.94-19.91,3.73-5.61,7.57-11.14,11.43-16.66,1.21-1.73,1.88-3.53,1.64-5.64-.61-2.32,.89-3.99,2.21-5.29,6.75-6.64,11.27-15.19,18.46-21.44,.64-.56,1.14-1.27,1.95-1.64,4.3-5.14,8.59-10.27,12.89-15.41,1.7-1.5,3.39-3,5.09-4.5,.63,4.41-1.03,7.83-3.74,11.35-8.56,11.12-16.13,22.94-23.02,35.18-1.19,2.11-2.97,3.87-4.18,5.96-4.01,6.91-7.39,14.17-12.06,20.71-1.13,1.59-1.68,3.63-2.34,5.52-.53,1.51-1.04,3-2.39,3.98-1.74,1.27-1.67,3.35-2.01,5.06-.42,2.08-1.19,3.99-2.56,5.33-5.33,5.22-7.53,12.12-10.37,18.65-1.6,3.67-2.91,7.47-4.73,11.06-.84,1.66-1.46,3.42-1.66,5.3-.07,.71,0,1.74-.42,2.05-4.57,3.38-3.33,10.11-7.98,13.55-1.61,1.19-2.42,3.5-3.52,5.34-.92,1.53-1.3,3.11-.53,4.91,.64,1.5,.62,3.08-.51,4.47-1.99,2.45-3.12,5.46-5.18,7.89-1.38,1.63-2.23,3.62-2.65,5.8-.65,3.36-1.79,6.63-1.65,10.12,.07,1.67-.62,3.05-1.51,4.39-.99,1.5-2.45,.81-3.74,1.11-2.04,.47-4.54,1.12-4.73,4.02-.04,.65-.25,1.24-.72,1.46-2.46,1.14-2.9,3.69-4.25,5.63-1.44,2.08-2.61,3.95-2.4,6.62,.18,2.18-1.73,2.86-3.38,3.29-1.53,.4-3.12,.51-4.26,1.78-7.2-4.88-14.41-9.75-21.61-14.63Z"/>
  <path class="cls-8" d="M497.02,240.82c2.38-1.31,3.5-3.77,4.95-5.83,10.8-15.28,21.44-30.68,32.17-46.01,4.67-6.67,9.45-13.26,14.15-19.9,.59-.84,1.13-1.67,2.28-1.73,11,3.25,21.7,7.38,32.48,11.26,21.85,7.86,43.55,16.12,65.61,23.39,1.48,.49,3.08,.87,3.69,2.62,1.46,4.9-2.34,7.54-4.66,10.8-4.13,5.79-9.72,10.32-13.93,16.04-3.31,4.49-7.9,7.48-12.36,10.61-1.29,.91-2.89,1.26-4.48,1.45-6.55-.41-12.52-3.12-18.72-4.87-15.64-4.41-31.25-8.93-46.82-13.55-4.08-1.21-6.97-.93-9.66,2.84-2.82,3.96-6.85,6.96-10.14,10.57-4.28,4.69-4.41,5.78-1.57,11.44,8.84,17.6,17.31,35.4,27.08,52.52,.78,1.37,1.5,2.79,1.93,4.32,.76,5.01-2.15,8.58-5.14,11.83-10.32,11.2-20.35,22.7-31.06,33.51-10.22,10.32-19.35,21.58-29.29,32.12-1.88,1.99-3.78,3.95-6.08,5.47-1.12,.82-2.11,1.77-2.93,2.9-7.48,8.63-14.23,17.87-22.9,25.48-6.99,6.13-12.39,13.84-18.71,20.66-1.86,2-3.59,4.06-5.83,5.64-3.66,2.86-6.59,6.53-9.23,10.18-6.29,8.7-14.49,15.5-21.84,23.11-4.9,5.07-8.95,10.83-13.81,15.93-4.46,4.68-8.69,9.52-13.75,13.59-1.45,1.16-2.86,2.48-3.78,4.11-5.18,9.15-12.98,16.01-20.27,23.33-1.73,1.74-3.42,3.49-4.18,5.92-.87,1.95-2.5,3.28-3.9,4.81-5.29,5.23-10.49,10.48-14.69,16.76-3.98,5.95-10.47,9.67-14.94,15.33-3.09,3.92-6.82,7.37-9.8,11.38-3.64,4.9-7.82,7.44-13.96,5.15-1.74-.59-3.48-1.18-3.12-3.6,2.57-8.53,5.99-16.72,10.18-24.58,3.77-7.09,8.06-13.88,12.29-20.7,9.21-14.86,18.44-29.7,27.67-44.55,7.79-12.54,15.79-24.94,23.3-37.64,5.32-9,10.94-17.81,16.29-26.79,5.65-9.47,11.65-18.74,17.46-28.12,6.11-9.87,11.88-19.96,18.36-29.57,5.56-8.24,9.25-17.49,14.83-25.67,1.01-1.49,1.37-3.14,1.2-4.92-.72-2.15,.9-3.48,1.82-5.03,8.86-14.97,18.47-29.47,27.55-44.31,1.28-2.08,2.18-4.38,3.68-6.33,8.82-12.06,15.65-25.35,23.44-38.05,1.95-3.18,3.82-6.4,5.75-9.59,.87-1.44,1.54-3.13,3.4-3.69Z"/>
  <path class="cls-19" d="M349.36,540.35c.23-2.13,1.48-3.66,2.94-5.1,2.66-2.61,5.2-5.36,7.94-7.89,4.97-4.6,9.33-9.69,12.78-15.53,1.64-2.78,3.9-5.03,6.36-6.94,7.77-6.03,13.61-13.82,19.85-21.24,1.01-1.2,1.97-2.45,3.08-3.56,4.34-4.33,8.33-8.98,12.96-13.04,6.37-5.58,11.05-12.7,16.62-19.02,1.42-1.6,2.78-3.29,4.68-4.39,4.2-1.3,6.19-5.19,9.08-7.98,2.66-2.58,5.38-5.15,7.75-8.06,1.91-2.35,4.9-2.88,7.66-3.67,1.52-.43,3.09-.62,3.84-2.38,.93-2.2,1.52-5.03,5.07-3.47,.46,.2,.65,.24,.47-.47-.87-3.47,1.79-3.37,3.85-3.47,3.73-.18,7.14-.66,9.24-4.33,.65-1.14,2.07-1.48,3.31-1.89,3.07-1.01,5.87-2.27,7.18-5.62,.55-1.39,1.94-2.43,3.38-2.37,6.16,.27,9.92-4.13,14.4-7.12,.47-.32-.17-.2,.31-.26,5.17-.69,8.69-5.08,13.7-6.07,.98-.19,2.4,.07,2.81-.79,2.03-4.27,6.61-3.46,9.9-5.18,.88-.46,2.03-.91,2.92-.53,6.03,2.56,10.58-1.41,15.57-3.41,.79-.32,1.55-1.08,2.38-.88,2.71,.66,4.64,.02,5.99-2.58,.54-1.04,1.92-1.15,3.1-1.19,7.9-.25,14.39-3.76,20.91-7.99,3.49-2.26,6.93-6.55,12.3-4.43,.62,.24,1.66,.11,1.44-.96-.7-3.46,1.72-3.73,4.05-4.16,.74-.14,1.5-.5,1.71-1.18,1.23-3.98,4.6-4.56,7.99-5.53,4.9-1.4,7.41-7.16,5.62-11.91-.45-1.18-1.55-2.13-1.34-3.56,6.42-5.11,12.08-10.97,17.4-17.21,2.57-3.01,2.73-5.97,1.32-9.54-4.28-10.81-8.41-21.68-12.53-32.55-.64-1.68-1.93-3.29-1.09-5.3,2.74-.77,3.43,1.61,4.44,3.13,3.43,5.18,5.44,11.08,7.98,16.71,1.72,3.8,3.54,7.55,5.57,11.19,1.08,1.94,2.35,2.9,4.37,1.01,2.65-2.47,7.1-.78,9.45-4.01,3.74,3.16,6.51-.45,9.79-1.1,2.84-.57,4.79-.43,5.77-3.92,.69-2.47,3.11-1.08,4.62,.06,1.95,1.47,2.92,.86,3.87-1.21,2.91-6.4,2.98-6.37,8.44-1.93,.45,.37,.97,.61,1.54,.75,2.19,3.24,3.06,7.07,4.71,10.56,.61,1.28,1.18,1.42,2.12,.42-.28,4.87-3.32,8.11-6.86,10.82-1.61,1.23-2.96,2.6-4.28,4.06-3.88,1.24-6.63,4.22-9.6,6.68-22.65,18.75-46.35,36.15-69.5,54.27-6.09,4.77-12.37,9.33-17.98,14.69-11.78,9.67-23.91,18.89-36.25,27.83-17.55,12.72-34.57,26.17-52.62,38.21-2.15,1.43-4.2,3.01-6.1,4.77-6.88,4.83-12.92,10.88-20.74,14.35-8.58,2.88-16.04,7.77-23,13.35-17.47,14.03-35.15,27.78-52.64,41.78-24.35,19.48-49.24,38.24-74.12,57.02-6.51,4.92-13.07,9.91-20.82,12.89-1.07,.41-2.17,.77-3.35,.77-3.95-1.19-6.72-3.61-7.88-7.67,.29-.02,.62-.14,.85-.04,5.54,2.44,8.78-.79,11.89-4.66,2.85-3.55,5.75-7.08,8.88-10.38,3.81-4.02,7.15-8.48,11.67-11.85,2.86-2.13,4.9-5.13,6.83-8.18,3.32-5.24,7.97-9.29,12.61-13.32,4.21-.59,5.2-1.82,3.45-4.32Z"/>
  <path class="cls-6" d="M692.08,288.31c-.79,1.02-1.73,.98-2.59,.2-.51-.46-.78-1.19-1.23-1.73-1.98-2.41-2.96-2.31-4.25,.49-.48,1.03-.79,2.15-1.18,3.22-1.26,3.41-2.08,3.67-4.73,1.48-3.25-2.68-3.48-2.64-4.13,1.35-.31,1.89-1.01,2.8-3.12,2.46-5.08-.83-5.17-.72-7.14,4.38-1.77-.47-2.65-2.06-3.89-3.14-1.11-.97-2.01-.93-2.85,.29-.49,.7-.96,1.42-1.51,2.07-.36,.42-1.04,1.03-1.45,.69-3.12-2.64-4.49,.3-6.24,1.89-1.34,1.21-2.21,.76-3.09-.57-2.77-4.2-4.82-8.77-6.92-13.31-2.76-5.96-4.81-12.25-8.55-17.74-.74-1.08-1.45-2.12-2.62-2.77-1.11-.21-1.75-1-2.15-1.93-2.94-6.84-5.66-13.78-7.91-20.88-.22-.69-.17-1.42,.21-2.07,2.76-.47,5.01-1.88,7.19-3.58,4.18-3.26,8.39-6.47,11.12-11.15,.82-1.4,1.85-2.69,3.15-3.48,2.41-1.47,4.44-3.02,4.82-6.06,.14-1.1,1.29-1.42,2.05-2.06,3.7-3.1,6.61-6.72,7.29-11.71,2.6,3.79,4.13,8.12,6.09,12.23,10.67,22.34,21.27,44.73,31.86,67.11,.67,1.41,1.59,2.73,1.76,4.35Z"/>
  <path class="cls-15" d="M350.03,659.57c-1.72-.49-3.02,.59-4.4,1.23-6.99,3.26-13.33,7.62-19.8,11.77-2.39,1.53-4.61,3.34-7.32,4.33-2.2,0-1.21-1.46-.91-2.3,.62-1.75,1.8-3.25,2.39-5.05,.78-2.37,.78-4.72-1.11-6.42-4.06-3.65-6.3-8.52-9.21-12.94-1.95-2.96-4.37-5.25-7.63-6.74-5.51-2.51-9.52-7.36-15.15-9.79-1.77-.76-2.31-3.2-3.35-4.91,1.18-4.8,5.06-7.6,8.15-10.99,1-.95,1.98-1.91,2.93-2.91,3.82-3.13,6.24-7.56,9.93-10.81,2.34,.48,3.28,2.6,4.69,4.11,6.01,6.44,11.44,13.39,17.3,19.96,6.8,8.08,13.37,16.35,20.26,24.35,1.03,1.19,2.08,2.35,2.96,3.66,.56,.79,1.21,1.53,1.54,2.47,.08,.39,.02,.76-.18,1.11-.38,.14-.75,.1-1.09-.11Z"/>
  <path class="cls-47" d="M283.74,628.4c2.39,3.84,6.42,5.55,9.94,8.01,3.51,2.46,6.76,5.24,10.69,7.09,4.74,2.23,6.75,6.89,9.21,11.03,1.26,2.12,2.51,4.13,4.28,5.87,4.83,4.75,5.04,7.29,1.41,13.23-.59,.97-2.12,1.81-.75,3.26-5.05,3.4-10.08,6.82-15.58,9.48-1-.7-.36-1.59-.18-2.33,.54-2.27,.34-3.38-2.5-4.12-3.44-.91-4.76-4.72-6.85-7.4-.25-.31-.26-.81-.37-1.23-.68-2.67-5.16-1.64-4.98-5.24,.17-3.39-2.91-3.85-4.98-5.24-2.57-1.72-4-4.48-5.85-6.84-.98-1.24-2.01-2.42-3.02-3.63-2.29-2.74-4.89-4.4-8.6-2.95,.18-2.28,2.27-3.17,3.42-4.74,.92-1.26,1.79-2.57,2.68-3.85,3.17-4.44,6.17-9.07,12.02-10.41Z"/>
  <path class="cls-53" d="M357.35,665.62c-2.02-1.55-4.06-3.08-5.52-5.22,.07-.19,.14-.39,.2-.58,5.5-7.76,13.38-13.24,19.4-20.57,4.79-5.84,10.81-10.6,16.82-15.24,2.32-.65,5.04-3.16,6.94-.52,1.95,2.73-.83,4.93-2.64,6.82-1.97,2.06-3.77,4.21-5.18,6.68-3.31,5.27-7.98,9.33-12.55,13.36-4.07,3.6-7.89,7.42-11.77,11.2-.27,.3-.55,.58-.84,.86-.14,.14-.29,.28-.43,.42-1.41,1.03-2.29,2.92-4.42,2.79Z"/>
  <path class="cls-17" d="M377.01,679.37c0,5.59-1.15,11.07-1.51,16.61-.4,6.14-1.3,12.2-2,18.3-.76,6.65-1.83,13.27-2.83,19.9-1.02,6.76-2.09,13.52-3.18,20.27-1.31,8.16-2.69,16.31-3.97,24.48-.77,4.93-1.38,9.88-2.08,14.82-.77,5.5-1.41,11.03-2.66,16.46-.18,.8-.64,1.54-1.01,2.4-.98-1.03-.42-2.12-.73-3.03,.49-8.31,1.95-16.51,3.07-24.74,2.35-17.33,4.91-34.64,7.34-51.96,2.23-15.9,4.42-31.81,6.63-47.72,.26-1.85,.5-3.7,.32-5.57,.04-1.28-.21-2.71,1.63-3.01,.97,.7,1.5,1.56,.96,2.79Z"/>
  <path class="cls-21" d="M376.03,676.59c-.54,1-1.08,1.99-1.62,2.99-5.76-4.57-11.94-8.62-17.06-13.97,1.49-1.03,2.4-2.75,4.11-3.53,2.51,6.03,2.66,6.2,7.9,1.74,4.8-4.08,8.9-8.91,12.77-13.87,5.12-6.56,10.76-12.66,16.12-19,1.17-1.38,2.65-3.39,3.72,.18-.73,4.42-3.7,7.72-5.9,11.37-6.51,10.83-13.4,21.44-18.9,32.85-.25,.53-.63,.95-1.15,1.24Z"/>
  <path class="cls-76" d="M350.03,659.57c.35-.04,.71-.08,1.06-.12,.23,.23,.3,.45,.21,.66-.09,.21-.18,.31-.26,.31-.51-.08-.81-.4-1.01-.85Z"/>
  <path class="cls-38" d="M351.04,660.42c.02-.32,.04-.64,.06-.97,0,0-.05,.03-.05,.03,.8-.16,1.21,.04,.9,.94,0,0-.12-.03-.12-.03,0,0-.39,.13-.39,.13l-.4-.11Z"/>
  <path class="cls-48" d="M283.74,628.4c-3.38,1.84-5.87,4.72-8.58,7.35-1.1,1.07-2.29,2.04-3.44,3.06-2.53-1.26-3.99-3.47-3.29-6.03,1.14-4.16,1.26-8.43,1.91-12.63,.31-1.99,.1-4.11-.13-5.81-.62-4.64,1.21-9.04,.6-13.57,.88-2.15,2.31-3.87,4.16-5.25,1.99,.57,2.51,2.52,3.65,3.89,4.32,6.43,8.61,12.88,13.81,18.66-2.9,3.44-5.79,6.88-8.69,10.32Z"/>
  <path class="cls-32" d="M277.78,599.85c-.94-1.44-1.88-2.88-2.81-4.32,2.56-3.54,5.37-6.85,8.83-9.55,2.15,1.26,3.33,3.86,6.01,4.39,1.1,.94,1.55,2.68,3.37,2.74,2.65,2.2,4.48,5.31,7.67,6.92,1.38,1.36,4.16,1.53,3.73,4.42-2.4,4.36-5.89,7.79-9.5,11.12-2.06,1.05-3.18-.53-4.37-1.66-3.39-3.23-6.71-6.53-9.42-10.39-.97-1.38-2.05-2.72-3.51-3.67Z"/>
  <path class="cls-7" d="M252.69,659.5c.29-.28,.59-.56,.88-.84-.29,.28-.59,.56-.88,.84Z"/>
  <path class="cls-9" d="M349.44,656.88c-6.62-6.81-12.09-14.59-18.32-21.72-1.88-2.15-4.22-3.94-5.37-6.67,.64-.53,1.33-.42,2.02-.16q4.99,1.83,7.98-2.62c.81-1.2,1.53-2.43,2.08-3.77,2.82-6.88,8.39-11.41,13.75-16.12,.43-.38,.05,.21,.34-.24,2.45-3.88,6.85-5.95,9.46-9.33,4.25-5.51,10.17-8.86,14.88-13.65,.4-.41,.91-.83,1.45-.9,6.33-.84,11.02-5.02,16.22-8.07,5.32-3.13,9.94-7.3,14.48-11.47,2.3-2.1,4.57-3.87,7.75-4.26,1.42-.17,2.93-.51,4.04-1.42,5.96-4.9,12.9-8.43,18.73-13.5,.22-.19,.39-.45,.66-.55,11.01-3.76,17.45-13.93,27.25-19.38,.5-.28,1.1-.6,1.32-1.09,2.59-5.83,7.56-8.34,13.22-10.58,5.31-2.1,9.37-6.59,14.42-9.38,2.04-1.13,3.09-2.82,2.46-5.39-.79-3.19,.95-5.54,3.9-5.38,10.98,.57,18.21-6.59,25.67-12.55,12.83-10.26,22.93-23.31,33.79-35.55,.72-.81,1.38-1.74,1.73-2.85-2.73,4.04-5.82,7.78-9.23,11.26-5.92,6.05-13.12,9.92-21.28,11.6-9.02,1.85-17.98,3.91-26.95,5.97-1.53,.35-3.08,.89-4.57-.18,.13-3.15,2.84-3.16,4.84-3.78,8.51-2.64,17.22-4.51,25.85-6.69,7.57-1.92,13.46-6.17,18.48-11.95,9.43-10.86,16.96-23.18,26.44-34,9.5-10.85,19.96-20.63,31.23-29.56,4.61-3.65,9.12-7.46,14.14-10.58,1.22-.76,2.4-1.6,3.76-2.09,2.77-.99,3.94-.15,3.41,2.7-.32,1.72-.58,3.38-.38,5.11-4.77,6.29-10.34,11.88-15.61,17.73-7.2,7.98-14.26,16.07-21.54,23.96-3.31,3.58-6.45,7.33-9.9,10.75-3.16,3.13-5.56,6.94-9.04,9.75-3.67,1.81-5.7,5.43-8.58,8.1-11.85,10.98-23.58,22.13-33.79,34.73-8.12,9.07-17,17.38-25.6,25.97-8.09,8.08-15.87,16.49-24.45,24.09-.33,.24-.67,.45-1.02,.66-.34,.23-.69,.43-1.04,.64-6.82,5.5-13.27,11.45-19.54,17.52-8.35,8.1-17.05,15.83-25.23,24.11-15.14,15.33-31.08,29.82-46.87,44.47-6.63,6.15-12.02,13.51-18.18,20.13-4.29,4.61-8.75,9.06-12.54,14.14-1.46,1.96-3.81,3.63-6.74,2.06Z"/>
  <path class="cls-40" d="M629.11,378.09c-1.54-.76-2.05-1.86-1.32-3.52,.49-1.13,1.56-2.15,.85-3.88-1.9-.19-3.42,.99-4.84,1.98-8.81,6.14-17.28,12.7-25.32,19.86-4.83,4.3-9.47,8.78-14.03,13.35-7.4,7.42-13.82,15.68-19.89,24.19-4.58,6.41-9.19,12.82-14.49,18.62-4.76,5.21-10.48,9.17-17.72,10.75-8.79,1.93-17.46,4.44-26.17,6.71-1.81,.47-3.53,1.18-4.88,2.55-3.25,3.32-8.2,4.64-11.51,3.08-.27-2.83,2.09-3.06,3.85-3.81,10.07-4.29,20.7-6.89,31.14-10.01,10.78-3.23,19.23-9.89,26.23-18.07,6.69-7.82,12.95-16.1,18.9-24.54,6.52-9.24,15.01-16.56,23.04-24.33,.5-.49,1.22-.76,1.44-1.52,.53-.24-.32-.91,0-.43,.06,.09,0,.13-.11,.23-1.4,1.38-2.77,1.09-4.13-.06,3.04-4.35,7.77-6.76,11.77-9.97,12.07-9.66,24.56-18.81,36.62-28.48,8.16-6.54,16.62-12.68,24.94-19,5.7-4.33,11.02-9.15,16.53-13.72,1.54-1.28,3.11-2.55,4.8-3.62,.82-.52,1.84-1.74,2.96-.27-6.97,7.59-14.14,14.98-20.81,22.85-2.87,3.39-6.13,6.41-9,9.83-4.15,4.93-8.78,9.45-13.12,14.23-3.75,4.13-7.36,8.39-11.09,12.55-1.43,1.6-2.79,3.29-4.64,4.46Z"/>
  <path class="cls-25" d="M453.82,776.05c-.57-2.85,1.66-4.42,3.15-6.05,10.33-11.37,20.44-22.95,31.66-33.47,5.61-5.25,8.43-11.63,9.28-19.2,.81-7.22,2.44-14.36,3.14-21.59,.57-5.83,1.44-11.63,2-17.46,.42-4.35,1.14-8.67,2.45-13.46,1.26,1.31,.79,2.51,1.08,3.47-.45,8.76-2.05,17.37-3.15,26.05-1.25,9.82-2.81,19.61-3.79,29.45-.49,4.87-2.07,9-5.65,12.14-7.57,6.64-14.02,14.4-21.35,21.27-3.04,2.85-6.03,5.72-8.69,8.95-3.01,3.65-6.42,6.94-10.13,9.91Z"/>
  <path class="cls-57" d="M479.75,532.61c.56-.44,1.16-.84,1.66-1.33,15.59-15.58,31.18-31.16,46.76-46.75,.6-.6,1.1-1.31,1.65-1.96,2.45-.74,3.27,.16,2.59,2.57-2.1,1.45-1.52,3.98-2.39,5.92-3.08-1.32-3.88,2.48-6.24,2.79-.83,.29-1.39,.88-1.77,1.66-.31,.26-.57,.57-.86,.85l.03-.03c-6.93,7.51-14.31,14.57-21.79,21.52-6.01,5.13-11.43,10.88-16.9,16.56-6.38,6.62-13.54,12.38-19.95,18.96-.96,.98-1.91,2.25-3.64,1.78-.93-1.63,.12-2.77,1.11-3.74,6.2-6.06,12.31-12.23,18.88-17.91h0c.26-.32,.58-.58,.87-.87Z"/>
  <path class="cls-68" d="M523.77,493.84c1.39-2.15,3.38-3.65,5.16-5.26,1.17,.77,.7,1.76,1.07,2.48-2.28,18.02-4.53,36.04-6.84,54.06-1.12,8.79-2.17,17.6-3.81,26.32-1.55-3.13-1.01-6.49-.49-9.62,.68-4.09,.72-8.22,1.32-12.31,.99-6.75,1.29-13.6,2.52-20.33,.46-2.52,.5-5.13,.69-7.65,.55-7.4,2.36-14.66,2.14-22.14-.06-2.1-.36-3.95-1.77-5.54Z"/>
  <path class="cls-2" d="M532.4,485.13c-.07-1.65-.95-2.5-2.59-2.57,2.79-3.24,5.54-6.52,8.39-9.71,2.09-2.34,4.5-4.37,6.26-7.05,1.68-2.54,4.57-3.87,6.7-5.97,3.38-3.32,6.74-6.65,10.04-10.04,3.17-3.26,7.34-5.5,9.72-9.59,.49-.84,1.42-.89,2.09,.07-1.79,2.98-4.24,5.39-6.67,7.84-9.07,9.17-17.58,18.86-26.16,28.49-2.55,2.86-4.42,6.4-7.78,8.52Z"/>
  <path class="cls-10" d="M376.03,676.59c.66-3.89,2.8-7.18,4.71-10.47,6.09-10.47,12.43-20.8,18.69-31.17,.74-1.22,1.6-2.37,1.85-3.82,1.86-6.06,6.13-10.68,9.69-15.67,9.68-13.57,20.67-26.07,31.82-38.45,4.13-4.59,8.57-8.88,12.52-13.61,.21-.34,.45-.67,.7-.98,.37-.48,.78-.93,1.19-1.36,8.67-9.76,17.99-18.87,27.58-27.72,4-3.69,7.1-8.29,11.18-11.94,1.17-1.05,2.13-2.35,3.61-3.04,.65-.15,1.24-.08,1.72,.42-3.72,6.99-8.87,12.99-13.63,19.24-9.02,11.83-18.2,23.51-26.25,36.08-7.71,12.04-15.63,23.98-24.37,35.33-4.45,5.78-8.65,11.75-13.1,17.53-4.27,5.55-8.66,11.01-13.12,16.41-8.77,10.59-17.68,21.04-27.3,30.88-1.98,2.02-3.17,4.87-6.49,5.14-.33-.92-.65-1.85-.98-2.77Z"/>
  <path class="cls-26" d="M501.29,518.76c-.53,.02-1.06,.05-1.59,.07-.84-.33-.53-1.19-.82-1.77,6.59-5.95,12.5-12.61,19.31-18.32,.98-.82,1.71-1.95,2.98-2.42-1.36,3.7-4.41,6.14-6.9,8.95-4.14,4.67-9.02,8.64-12.99,13.49Z"/>
  <path class="cls-26" d="M521.15,496.35c.29-.28,.57-.57,.86-.85-.29,.28-.57,.57-.86,.85Z"/>
  <path class="cls-55" d="M408.99,372.95c.04-7.88,1.2-15.64,2.33-23.42,1.14-7.86,3.97-14.92,8.7-21.24,3.81-5.1,8.48-9.35,13.62-13.04,3.95-2.83,7.7-5.93,11.98-8.33,3.03-1.7,4.87-4.78,6.66-7.76,2-3.31,4.13-6.55,6.24-9.79,.55-.85,1.27-1.56,2.26-1.93,1.15,1.71-.06,3.02-.82,4.32-14.87,25.27-29.5,50.68-45.19,75.46-1.43,2.26-2.19,5.52-5.78,5.72Z"/>
  <path class="cls-27" d="M408.99,372.95c1.3-.74,2.05-1.94,2.84-3.16,8.14-12.66,15.99-25.49,23.56-38.5,6.64-11.39,13.51-22.64,20.17-34.03,1.87-3.2,4.15-6.2,5.22-9.83,1.7-2.32,3.4-4.64,5.1-6.96,1.35-1.18,2.86-2.43,4.46-.72,1.41,1.51,.63,3.23-.39,4.73-1.77,2.62-3.28,5.4-4.88,8.12-4.77,9.46-10.86,18.13-16.39,27.13-5.75,9.37-11.53,18.72-17.3,28.08-5.67,6.62-9.75,14.29-14.26,21.67-2.45,4-4.89,8-7.33,12-1.45,.99-2.49,.34-3.39-.85,0-.27,0-.55,0-.82,.27-.3,.52-.61,.75-.94,.62-1.98,1.23-3.96,1.85-5.93Z"/>
  <path class="cls-34" d="M465.06,292.62c.51-2.72,2.03-4.97,3.39-7.3,.43-.73,.9-1.45,1.3-2.2,.47-.91,.77-1.94,.1-2.82-.81-1.07-1.79-.31-2.71-.02-.4,.12-.84,.14-1.26,.2,.8-3.23,3.03-5.69,4.62-8.49,2.29-4.03,5.37-7.62,6.68-12.18,.27-.3,.57-.58,.83-.89,0,0,0,0,0,0,1.64-.64,2.19-2.29,2.95-3.58,6.98-11.87,15.33-22.77,23.66-33.69,1.32-1.74,2.88-3.4,5.34-4.84-.29,2.8-1.55,4.52-2.62,6.32-2.94,4.91-6.93,9.14-9.19,14.48-.44,1.05-1.17,2-1.12,3.22-10.13,16.45-19.24,33.52-29.99,49.59-.56,.84-.98,1.76-1.96,2.2Z"/>
  <path class="cls-41" d="M406.39,380.64c1.13,.28,2.26,.57,3.39,.85-4.17,8.46-9.16,16.38-14.99,23.9-1.91-1.36-1.42-2.81-.8-4.33,1.19-2.91,2.44-5.78,4.19-8.43,2.68-4.04,5.08-8.27,8.22-12Z"/>
  <path class="cls-41" d="M407.14,378.88c-.25,.31-.5,.62-.75,.94,.25-.31,.5-.62,.75-.94Z"/>
  <path class="cls-54" d="M478,258.92c-.28,.3-.55,.59-.83,.89,.28-.3,.55-.59,.83-.89Z"/>
  <path class="cls-36" d="M357.28,377.24c-.54,1.36-1.54,2.41-2.54,3.41-6.15,6.2-10.71,13.73-16.77,20.01-1.37,1.42-2.58,3.05-3.3,4.96-3.86,4.01-7.78,7.98-10.97,12.58-.24,.35-.45,.74-.74,1.05-7.34,7.65-13.54,16.28-20.2,24.48-5.91,7.28-13.05,13.69-17.33,22.26-1.51,2.92-3.45,5.4-6.62,6.68-5.84,1.68-9.56,6.52-14.36,9.76-1.88,1.27-3.66,2.66-5.78,3.5-7.61,4.31-14.24,10.01-21.32,15.08-8.47,6.06-16.69,12.48-25.67,17.82-1.23,.73-2.39,1.58-3.87,1.73,2.51-3.34,5.48-6.22,8.79-8.76,.57-.43,1.19-.82,1.67-1.35,5.91-6.48,12.67-12.06,19.06-18.02,6.61-6.16,12.81-12.77,19.6-18.7,6.18-5.39,11.65-11.47,17.68-16.98,11.14-10.16,21.74-20.86,32.34-31.56,5.51-5.57,10.71-11.45,16.26-16.99,3.33-3.33,6.99-6.34,10.62-9.35,1.11-.92,2.35-1.73,3.17-2.87,4.08-5.62,9.46-9.99,14.21-14.97,1.67-1.76,3.51-3.37,6.07-3.76Z"/>
  <path class="cls-1" d="M278.7,472.23c2.24-2.09,4.48-4.17,6.72-6.26,.15,2.73-.95,5.07-2.58,7.08-3.78,4.66-6.68,9.95-10.36,14.66-4.47,5.72-9.21,11.23-13.79,16.87-2.07,2.54-4.08,5.13-6.02,7.78-3.64,4.97-7.77,9.49-12.11,13.84-2.71,2.72-5.83,4.54-9.5,5.51,.37-1.28,1.26-2.24,2.07-3.22,6-7.27,12.07-14.5,18.05-21.78,4.26-5.19,8.45-10.44,12.64-15.69,.79-.99,1.69-1.96,1.94-3.29,3.29-6.02,7.84-10.98,12.93-15.5Z"/>
  <path class="cls-42" d="M278.7,472.23c-3.78,5.61-8.11,10.75-12.93,15.5-2.45-.29-4.58-1.84-7.1-1.81,5.57-4.89,11.42-9.42,17.53-13.61,.86-.59,1.63-1.33,2.5-.07Z"/>
  <path class="cls-30" d="M616.74,242.66c2.68,7.02,5.35,14.04,8.06,21.04,.51,1.31,1.18,2.57,1.78,3.85,2.97,7.91,5.94,15.82,8.92,23.73,2.08,5.5,4.15,11.01,6.27,16.49,.71,1.84,.78,3.37-.42,5.2-4.78,7.32-11.18,13.07-17.61,18.82-.74,.66-1.59,.52-2.44,.53-1.35,.34-2.54-.18-3.73-.68-17.69-7.53-35.8-13.95-53.8-20.66-2.14-.8-4.41-1.45-5.44-3.84-11.09-19.62-20.79-39.95-31.04-60-1.2-2.35-.79-3.89,.6-5.81,4.77-6.55,10.96-11.76,16.33-17.74,1.24-1.38,2.52-.93,3.93-.53,9.09,2.62,18.18,5.21,27.27,7.83,12.8,3.7,25.59,7.43,38.4,11.14,.96,.28,1.95,.42,2.93,.63Z"/>
  <path class="cls-14" d="M558.33,307.14c1.79,1.21,3.76,2.02,5.78,2.77,17.99,6.71,36.1,13.12,53.77,20.68,1.17,.5,2.48,.77,3.42,1.73q2.24,2.41,4,9.88c-2.11,.64-3.62,1.85-4.3,4.21-.73,2.53-3.43,2.61-5.4,2.81-3.16,.32-5.17,1.42-5.56,4.72-.15,1.27-.95,1.59-2.08,1.68-1.38,.11-3.11-.59-4.01,.85-.91,1.44,.91,2.5,1.28,4.09-2.01,.35-3.79,.5-5.55-.22-2.09-.85-3.66-.17-4.8,1.63-.79,1.25-1.39,2.57-3.3,1.76-.98-.41-1.6,.36-2.07,1.11-1.38,2.18-3.52,3.22-5.86,4.04-1.89,.67-3.7,1.55-5.56,2.29-2.92,1.15-5.78,2.46-9.1,1.79-2.16-.44-3.54,.46-4.03,2.77-.42,1.98-1.66,2.56-3.47,1.36-1.59-1.05-2.92-.68-4.21,.64-1.23,1.26-2.77,2.04-4.6,2.06-1.83,.03-3.42,.75-4.59,2.06-1.41,1.57-2.88,1.33-4.13,.18-1.68-1.55-3.3-1.22-5.14-.52-2.12,.8-4.11,2.08-6.56,1.83-1.01-.1-1.47,.73-1.59,1.68-.28,2.3-1.9,2.74-3.76,2.51-2.72-.33-4.68,.76-6.37,2.78-1.42,1.7-3,3.17-5.54,1.99-1.18-.55-1.91,.25-2.4,1.2-1,1.94-2.68,2.99-4.68,3.51-2.71,.69-4.59,2.23-5.37,4.87-1.41,.15-2.29-.78-3.38-1.07-1.93-.5-4.02,.35-4.31,1.9-.89,4.8-4.85,5.21-8.23,6.37-1.65,.57-2.93,1.24-3.38,2.9-.45,1.68-1.55,2.1-3.09,2.47-1.97,.48-3.91,.8-5.94,.76-1.24-.02-2.64-.35-3.46,1.09,.09,1.6,1.99,2.02,2.34,3.7-1.57,.73-2.71-.35-3.75-1.08-1.34-.94-2.43-.65-2.58,.72-.48,4.33-3.5,5.21-6.99,5.85-3.39,.62-5.88,2.5-7.89,5.42-1.83,2.66-4.48,4.75-6.81,6.99-2.66,2.56-5.62,4.79-7.49,7.92-1.64-.37,.14-1.8-1.05-2.14,4.69-3.63,7.95-8.59,11.99-12.83,5.23-5.47,9.55-11.76,15.73-16.39,3.66-2.74,6.26-6.7,9.25-10.15,3.54-4.09,6.95-8.34,10.5-12.44,1.46-.27,2.33-1.14,2.6-2.6,5.44-3.88,9.26-9.37,13.61-14.26,4.84-5.43,10.55-10.15,14.36-16.49,.51-.84,1.22-1.66,2.03-2.21,4.69-3.19,7.91-7.83,11.75-11.85,8.51-8.91,16.96-17.89,25.23-27.02,2.56-2.83,4.92-6.06,4.73-10.3Z"/>
  <path class="cls-62" d="M349.36,540.35c.52-.23,1.01-.57,1.55-.67,1.27-.24,1.98,.18,1.42,1.6-.82,2.04-2.37,3.53-4.13,4.7-1.28,.85-2.11,.16-2.29-1.31,1.15-1.44,2.3-2.88,3.45-4.32Z"/>
  <path class="cls-3" d="M486.63,389.26c1.24,.92,.48,1.67-.23,2.38-.7,.71-1.46,1.47-2.37,.23,.59-1.15,1.45-2.01,2.6-2.6Z"/>
  <path class="cls-29" d="M490.08,471.29c.71,1.01,1.6,.81,2.59,.45,2.87-1.04,5.75-2.03,8.63-3.04,4.65-.04,8.96-1.82,13.41-2.79,6.42-1.41,12.89-2.58,19.27-4.14,10-2.44,17.92-8.19,24.19-16.24,1.31-1.68,2.82-3.24,3.63-5.31,.61-1.56,1.9-2.02,3.68-1.4-.73,2.27-2.19,4.07-3.56,5.81-2.39,3.03-5.02,5.89-7.69,8.68-4.85,5.08-9.34,10.47-14.08,15.65-3.85,4.21-8.14,8.12-12.69,11.58-4.43,3.37-9,6.6-13.86,9.41-2.51,1.45-4.87,2.25-7.69,2.08-1.29-.08-2.61-.13-3.88,.05-2.6,.36-3.85,2.23-2.63,4.54,1.27,2.4,.32,3.73-1.35,5.11-.44,.37-.81,.87-1.3,1.12-5.54,2.76-10.08,7.03-15.36,10.17-1.2,.71-2.68,1.31-4.04,1.33-2.71,.05-4.37,1.49-5.38,3.64-1.51,3.21-3.61,5.52-6.75,7.44-2.86,1.74-5.24,4.41-8.08,6.34-3.16,2.15-6.74,3.7-8.31,7.73-.67,1.72-2.76,2.33-4.72,2.6-2.19,.31-4.71,.2-5.2,3.33-.16,.99-1.35,.93-2.09,1.29-3.89,1.86-7.6,3.83-10.77,6.97-3.03,3-6.77,5.37-11.3,5.6-1.79,.09-2.98,.93-4.02,2.15-3.95,4.62-9.56,7.32-13.64,11.8-.87,.95-2.2,1.29-3.44,1.71-2.18,.74-4.27,1.58-5.38,3.93-.75,1.59-2.34,1.98-4,2.04-3.92,.16-7.22,1.64-9.8,4.66-.84,.98-1.88,1.73-2.97,2.46-3.71,2.49-7.16,5.27-9.26,9.39-.76,1.49-1.93,2.37-3.71,2.57-1.86,.21-3.26,1.07-3.15,3.32,.09,1.77-1.19,2.57-2.58,3.06-2.75,.96-4.45,3-5.9,5.36-.45,.73-.87,1.64-1.55,2.02-3.67,2.02-5.4,5.32-6.69,9.12-1.08,3.15-3.62,5.48-5.5,8.17-.79,1.13-2.05,.97-3.03,.06-1.28-1.19-2.63-2.22-4.38-2.62-3.26-3.21-5.88-6.98-8.89-10.37-3.31-3.73-6.76-7.36-10.03-11.15-.74-.86-1.51-1.69-2.26-2.53-.88-1.78-3.25-2.29-3.73-4.41,5.7-1.34,10.45-4.52,15.22-7.74,6.64-4.49,13.06-9.28,19.4-14.18,10.97-8.48,21.99-16.89,33-25.32,8.17-6.26,16.64-12.16,24.46-18.83,8.06-6.88,16.91-12.72,24.75-19.88,4.95-4.51,10.63-8.22,15.9-12.38,5.61-4.43,11.07-9.03,16.7-13.44,7.47-5.84,15.28-11.14,24.32-14.34,1.09,1.55,2.5,.98,3.86,.57,3.01-.91,5.93-2.08,8.88-3.16,.56-.19,1.13-.34,1.71-.43,.41-.04,.75,.1,1.04,.39Z"/>
  <path class="cls-77" d="M488.34,472.13c-3.78,1.32-7.57,2.64-11.35,3.97-2.17,.77-2.5-.46-2.41-2.18,5.02-2.07,9.22-5.38,13.41-8.74,2.31-1.85,4.54-3.82,7.21-5.17,17.31-3.7,33.5-10.01,46.74-22.07,5.13-4.68,8.3-11.25,12.93-16.53,1.52-1.73,.27-3.16-.88-4.5,8.14-5.94,15.87-12.42,24.13-18.21,2.78-1.95,5.31-4.27,7.85-6.54,1.29-1.15,2.62-2.18,4.17-2.94,1.68,0,3.35,0,5,0,.32,1.07-.17,1.71-.89,2.29-7.01,5.55-12.93,12.26-19.13,18.64-3.16,3.25-5.33,7.45-8.23,10.99-3.99,4.87-7.34,10.24-11.67,14.85-1.95,2.08-2.76,5.02-5.14,6.84-5.56,4.24-9.99,9.94-16.6,12.82-5.53,2.41-11.18,4.59-17.02,6.01-8.39,2.04-16.38,5.21-24.52,7.97-.88,.3-1.48,.84-1.86,1.67-.29,0-.57,.01-.86,.01-.27,.3-.61,.53-.89,.83Z"/>
  <path class="cls-13" d="M554,416.92c3.27,.85,4.03,2.73,1.72,5.4-1.77,2.05-3.4,4.22-5.21,6.24-.57,.64-1.21,1.25-1.62,1.99-6.6,11.62-17.72,17.35-29.21,22.72-6.25,2.91-12.97,4.47-19.27,7.18-1.7,.73-3.59,1.12-5.2-.43,1.71-2.4,4.25-3.81,6.6-5.39,16.3-10.92,31.72-23.05,47.63-34.51,1.51-1.09,3.04-2.13,4.56-3.2Z"/>
  <path class="cls-76" d="M478.88,533.48c-5.24,6.21-11.4,11.52-16.98,17.41-1.15,1.21-2.76,2.11-2.94,4.04-.28,2.06-2.01,3.07-3.26,4.4-6.7,7.11-14.18,13.46-20.38,21.06-11.61,12.32-24.02,23.81-36.55,35.17-3.5,3.17-6.48,6.93-10.59,9.41-6.83,6.47-14.29,12.28-20.23,19.68-2.4,2.99-4.97,5.88-8.39,7.86-1.37,.79-2.12,2.3-3,3.6-1.21,1.79-2.5,3.49-4.61,4.33,.01-.62-.38-.84-.9-.94-.54-.87-1.07-1.73-1.61-2.6,3.42-.43,6.23-1.73,8.09-4.89,1.81-3.07,4.19-5.64,6.83-8.12,4.05-3.8,7.31-8.41,11.19-12.41,4.57-4.71,8.01-10.52,13.72-14.12,.36-.23,.65-.56,.95-.88,7.05-7.57,14.88-14.33,22.45-21.33,9.8-9.08,18.8-18.96,28.7-27.88,5.87-5.29,11.22-11.09,17.1-16.34,6.08-5.43,12.19-10.84,18.11-16.45,.66-.62,1.39-.99,2.3-.98Z"/>
  <path class="cls-4" d="M277.78,599.85c2.79,.79,4.3,3.09,5.93,5.19,2.79,3.6,6.19,6.6,9.45,9.73,.46,.45,1.27,.53,1.93,.78-.67,1.07-1.55,1.9-2.65,2.52-1.8-.04-2.85-1.31-3.72-2.56-3.64-5.22-7.67-10.17-10.92-15.66Z"/>
  <path class="cls-70" d="M456.46,562.84c-.05,.91-.49,1.63-1.12,2.26-4.2,4.12-8.07,8.55-12.03,12.89-13.83,15.14-27,30.79-38.41,47.87-1.18,1.77-1.73,3.99-3.62,5.27-.23-.55-.43-1.89-1.15-.97-3.45,4.37-7.19,8.47-10.87,12.64-4.34,4.91-8.07,10.3-12.61,15.08-3.34,3.52-6.42,7.23-10.63,9.77-1.07,.65-1.99,1.82-3.43,.93-1.33-.82-1.12-2.2-1.14-3.47-.02-1,0-2,0-3.01,0,0,0,0,0,0,.33-.24,.55-.59,.85-.86,3.37-3.88,7.09-7.4,10.95-10.81,4.7-4.16,9.18-8.58,13.22-13.41,4.68-6.19,10.34-11.52,15.6-17.15,14.48-15.49,28.13-31.71,42.51-47.28,2.47-2.97,4.97-5.91,7.85-8.48,1.1-.99,2.18-2.49,4.03-1.25Z"/>
  <path class="cls-35" d="M445.19,573.12c-2.51,2.94-4.87,6.02-7.55,8.79-6.69,6.9-12.7,14.39-19.02,21.61-2.83,3.23-5.86,6.3-8.77,9.45-7.4,8-14.5,16.32-22.63,23.63-.21,.19-.5,.27-.75,.4,.79-2.88,2.83-4.89,4.84-6.92,1.2-1.22,2.57-2.3,3.23-3.97,.32-.8,.81-1.62,.07-2.37-.69-.69-1.59-.52-2.42-.25-1.35,.44-2.49,1.46-4,1.47,1.55-2.44,3.78-4.27,5.87-6.19,13.81-12.66,27.32-25.64,40.74-38.71,2.31-2.93,5-5.5,7.79-7.96,1.14-1.01,2.76-1.9,2.61,1.02Z"/>
  <path class="cls-21" d="M362.3,661.22c-.28,.29-.56,.58-.85,.86,.28-.29,.56-.58,.85-.86Z"/>
  <path class="cls-76" d="M479.75,532.61c-.29,.29-.58,.58-.87,.87,.29-.29,.58-.58,.87-.87Z"/>
  <path class="cls-22" d="M445.19,573.12c-.07-.79-.3-1.35-1.28-1-1.24,.44-2.04,1.43-2.97,2.28-2.07,1.87-3.67,4.23-6.14,5.66-.09-1.12,.58-1.86,1.3-2.58,7.16-7.18,14.32-14.36,21.49-21.53,.4-.4,.91-.68,1.37-1.02,1.09-.18,1.65-1.09,2.38-1.75,11.2-10.31,22.1-20.92,32.77-31.77,1.51-1.53,3.18-2.89,4.78-4.34,.62,.43,.73,1.1,.82,1.77-6.46,6.08-12.09,12.95-18.47,19.15-7.37,7.16-15.22,13.92-21.71,21.97-.62,.77-1.47,1.35-2.22,2.01-.3,.29-.66,.51-.88,.88,0,0,.03,0,.03,0-1.64-.09-2.49,1.13-3.45,2.12-2.63,2.7-5.22,5.44-7.82,8.17Z"/>
  <path class="cls-70" d="M456.43,562.85c.29-.29,.58-.59,.88-.88-.29,.29-.58,.59-.88,.88Z"/>
  <path class="cls-40" d="M488.34,472.13c.3-.28,.59-.55,.89-.83-.3,.28-.59,.55-.89,.83Z"/>
</svg>