<?xml version="1.0" encoding="UTF-8" ?>
<!DOCTYPE svg PUBLIC "-//W3C//DTD SVG 1.1//EN" "http://www.w3.org/Graphics/SVG/1.1/DTD/svg11.dtd">
<svg width="952pt" height="190pt" viewBox="0 0 952 190" version="1.1" xmlns="http://www.w3.org/2000/svg">
<path fill="#fd6f44" stroke="#fd6f44" stroke-width="0.09375" opacity="1.00" d=" M 0.82 4.03 C 6.85 4.43 13.45 2.67 18.98 5.83 C 22.70 7.99 24.54 12.03 26.51 15.65 C 41.52 44.97 56.48 74.33 71.50 103.64 C 72.81 106.24 74.11 108.99 73.99 111.98 C 74.11 116.02 71.93 119.58 70.15 123.04 C 68.65 125.74 67.67 128.77 65.58 131.11 C 43.99 88.76 22.44 46.37 0.82 4.03 Z" />
<path fill="#fbe5d6" stroke="#fbe5d6" stroke-width="0.09375" opacity="1.00" d=" M 188.99 10.96 C 191.35 6.70 196.14 4.23 200.93 4.03 C 204.45 3.92 207.97 4.05 211.49 3.98 C 205.43 16.30 198.82 28.36 193.01 40.80 C 193.17 40.25 193.48 39.15 193.63 38.60 C 187.82 37.56 182.06 36.21 176.24 35.17 C 180.75 27.24 184.49 18.90 188.99 10.96 Z" />
<path fill="#fbe5d6" stroke="#fbe5d6" stroke-width="0.09375" opacity="1.00" d=" M 225.85 4.00 C 268.26 4.00 310.67 3.99 353.08 4.01 C 365.47 3.92 377.78 8.63 386.95 16.96 C 397.72 26.42 404.08 40.74 403.64 55.10 C 403.63 63.97 400.62 72.56 396.25 80.20 C 390.17 78.97 384.11 77.59 378.00 76.50 C 384.60 69.47 387.89 59.40 386.48 49.85 C 385.54 41.95 381.57 34.54 375.78 29.13 C 369.60 23.58 361.33 20.46 353.01 20.58 C 313.72 20.51 274.43 20.64 235.14 20.52 C 231.16 20.69 226.94 18.00 226.16 13.95 C 225.74 10.65 225.82 7.32 225.85 4.00 Z" />
<path fill="#fbe5d6" stroke="#fbe5d6" stroke-width="0.09375" opacity="1.00" d=" M 432.69 4.02 C 437.75 4.27 444.12 2.60 447.93 6.94 C 451.34 10.42 450.16 15.66 450.38 20.05 C 450.55 47.80 449.95 75.56 450.81 103.30 C 450.35 99.26 450.51 95.18 450.09 91.14 C 444.25 90.08 438.45 88.85 432.65 87.59 C 432.91 59.74 432.57 31.88 432.69 4.02 Z" />
<path fill="#fbe5d6" stroke="#fbe5d6" stroke-width="0.09375" opacity="1.00" d=" M 634.88 8.82 C 654.70 1.18 676.32 4.48 697.03 4.00 C 714.53 3.29 731.68 9.35 746.27 18.70 C 762.38 29.44 775.21 45.33 781.54 63.69 C 788.00 81.99 788.61 102.33 783.17 120.97 C 779.61 134.08 772.74 146.07 764.06 156.45 L 764.03 156.42 C 762.72 154.96 760.69 154.82 758.91 154.42 C 754.26 153.56 749.65 152.49 744.99 151.70 C 768.58 131.36 777.18 95.35 764.41 66.78 C 757.06 49.99 743.50 35.99 726.96 28.10 C 715.24 22.28 702.02 19.68 688.97 20.06 C 678.30 20.20 667.59 19.56 656.95 20.64 C 638.28 22.68 620.89 32.48 608.63 46.57 C 599.30 57.74 592.71 71.43 591.03 85.96 C 589.53 97.68 590.70 109.84 594.96 120.89 C 588.93 119.68 582.95 118.25 576.88 117.29 L 576.65 118.38 L 576.53 118.97 C 573.66 104.85 572.57 90.13 575.91 75.98 C 582.40 45.52 605.36 18.98 634.88 8.82 Z" />
<path fill="#fbe5d6" stroke="#fbe5d6" stroke-width="0.09375" opacity="1.00" d=" M 793.13 4.00 C 844.42 4.00 895.71 4.00 947.00 4.00 C 946.99 8.88 947.03 13.76 946.97 18.65 C 898.96 18.60 850.95 18.63 802.94 18.63 C 800.12 18.72 796.99 17.97 795.26 15.56 C 792.55 12.35 793.28 7.88 793.13 4.00 Z" />
<path fill="#fd6f44" stroke="#fd6f44" stroke-width="0.09375" opacity="1.00" d=" M 173.74 39.72 C 174.53 38.18 175.35 36.65 176.24 35.17 C 182.06 36.21 187.82 37.56 193.63 38.60 C 193.48 39.15 193.17 40.25 193.01 40.80 C 169.40 87.78 145.25 134.51 121.40 181.38 C 120.01 184.03 118.47 187.24 115.18 187.78 C 109.69 188.11 104.18 187.87 98.68 187.88 C 99.13 186.64 99.59 185.41 100.17 184.23 C 124.76 136.10 149.13 87.85 173.74 39.72 Z" />
<path fill="#fbe5d6" stroke="#fbe5d6" stroke-width="0.09375" opacity="1.00" d=" M 894.97 68.85 C 901.30 64.30 909.39 64.54 916.82 64.69 C 882.97 98.27 849.37 132.10 816.17 166.32 C 810.65 164.96 805.03 164.03 799.50 162.71 C 825.92 136.05 853.03 110.07 879.53 83.49 C 884.48 78.41 889.43 73.28 894.97 68.85 Z" />
<path fill="#fd6f44" stroke="#fd6f44" stroke-width="0.09375" opacity="1.00" d=" M 354.00 87.13 C 363.14 87.45 371.61 82.70 378.00 76.50 C 384.11 77.59 390.17 78.97 396.25 80.20 C 393.77 84.51 390.39 88.21 387.47 92.22 C 395.42 97.93 403.14 104.37 408.01 113.03 C 415.79 125.29 416.38 141.13 411.56 154.60 C 405.08 174.09 385.43 187.71 365.03 187.96 C 318.64 188.01 272.24 187.82 225.84 187.81 C 226.28 183.22 224.65 177.82 227.84 173.93 C 229.11 172.43 230.91 171.11 232.94 171.02 C 272.29 170.91 311.65 171.15 351.00 170.86 C 357.99 170.71 365.07 171.41 371.96 169.91 C 384.40 167.14 394.59 156.43 396.84 143.89 C 397.90 136.61 397.35 128.85 393.60 122.36 C 388.37 111.77 376.84 104.59 365.02 104.62 C 334.01 104.21 303.00 103.85 271.99 104.01 C 268.75 104.45 265.67 102.45 264.22 99.64 C 262.18 95.82 263.17 91.33 263.12 87.21 C 293.41 87.12 323.71 87.27 354.00 87.13 Z" />
<path fill="#fbe5d6" stroke="#fbe5d6" stroke-width="0.09375" opacity="1.00" d=" M 677.47 83.49 C 683.12 81.71 689.47 87.24 688.62 93.07 C 688.29 97.08 684.92 100.43 681.03 101.15 C 675.49 101.96 669.97 96.53 670.94 90.97 C 671.19 87.34 674.29 84.72 677.47 83.49 Z" />
<path fill="#fd6f44" stroke="#fd6f44" stroke-width="0.09375" opacity="1.00" d=" M 432.65 87.59 C 438.45 88.85 444.25 90.08 450.09 91.14 C 450.51 95.18 450.35 99.26 450.81 103.30 C 453.37 127.15 467.10 150.10 488.43 161.62 C 499.48 168.02 512.29 170.79 524.97 171.02 C 537.33 170.97 549.69 171.01 562.04 171.00 C 565.34 170.96 569.04 172.35 570.56 175.48 C 572.71 179.27 571.73 183.77 571.90 187.92 C 556.95 188.10 542.00 187.91 527.05 187.97 C 510.39 188.21 493.61 184.12 479.15 175.79 C 459.04 164.11 443.21 144.85 436.63 122.45 C 432.78 111.28 432.28 99.31 432.65 87.59 Z" />
<path fill="#fd6f44" stroke="#fd6f44" stroke-width="0.09375" opacity="1.00" d=" M 576.88 117.29 C 582.95 118.25 588.93 119.68 594.96 120.89 C 599.49 132.39 606.33 143.12 615.71 151.27 C 629.16 163.35 646.87 170.80 665.03 171.01 C 675.02 171.00 685.01 170.97 695.01 171.02 C 713.32 170.95 731.29 163.79 744.99 151.70 C 749.65 152.49 754.26 153.56 758.91 154.42 C 760.69 154.82 762.72 154.96 764.03 156.42 C 749.38 173.29 728.29 184.65 706.01 186.88 C 688.66 186.96 671.31 187.06 653.96 186.90 C 617.44 182.81 584.90 154.26 576.65 118.38 L 576.88 117.29 Z" />
<path fill="#fd6f44" stroke="#fd6f44" stroke-width="0.09375" opacity="1.00" d=" M 793.06 187.89 C 792.43 179.14 793.37 169.53 799.50 162.71 C 805.03 164.03 810.65 164.96 816.17 166.32 C 814.51 168.21 812.93 170.34 810.62 171.47 L 810.17 171.65 C 810.31 171.83 810.60 172.17 810.74 172.35 C 820.50 172.14 830.26 172.31 840.02 172.22 C 844.01 172.16 848.00 172.68 851.91 173.51 C 874.75 178.26 897.64 182.76 920.45 187.67 C 905.34 188.40 890.19 187.79 875.07 187.99 C 847.73 187.95 820.40 188.04 793.06 187.89 Z" />
<path fill="#fbe5d6" stroke="#fbe5d6" stroke-width="0.09375" opacity="1.00" d=" M 810.17 171.65 L 810.62 171.47 C 811.20 171.59 812.36 171.83 812.94 171.96 C 857.59 172.36 902.26 172.24 946.93 172.25 C 947.07 177.42 946.98 182.59 946.99 187.76 C 938.14 187.68 929.29 187.87 920.45 187.67 C 897.64 182.76 874.75 178.26 851.91 173.51 C 848.00 172.68 844.01 172.16 840.02 172.22 C 830.26 172.31 820.50 172.14 810.74 172.35 C 810.60 172.17 810.31 171.83 810.17 171.65 Z" />
</svg>
